<svg width="169" height="209" viewBox="0 0 169 209" fill="none" xmlns="http://www.w3.org/2000/svg">
<g opacity="0.2" clip-path="url(#clip0_331_3191)">
<path d="M167.191 37.5966C169.12 43.8164 169.652 45.0898 168.454 53.764C161.883 101.321 115.181 164.55 86.0898 166.982C86.1176 166.98 86.1457 166.978 86.1738 166.975C82.1604 156.844 74.4387 140.788 74.7784 116.792C75.0836 95.2258 87.0894 83.2277 87.0894 83.2277C87.0894 83.2277 111.862 81.7849 135.822 69.8627C154.353 60.6418 165.499 40.4971 167.191 37.5966Z" fill="white"/>
<path d="M166.024 34.3684C165.988 34.2827 165.952 34.1971 165.916 34.112C164.725 36.4223 154.44 53.0654 130.175 62.7244C104.232 73.0519 89.4289 69.8625 89.4289 69.8625C89.4289 69.8625 74.6259 49.2907 54.3289 37.5963C37.4498 27.8713 13.2771 26.5781 5.80835 29.0782C19.0745 8.07373 48.5298 0 86.0898 0C123.65 0 155.359 8.69463 166.024 34.3684Z" fill="white"/>
<path d="M5.03624 30.3607C5.03194 30.3682 5.02767 30.3757 5.02342 30.3833C13.0395 30.5084 28.3136 34.1853 43.9513 41.9176C68.2161 53.9157 77.6779 75.4819 77.6779 75.4819C77.6779 75.4819 63.18 93.7069 64.2483 115.273C64.2483 133.194 78.2923 157.094 83.2282 167C54.1535 164.848 7.2248 101.445 0.637007 53.7638C-1.06341 41.4568 0.720149 37.8932 5.03624 30.3607Z" fill="white"/>
</g>
<defs>
<clipPath id="clip0_331_3191">
<rect width="169" height="209" fill="white"/>
</clipPath>
</defs>
</svg>
