<svg width="3580" height="550" viewBox="0 0 3580 550" fill="none" xmlns="http://www.w3.org/2000/svg">
<path d="M547.774 123.774C554.096 144.251 555.839 148.443 551.913 177C530.385 333.565 377.373 541.729 282.06 549.735C282.151 549.727 282.243 549.72 282.335 549.711C269.186 516.358 243.887 463.5 245 384.5C246 313.5 285.335 274 285.335 274C285.335 274 366.5 269.25 445 230C505.713 199.643 542.232 133.323 547.774 123.774Z" fill="url(#paint0_radial_1_68)"/>
<path d="M547.774 123.774C554.096 144.251 555.839 148.443 551.913 177C530.385 333.565 377.373 541.729 282.06 549.735C282.151 549.727 282.243 549.72 282.335 549.711C269.186 516.358 243.887 463.5 245 384.5C246 313.5 285.335 274 285.335 274C285.335 274 366.5 269.25 445 230C505.713 199.643 542.232 133.323 547.774 123.774Z" fill="url(#paint1_diamond_1_68)" fill-opacity="0.5"/>
<path d="M547.774 123.774C554.096 144.251 555.839 148.443 551.913 177C530.385 333.565 377.373 541.729 282.06 549.735C282.151 549.727 282.243 549.72 282.335 549.711C269.186 516.358 243.887 463.5 245 384.5C246 313.5 285.335 274 285.335 274C285.335 274 366.5 269.25 445 230C505.713 199.643 542.232 133.323 547.774 123.774Z" fill="url(#paint2_diamond_1_68)" fill-opacity="0.5"/>
<path d="M547.774 123.774C554.096 144.251 555.839 148.443 551.913 177C530.385 333.565 377.373 541.729 282.06 549.735C282.151 549.727 282.243 549.72 282.335 549.711C269.186 516.358 243.887 463.5 245 384.5C246 313.5 285.335 274 285.335 274C285.335 274 366.5 269.25 445 230C505.713 199.643 542.232 133.323 547.774 123.774Z" fill="url(#paint3_radial_1_68)"/>
<path d="M543.951 113.147C543.834 112.865 543.717 112.583 543.598 112.303C539.698 119.909 505.999 174.701 426.5 206.5C341.5 240.5 293 230 293 230C293 230 244.5 162.274 178 123.774C122.698 91.7574 43.5 87.5 19.0296 95.7307C62.4942 26.5802 159 0 282.06 0C405.119 0 509.01 28.6243 543.951 113.147Z" fill="url(#paint4_radial_1_68)"/>
<path d="M543.951 113.147C543.834 112.865 543.717 112.583 543.598 112.303C539.698 119.909 505.999 174.701 426.5 206.5C341.5 240.5 293 230 293 230C293 230 244.5 162.274 178 123.774C122.698 91.7574 43.5 87.5 19.0296 95.7307C62.4942 26.5802 159 0 282.06 0C405.119 0 509.01 28.6243 543.951 113.147Z" fill="url(#paint5_diamond_1_68)" fill-opacity="0.5"/>
<path d="M543.951 113.147C543.834 112.865 543.717 112.583 543.598 112.303C539.698 119.909 505.999 174.701 426.5 206.5C341.5 240.5 293 230 293 230C293 230 244.5 162.274 178 123.774C122.698 91.7574 43.5 87.5 19.0296 95.7307C62.4942 26.5802 159 0 282.06 0C405.119 0 509.01 28.6243 543.951 113.147Z" fill="url(#paint6_diamond_1_68)" fill-opacity="0.5"/>
<path d="M543.951 113.147C543.834 112.865 543.717 112.583 543.598 112.303C539.698 119.909 505.999 174.701 426.5 206.5C341.5 240.5 293 230 293 230C293 230 244.5 162.274 178 123.774C122.698 91.7574 43.5 87.5 19.0296 95.7307C62.4942 26.5802 159 0 282.06 0C405.119 0 509.01 28.6243 543.951 113.147Z" fill="url(#paint7_radial_1_68)"/>
<path d="M16.5005 99.9528C16.4864 99.9774 16.4724 100.002 16.4585 100.027C42.7221 100.439 92.7652 112.544 144 138C223.5 177.5 254.5 248.5 254.5 248.5C254.5 248.5 207 308.5 210.5 379.5C210.5 438.5 256.513 517.182 272.685 549.794C177.426 542.711 23.671 333.974 2.08706 177C-3.4841 136.483 2.35946 124.751 16.5005 99.9528Z" fill="url(#paint8_radial_1_68)"/>
<path d="M16.5005 99.9528C16.4864 99.9774 16.4724 100.002 16.4585 100.027C42.7221 100.439 92.7652 112.544 144 138C223.5 177.5 254.5 248.5 254.5 248.5C254.5 248.5 207 308.5 210.5 379.5C210.5 438.5 256.513 517.182 272.685 549.794C177.426 542.711 23.671 333.974 2.08706 177C-3.4841 136.483 2.35946 124.751 16.5005 99.9528Z" fill="url(#paint9_diamond_1_68)" fill-opacity="0.5"/>
<path d="M16.5005 99.9528C16.4864 99.9774 16.4724 100.002 16.4585 100.027C42.7221 100.439 92.7652 112.544 144 138C223.5 177.5 254.5 248.5 254.5 248.5C254.5 248.5 207 308.5 210.5 379.5C210.5 438.5 256.513 517.182 272.685 549.794C177.426 542.711 23.671 333.974 2.08706 177C-3.4841 136.483 2.35946 124.751 16.5005 99.9528Z" fill="url(#paint10_diamond_1_68)" fill-opacity="0.5"/>
<path d="M16.5005 99.9528C16.4864 99.9774 16.4724 100.002 16.4585 100.027C42.7221 100.439 92.7652 112.544 144 138C223.5 177.5 254.5 248.5 254.5 248.5C254.5 248.5 207 308.5 210.5 379.5C210.5 438.5 256.513 517.182 272.685 549.794C177.426 542.711 23.671 333.974 2.08706 177C-3.4841 136.483 2.35946 124.751 16.5005 99.9528Z" fill="url(#paint11_radial_1_68)"/>
<path d="M775.152 224.176V180.4H934.704V224.176H879.408V382H830.448V224.176H775.152Z" fill="black"/>
<path d="M991.422 384.88C975.87 384.88 962.43 382.096 951.102 376.528C939.966 370.768 931.326 362.704 925.182 352.336C919.038 341.968 915.966 329.776 915.966 315.76C915.966 294.256 922.59 277.36 935.838 265.072C949.086 252.784 967.326 246.64 990.558 246.64C1013.41 246.64 1030.97 252.496 1043.26 264.208C1055.74 275.92 1061.98 292.432 1061.98 313.744C1061.98 315.856 1061.98 317.872 1061.98 319.792C1061.98 321.712 1061.89 323.44 1061.69 324.976H960.606C961.758 334 964.926 341.008 970.11 346C975.294 350.992 982.11 353.488 990.558 353.488C1005.92 353.488 1016.86 347.728 1023.39 336.208L1062.56 345.712C1048.54 371.824 1024.83 384.88 991.422 384.88ZM989.694 275.728C973.95 275.728 964.446 284.08 961.182 300.784H1015.33C1014.56 293.104 1011.87 287.056 1007.26 282.64C1002.85 278.032 996.99 275.728 989.694 275.728Z" fill="black"/>
<path d="M1291.01 296.752V382H1247.24V301.36C1247.24 293.488 1245.89 287.536 1243.2 283.504C1240.71 279.28 1236.48 277.168 1230.53 277.168C1224.77 277.168 1220.07 279.184 1216.42 283.216C1212.77 287.248 1210.95 293.296 1210.95 301.36V382H1167.17V301.36C1167.17 293.488 1165.83 287.536 1163.14 283.504C1160.64 279.28 1156.42 277.168 1150.47 277.168C1144.71 277.168 1140 279.184 1136.36 283.216C1132.71 287.248 1130.88 293.296 1130.88 301.36V382H1088.84V249.52H1130.88V269.104C1134.72 261.808 1139.81 256.24 1146.15 252.4C1152.48 248.368 1160.16 246.352 1169.19 246.352C1179.56 246.352 1187.81 248.176 1193.96 251.824C1200.29 255.472 1204.71 260.944 1207.2 268.24C1212 261.328 1217.96 255.952 1225.06 252.112C1232.16 248.272 1240.23 246.352 1249.25 246.352C1264.61 246.352 1275.36 250.768 1281.51 259.6C1287.84 268.432 1291.01 280.816 1291.01 296.752Z" fill="black"/>
<path d="M1368.29 445.36H1324.8V249.52H1368.29V270.832C1373.09 262.576 1379.23 256.24 1386.72 251.824C1394.4 247.216 1403.33 244.912 1413.5 244.912C1424.25 244.912 1434.43 247.6 1444.03 252.976C1453.63 258.16 1461.41 266.032 1467.36 276.592C1473.5 287.152 1476.57 300.208 1476.57 315.76C1476.57 331.312 1473.5 344.368 1467.36 354.928C1461.41 365.296 1453.63 373.168 1444.03 378.544C1434.43 383.92 1424.25 386.608 1413.5 386.608C1403.33 386.608 1394.4 384.4 1386.72 379.984C1379.23 375.376 1373.09 368.944 1368.29 360.688V445.36ZM1430.78 315.76C1430.78 305.392 1427.61 297.424 1421.28 291.856C1415.13 286.288 1407.74 283.504 1399.1 283.504C1394.3 283.504 1389.5 284.752 1384.7 287.248C1379.9 289.552 1375.97 293.104 1372.89 297.904C1369.82 302.512 1368.29 308.464 1368.29 315.76C1368.29 322.864 1369.82 328.816 1372.89 333.616C1375.97 338.416 1379.9 342.064 1384.7 344.56C1389.5 346.864 1394.3 348.016 1399.1 348.016C1407.74 348.016 1415.13 345.232 1421.28 339.664C1427.61 334.096 1430.78 326.128 1430.78 315.76Z" fill="black"/>
<path d="M1570.23 384.88C1554.68 384.88 1541.24 382.096 1529.91 376.528C1518.78 370.768 1510.14 362.704 1503.99 352.336C1497.85 341.968 1494.78 329.776 1494.78 315.76C1494.78 294.256 1501.4 277.36 1514.65 265.072C1527.9 252.784 1546.14 246.64 1569.37 246.64C1592.22 246.64 1609.79 252.496 1622.07 264.208C1634.55 275.92 1640.79 292.432 1640.79 313.744C1640.79 315.856 1640.79 317.872 1640.79 319.792C1640.79 321.712 1640.7 323.44 1640.51 324.976H1539.42C1540.57 334 1543.74 341.008 1548.92 346C1554.11 350.992 1560.92 353.488 1569.37 353.488C1584.73 353.488 1595.67 347.728 1602.2 336.208L1641.37 345.712C1627.35 371.824 1603.64 384.88 1570.23 384.88ZM1568.51 275.728C1552.76 275.728 1543.26 284.08 1539.99 300.784H1594.14C1593.37 293.104 1590.68 287.056 1586.07 282.64C1581.66 278.032 1575.8 275.728 1568.51 275.728Z" fill="black"/>
<path d="M1748.86 294.736C1746.56 292.432 1744.06 290.608 1741.38 289.264C1738.88 287.92 1735.71 287.248 1731.87 287.248C1725.54 287.248 1720.35 289.744 1716.32 294.736C1712.48 299.728 1710.56 307.024 1710.56 316.624V382H1667.65V249.52H1710.56V266.224C1714.78 260.08 1719.78 255.28 1725.54 251.824C1731.49 248.176 1737.63 246.352 1743.97 246.352C1748.77 246.352 1753.38 247.408 1757.79 249.52C1762.21 251.44 1765.57 254.032 1767.87 257.296L1748.86 294.736Z" fill="black"/>
<path d="M1783.46 199.984C1783.46 193.072 1785.86 187.408 1790.66 182.992C1795.65 178.576 1801.7 176.368 1808.81 176.368C1815.91 176.368 1821.86 178.576 1826.66 182.992C1831.65 187.408 1834.15 193.072 1834.15 199.984C1834.15 206.896 1831.65 212.56 1826.66 216.976C1821.86 221.2 1815.91 223.312 1808.81 223.312C1801.7 223.312 1795.65 221.2 1790.66 216.976C1785.86 212.56 1783.46 206.896 1783.46 199.984ZM1787.49 249.52H1829.83V382H1787.49V249.52Z" fill="black"/>
<path d="M1956.31 180.4H2004.98V339.952H2085.91V382H1956.31V180.4Z" fill="black"/>
<path d="M2096.37 315.76C2096.37 301.744 2099.64 289.552 2106.16 279.184C2112.88 268.816 2121.91 260.752 2133.24 254.992C2144.76 249.232 2157.72 246.352 2172.12 246.352C2186.71 246.352 2199.67 249.232 2211 254.992C2222.32 260.752 2231.25 268.816 2237.78 279.184C2244.5 289.552 2247.86 301.744 2247.86 315.76C2247.86 329.584 2244.5 341.68 2237.78 352.048C2231.25 362.416 2222.32 370.48 2211 376.24C2199.67 382 2186.71 384.88 2172.12 384.88C2157.72 384.88 2144.76 382 2133.24 376.24C2121.91 370.48 2112.88 362.416 2106.16 352.048C2099.64 341.68 2096.37 329.584 2096.37 315.76ZM2141.3 315.76C2141.3 325.936 2144.28 334 2150.23 339.952C2156.37 345.904 2163.67 348.88 2172.12 348.88C2180.56 348.88 2187.76 345.904 2193.72 339.952C2199.86 334 2202.93 325.936 2202.93 315.76C2202.93 305.584 2199.86 297.52 2193.72 291.568C2187.76 285.424 2180.56 282.352 2172.12 282.352C2163.67 282.352 2156.37 285.424 2150.23 291.568C2144.28 297.52 2141.3 305.584 2141.3 315.76Z" fill="black"/>
<path d="M2268.85 391.504H2311.18C2311.95 399.76 2315.02 405.904 2320.4 409.936C2325.77 413.968 2332.69 415.984 2341.13 415.984C2350.35 415.984 2358.13 412.912 2364.46 406.768C2370.99 400.624 2374.25 391.408 2374.25 379.12V358.384C2363.69 373.744 2348.53 381.424 2328.75 381.424C2318 381.424 2307.82 378.928 2298.22 373.936C2288.62 368.944 2280.85 361.456 2274.89 351.472C2268.94 341.296 2265.97 328.816 2265.97 314.032C2265.97 299.056 2268.94 286.576 2274.89 276.592C2280.85 266.608 2288.62 259.12 2298.22 254.128C2307.82 249.136 2318 246.64 2328.75 246.64C2348.53 246.64 2363.69 254.32 2374.25 269.68V249.52H2416.01V379.12C2416.01 396.208 2412.75 410.032 2406.22 420.592C2399.69 431.152 2390.86 438.832 2379.73 443.632C2368.78 448.432 2356.59 450.832 2343.15 450.832C2326.64 450.832 2313.1 448.336 2302.54 443.344C2291.98 438.352 2284.01 431.344 2278.64 422.32C2273.26 413.488 2270 403.216 2268.85 391.504ZM2311.76 314.032C2311.76 324.4 2314.83 332.368 2320.97 337.936C2327.31 343.504 2334.8 346.288 2343.44 346.288C2348.43 346.288 2353.23 345.136 2357.84 342.832C2362.64 340.336 2366.57 336.688 2369.65 331.888C2372.72 327.088 2374.25 321.136 2374.25 314.032C2374.25 306.736 2372.72 300.784 2369.65 296.176C2366.57 291.376 2362.64 287.824 2357.84 285.52C2353.23 283.024 2348.43 281.776 2343.44 281.776C2334.8 281.776 2327.31 284.56 2320.97 290.128C2314.83 295.696 2311.76 303.664 2311.76 314.032Z" fill="black"/>
<path d="M2446.93 199.984C2446.93 193.072 2449.33 187.408 2454.13 182.992C2459.12 178.576 2465.17 176.368 2472.28 176.368C2479.38 176.368 2485.33 178.576 2490.13 182.992C2495.12 187.408 2497.62 193.072 2497.62 199.984C2497.62 206.896 2495.12 212.56 2490.13 216.976C2485.33 221.2 2479.38 223.312 2472.28 223.312C2465.17 223.312 2459.12 221.2 2454.13 216.976C2449.33 212.56 2446.93 206.896 2446.93 199.984ZM2450.96 249.52H2493.3V382H2450.96V249.52Z" fill="black"/>
<path d="M2536.32 333.904C2546.49 342.352 2555.13 348.112 2562.24 351.184C2569.53 354.064 2575.49 355.504 2580.09 355.504C2588.73 355.504 2593.05 352.048 2593.05 345.136C2593.05 340.912 2591.04 337.552 2587.01 335.056C2582.97 332.368 2575.58 329.296 2564.83 325.84C2558.68 323.728 2552.73 321.04 2546.97 317.776C2541.21 314.512 2536.51 310.192 2532.86 304.816C2529.21 299.44 2527.39 292.528 2527.39 284.08C2527.39 271.984 2532.09 262.768 2541.5 256.432C2550.91 249.904 2562.72 246.64 2576.92 246.64C2588.25 246.64 2598.62 248.56 2608.03 252.4C2617.44 256.048 2625.98 260.656 2633.66 266.224L2618.11 294.736C2612.73 289.552 2606.4 285.232 2599.1 281.776C2592 278.32 2585.47 276.592 2579.52 276.592C2575.68 276.592 2572.7 277.36 2570.59 278.896C2568.67 280.432 2567.71 282.448 2567.71 284.944C2567.71 289.36 2570.3 292.624 2575.48 294.736C2580.86 296.848 2588.44 299.824 2598.24 303.664C2605.15 306.16 2611.48 309.04 2617.24 312.304C2623 315.568 2627.61 319.696 2631.07 324.688C2634.72 329.68 2636.54 336.304 2636.54 344.56C2636.54 358.576 2632.22 369.232 2623.58 376.528C2614.94 383.824 2602.65 387.472 2586.72 387.472C2572.32 387.472 2559.55 385.168 2548.41 380.56C2537.28 375.76 2527.2 369.808 2518.17 362.704L2536.32 333.904Z" fill="black"/>
<path d="M2644.91 249.52H2668.24V203.44H2710.28V249.52H2733.61V285.52H2710.28V382H2668.24V285.52H2644.91V249.52Z" fill="black"/>
<path d="M2749.56 199.984C2749.56 193.072 2751.96 187.408 2756.76 182.992C2761.75 178.576 2767.8 176.368 2774.9 176.368C2782 176.368 2787.96 178.576 2792.76 182.992C2797.75 187.408 2800.24 193.072 2800.24 199.984C2800.24 206.896 2797.75 212.56 2792.76 216.976C2787.96 221.2 2782 223.312 2774.9 223.312C2767.8 223.312 2761.75 221.2 2756.76 216.976C2751.96 212.56 2749.56 206.896 2749.56 199.984ZM2753.59 249.52H2795.92V382H2753.59V249.52Z" fill="black"/>
<path d="M2868.32 315.76C2868.32 326.32 2871.77 334.672 2878.69 340.816C2885.6 346.96 2893.95 350.032 2903.74 350.032C2911.61 350.032 2919.1 348.4 2926.21 345.136C2933.31 341.68 2938.78 336.784 2942.62 330.448V372.784C2938.01 376.432 2932.25 379.408 2925.34 381.712C2918.43 383.824 2909.98 384.88 2900 384.88C2885.21 384.88 2872.06 382 2860.54 376.24C2849.02 370.48 2839.9 362.416 2833.18 352.048C2826.65 341.68 2823.39 329.584 2823.39 315.76C2823.39 301.744 2826.65 289.648 2833.18 279.472C2839.9 269.104 2849.02 261.04 2860.54 255.28C2872.06 249.52 2885.21 246.64 2900 246.64C2909.98 246.64 2918.43 247.792 2925.34 250.096C2932.25 252.208 2938.01 254.896 2942.62 258.16V300.784C2938.78 294.448 2933.12 289.648 2925.63 286.384C2918.14 283.12 2910.85 281.488 2903.74 281.488C2897.21 281.488 2891.26 283.024 2885.89 286.096C2880.51 288.976 2876.19 293.008 2872.93 298.192C2869.85 303.376 2868.32 309.232 2868.32 315.76Z" fill="black"/>
<path d="M2980.97 333.904C2991.15 342.352 2999.79 348.112 3006.89 351.184C3014.19 354.064 3020.14 355.504 3024.75 355.504C3033.39 355.504 3037.71 352.048 3037.71 345.136C3037.71 340.912 3035.69 337.552 3031.66 335.056C3027.63 332.368 3020.24 329.296 3009.49 325.84C3003.34 323.728 2997.39 321.04 2991.63 317.776C2985.87 314.512 2981.17 310.192 2977.52 304.816C2973.87 299.44 2972.05 292.528 2972.05 284.08C2972.05 271.984 2976.75 262.768 2986.16 256.432C2995.57 249.904 3007.37 246.64 3021.58 246.64C3032.91 246.64 3043.28 248.56 3052.69 252.4C3062.09 256.048 3070.64 260.656 3078.32 266.224L3062.77 294.736C3057.39 289.552 3051.05 285.232 3043.76 281.776C3036.65 278.32 3030.13 276.592 3024.17 276.592C3020.33 276.592 3017.36 277.36 3015.25 278.896C3013.33 280.432 3012.37 282.448 3012.37 284.944C3012.37 289.36 3014.96 292.624 3020.14 294.736C3025.52 296.848 3033.1 299.824 3042.89 303.664C3049.81 306.16 3056.14 309.04 3061.9 312.304C3067.66 315.568 3072.27 319.696 3075.73 324.688C3079.37 329.68 3081.2 336.304 3081.2 344.56C3081.2 358.576 3076.88 369.232 3068.24 376.528C3059.6 383.824 3047.31 387.472 3031.37 387.472C3016.97 387.472 3004.21 385.168 2993.07 380.56C2981.93 375.76 2971.85 369.808 2962.83 362.704L2980.97 333.904Z" fill="black"/>
<path d="M3195.78 180.4H3244.45V339.952H3325.38V382H3195.78V180.4Z" fill="black"/>
<path d="M3328.07 249.52H3351.39V203.44H3393.44V249.52H3416.77V285.52H3393.44V382H3351.39V285.52H3328.07V249.52Z" fill="black"/>
<path d="M3427.53 315.76C3427.53 300.784 3430.5 288.208 3436.46 278.032C3442.41 267.664 3450.18 259.888 3459.78 254.704C3469.38 249.328 3479.56 246.64 3490.31 246.64C3509.9 246.64 3525.06 254.704 3535.82 270.832V157.36H3579.3V382H3535.82V360.688C3525.06 376.816 3509.9 384.88 3490.31 384.88C3479.56 384.88 3469.38 382.288 3459.78 377.104C3450.18 371.728 3442.41 363.856 3436.46 353.488C3430.5 343.12 3427.53 330.544 3427.53 315.76ZM3473.32 315.76C3473.32 326.128 3476.39 334.384 3482.54 340.528C3488.87 346.672 3496.36 349.744 3505 349.744C3509.99 349.744 3514.79 348.4 3519.4 345.712C3524.2 343.024 3528.14 339.184 3531.21 334.192C3534.28 329.008 3535.82 322.864 3535.82 315.76C3535.82 308.464 3534.28 302.32 3531.21 297.328C3528.14 292.336 3524.2 288.496 3519.4 285.808C3514.79 283.12 3509.99 281.776 3505 281.776C3496.36 281.776 3488.87 284.848 3482.54 290.992C3476.39 297.136 3473.32 305.392 3473.32 315.76Z" fill="black"/>
<defs>
<radialGradient id="paint0_radial_1_68" cx="0" cy="0" r="1" gradientUnits="userSpaceOnUse" gradientTransform="translate(277 282.31) rotate(90) scale(267.682 276.675)">
<stop stop-color="#9684B4"/>
<stop offset="0.375" stop-color="#6F5E8B"/>
<stop offset="0.695659" stop-color="#564277"/>
<stop offset="0.9375" stop-color="#483369"/>
</radialGradient>
<radialGradient id="paint1_diamond_1_68" cx="0" cy="0" r="1" gradientUnits="userSpaceOnUse" gradientTransform="translate(277 338.374) rotate(128.845) scale(205.67 212.774)">
<stop stop-color="white"/>
<stop offset="0.78125" stop-color="white" stop-opacity="0"/>
</radialGradient>
<radialGradient id="paint2_diamond_1_68" cx="0" cy="0" r="1" gradientUnits="userSpaceOnUse" gradientTransform="translate(277 344.381) rotate(90) scale(226.261 233.863)">
<stop stop-color="white"/>
<stop offset="0.848958" stop-color="white" stop-opacity="0"/>
</radialGradient>
<radialGradient id="paint3_radial_1_68" cx="0" cy="0" r="1" gradientUnits="userSpaceOnUse" gradientTransform="translate(277 342.379) rotate(90) scale(207.612 214.588)">
<stop stop-color="white"/>
<stop offset="0.327912" stop-color="white" stop-opacity="0"/>
</radialGradient>
<radialGradient id="paint4_radial_1_68" cx="0" cy="0" r="1" gradientUnits="userSpaceOnUse" gradientTransform="translate(277 282.31) rotate(90) scale(267.682 276.675)">
<stop stop-color="#9684B4"/>
<stop offset="0.375" stop-color="#6F5E8B"/>
<stop offset="0.695659" stop-color="#564277"/>
<stop offset="0.9375" stop-color="#483369"/>
</radialGradient>
<radialGradient id="paint5_diamond_1_68" cx="0" cy="0" r="1" gradientUnits="userSpaceOnUse" gradientTransform="translate(277 338.374) rotate(128.845) scale(205.67 212.774)">
<stop stop-color="white"/>
<stop offset="0.78125" stop-color="white" stop-opacity="0"/>
</radialGradient>
<radialGradient id="paint6_diamond_1_68" cx="0" cy="0" r="1" gradientUnits="userSpaceOnUse" gradientTransform="translate(277 344.381) rotate(90) scale(226.261 233.863)">
<stop stop-color="white"/>
<stop offset="0.848958" stop-color="white" stop-opacity="0"/>
</radialGradient>
<radialGradient id="paint7_radial_1_68" cx="0" cy="0" r="1" gradientUnits="userSpaceOnUse" gradientTransform="translate(277 342.379) rotate(90) scale(207.612 214.588)">
<stop stop-color="white"/>
<stop offset="0.327912" stop-color="white" stop-opacity="0"/>
</radialGradient>
<radialGradient id="paint8_radial_1_68" cx="0" cy="0" r="1" gradientUnits="userSpaceOnUse" gradientTransform="translate(277 282.31) rotate(90) scale(267.682 276.675)">
<stop stop-color="#9684B4"/>
<stop offset="0.375" stop-color="#6F5E8B"/>
<stop offset="0.695659" stop-color="#564277"/>
<stop offset="0.9375" stop-color="#483369"/>
</radialGradient>
<radialGradient id="paint9_diamond_1_68" cx="0" cy="0" r="1" gradientUnits="userSpaceOnUse" gradientTransform="translate(277 338.374) rotate(128.845) scale(205.67 212.774)">
<stop stop-color="white"/>
<stop offset="0.78125" stop-color="white" stop-opacity="0"/>
</radialGradient>
<radialGradient id="paint10_diamond_1_68" cx="0" cy="0" r="1" gradientUnits="userSpaceOnUse" gradientTransform="translate(277 344.381) rotate(90) scale(226.261 233.863)">
<stop stop-color="white"/>
<stop offset="0.848958" stop-color="white" stop-opacity="0"/>
</radialGradient>
<radialGradient id="paint11_radial_1_68" cx="0" cy="0" r="1" gradientUnits="userSpaceOnUse" gradientTransform="translate(277 342.379) rotate(90) scale(207.612 214.588)">
<stop stop-color="white"/>
<stop offset="0.327912" stop-color="white" stop-opacity="0"/>
</radialGradient>
</defs>
</svg>
