<svg width="400" height="495" viewBox="0 0 400 495" fill="none" xmlns="http://www.w3.org/2000/svg">
<g opacity="0.08" clip-path="url(#clip0_373_2960)">
<path d="M395.717 88.9858C400.284 103.707 401.544 106.721 398.707 127.252C383.155 239.812 272.618 389.468 203.763 395.224C203.829 395.218 203.895 395.213 203.961 395.207C194.462 371.228 176.186 333.227 176.99 276.431C177.713 225.386 206.129 196.989 206.129 196.989C206.129 196.989 264.763 193.574 321.472 165.355C365.332 143.531 391.714 95.8509 395.717 88.9858Z" fill="white"/>
<path d="M392.955 81.3453C392.871 81.1426 392.786 80.9398 392.7 80.7385C389.883 86.2067 365.538 125.599 308.107 148.46C246.703 172.904 211.666 165.355 211.666 165.355C211.666 165.355 176.629 116.664 128.589 88.9854C88.6384 65.9676 31.4251 62.9068 13.7474 68.8241C45.1466 19.1094 114.863 0 203.763 0C292.662 0 367.713 20.579 392.955 81.3453Z" fill="white"/>
<path d="M11.9201 71.8596C11.9099 71.8773 11.8998 71.895 11.8898 71.913C30.8628 72.2092 67.0144 80.9119 104.027 99.2131C161.458 127.611 183.853 178.655 183.853 178.655C183.853 178.655 149.539 221.791 152.067 272.836C152.067 315.253 185.307 371.82 196.99 395.266C128.174 390.174 17.1001 240.106 1.50771 127.252C-2.51694 98.1225 1.70449 89.6879 11.9201 71.8596Z" fill="white"/>
</g>
<defs>
<clipPath id="clip0_373_2960">
<rect width="400" height="494.675" fill="white"/>
</clipPath>
</defs>
</svg>
