<svg width="32" height="32" xmlns="http://www.w3.org/2000/svg">
    <path d="M13.333 16h-12M30.666 16h-12M10.666 6.667V4c0-1.467 1.2-2.667 2.667-2.667h5.333c1.467 0 2.667 1.2 2.667 2.667v2.667M30.666 28c0 .8-.533 1.333-1.333 1.333H2.666C2 29.333 1.333 28.8 1.333 28V8c0-.8.667-1.333 1.333-1.333h26.667c.8 0 1.333.533 1.333 1.333v20Z" stroke-width="2.667" stroke-miterlimit="10" stroke-linecap="round" stroke-linejoin="round"/>
    <path d="M18.667 17.333C18.667 18.8 17.467 20 16 20c-.666 0-1.333-.267-1.867-.8-.533-.534-.8-1.2-.8-1.867v-2.666C13.334 13.2 14.534 12 16 12c.667 0 1.334.267 1.867.8.533.534.8 1.2.8 1.867v2.666Z" stroke-width="2.667" stroke-miterlimit="10" stroke-linecap="round" stroke-linejoin="round"/>
</svg>
