<svg width="400" height="495" fill="none" xmlns="http://www.w3.org/2000/svg">
    <g opacity=".08" clip-path="url(#a)" fill="#fff">
        <path d="M395.717 88.986c4.567 14.721 5.827 17.735 2.99 38.266-15.552 112.56-126.089 262.216-194.944 267.972l.198-.017c-9.499-23.979-27.775-61.98-26.971-118.776.723-51.045 29.139-79.442 29.139-79.442s58.634-3.415 115.343-31.634c43.86-21.824 70.242-69.504 74.245-76.37Z"/>
        <path d="M392.955 81.345a60.52 60.52 0 0 0-.255-.606c-2.817 5.468-27.162 44.86-84.593 67.721-61.404 24.444-96.441 16.895-96.441 16.895s-35.037-48.691-83.077-76.37c-39.95-23.017-97.164-26.078-114.842-20.16C45.147 19.108 114.863 0 203.763 0c88.899 0 163.95 20.579 189.192 81.345Z"/>
        <path d="m11.92 71.86-.03.053c18.973.296 55.124 8.999 92.137 27.3 57.431 28.398 79.826 79.442 79.826 79.442s-34.314 43.136-31.786 94.181c0 42.417 33.24 98.984 44.923 122.43-68.816-5.092-179.89-155.16-195.482-268.014-4.025-29.13.196-37.564 10.412-55.392Z"/>
    </g>
    <defs>
        <clipPath id="a">
            <path fill="#fff" d="M0 0h400v494.675H0z"/>
        </clipPath>
    </defs>
</svg>
