<svg width="80" height="69" xmlns="http://www.w3.org/2000/svg">
    <path opacity=".5" fill-rule="evenodd" clip-rule="evenodd" d="M38.222.039c-.213.03-.723.087-1.133.126-.765.074-2.178.273-2.75.389-.179.035-.543.107-.81.158-.685.132-1.343.282-1.683.384-.16.048-.524.154-.81.235-.61.174-1.628.5-1.812.58a4.391 4.391 0 0 1-.388.134c-.142.043-.287.103-.32.134-.034.032-.123.057-.198.057a.355.355 0 0 0-.197.055c-.034.03-.164.091-.288.137-.125.045-.372.15-.55.232-.179.082-.6.27-.94.419-.579.254-2.286 1.119-2.427 1.23a6.46 6.46 0 0 1-.453.262c-.213.116-.68.397-1.036.624-.355.226-.704.447-.774.49-.07.044-.28.188-.466.322-.187.133-.37.243-.407.243-.038 0-.068.026-.068.059s-.11.126-.243.208a3.21 3.21 0 0 0-.404.297c-.088.081-.18.148-.205.148-.025 0-.083.037-.13.081a34.71 34.71 0 0 1-.798.661c-.392.319-.727.598-.744.621a6.297 6.297 0 0 1-.357.318c-.857.73-2.716 2.64-3.463 3.56-.124.153-.256.311-.293.35-.037.04-.32.408-.63.817-.31.41-.587.774-.615.81-.029.035-.211.297-.406.582-.194.285-.375.527-.402.54-.027.011-.049.048-.049.08 0 .034-.155.3-.344.594-.308.478-.443.7-.833 1.375-.062.107-.194.355-.293.55a3.6 3.6 0 0 1-.215.389c-.05.047-.788 1.575-1 2.071l-.291.68c-.062.142-.18.434-.26.647-.082.214-.186.476-.232.583a2.953 2.953 0 0 0-.128.388 1.087 1.087 0 0 1-.09.26 2.078 2.078 0 0 0-.129.355c-.046.16-.108.35-.138.421a4.12 4.12 0 0 0-.13.42c-.04.161-.098.35-.127.422-.03.07-.101.318-.16.55l-.167.647a29.64 29.64 0 0 0-.544 2.622c-.054.356-.114.69-.133.742-.02.053-.107.81-.194 1.681-.127 1.268-.158 1.943-.157 3.368 0 .98.028 2.045.06 2.365l.13 1.327c.06.623.208 1.694.352 2.557.15.902.885 3.783 1.073 4.208.031.07.09.246.131.388.04.143.106.325.145.405l.071.145h2.417c2.377 0 2.416-.002 2.416-.13 0-.072-.054-.254-.12-.404a15.595 15.595 0 0 1-.552-1.505l-.296-.933c-.073-.228-.132-.467-.132-.53s-.026-.131-.058-.15c-.032-.02-.073-.146-.09-.28a4.086 4.086 0 0 0-.11-.502 7.572 7.572 0 0 1-.133-.55l-.128-.647c-.039-.196-.1-.546-.136-.777a776.56 776.56 0 0 0-.127-.81c-.155-.985-.262-2.7-.261-4.207.001-2.212.189-4.162.58-6.02.075-.356.193-.866.262-1.133.07-.267.174-.675.233-.906a5.5 5.5 0 0 1 .162-.55c.031-.072.131-.377.223-.68.091-.303.222-.696.29-.874.402-1.05.494-1.278.701-1.748.386-.876 1.294-2.664 1.561-3.075.136-.21.217-.342.472-.776.115-.196.248-.395.294-.442.046-.047.084-.11.084-.141 0-.03.036-.094.081-.141.045-.047.24-.319.433-.603a9.69 9.69 0 0 1 .39-.55c.022-.018.154-.192.294-.386.657-.906 1.426-1.783 2.556-2.915.943-.943 1.51-1.476 1.98-1.857a37.323 37.323 0 0 1 1.223-.96c.1-.071.228-.18.284-.243.056-.062.127-.113.156-.113.03 0 .27-.16.536-.356.264-.196.5-.356.521-.356.023 0 .19-.11.371-.243.182-.133.39-.274.462-.313l.374-.21c.315-.182.637-.365.939-.537a35.009 35.009 0 0 1 2.282-1.127c.231-.095.537-.223.68-.284.23-.099.37-.156 1.003-.408.089-.036.212-.09.274-.122a.549.549 0 0 1 .202-.057c.049 0 .231-.057.405-.125.476-.188 1.04-.35 2.582-.742 1.083-.276 2.933-.577 4.272-.698 1.165-.104 4.213-.104 5.34.001 2.166.201 4.095.586 6.312 1.259.356.108.675.22.709.25a.32.32 0 0 0 .181.055c.066 0 .24.058.388.13.147.07.305.129.35.129.047 0 .209.056.36.124.153.068.38.167.504.22.841.352 1.313.573 2.169 1.012 1.011.52 1.273.66 1.327.715.018.018.118.076.224.13.6.303 3.013 1.977 3.639 2.524.102.09.372.322.602.518 1.167.997 2.537 2.38 3.397 3.431.247.303.495.6.55.66.12.133.111.121.7.9.257.343.468.654.468.691 0 .038.022.078.049.09.236.105 1.935 3.048 2.497 4.326.055.125.215.478.356.784.14.306.277.627.303.712.025.085.084.242.13.35.045.106.162.426.258.711s.2.576.23.648c.029.07.116.347.194.614.077.267.19.66.253.874.062.214.15.564.194.777.045.214.105.447.134.518.03.071.07.246.09.388.02.143.067.405.102.583.061.302.12.67.262 1.618.031.214.105.957.163 1.651.15 1.802.073 4.736-.167 6.344l-.124.841c-.06.409-.242 1.35-.327 1.683a44.8 44.8 0 0 0-.134.55c-.128.54-.33 1.287-.386 1.425-.028.07-.144.429-.257.795-.113.367-.305.92-.427 1.23-.121.31-.22.629-.22.71v.145h4.211l.135-.307c.074-.17.173-.453.22-.631.047-.178.149-.528.226-.777.32-1.033.606-2.252.899-3.82.033-.177.093-.57.133-.873.041-.303.1-.696.131-.874.275-1.557.275-6.664 0-8.221a27.32 27.32 0 0 1-.13-.874c-.126-.938-.322-1.92-.743-3.722a5.265 5.265 0 0 0-.163-.583 2.068 2.068 0 0 1-.1-.356 2.242 2.242 0 0 0-.131-.42 3.121 3.121 0 0 1-.151-.454c-.058-.236-.177-.578-.588-1.683a6.4 6.4 0 0 1-.177-.534c-.018-.08-.056-.145-.084-.145-.027 0-.07-.08-.094-.176a3.68 3.68 0 0 0-.176-.47l-.287-.635c-.084-.188-.154-.37-.154-.404a.064.064 0 0 0-.065-.063.065.065 0 0 1-.065-.065c0-.065-.34-.791-.455-.97a1.94 1.94 0 0 1-.128-.26c-.075-.188-.345-.674-.75-1.351-.157-.263-.285-.503-.285-.534 0-.031-.029-.057-.065-.057a.065.065 0 0 1-.064-.065c0-.157-1.859-2.811-2.395-3.42-.054-.061-.295-.35-.537-.643-.241-.293-.59-.7-.776-.903-.416-.456-2.14-2.18-2.445-2.445-.123-.107-.37-.326-.55-.486-.179-.16-.422-.364-.54-.453a4.84 4.84 0 0 1-.321-.263 23.32 23.32 0 0 0-1.012-.788l-.39-.296c-.356-.272-2.105-1.431-2.363-1.566a.94.94 0 0 1-.194-.124.876.876 0 0 0-.194-.12 5.41 5.41 0 0 1-.356-.2c-.512-.316-2.111-1.14-2.784-1.435a230.7 230.7 0 0 1-.647-.286 22.41 22.41 0 0 0-.712-.296c-.214-.084-.403-.172-.42-.196-.018-.023-.106-.06-.195-.08a40.632 40.632 0 0 1-1.392-.459A32.807 32.807 0 0 0 44.696.225L43.498.09c-.765-.086-4.749-.125-5.276-.051Zm4.748 7.227c-.128.148-.96 1.629-.96 1.708 0 .033-.025.06-.053.06-.03 0-.093.101-.142.226-.049.124-.105.226-.126.226-.02 0-.078.095-.128.21-.05.116-.11.226-.131.243-.064.053-1.11 1.893-1.088 1.915.01.011.208.05.438.087.492.08.476.09.824-.545.236-.431.259-.453.472-.445.426.016 1.728.15 1.83.19.103.04.369.755.369.992 0 .146.257.247.712.279.289.02.29.018.27-.175-.01-.106-.047-.222-.08-.255a.301.301 0 0 1-.06-.183c0-.067-.07-.33-.157-.586a7.074 7.074 0 0 1-.201-.708c-.025-.134-.072-.26-.103-.279-.032-.02-.058-.093-.058-.163s-.054-.294-.12-.498c-.114-.35-.298-.954-.57-1.875-.123-.42-.138-.433-.575-.5-.206-.032-.283-.016-.363.076Zm-6.801.055c-.02.02-.35.078-.734.128s-.721.115-.75.143c-.05.05.083 1.266.2 1.83.034.16.11.626.168 1.035.236 1.643.283 1.977.286 2.027.001.03.054.04.116.022.062-.017.255-.05.428-.074l.316-.043-.042-.302-.1-.723c-.033-.232-.08-.57-.104-.753l-.045-.33.313-.048c.281-.042.326-.031.433.105l.196.25c.043.053.296.394.563.757.267.363.524.676.572.695.136.056.982-.04.982-.113 0-.057-.317-.474-.537-.707a5.19 5.19 0 0 1-.255-.32 5.042 5.042 0 0 0-.26-.324c-.197-.208-.437-.522-.437-.572 0-.031.056-.074.124-.095.161-.052.548-.413.649-.606.109-.209.095-1.066-.02-1.288-.27-.518-.703-.73-1.492-.73-.294 0-.55.017-.57.036Zm.914.77c.417.216.527.731.217 1.018-.202.188-.311.226-.977.34-.462.079-.476.077-.528-.058-.076-.202-.211-1.14-.17-1.181.05-.05.806-.196 1.063-.205a.945.945 0 0 1 .395.086Zm6.251.44c.21.782.367 1.413.406 1.628l.034.187-.602-.047c-.33-.026-.67-.073-.754-.105l-.152-.058.397-.762.456-.875c.082-.155.168-.142.215.032Zm5.472-.088c0 .04-.061.212-.136.38-.303.684-.37.84-.512 1.181a85.647 85.647 0 0 0-.481 1.165c-.094.232-.198.48-.231.55-.21.458-.38.888-.419 1.062-.035.161-.02.209.075.24.065.022.206.076.312.122l.615.26.62.264c.38.165 1.102.239 1.56.16 1.034-.18 1.67-.813 1.98-1.967.123-.456.128-.547.055-.901-.205-.993-.69-1.503-1.917-2.02-.32-.136-.706-.301-.857-.369-.369-.164-.664-.22-.664-.127Zm-18.578.533a5.217 5.217 0 0 0-.55.198c-.384.162-.59.248-1.069.445-.584.24-.58.221-.23 1 .182.403.35.79.522 1.198l.259.615c.045.106.143.332.219.5.075.17.137.33.136.357 0 .027.057.165.126.308.07.142.185.394.257.56l.13.302.764-.322c1.17-.494 1.389-.609 1.674-.876.475-.444.605-1.007.358-1.541-.218-.473-.48-.666-.983-.725-.207-.025-.319-.069-.319-.126 0-.049.026-.088.057-.088.104 0 .224-.398.217-.715-.012-.53-.32-.93-.831-1.083-.305-.09-.42-.092-.737-.007Zm20.252.92c.048.039.15.101.224.139.075.037.247.213.382.39.232.308.244.347.244.813 0 .389-.032.558-.16.821-.511 1.061-1.492 1.262-2.86.585l-.27-.133.133-.299c.163-.363.31-.702.505-1.172.157-.375.289-.689.489-1.159.2-.472.224-.48.757-.255.257.11.508.23.556.27Zm-19.675.017c.165.138.2.215.2.44 0 .353-.203.556-.814.815-.527.223-.558.207-.789-.387-.234-.604-.242-.586.34-.82.633-.256.807-.264 1.063-.048Zm.95 1.763c.276.23.364.609.218.93-.066.144-.452.44-.573.44-.051 0-.3.113-.736.333-.095.048-.14-.002-.28-.315l-.253-.568c-.183-.41-.178-.417.485-.686.678-.275.935-.306 1.14-.134Zm23.553.712c-.33.155-.726.611-.78.902-.09.478.145 1.243.462 1.506.052.043.095.107.095.142 0 .034.061.148.136.253.132.186.193.668.102.815-.096.156-.505.287-.76.244-.14-.024-.255-.07-.255-.102 0-.032-.044-.059-.098-.059-.126 0-.47-.54-.523-.82-.044-.235-.07-.243-.567-.175-.297.041-.3.044-.3.285 0 .44.504 1.128 1.071 1.46.623.365 1.5.339 1.906-.057.408-.397.55-.678.544-1.075-.006-.385-.13-.688-.502-1.23-.472-.686-.51-.963-.168-1.248.12-.1.272-.182.337-.182.359 0 .967.534 1.044.917.029.144.067.184.152.16.063-.017.254-.05.424-.073l.31-.042-.044-.239a1.377 1.377 0 0 0-.173-.432c-.2-.299-.694-.73-1.018-.886-.406-.197-1.048-.226-1.395-.064Zm-17.765 2.824a6.924 6.924 0 0 0-3.56 1.784c-.974.918-1.425 1.372-1.425 1.432 0 .069.145.226 1.322 1.439l.683.703.438-.42c1.078-1.036 1.226-1.173 1.409-1.312 1.294-.981 3.167-.98 4.47.002.595.45 1.123 1.18 1.308 1.813.118.402.21.92.21 1.184 0 .482-.211 1.256-.471 1.729-.04.07-.109.202-.155.29-.1.194-.416.529-1.303 1.381-.363.35-.66.66-.66.688 0 .029.446.512.991 1.073.85.875 1.009 1.011 1.11.955.266-.149 1.973-1.915 2.249-2.327.777-1.16 1.22-2.568 1.215-3.86-.003-.632-.3-2.12-.455-2.275a.25.25 0 0 1-.062-.154c0-.051-.09-.27-.2-.489a6.746 6.746 0 0 0-5.028-3.657c-.582-.09-1.528-.08-2.086.021Zm-17.155.37c-.195.147-.366.293-.378.324a.569.569 0 0 1-.097.136c-.172.182-.258.457-.258.82 0 .314.032.434.174.637.2.29.585.499 1.037.563l.315.044-.042.371c-.065.575.05.987.366 1.303.146.146.349.282.45.302.101.02.2.063.219.093.097.158.838-.002 1.192-.258.574-.413.828-.814.867-1.366.014-.21.046-.413.069-.45.024-.039.2-.07.39-.07.336 0 .362-.013.677-.338.18-.186.328-.361.328-.389 0-.027-.332-.05-.738-.05-.642 0-.743-.015-.783-.113-.085-.213-.227-.8-.227-.937 0-.115-.118-.539-.174-.625-.041-.064-.603.623-.603.738 0 .073.038.28.085.459.046.18.073.36.059.402-.017.05-.208.076-.562.076h-.536l.005-.599c.004-.527-.014-.626-.15-.83a1.14 1.14 0 0 0-.985-.513c-.302 0-.387.033-.7.27Zm39.504.269c-.15.113-.272.229-.273.257-.002.028.199.301.445.607l.448.557-.14.142a5.18 5.18 0 0 1-.432.362c-.16.122-.35.275-.42.341-.072.066-.254.21-.405.32-.152.109-.275.223-.275.252 0 .03-.042.054-.094.054-.051 0-.131.052-.178.116a2.038 2.038 0 0 1-.343.305 5.167 5.167 0 0 0-.365.289c-.059.054-.21.183-.337.286-.24.194-.243.266-.018.54.31.38.159.455 1.92-.958 1.484-1.191 1.742-1.375 1.747-1.242 0 .027.12.18.265.34.144.16.308.358.363.44.19.28.298.286.587.035l.265-.232-.207-.267a4.557 4.557 0 0 0-.245-.3 64.209 64.209 0 0 1-.963-1.197c-.508-.64-.958-1.185-1-1.21-.04-.023-.197.05-.345.163Zm-38.534.43c.17.172.226.423.156.707-.056.229-.065.234-.405.254-.423.024-.656-.143-.656-.47 0-.486.59-.806.905-.49Zm2.107 1.818c.023.037.021.216-.003.397a.92.92 0 0 1-.26.563c-.198.216-.242.234-.572.23-.315-.002-.376-.025-.507-.19-.18-.227-.23-.43-.194-.793l.027-.275h.733c.441 0 .75.027.776.068Zm8.506 2.109c-.002.03-.002 1.016.001 2.189l.006 2.132.468.486a535.257 535.257 0 0 0 2.466 2.559 1644.51 1644.51 0 0 1 5.776 5.986c.353.37.976 1.016 1.386 1.434 2.065 2.112 3.141 3.255 3.158 3.355.012.07-.252.372-.714.82-2.922 2.83-2.89 2.801-3.55 3.162a4.92 4.92 0 0 1-2.966.554c-1.283-.158-2.353-.768-3.243-1.848-.339-.412-.623-.968-.84-1.644-.134-.416-.156-.61-.155-1.36.002-.725.027-.95.147-1.327.163-.507.533-1.28.742-1.55.15-.193 1.152-1.206 2.136-2.16l.621-.601-.188-.207c-.614-.674-1.868-1.923-1.932-1.923-.094 0-2.26 2.086-2.764 2.66-.26.298-.745 1.002-.745 1.084 0 .035-.022.075-.048.086-.062.028-.41.752-.585 1.22-.341.906-.428 1.456-.432 2.718-.002 1.059.015 1.27.153 1.813.086.338.21.738.275.89.066.15.12.297.12.325 0 .073.509 1.047.655 1.255.067.094.121.203.121.242 0 .04.025.071.054.071.03 0 .148.13.262.29.452.629 1.64 1.68 2.245 1.985.105.053.249.128.32.167.141.076.579.277.941.432.212.09.342.127 1.066.306.757.187 2.644.186 3.382-.002.151-.039.384-.096.518-.127.308-.07.822-.275 1.44-.573.924-.446 1.422-.87 4.239-3.605.498-.484.923-.88.944-.88.022 0 .387.355.811.787l1.531 1.562c.419.427.76.8.76.83 0 .03.074.074.164.097.136.034.223-.02.534-.322l.954-.93c.762-.742.78-.766.67-.88-.049-.049-.641-.665-1.318-1.37-1.8-1.874-3.926-4.075-5.47-5.66-.41-.42-.987-1.023-1.284-1.339-.296-.316-.923-.968-1.391-1.448a612.79 612.79 0 0 1-2.244-2.321 845.68 845.68 0 0 0-2.137-2.213c-.409-.422-.99-1.023-1.29-1.337-.3-.314-.925-.965-1.391-1.447-1.883-1.95-3.787-3.925-3.962-4.11-.242-.257-.411-.384-.417-.313Zm31.82 1.176c-.106.063-.383.199-.614.301-.232.102-.722.327-1.09.5-.367.172-.679.313-.692.313-.022 0-1.662.78-1.697.806-.032.025.205.59.29.693.085.1.108.099.329-.014.956-.484 1.476-.712 1.59-.696.093.014.155.1.21.291l.079.272-.675.905c-.371.497-.674.957-.672 1.023.001.065.084.288.184.496.17.356.187.372.29.268.09-.09.503-.678.786-1.12.035-.056.115-.16.178-.23.062-.072.113-.163.113-.203 0-.116.337-.4.369-.312.057.162.508.436.784.478.579.087 1.245-.209 1.503-.67.119-.21.137-.326.115-.746-.014-.293-.073-.604-.143-.756a85.921 85.921 0 0 0-.362-.777 26.178 26.178 0 0 1-.332-.728c-.102-.243-.25-.269-.542-.094Zm.346 1.47c.307.622.334.916.11 1.182-.356.424-.892.302-1.184-.27-.155-.302-.404-.831-.404-.857 0-.036.81-.412.889-.412.045 0 .082-.03.082-.069 0-.038.064-.06.142-.048.103.015.203.144.365.474Zm-16.848.794c-.055.054-.042 2.949.013 3.032.026.04.157.11.29.159.134.047.243.11.243.138 0 .029.031.052.07.052.176 0 .87.587 1.386 1.172.254.288.727 1.123.782 1.378.023.11.067.232.097.27.117.145.205 1.055.172 1.776-.055 1.185-.451 2.13-1.277 3.042a4.952 4.952 0 0 0-.371.44c-.02.06 1.953 2.085 2.031 2.085.078 0 .578-.523.9-.939.137-.178.28-.353.317-.388.038-.036.112-.152.165-.26.054-.106.112-.208.13-.226.223-.222.747-1.51.949-2.33.171-.699.171-2.798 0-3.496-.155-.627-.506-1.576-.696-1.877a2.095 2.095 0 0 1-.13-.275c-.04-.098-.093-.178-.12-.178-.026 0-.082-.076-.124-.17-.248-.543-1.27-1.622-2.076-2.19-.533-.375-1.47-.869-1.914-1.008a8.048 8.048 0 0 1-.388-.131c-.207-.08-.41-.115-.45-.076Zm-32.354.549c-.086.303-.086.352.002.453.054.062.143.113.196.113.097 0 2.061.604 2.31.71.071.03.268.09.437.134.307.079.373.144.235.23-.072.044-1.23.374-1.675.477-.125.029-.504.131-.842.227-.338.096-.794.217-1.013.27-.467.113-.55.195-.685.67-.055.197-.12.404-.143.461-.055.134-.027.145 2.845 1.032.356.11.705.224.776.254.072.03.269.09.439.134.17.044.325.105.344.136.019.03.098.055.176.055.156 0 .285-.222.345-.595.04-.243.063-.23-.883-.506a9.827 9.827 0 0 1-.615-.196 4.63 4.63 0 0 0-.356-.121 26.635 26.635 0 0 1-.62-.199 3.39 3.39 0 0 0-.46-.13c-.038 0-.181-.047-.318-.104l-.249-.104.16-.082c.088-.045.32-.12.516-.165.196-.046.487-.124.648-.175.16-.05.407-.117.55-.147.37-.078 2.105-.556 2.303-.635.132-.052.197-.159.308-.51.17-.54.172-.603.023-.603a.317.317 0 0 1-.178-.053c-.034-.03-.192-.092-.352-.139-.16-.046-.452-.136-.648-.198-.196-.063-.88-.278-1.521-.478-.64-.2-1.296-.408-1.456-.46-.454-.15-.49-.135-.599.244Zm51.025 3.456c-.231.05-.595.119-.809.153-.214.035-.534.095-.712.132-.178.038-.47.092-.647.121-.178.03-.625.115-.992.191-.368.076-.721.138-.785.138-.22 0-.252.134-.163.68.047.285.119.663.16.841.043.178.101.484.13.68.07.466.233 1.162.283 1.212.021.021.113.005.204-.036a.942.942 0 0 1 .324-.076c.178 0 .19-.077.097-.582l-.186-1.019c-.072-.4-.15-.755-.17-.79-.057-.092.153-.182.618-.266.79-.143.706-.22.908.813.098.498.18.99.183 1.093.003.184.007.186.304.145.165-.022.34-.04.388-.04.115 0 .111-.226-.014-.875-.18-.93-.23-1.343-.172-1.402.061-.061.716-.183.987-.183.153 0 .17.033.28.598.066.33.133.686.15.793.017.107.061.351.098.542l.067.349.326-.04c.18-.02.342-.054.363-.074.06-.061.017-.485-.114-1.1-.069-.321-.157-.773-.198-1.004-.04-.231-.107-.574-.149-.76-.086-.386-.073-.382-.759-.234ZM13.138 32.1v.41l.982.043c.54.024 1.315.043 1.724.043.628 0 .786.021 1.018.137.368.184.549.51.549.99 0 .475-.212.812-.637 1.013-.295.14-.338.142-1.969.098l-1.667-.045v.84l.567.024c1.445.06 2.868.05 3.165-.022.511-.126.864-.408 1.164-.931.171-.3.185-.375.186-1.004 0-.639-.012-.699-.193-1.002-.227-.378-.305-.461-.655-.69-.378-.248-.954-.314-2.709-.314h-1.525v.41Zm49.303 2.227c-.033.432-.123 2.27-.134 2.727-.004.14.027.157.335.182.307.024.347.012.404-.122.035-.082.086-.644.113-1.25l.05-1.1.646.018c.355.01.668.04.695.068.028.027.019.524-.02 1.104-.037.58-.05 1.074-.027 1.096.022.023.207.042.41.043l.368.002.04-.939.048-1.119.009-.18.598.018.6.019.017.453c.01.25-.005.767-.034 1.152-.029.384-.035.727-.014.761.022.035.197.07.39.079l.352.015.076-1.133c.041-.623.078-1.355.08-1.626l.006-.493-.89-.045a77.766 77.766 0 0 1-2.02-.138 27.586 27.586 0 0 0-1.596-.093h-.465l-.037.501Zm-46.552 3.997c-.747.203-1.372.658-1.619 1.177-.141.299-.29.886-.29 1.148 0 .198.183 1.033.327 1.495.033.107.12.405.193.663.105.372.158.47.256.47.067 0 .138-.026.157-.057.02-.03.152-.075.295-.097.144-.023.384-.082.536-.13.151-.048.523-.152.825-.23.303-.077.754-.198 1.004-.268.249-.07.759-.207 1.132-.305.646-.169.681-.187.7-.358.012-.1-.005-.216-.038-.258-.032-.043-.095-.223-.138-.401-.262-1.07-.382-1.394-.68-1.845-.595-.903-1.615-1.288-2.66-1.004Zm1.374.945c.343.19.61.461.772.785.21.421.44 1.214.37 1.283-.032.032-.35.136-.705.23-1.304.343-1.489.394-1.584.43-.167.066-.699.18-.835.18-.195 0-.395-.727-.395-1.432 0-.603.109-.862.491-1.18.506-.42 1.406-.561 1.886-.296Zm48.738.9c-.053.13-.116.344-.14.475-.025.132-.07.255-.102.274-.032.02-.058.108-.058.196 0 .291-.106.284-1.23-.084-.16-.053-.378-.119-.485-.147-.107-.028-.456-.13-.777-.228-.32-.097-.81-.243-1.086-.324l-.504-.147-.088.21a2.872 2.872 0 0 0-.13.404c-.048.219-.068.207.772.458l1.295.392 1.343.404c.473.14.502.159.502.331 0 .1-.028.234-.063.296-.055.1-.328.986-.303.986.005 0 .163.058.35.13l.341.13.092-.211c.051-.116.17-.487.266-.826.095-.338.197-.673.227-.744.03-.071.088-.26.13-.42.04-.161.1-.35.131-.422.076-.172.264-.874.276-1.028.007-.092-.072-.148-.328-.232l-.336-.111-.095.237Zm-61.763 8.38c-1.856.315-3.314 1.546-3.953 3.337C.022 52.624 0 53.133 0 58.36c0 3.937.02 5.143.09 5.6.124.813.277 1.226.753 2.035.051.087.18.26.287.385.73.851 1.437 1.327 2.525 1.698l.453.154h35.965c26.724 0 35.989-.019 36.056-.073a.92.92 0 0 1 .318-.118c.124-.024.503-.18.841-.346.527-.259.706-.393 1.246-.933.348-.346.632-.675.632-.729 0-.054.029-.099.064-.099.036 0 .065-.044.065-.097 0-.053.03-.097.065-.097s.065-.041.065-.091c0-.05.057-.203.127-.34a6.15 6.15 0 0 0 .274-.702l.147-.453.02-5.438c.021-5.483.002-6.077-.214-6.738-.49-1.497-1.7-2.73-3.167-3.227-.912-.308 1.011-.293-36.642-.285-26.956.005-35.386.025-35.732.084Zm51.637 1.593c.473.095.879.301 1.18.6.247.244.252.257.13.344-.069.05-.177.134-.24.186-.165.14-.282.12-.484-.083-.17-.171-.273-.23-.683-.395-.479-.193-1.239.006-1.644.429l-.279.29v.533c0 .525.004.536.236.775.206.212.935.619 1.109.619.14 0 1.037.316 1.277.45.355.2.475.312.69.647.17.267.184.334.184.933 0 .58-.017.674-.172.942-.226.389-.456.606-.877.828-.326.172-.385.18-1.184.178-.755-.003-.876-.02-1.166-.16a3.416 3.416 0 0 1-.408-.223c-.212-.17-.595-.569-.595-.621 0-.032.08-.11.178-.172.098-.063.216-.151.264-.196.123-.117.154-.104.335.145.089.123.213.24.275.262.062.02.113.06.113.088 0 .053.297.151.777.257.285.063.888-.024 1.111-.16.54-.33.8-.926.64-1.467-.146-.496-.426-.687-1.57-1.07-.417-.14-.83-.302-.92-.36a.692.692 0 0 0-.219-.107c-.113 0-.546-.493-.682-.777-.194-.403-.19-1.2.007-1.621.39-.829 1.54-1.31 2.617-1.094Zm-30.567.32c1.033.35 1.604.85 2.037 1.78.25.536.367 1.308.293 1.926-.06.498-.243 1.174-.326 1.203-.034.012-.062.065-.062.118 0 .128-.318.584-.6.86a3.132 3.132 0 0 1-.889.587l-.291.124c-.341.153-.816.21-2.016.244-.716.02-1.408.017-1.537-.007l-.234-.044v-3.45c0-1.897.022-3.472.049-3.5.026-.027.747-.035 1.602-.017 1.375.03 1.602.05 1.974.177Zm7.64 2.363c.033 2.515.033 2.526.194 2.884.298.665.606.93 1.238 1.062.758.158 1.488-.09 1.86-.635.389-.57.461-1.166.461-3.805v-2.07l.307.02.308.02.02 2.362c.022 2.491-.016 3.004-.26 3.508-.182.377-.668.874-1.055 1.078-.304.161-.376.172-1.197.171-.789 0-.906-.016-1.198-.156-.48-.23-.946-.739-1.167-1.273l-.186-.447-.023-2.549c-.013-1.401-.008-2.59.012-2.641.026-.067.122-.088.344-.074l.308.02.033 2.525Zm10.4-2.412c.119.133.418.547.668.924.053.08.186.274.295.429a300.595 300.595 0 0 1 2.456 3.54c.036.056.096.138.135.18.039.043.166.226.282.408.116.18.237.33.269.33.032 0 .064-1.299.074-2.962l.017-2.962.247-.02c.457-.038.432-.236.432 3.516 0 2.929-.013 3.393-.097 3.463-.214.178-1.003-.012-1.003-.242 0-.032-.051-.114-.113-.183-.109-.12-.524-.705-.728-1.025-.199-.311-.75-1.09-.89-1.257-.08-.096-.146-.208-.146-.25 0-.04-.023-.084-.05-.096-.05-.022-.338-.423-1.038-1.446a24.576 24.576 0 0 0-.507-.718c-.084-.11-.153-.234-.153-.275 0-.041-.03-.075-.066-.075-.037 0-.1-.073-.14-.162-.04-.089-.098-.162-.128-.162s-.054 1.324-.054 2.943v2.942l-.221.041a.909.909 0 0 1-.356 0c-.135-.044-.136-.053-.136-3.492 0-1.896.02-3.467.044-3.491.023-.024.208-.043.41-.043.297 0 .39.027.496.145Zm16.807.016c.382.115.773.416 1.004.77.155.239.173.327.173.849 0 .55-.012.6-.206.879-.28.402-.608.639-1.046.753-1.266.332-2.423-.94-1.986-2.18.123-.346.441-.75.704-.893.508-.276.877-.324 1.357-.178Zm-.91.27c-.08.017-.146.058-.146.091 0 .033-.042.06-.092.06-.141 0-.6.558-.645.785-.109.545-.024.948.271 1.293.7.816 1.907.62 2.349-.384.156-.354.156-.636.001-.992-.245-.565-.624-.839-1.199-.867a3.006 3.006 0 0 0-.54.013Zm-36.817.289c-.019.049-.027 1.342-.017 2.872l.016 2.784.655.018c.996.028 1.84-.11 2.424-.395.346-.17.968-.67.968-.778 0-.03.053-.132.12-.227.297-.427.458-1.34.344-1.952-.221-1.188-.874-1.91-2.023-2.237-.5-.143-2.44-.21-2.487-.085Zm37.888.21c.07.071.11.214.11.405 0 .24-.033.322-.178.447-.219.188-.22.22-.017.457.09.104.162.225.162.27 0 .044.03.08.065.08s.065.03.065.065-.083.065-.184.065c-.125 0-.208-.047-.259-.146-.22-.429-.404-.631-.575-.631-.137 0-.148.027-.148.388 0 .345-.014.389-.129.389-.123 0-.13-.044-.13-.928 0-.51.022-.95.05-.978.026-.027.275-.037.553-.021.36.02.536.06.615.138Zm-.946.442c.018.253.037.28.205.3a.9.9 0 0 0 .375-.058c.162-.067.188-.11.171-.28-.019-.197-.027-.202-.395-.221l-.376-.02.02.279Zm-28.365 3.322v.293l-1.214-.018-1.214-.017-.02-.275-.02-.275h2.468v.292Zm10.02-.017-.02.275h-2.394l-.02-.275-.02-.275h2.475l-.02.275Zm11.005-.002c.026.313.001.318-1.38.295l-1.1-.018-.02-.184c-.044-.375-.059-.37 1.265-.352l1.215.018.02.24Zm-24.866 4.284c.185.049.425.136.534.193l.38.2c.098.051.261.18.362.285.182.19.183.193.063.355-.066.09-.186.199-.267.243-.13.071-.17.058-.356-.113-.435-.402-1.043-.608-1.789-.604-1.35.007-2.22.597-2.718 1.842-.22.549-.233 1.703-.028 2.236.34.883.748 1.344 1.51 1.707.414.197.436.2 1.424.2.955 0 1.021-.008 1.377-.175l.374-.175-.018-1.12-.018-1.12-.792-.017c-.772-.018-.793-.022-.83-.172a.956.956 0 0 1-.017-.305l.021-.152 1.182-.018 1.18-.018v3.363l-.306.139c-.744.335-1.297.447-2.213.449-.914.001-1.256-.07-1.934-.404-.33-.162-1.113-.861-1.113-.993 0-.05-.023-.09-.051-.09-.068 0-.358-.591-.508-1.037-.17-.503-.17-1.765 0-2.265.236-.692.558-1.215.997-1.62.23-.213.46-.387.509-.387.049 0 .089-.022.089-.05 0-.067.484-.284.841-.377.416-.108 1.71-.108 2.115 0Zm8.85-.014c.44.127 1.142.67 1.053.814-.02.032-.154.14-.296.239l-.26.18-.164-.195c-.269-.32-.667-.468-1.26-.468-.283 0-.533.03-.555.065-.021.036-.092.065-.157.065s-.237.112-.382.25c-.327.306-.413.642-.315 1.22.043.253.15.404.475.669.155.126.695.339 1.317.519 1.223.354 1.749.923 1.749 1.893 0 .857-.456 1.51-1.287 1.846-.276.111-.482.14-.985.14-.707 0-1.166-.127-1.656-.462-.237-.161-.539-.495-.539-.594 0-.02.132-.124.294-.232l.293-.198.35.35c.287.287.412.363.7.428 1.131.253 2.021-.24 2.097-1.162.023-.277 0-.415-.095-.587-.15-.272-.59-.587-.985-.706-1.293-.39-2.107-.84-2.231-1.233-.024-.074-.065-.134-.093-.134-.028 0-.086-.203-.13-.45-.191-1.069.323-1.907 1.386-2.26.274-.09 1.358-.089 1.676.003Zm-21.926.143c.502.134.92.365 1.117.62.54.695.517 1.767-.05 2.366-.252.264-.465.385-.957.54l-.351.112.26.404c.144.222.261.418.261.435 0 .018.128.228.284.468.155.239.355.566.443.726.088.16.282.479.43.708.149.229.26.448.248.485-.027.082-.39.127-.598.074-.134-.034-.22-.146-.557-.733a904.13 904.13 0 0 0-.24-.42c-.268-.467-.563-.925-.608-.945-.027-.012-.049-.057-.049-.1 0-.1-.57-1.027-.67-1.091-.135-.086-.991-.057-1.069.036-.046.057-.077.634-.089 1.667l-.017 1.581-.207.02a.716.716 0 0 1-.34-.05c-.131-.07-.133-.112-.133-3.49 0-1.88.02-3.436.044-3.46.085-.086 2.5-.046 2.848.047Zm7.324.25.02.307h-3.633v2.395h1.58c.87 0 1.627.018 1.684.04.072.027.102.123.102.322v.283l-1.667.017-1.667.018-.017 1.342-.017 1.342 1.862.017 1.862.018.02.252c.014.158-.01.272-.064.306-.12.076-4.308.072-4.355-.004-.05-.08-.049-6.856 0-6.936.024-.037.873-.054 2.154-.044l2.116.017.02.307Zm9.874 0c.053.441.042 5.863-.013 6.327l-.042.356h-.582l-.017-3.512-.017-3.511h.63l.041.34Zm11.986-.21a.763.763 0 0 1 0 .324l-.043.193h-2.32v3.132c0 3.473.022 3.302-.433 3.264l-.247-.02-.017-3.188-.017-3.188h-2.394v-.647h2.715c2.668 0 2.715.002 2.756.13Zm5.327.208.02.307-1.8.017-1.8.017-.018 1.068c-.01.588-.005 1.127.013 1.198.03.126.078.129 1.627.111 1.138-.013 1.622.003 1.686.056.05.042.09.188.09.326v.251h-3.35l-.04.146c-.057.215-.047 2.398.012 2.491.038.06.519.085 1.893.097l1.842.018.02.252c.013.158-.01.272-.064.306-.143.09-4.286.07-4.378-.021-.058-.059-.077-.908-.077-3.426 0-1.841.018-3.394.04-3.45.035-.093.267-.102 2.152-.087l2.113.017.02.306Zm4.43-.244c1.065.323 1.473.818 1.473 1.783 0 .61-.117.9-.512 1.273-.23.216-.88.54-1.084.54-.101 0-.116.167-.02.226.035.023.123.148.195.28.071.13.203.354.292.497.089.142.18.302.204.356a.417.417 0 0 0 .084.13c.039.03.115.156.76 1.25.15.255.275.501.275.546 0 .053-.102.08-.307.078-.31-.002-.473-.078-.553-.257a4.418 4.418 0 0 0-.204-.355c-.09-.143-.222-.361-.295-.486a24.954 24.954 0 0 0-.294-.486 5.622 5.622 0 0 1-.224-.388 5.888 5.888 0 0 0-.222-.388 25.117 25.117 0 0 1-.367-.622l-.207-.363-.446-.013c-.761-.022-.7-.16-.7 1.569 0 .825-.02 1.567-.041 1.649-.035.132-.074.147-.34.13l-.298-.02-.017-3.43c-.01-1.888-.003-3.468.014-3.513.047-.122 2.423-.11 2.834.014Zm7.287.244.02.307-1.8.017-1.8.017v2.331l1.618.032c.89.018 1.655.056 1.7.085.044.029.08.167.08.307v.255h-1.676c-1.469 0-1.68.013-1.715.103-.022.056-.04.667-.04 1.358v1.256l1.894.017 1.893.018.02.214c.04.408.08.4-2.223.4-1.15 0-2.137-.017-2.193-.039-.092-.035-.103-.403-.103-3.485 0-1.895.02-3.465.044-3.49.025-.023.993-.035 2.153-.026l2.108.017.02.306Zm4.569-.268c.626.164.803.226 1.148.4.705.356 1.362 1.205 1.59 2.054.109.4.104 1.575-.007 1.992-.373 1.399-1.393 2.267-2.907 2.471-.718.097-2.78.09-2.879-.01-.058-.058-.077-.92-.077-3.484 0-1.874.019-3.426.043-3.45.072-.072 2.801-.049 3.089.027Zm4.559.237c-.016.083-.096.119-.296.133l-.275.02v.775c0 .64-.017.782-.1.814-.19.072-.212-.024-.218-.933l-.006-.663h-.188c-.255 0-.394-.06-.394-.169 0-.072.152-.09.749-.09.679 0 .747.01.728.113Zm.8.032c.097.176.313.739.358.935.056.245.199.229.28-.032.075-.242.28-.741.378-.919.03-.053.146-.106.26-.117l.205-.02-.018.925c-.016.815-.031.929-.129.947-.099.02-.113-.057-.13-.678l-.018-.7-.14.29c-.076.16-.213.467-.304.68-.09.214-.203.397-.249.406-.047.01-.136-.116-.206-.291a31.069 31.069 0 0 0-.34-.827c-.038-.088-.062.049-.074.431-.02.581-.092.743-.297.664-.09-.035-.105-.166-.105-.897 0-.47.02-.875.043-.899.103-.103.408-.039.486.102Zm-58.305.387c-.019.048-.026.582-.016 1.186l.018 1.098.906.019c.98.02 1.392-.05 1.628-.275.507-.483.555-1.136.12-1.643-.288-.336-.634-.43-1.667-.453-.76-.016-.962-.002-.989.068Zm38.938 1.114v1.202l.955-.005c.541-.003 1.056-.038 1.187-.08a1.13 1.13 0 0 0 .644-1.645c-.113-.202-.245-.318-.514-.452-.339-.17-.423-.182-1.317-.201l-.955-.021v1.202Zm11.617-1.112c-.017.044-.023 1.333-.014 2.864l.017 2.784.81.02c1.408.035 2.37-.263 3.016-.936.192-.2.35-.404.35-.452 0-.049.021-.089.048-.089.067 0 .185-.395.278-.93.152-.873-.174-1.965-.743-2.49-.37-.34-1.023-.65-1.644-.78-.492-.103-2.077-.096-2.118.009Z"/>
</svg>
