<svg width="3580" height="550" fill="none" xmlns="http://www.w3.org/2000/svg">
    <path d="M547.774 123.774c6.322 20.477 8.065 24.669 4.139 53.226-21.528 156.565-174.54 364.729-269.853 372.735l.275-.024C269.186 516.358 243.887 463.5 245 384.5c1-71 40.335-110.5 40.335-110.5S366.5 269.25 445 230c60.713-30.357 97.232-96.677 102.774-106.226Z" fill="url(#a)"/>
    <path d="M547.774 123.774c6.322 20.477 8.065 24.669 4.139 53.226-21.528 156.565-174.54 364.729-269.853 372.735l.275-.024C269.186 516.358 243.887 463.5 245 384.5c1-71 40.335-110.5 40.335-110.5S366.5 269.25 445 230c60.713-30.357 97.232-96.677 102.774-106.226Z" fill="url(#b)" fill-opacity=".5"/>
    <path d="M547.774 123.774c6.322 20.477 8.065 24.669 4.139 53.226-21.528 156.565-174.54 364.729-269.853 372.735l.275-.024C269.186 516.358 243.887 463.5 245 384.5c1-71 40.335-110.5 40.335-110.5S366.5 269.25 445 230c60.713-30.357 97.232-96.677 102.774-106.226Z" fill="url(#c)" fill-opacity=".5"/>
    <path d="M547.774 123.774c6.322 20.477 8.065 24.669 4.139 53.226-21.528 156.565-174.54 364.729-269.853 372.735l.275-.024C269.186 516.358 243.887 463.5 245 384.5c1-71 40.335-110.5 40.335-110.5S366.5 269.25 445 230c60.713-30.357 97.232-96.677 102.774-106.226Z" fill="url(#d)"/>
    <path d="M543.951 113.147c-.117-.282-.234-.564-.353-.844-3.9 7.606-37.599 62.398-117.098 94.197-85 34-133.5 23.5-133.5 23.5s-48.5-67.726-115-106.226C122.698 91.757 43.5 87.5 19.03 95.731 62.494 26.58 159 0 282.06 0c123.059 0 226.95 28.624 261.891 113.147Z" fill="url(#e)"/>
    <path d="M543.951 113.147c-.117-.282-.234-.564-.353-.844-3.9 7.606-37.599 62.398-117.098 94.197-85 34-133.5 23.5-133.5 23.5s-48.5-67.726-115-106.226C122.698 91.757 43.5 87.5 19.03 95.731 62.494 26.58 159 0 282.06 0c123.059 0 226.95 28.624 261.891 113.147Z" fill="url(#f)" fill-opacity=".5"/>
    <path d="M543.951 113.147c-.117-.282-.234-.564-.353-.844-3.9 7.606-37.599 62.398-117.098 94.197-85 34-133.5 23.5-133.5 23.5s-48.5-67.726-115-106.226C122.698 91.757 43.5 87.5 19.03 95.731 62.494 26.58 159 0 282.06 0c123.059 0 226.95 28.624 261.891 113.147Z" fill="url(#g)" fill-opacity=".5"/>
    <path d="M543.951 113.147c-.117-.282-.234-.564-.353-.844-3.9 7.606-37.599 62.398-117.098 94.197-85 34-133.5 23.5-133.5 23.5s-48.5-67.726-115-106.226C122.698 91.757 43.5 87.5 19.03 95.731 62.494 26.58 159 0 282.06 0c123.059 0 226.95 28.624 261.891 113.147Z" fill="url(#h)"/>
    <path d="M16.5 99.953a6.53 6.53 0 0 0-.041.074C42.722 100.439 92.764 112.544 144 138c79.5 39.5 110.5 110.5 110.5 110.5s-47.5 60-44 131c0 59 46.013 137.682 62.185 170.294C177.426 542.711 23.671 333.974 2.087 177c-5.571-40.517.272-52.249 14.413-77.047Z" fill="url(#i)"/>
    <path d="M16.5 99.953a6.53 6.53 0 0 0-.041.074C42.722 100.439 92.764 112.544 144 138c79.5 39.5 110.5 110.5 110.5 110.5s-47.5 60-44 131c0 59 46.013 137.682 62.185 170.294C177.426 542.711 23.671 333.974 2.087 177c-5.571-40.517.272-52.249 14.413-77.047Z" fill="url(#j)" fill-opacity=".5"/>
    <path d="M16.5 99.953a6.53 6.53 0 0 0-.041.074C42.722 100.439 92.764 112.544 144 138c79.5 39.5 110.5 110.5 110.5 110.5s-47.5 60-44 131c0 59 46.013 137.682 62.185 170.294C177.426 542.711 23.671 333.974 2.087 177c-5.571-40.517.272-52.249 14.413-77.047Z" fill="url(#k)" fill-opacity=".5"/>
    <path d="M16.5 99.953a6.53 6.53 0 0 0-.041.074C42.722 100.439 92.764 112.544 144 138c79.5 39.5 110.5 110.5 110.5 110.5s-47.5 60-44 131c0 59 46.013 137.682 62.185 170.294C177.426 542.711 23.671 333.974 2.087 177c-5.571-40.517.272-52.249 14.413-77.047Z" fill="url(#l)"/>
    <path d="M775.152 224.176V180.4h159.552v43.776h-55.296V382h-48.96V224.176h-55.296ZM991.422 384.88c-15.552 0-28.992-2.784-40.32-8.352-11.136-5.76-19.776-13.824-25.92-24.192-6.144-10.368-9.216-22.56-9.216-36.576 0-21.504 6.624-38.4 19.872-50.688 13.248-12.288 31.488-18.432 54.72-18.432 22.852 0 40.412 5.856 52.702 17.568 12.48 11.712 18.72 28.224 18.72 49.536v6.048c0 1.92-.09 3.648-.29 5.184H960.606c1.152 9.024 4.32 16.032 9.504 21.024 5.184 4.992 12 7.488 20.448 7.488 15.362 0 26.302-5.76 32.832-17.28l39.17 9.504c-14.02 26.112-37.73 39.168-71.138 39.168Zm-1.728-109.152c-15.744 0-25.248 8.352-28.512 25.056h54.148c-.77-7.68-3.46-13.728-8.07-18.144-4.41-4.608-10.27-6.912-17.566-6.912ZM1291.01 296.752V382h-43.77v-80.64c0-7.872-1.35-13.824-4.04-17.856-2.49-4.224-6.72-6.336-12.67-6.336-5.76 0-10.46 2.016-14.11 6.048-3.65 4.032-5.47 10.08-5.47 18.144V382h-43.78v-80.64c0-7.872-1.34-13.824-4.03-17.856-2.5-4.224-6.72-6.336-12.67-6.336-5.76 0-10.47 2.016-14.11 6.048-3.65 4.032-5.48 10.08-5.48 18.144V382h-42.04V249.52h42.04v19.584c3.84-7.296 8.93-12.864 15.27-16.704 6.33-4.032 14.01-6.048 23.04-6.048 10.37 0 18.62 1.824 24.77 5.472 6.33 3.648 10.75 9.12 13.24 16.416 4.8-6.912 10.76-12.288 17.86-16.128s15.17-5.76 24.19-5.76c15.36 0 26.11 4.416 32.26 13.248 6.33 8.832 9.5 21.216 9.5 37.152ZM1368.29 445.36h-43.49V249.52h43.49v21.312c4.8-8.256 10.94-14.592 18.43-19.008 7.68-4.608 16.61-6.912 26.78-6.912 10.75 0 20.93 2.688 30.53 8.064 9.6 5.184 17.38 13.056 23.33 23.616 6.14 10.56 9.21 23.616 9.21 39.168s-3.07 28.608-9.21 39.168c-5.95 10.368-13.73 18.24-23.33 23.616-9.6 5.376-19.78 8.064-30.53 8.064-10.17 0-19.1-2.208-26.78-6.624-7.49-4.608-13.63-11.04-18.43-19.296v84.672Zm62.49-129.6c0-10.368-3.17-18.336-9.5-23.904-6.15-5.568-13.54-8.352-22.18-8.352-4.8 0-9.6 1.248-14.4 3.744-4.8 2.304-8.73 5.856-11.81 10.656-3.07 4.608-4.6 10.56-4.6 17.856 0 7.104 1.53 13.056 4.6 17.856 3.08 4.8 7.01 8.448 11.81 10.944 4.8 2.304 9.6 3.456 14.4 3.456 8.64 0 16.03-2.784 22.18-8.352 6.33-5.568 9.5-13.536 9.5-23.904ZM1570.23 384.88c-15.55 0-28.99-2.784-40.32-8.352-11.13-5.76-19.77-13.824-25.92-24.192-6.14-10.368-9.21-22.56-9.21-36.576 0-21.504 6.62-38.4 19.87-50.688 13.25-12.288 31.49-18.432 54.72-18.432 22.85 0 40.42 5.856 52.7 17.568 12.48 11.712 18.72 28.224 18.72 49.536v6.048c0 1.92-.09 3.648-.28 5.184h-101.09c1.15 9.024 4.32 16.032 9.5 21.024 5.19 4.992 12 7.488 20.45 7.488 15.36 0 26.3-5.76 32.83-17.28l39.17 9.504c-14.02 26.112-37.73 39.168-71.14 39.168Zm-1.72-109.152c-15.75 0-25.25 8.352-28.52 25.056h54.15c-.77-7.68-3.46-13.728-8.07-18.144-4.41-4.608-10.27-6.912-17.56-6.912ZM1748.86 294.736c-2.3-2.304-4.8-4.128-7.48-5.472-2.5-1.344-5.67-2.016-9.51-2.016-6.33 0-11.52 2.496-15.55 7.488-3.84 4.992-5.76 12.288-5.76 21.888V382h-42.91V249.52h42.91v16.704c4.22-6.144 9.22-10.944 14.98-14.4 5.95-3.648 12.09-5.472 18.43-5.472 4.8 0 9.41 1.056 13.82 3.168 4.42 1.92 7.78 4.512 10.08 7.776l-19.01 37.44ZM1783.46 199.984c0-6.912 2.4-12.576 7.2-16.992 4.99-4.416 11.04-6.624 18.15-6.624 7.1 0 13.05 2.208 17.85 6.624 4.99 4.416 7.49 10.08 7.49 16.992 0 6.912-2.5 12.576-7.49 16.992-4.8 4.224-10.75 6.336-17.85 6.336-7.11 0-13.16-2.112-18.15-6.336-4.8-4.416-7.2-10.08-7.2-16.992Zm4.03 49.536h42.34V382h-42.34V249.52ZM1956.31 180.4h48.67v159.552h80.93V382h-129.6V180.4ZM2096.37 315.76c0-14.016 3.27-26.208 9.79-36.576 6.72-10.368 15.75-18.432 27.08-24.192 11.52-5.76 24.48-8.64 38.88-8.64 14.59 0 27.55 2.88 38.88 8.64 11.32 5.76 20.25 13.824 26.78 24.192 6.72 10.368 10.08 22.56 10.08 36.576 0 13.824-3.36 25.92-10.08 36.288-6.53 10.368-15.46 18.432-26.78 24.192-11.33 5.76-24.29 8.64-38.88 8.64-14.4 0-27.36-2.88-38.88-8.64-11.33-5.76-20.36-13.824-27.08-24.192-6.52-10.368-9.79-22.464-9.79-36.288Zm44.93 0c0 10.176 2.98 18.24 8.93 24.192 6.14 5.952 13.44 8.928 21.89 8.928 8.44 0 15.64-2.976 21.6-8.928 6.14-5.952 9.21-14.016 9.21-24.192s-3.07-18.24-9.21-24.192c-5.96-6.144-13.16-9.216-21.6-9.216-8.45 0-15.75 3.072-21.89 9.216-5.95 5.952-8.93 14.016-8.93 24.192ZM2268.85 391.504h42.33c.77 8.256 3.84 14.4 9.22 18.432 5.37 4.032 12.29 6.048 20.73 6.048 9.22 0 17-3.072 23.33-9.216 6.53-6.144 9.79-15.36 9.79-27.648v-20.736c-10.56 15.36-25.72 23.04-45.5 23.04-10.75 0-20.93-2.496-30.53-7.488-9.6-4.992-17.37-12.48-23.33-22.464-5.95-10.176-8.92-22.656-8.92-37.44 0-14.976 2.97-27.456 8.92-37.44 5.96-9.984 13.73-17.472 23.33-22.464 9.6-4.992 19.78-7.488 30.53-7.488 19.78 0 34.94 7.68 45.5 23.04v-20.16h41.76v129.6c0 17.088-3.26 30.912-9.79 41.472-6.53 10.56-15.36 18.24-26.49 23.04-10.95 4.8-23.14 7.2-36.58 7.2-16.51 0-30.05-2.496-40.61-7.488-10.56-4.992-18.53-12-23.9-21.024-5.38-8.832-8.64-19.104-9.79-30.816Zm42.91-77.472c0 10.368 3.07 18.336 9.21 23.904 6.34 5.568 13.83 8.352 22.47 8.352 4.99 0 9.79-1.152 14.4-3.456 4.8-2.496 8.73-6.144 11.81-10.944 3.07-4.8 4.6-10.752 4.6-17.856 0-7.296-1.53-13.248-4.6-17.856-3.08-4.8-7.01-8.352-11.81-10.656-4.61-2.496-9.41-3.744-14.4-3.744-8.64 0-16.13 2.784-22.47 8.352-6.14 5.568-9.21 13.536-9.21 23.904ZM2446.93 199.984c0-6.912 2.4-12.576 7.2-16.992 4.99-4.416 11.04-6.624 18.15-6.624 7.1 0 13.05 2.208 17.85 6.624 4.99 4.416 7.49 10.08 7.49 16.992 0 6.912-2.5 12.576-7.49 16.992-4.8 4.224-10.75 6.336-17.85 6.336-7.11 0-13.16-2.112-18.15-6.336-4.8-4.416-7.2-10.08-7.2-16.992Zm4.03 49.536h42.34V382h-42.34V249.52ZM2536.32 333.904c10.17 8.448 18.81 14.208 25.92 17.28 7.29 2.88 13.25 4.32 17.85 4.32 8.64 0 12.96-3.456 12.96-10.368 0-4.224-2.01-7.584-6.04-10.08-4.04-2.688-11.43-5.76-22.18-9.216-6.15-2.112-12.1-4.8-17.86-8.064-5.76-3.264-10.46-7.584-14.11-12.96-3.65-5.376-5.47-12.288-5.47-20.736 0-12.096 4.7-21.312 14.11-27.648 9.41-6.528 21.22-9.792 35.42-9.792 11.33 0 21.7 1.92 31.11 5.76 9.41 3.648 17.95 8.256 25.63 13.824l-15.55 28.512c-5.38-5.184-11.71-9.504-19.01-12.96-7.1-3.456-13.63-5.184-19.58-5.184-3.84 0-6.82.768-8.93 2.304-1.92 1.536-2.88 3.552-2.88 6.048 0 4.416 2.59 7.68 7.77 9.792 5.38 2.112 12.96 5.088 22.76 8.928 6.91 2.496 13.24 5.376 19 8.64 5.76 3.264 10.37 7.392 13.83 12.384 3.65 4.992 5.47 11.616 5.47 19.872 0 14.016-4.32 24.672-12.96 31.968-8.64 7.296-20.93 10.944-36.86 10.944-14.4 0-27.17-2.304-38.31-6.912-11.13-4.8-21.21-10.752-30.24-17.856l18.15-28.8ZM2644.91 249.52h23.33v-46.08h42.04v46.08h23.33v36h-23.33V382h-42.04v-96.48h-23.33v-36ZM2749.56 199.984c0-6.912 2.4-12.576 7.2-16.992 4.99-4.416 11.04-6.624 18.14-6.624 7.1 0 13.06 2.208 17.86 6.624 4.99 4.416 7.48 10.08 7.48 16.992 0 6.912-2.49 12.576-7.48 16.992-4.8 4.224-10.76 6.336-17.86 6.336s-13.15-2.112-18.14-6.336c-4.8-4.416-7.2-10.08-7.2-16.992Zm4.03 49.536h42.33V382h-42.33V249.52ZM2868.32 315.76c0 10.56 3.45 18.912 10.37 25.056 6.91 6.144 15.26 9.216 25.05 9.216 7.87 0 15.36-1.632 22.47-4.896 7.1-3.456 12.57-8.352 16.41-14.688v42.336c-4.61 3.648-10.37 6.624-17.28 8.928-6.91 2.112-15.36 3.168-25.34 3.168-14.79 0-27.94-2.88-39.46-8.64-11.52-5.76-20.64-13.824-27.36-24.192-6.53-10.368-9.79-22.464-9.79-36.288 0-14.016 3.26-26.112 9.79-36.288 6.72-10.368 15.84-18.432 27.36-24.192 11.52-5.76 24.67-8.64 39.46-8.64 9.98 0 18.43 1.152 25.34 3.456 6.91 2.112 12.67 4.8 17.28 8.064v42.624c-3.84-6.336-9.5-11.136-16.99-14.4-7.49-3.264-14.78-4.896-21.89-4.896-6.53 0-12.48 1.536-17.85 4.608-5.38 2.88-9.7 6.912-12.96 12.096-3.08 5.184-4.61 11.04-4.61 17.568ZM2980.97 333.904c10.18 8.448 18.82 14.208 25.92 17.28 7.3 2.88 13.25 4.32 17.86 4.32 8.64 0 12.96-3.456 12.96-10.368 0-4.224-2.02-7.584-6.05-10.08-4.03-2.688-11.42-5.76-22.17-9.216-6.15-2.112-12.1-4.8-17.86-8.064-5.76-3.264-10.46-7.584-14.11-12.96-3.65-5.376-5.47-12.288-5.47-20.736 0-12.096 4.7-21.312 14.11-27.648 9.41-6.528 21.21-9.792 35.42-9.792 11.33 0 21.7 1.92 31.11 5.76 9.4 3.648 17.95 8.256 25.63 13.824l-15.55 28.512c-5.38-5.184-11.72-9.504-19.01-12.96-7.11-3.456-13.63-5.184-19.59-5.184-3.84 0-6.81.768-8.92 2.304-1.92 1.536-2.88 3.552-2.88 6.048 0 4.416 2.59 7.68 7.77 9.792 5.38 2.112 12.96 5.088 22.75 8.928 6.92 2.496 13.25 5.376 19.01 8.64 5.76 3.264 10.37 7.392 13.83 12.384 3.64 4.992 5.47 11.616 5.47 19.872 0 14.016-4.32 24.672-12.96 31.968-8.64 7.296-20.93 10.944-36.87 10.944-14.4 0-27.16-2.304-38.3-6.912-11.14-4.8-21.22-10.752-30.24-17.856l18.14-28.8ZM3195.78 180.4h48.67v159.552h80.93V382h-129.6V180.4ZM3328.07 249.52h23.32v-46.08h42.05v46.08h23.33v36h-23.33V382h-42.05v-96.48h-23.32v-36ZM3427.53 315.76c0-14.976 2.97-27.552 8.93-37.728 5.95-10.368 13.72-18.144 23.32-23.328 9.6-5.376 19.78-8.064 30.53-8.064 19.59 0 34.75 8.064 45.51 24.192V157.36h43.48V382h-43.48v-21.312c-10.76 16.128-25.92 24.192-45.51 24.192-10.75 0-20.93-2.592-30.53-7.776-9.6-5.376-17.37-13.248-23.32-23.616-5.96-10.368-8.93-22.944-8.93-37.728Zm45.79 0c0 10.368 3.07 18.624 9.22 24.768 6.33 6.144 13.82 9.216 22.46 9.216 4.99 0 9.79-1.344 14.4-4.032 4.8-2.688 8.74-6.528 11.81-11.52 3.07-5.184 4.61-11.328 4.61-18.432 0-7.296-1.54-13.44-4.61-18.432-3.07-4.992-7.01-8.832-11.81-11.52-4.61-2.688-9.41-4.032-14.4-4.032-8.64 0-16.13 3.072-22.46 9.216-6.15 6.144-9.22 14.4-9.22 24.768Z" fill="#000"/>
    <defs>
        <radialGradient id="a" cx="0" cy="0" r="1" gradientUnits="userSpaceOnUse" gradientTransform="matrix(0 267.682 -276.675 0 277 282.31)">
            <stop stop-color="#9684B4"/>
            <stop offset=".375" stop-color="#6F5E8B"/>
            <stop offset=".696" stop-color="#564277"/>
            <stop offset=".938" stop-color="#483369"/>
        </radialGradient>
        <radialGradient id="b" cx="0" cy="0" r="1" gradientUnits="userSpaceOnUse" gradientTransform="matrix(-128.99945 160.18517 -165.7181 -133.4552 277 338.374)">
            <stop stop-color="#fff"/>
            <stop offset=".781" stop-color="#fff" stop-opacity="0"/>
        </radialGradient>
        <radialGradient id="c" cx="0" cy="0" r="1" gradientUnits="userSpaceOnUse" gradientTransform="matrix(0 226.261 -233.863 0 277 344.381)">
            <stop stop-color="#fff"/>
            <stop offset=".849" stop-color="#fff" stop-opacity="0"/>
        </radialGradient>
        <radialGradient id="d" cx="0" cy="0" r="1" gradientUnits="userSpaceOnUse" gradientTransform="matrix(0 207.612 -214.588 0 277 342.379)">
            <stop stop-color="#fff"/>
            <stop offset=".328" stop-color="#fff" stop-opacity="0"/>
        </radialGradient>
        <radialGradient id="e" cx="0" cy="0" r="1" gradientUnits="userSpaceOnUse" gradientTransform="matrix(0 267.682 -276.675 0 277 282.31)">
            <stop stop-color="#9684B4"/>
            <stop offset=".375" stop-color="#6F5E8B"/>
            <stop offset=".696" stop-color="#564277"/>
            <stop offset=".938" stop-color="#483369"/>
        </radialGradient>
        <radialGradient id="f" cx="0" cy="0" r="1" gradientUnits="userSpaceOnUse" gradientTransform="matrix(-128.99945 160.18517 -165.7181 -133.4552 277 338.374)">
            <stop stop-color="#fff"/>
            <stop offset=".781" stop-color="#fff" stop-opacity="0"/>
        </radialGradient>
        <radialGradient id="g" cx="0" cy="0" r="1" gradientUnits="userSpaceOnUse" gradientTransform="matrix(0 226.261 -233.863 0 277 344.381)">
            <stop stop-color="#fff"/>
            <stop offset=".849" stop-color="#fff" stop-opacity="0"/>
        </radialGradient>
        <radialGradient id="h" cx="0" cy="0" r="1" gradientUnits="userSpaceOnUse" gradientTransform="matrix(0 207.612 -214.588 0 277 342.379)">
            <stop stop-color="#fff"/>
            <stop offset=".328" stop-color="#fff" stop-opacity="0"/>
        </radialGradient>
        <radialGradient id="i" cx="0" cy="0" r="1" gradientUnits="userSpaceOnUse" gradientTransform="matrix(0 267.682 -276.675 0 277 282.31)">
            <stop stop-color="#9684B4"/>
            <stop offset=".375" stop-color="#6F5E8B"/>
            <stop offset=".696" stop-color="#564277"/>
            <stop offset=".938" stop-color="#483369"/>
        </radialGradient>
        <radialGradient id="j" cx="0" cy="0" r="1" gradientUnits="userSpaceOnUse" gradientTransform="matrix(-128.99945 160.18517 -165.7181 -133.4552 277 338.374)">
            <stop stop-color="#fff"/>
            <stop offset=".781" stop-color="#fff" stop-opacity="0"/>
        </radialGradient>
        <radialGradient id="k" cx="0" cy="0" r="1" gradientUnits="userSpaceOnUse" gradientTransform="matrix(0 226.261 -233.863 0 277 344.381)">
            <stop stop-color="#fff"/>
            <stop offset=".849" stop-color="#fff" stop-opacity="0"/>
        </radialGradient>
        <radialGradient id="l" cx="0" cy="0" r="1" gradientUnits="userSpaceOnUse" gradientTransform="matrix(0 207.612 -214.588 0 277 342.379)">
            <stop stop-color="#fff"/>
            <stop offset=".328" stop-color="#fff" stop-opacity="0"/>
        </radialGradient>
    </defs>
</svg>
