<svg width="169" height="209" fill="none" xmlns="http://www.w3.org/2000/svg">
    <g opacity=".2" clip-path="url(#a)" fill="#fff">
        <path d="M167.191 37.597c1.929 6.22 2.461 7.493 1.263 16.167-6.571 47.557-53.273 110.786-82.364 113.218l.084-.007c-4.014-10.131-11.735-26.187-11.396-50.183.306-21.566 12.311-33.564 12.311-33.564s24.773-1.443 48.733-13.365c18.531-9.221 29.677-29.366 31.369-32.266Z"/>
        <path d="m166.024 34.368-.108-.256c-1.191 2.31-11.476 18.953-35.741 28.612-25.943 10.328-40.746 7.139-40.746 7.139s-14.803-20.572-35.1-32.267c-16.88-9.725-41.052-11.018-48.52-8.518C19.073 8.074 48.528 0 86.088 0c37.561 0 69.27 8.695 79.935 34.368Z"/>
        <path d="M5.036 30.36a2.424 2.424 0 0 0-.013.023c8.017.125 23.29 3.802 38.928 11.535 24.265 11.998 33.727 33.564 33.727 33.564s-14.498 18.225-13.43 39.791c0 17.921 14.044 41.821 18.98 51.727C54.154 164.848 7.225 101.445.637 53.764c-1.7-12.307.083-15.87 4.4-23.403Z"/>
    </g>
    <defs>
        <clipPath id="a">
            <path fill="#fff" d="M0 0h169v209H0z"/>
        </clipPath>
    </defs>
</svg>
