<svg width="91" height="68" xmlns="http://www.w3.org/2000/svg">
    <path opacity=".5" fill-rule="evenodd" clip-rule="evenodd" d="M42.641.011c-.262.008-.49.025-.52.039a.461.461 0 0 0-.223.268c-.024.082-.024.695-.003 3.28.023 2.747.031 3.185.06 3.228.056.086.185.108.642.108.47 0 .602-.024.678-.12.045-.057.046-.068.03-1.179l-.017-1.12.552-.012c.733-.015 1.092-.08 1.52-.279.848-.392 1.295-1.184 1.25-2.218-.025-.566-.174-.962-.49-1.3-.328-.351-.77-.564-1.375-.662-.25-.04-1.3-.057-2.104-.033Zm6.864.22c-.09.055-.113.095-.293.493-.172.378-.386.847-1.179 2.578-.526 1.148-.797 1.74-1.244 2.724-.196.43-.223.502-.225.617-.003.115.003.135.053.173.082.061.358.105.752.12.484.02.423.079.791-.777.163-.377.303-.694.314-.704.01-.01.171-.003.359.016l.812.078c1.115.106 1.412.138 1.426.152.007.008.034.11.059.225.112.52.275 1.228.293 1.277.013.033.059.071.117.097.13.057.582.114.937.118.262.003.296-.001.34-.041.045-.04.048-.06.038-.21-.006-.1-.083-.459-.192-.898a800.43 800.43 0 0 1-.864-3.52l-.269-1.097c-.315-1.29-.297-1.233-.42-1.297-.095-.049-.34-.092-.746-.131-.492-.047-.773-.045-.859.007ZM36.916.57c-.403.055-.706.117-.808.165-.092.044-.149.144-.187.333l-.345 1.748-.453 2.292c-.524 2.627-.514 2.566-.457 2.675.047.09.1.102.388.085.334-.02.737-.106.832-.178.088-.067.08-.04.236-.932.062-.354.119-.65.127-.66.01-.008.125-.03.259-.048l1.281-.178c.572-.08 1.041-.142 1.044-.139l.192.393c.452.931.488 1 .545 1.037.076.05.29.045.727-.016.555-.078.664-.13.642-.3-.011-.087-.173-.42-.707-1.463a1716.569 1716.569 0 0 1-1.046-2.037c-.076-.146-.39-.759-.698-1.362-.722-1.412-.69-1.354-.775-1.412-.064-.044-.098-.05-.285-.047a5.225 5.225 0 0 0-.512.044Zm7.357.53c.415.06.684.278.818.664.041.118.05.193.051.42.002.432-.09.701-.318.928-.243.243-.456.305-1.09.318l-.434.008-.014-.198c-.008-.11-.014-.64-.014-1.18v-.983h.427c.234 0 .492.01.574.022Zm-11.035.053c-.005.005-.228.065-.496.134l-.997.258a1636.004 1636.004 0 0 1-2.635.682c-.648.166-.645.164-.624.422.026.33.18.751.293.803.046.02.1.014.293-.034.384-.096 1.27-.326 1.383-.359l.104-.03.022.081a305.584 305.584 0 0 1 .29 1.123c.103.393.514 1.983.916 3.537.2.772.184.73.294.769.08.028.118.027.329-.007.254-.042.666-.166.78-.235a.398.398 0 0 0 .107-.1c.04-.062.052-.014-.38-1.672l-.264-1.019-.467-1.805c-.19-.73-.258-1.009-.25-1.017.008-.008.17-.05 1.226-.323.244-.063.46-.124.482-.135.055-.03.07-.111.054-.316-.02-.267-.137-.623-.238-.723-.038-.039-.193-.063-.222-.034Zm24.828.3c-.512.053-.641.13-.753.45-.074.208-.139.541-.123.625.023.125.064.131.384.063.246-.053.332-.061.68-.062.345-.001.425.005.597.05.407.103.666.275.79.525.066.136.069.15.059.358-.014.273-.073.432-.223.596-.18.197-.439.297-.766.296-.217 0-.396-.031-.9-.154-.249-.061-.462-.111-.474-.111a.271.271 0 0 0-.087.056c-.072.06-.147.258-.212.557-.08.37-.08.371.574.537.559.143.627.165.831.266.289.143.45.297.561.532.06.128.068.168.068.344 0 .451-.24.792-.65.922-.209.066-.564.065-.832-.002-.453-.114-.77-.287-1.174-.641a.986.986 0 0 0-.203-.148c-.064-.017-.133.023-.173.101-.065.125-.167.6-.167.778 0 .151.007.177.062.246.42.529 1.529.935 2.552.935.631 0 1.076-.137 1.478-.457.273-.217.522-.615.629-1.003.065-.236.072-.704.013-.915a1.634 1.634 0 0 0-.846-1.02l-.167-.083.219-.026c.677-.08 1.142-.47 1.362-1.145.166-.507.119-1.026-.128-1.404-.405-.62-1.371-1.026-2.55-1.074a3.76 3.76 0 0 0-.431.007Zm-7.832.488c.453 1.96.597 2.613.582 2.628a2.929 2.929 0 0 1-.361-.024l-.838-.08c-.268-.025-.539-.052-.602-.061l-.116-.016.14-.321c.157-.365.646-1.485.893-2.049.09-.207.17-.394.177-.416.022-.072.044-.011.125.339Zm-12.987.537.675 1.376c.227.462.41.843.405.847-.008.008-.312.052-1.19.173l-.636.09c-.066.012-.072.008-.072-.044 0-.031.04-.274.088-.538l.267-1.478c.057-.336.157-.891.168-.924.006-.022.016-.04.022-.04.006 0 .128.242.273.538Zm-11.044.661c-1.058.123-2.07.809-2.498 1.692-.213.439-.287.794-.285 1.373 0 .648.11 1.145.411 1.871.506 1.218 1.34 2.001 2.311 2.168.789.136 1.725-.095 2.515-.62.267-.177.677-.58.762-.75.106-.21.067-.438-.156-.902-.115-.24-.18-.3-.27-.249a.796.796 0 0 0-.155.154c-.289.36-.358.437-.523.578-.216.185-.615.391-.9.464-.245.064-.591.068-.797.01-.41-.114-.782-.413-1.075-.863-.389-.596-.675-1.466-.674-2.052 0-.577.24-1.104.63-1.382.518-.37 1.126-.455 1.912-.268.323.076.383-.093.2-.562a2.24 2.24 0 0 0-.25-.483c-.14-.165-.628-.24-1.158-.179Zm38.973.38c-.052.026-.214.21-.842.958l-2.9 3.438c-.372.442-.707.858-.744.924-.063.114-.064.124-.032.182.053.097.198.179.547.31.348.131.544.167.637.117.029-.015.264-.29.522-.612.259-.32.481-.584.494-.584.014 0 .259.09.545.201l1.184.454c.365.14.672.263.682.273.01.01.008.206-.005.436-.053.959-.055 1.132-.015 1.192.044.068.3.195.678.336.567.211.665.192.697-.136.007-.072.033-.779.057-1.57a2195.297 2195.297 0 0 1 .145-4.742l.015-.533-.075-.085c-.089-.102-.284-.197-.795-.39-.538-.202-.673-.23-.795-.169Zm.322 1.483a5.849 5.849 0 0 0-.023.394c-.02.543-.101 2.297-.115 2.476-.014.193.026.192-.434.014-.487-.19-.914-.354-1.156-.447-.12-.046-.22-.09-.221-.097-.001-.007.298-.38.664-.83.366-.45.8-.984.963-1.187a4.93 4.93 0 0 1 .315-.371c.01 0 .012.021.007.048Zm5.05.88c-.128.04-.211.158-.472.665a486.978 486.978 0 0 1-.782 1.517l-.376.731-.41.797c-.144.28-.313.61-.377.731-.064.122-.257.499-.43.837-.305.594-.315.618-.288.684.037.088.226.227.507.371.433.223.627.27.713.173.024-.027.133-.224.243-.437a1217.78 1217.78 0 0 0 .883-1.716 1362.603 1362.603 0 0 1 1.29-2.508c.088-.174.174-.316.19-.316.016 0 .12.048.232.108.112.059.413.215.669.346.256.13.616.317.8.412.217.113.36.175.407.175.104 0 .22-.137.37-.438.105-.208.128-.274.135-.392l.01-.141-.086-.053a23.42 23.42 0 0 0-.706-.37l-.82-.422c-.83-.436-1.473-.753-1.55-.762a.433.433 0 0 0-.153.009ZM20.28 7.878a1.48 1.48 0 0 0-.858.457 1.54 1.54 0 0 0-.356.936c0 .631.467 1.221 1.08 1.365.896.21 1.734-.46 1.733-1.383a1.386 1.386 0 0 0-.785-1.242 1.385 1.385 0 0 0-.814-.133Zm-5.41.888c-.093.063-.936.743-3.281 2.646-.184.15-.361.302-.392.34-.102.12-.105.303-.006.448.029.042.44.554.912 1.137l1.944 2.4c.596.738 1.109 1.368 1.14 1.402.107.115.28.06.602-.191.37-.29.56-.52.513-.625-.021-.045-.851-1.075-2.854-3.542-.366-.45-.66-.826-.656-.835.02-.037 1.982-1.614 1.999-1.608.016.007.493.592 2.87 3.529.745.92.703.884.914.777.136-.069.41-.275.605-.454.154-.141.244-.284.225-.358-.007-.024-.402-.525-.878-1.114-2.349-2.902-3.186-3.927-3.24-3.966a.396.396 0 0 0-.184-.052c-.11-.008-.134-.002-.233.066Zm60.437.728c-.934.198-1.786.863-2.526 1.97-.776 1.163-.925 2.193-.447 3.1.144.272.3.483.559.75.495.513 1.05.895 1.599 1.1.989.37 1.93.218 2.852-.464.228-.169.73-.673.94-.943 1.143-1.473 1.32-2.747.538-3.863a4.379 4.379 0 0 0-.359-.42c-.641-.66-1.373-1.091-2.093-1.23a3.145 3.145 0 0 0-1.063 0Zm1.114 1.252c.364.075.665.25 1.003.585.175.174.228.242.304.398.135.276.167.426.153.72-.023.474-.245.966-.728 1.607-.515.684-1.028 1.088-1.549 1.22-.155.039-.228.045-.44.035a1.249 1.249 0 0 1-.627-.16 2.435 2.435 0 0 1-.648-.502 1.391 1.391 0 0 1-.366-.613c-.071-.237-.055-.596.04-.881.192-.57.663-1.27 1.209-1.797.531-.513 1.1-.725 1.648-.612ZM8.834 13.919c-.133.041.02-.127-1.957 2.17-.425.495-.879 1.021-1.008 1.17-.266.31-.334.42-.334.542 0 .17.032.203.853.907 1.109.95 3.402 2.922 3.831 3.293.146.127.287.24.313.252.099.046.29-.094.557-.409.273-.322.38-.513.341-.615-.015-.041-.1-.116-1.499-1.317A4389.451 4389.451 0 0 1 7.2 17.564c-.024-.023.067-.14.52-.667.992-1.154 1.122-1.304 1.136-1.31.007-.002.212.166.456.376.87.746 2.021 1.737 2.392 2.057 1.577 1.36 1.447 1.265 1.605 1.169.165-.1.57-.564.677-.774.1-.197.11-.18-.455-.666-.811-.695-3.16-2.715-3.843-3.303a8.7 8.7 0 0 0-.586-.48c-.1-.051-.196-.068-.267-.047Zm73.327.398c-.129.041-.247.134-1.321 1.035l-1.921 1.612c-1.68 1.407-1.795 1.507-1.817 1.569-.017.048-.01.083.03.166.11.228.45.636.653.784.165.12.147.13.956-.548.401-.335.786-.66.855-.72.07-.06.13-.108.136-.108.006 0 .13.142.276.316.638.759 1.132 1.11 1.766 1.257.181.042.252.047.504.037.207-.008.341-.026.459-.06.259-.076.595-.249.834-.429.628-.473.916-.979.915-1.609-.001-.65-.257-1.185-.98-2.05l-.643-.77c-.334-.399-.41-.463-.57-.487a.353.353 0 0 0-.132.005Zm.452 1.863c.45.536.557.75.54 1.084-.012.253-.109.46-.31.663-.359.365-.816.532-1.19.436-.295-.075-.449-.195-.835-.653-.24-.284-.25-.3-.213-.336.18-.172 1.767-1.48 1.78-1.466l.228.272ZM32.1 18.675a9.382 9.382 0 0 0-.97.185c-1.666.418-3.755 1.476-5.197 2.632-.971.779-1.323 1.38-.923 1.573.192.093.313.086 1.056-.064 5.852-1.177 10.356-1.236 14.414-.188.534.138.63.168.608.187-.01.009-.118.089-.24.178-1.791 1.31-3.645 3.037-4.995 4.65-1.346 1.61-2.39 3.331-3.088 5.095-.951 2.402-1.226 4.85-.819 7.285.074.438.113.618.29 1.307.04.156.238.777.33 1.03.142.394.34.871.513 1.231l.143.301 1.72.015a176.8 176.8 0 0 1 2.44.035c.396.012 1.278.028 1.96.037l1.238.016-.061-.076c-.977-1.197-1.41-2.41-1.413-3.95a5.835 5.835 0 0 1 .37-2.128c.817-2.253 2.931-3.995 5.512-4.54 2.45-.517 5.01.073 6.885 1.587 1.246 1.007 2.079 2.332 2.393 3.807.182.859.163 1.858-.053 2.736a6.58 6.58 0 0 1-1.278 2.582l-.156.196c-.028.037.036.04 1.306.052.735.008 2.213.02 3.286.026l1.951.012.057-.128c.447-1.016.802-2.185.99-3.262.115-.664.144-1.033.143-1.838 0-.66-.007-.816-.05-1.14-.221-1.698-.801-3.09-1.816-4.363a11.432 11.432 0 0 0-1.144-1.179c-1.48-1.278-3.47-2.183-5.813-2.64-2.708-.527-6.011-.442-9.313.241-.11.023-.202.04-.204.036-.01-.01.12-.378.226-.633.137-.335.43-.922.619-1.24a7.542 7.542 0 0 1 1.164-1.53c.615-.618 1.124-.927 1.84-1.115 1.391-.366 3.252-.62 5.756-.788 1.394-.093 2.427-.135 6.533-.266.409-.012.772-.029.809-.036.163-.033 1.297-.568 1.927-.91 2.143-1.167 3.523-2.551 4.017-4.031a7 7 0 0 0 .09-.28 1.64 1.64 0 0 0-.26 0l-1.245.042c-1.343.044-1.561.052-2.58.089-.487.018-1.245.043-1.683.056-.439.013-1.072.034-1.407.046-.948.035-6.015.05-7.286.022a200.183 200.183 0 0 1-3.4-.101c-.072-.006-1.283-.02-2.69-.032-2.884-.025-4.49-.068-5.858-.158a59.34 59.34 0 0 1-3.599-.31c-.683-.08-1.5-.197-2.037-.293-.37-.066-.816-.096-1.008-.068ZM4.06 20.043c-.046.032-.123.173-.533.965l-.76 1.461-.805 1.553c-.122.236-.213.438-.213.474 0 .101.161.235.457.38.275.134.448.173.521.114.033-.026.329-.579.668-1.247.068-.134.137-.263.155-.287.03-.04.08-.017 1.114.518a964.133 964.133 0 0 1 3.053 1.584c.208.107.478.248.602.314.246.13.305.141.391.073.147-.115.445-.655.516-.932.062-.243.117-.198-.855-.7a592.216 592.216 0 0 1-1.805-.936c-.22-.113-.603-.312-.853-.443-.25-.13-.683-.355-.963-.498a27.58 27.58 0 0 1-.52-.27.804.804 0 0 1 .083-.191c.562-1.079.714-1.383.714-1.43 0-.095-.19-.252-.47-.39-.278-.135-.421-.168-.498-.112Zm82.41.92a593.301 593.301 0 0 1-3.256.508l-2.436.378c-.502.079-.595.108-.644.203-.045.087-.017.185.148.508.233.458.361.618.497.618.025 0 .27-.04.543-.089l.696-.123c.11-.02.215-.04.235-.045.026-.007.082.078.22.34.1.192.21.399.243.46l.2.376.369.697.229.43-.13.134c-.657.679-.942.984-.959 1.027-.033.087.02.244.2.591.3.58.392.686.539.623.106-.045.336-.287 2.497-2.627l1.278-1.379c.538-.58.996-1.081 1.016-1.112.082-.125-.001-.359-.368-1.034-.248-.455-.358-.576-.52-.57-.036.002-.305.04-.598.087Zm-.157 1.357c-.573.608-1.989 2.076-2.003 2.076-.01 0-.14-.232-.289-.515-.15-.283-.298-.565-.331-.625-.213-.395-.29-.547-.283-.555.004-.005.157-.034.34-.066a1340.15 1340.15 0 0 0 2.412-.42 2.14 2.14 0 0 1 .22-.031c.063-.003.062 0-.066.136Zm-55.885 2.478c-.773.01-1.854.011-2.402.004-1.133-.014-1.041-.024-1.932.194-1.21.295-2.11.665-2.744 1.128-.2.146-.522.48-.64.66-.296.46-.453 1.045-.453 1.684v.185l.06-.015c.117-.03.993-.215 1.169-.247.82-.151 1.04-.188 1.694-.285 1.553-.229 3.468-.39 5.403-.454.891-.03 2.462-.066 2.883-.067h.324l.139-.227c.395-.647.718-1.069 1.15-1.501a6.22 6.22 0 0 1 1.308-1.012l.12-.071-2.336.003a431.2 431.2 0 0 0-3.743.02Zm1.285 4.773c-.732.018-1.931.094-2.735.174-.442.044-1.41.145-2.314.243-.436.047-1.399.14-1.617.155-.7.051-1.92.413-2.591.767-1.064.563-1.627 1.299-1.819 2.378-.037.213-.05.387-.058.879l-.011.613.13-.03.695-.164a102.112 102.112 0 0 1 1.362-.313c.428-.098.537-.121 1.284-.277a33.287 33.287 0 0 1 3.178-.519 31.769 31.769 0 0 1 2.971-.178h.391l.055-.094c.03-.052.177-.329.326-.615.473-.908.623-1.175.88-1.572.398-.611.845-1.084 1.307-1.38a.428.428 0 0 0 .094-.071c0-.01-1.053-.008-1.528.004Zm-28.08 4a1425.091 1425.091 0 0 1-.667 1.431l-.054.12-1.46-.015A60.37 60.37 0 0 0 0 35.101c.013.011.51.278.895.479.843.44 1.442.759 1.458.774.016.015-.108.299-.544 1.241-.232.504-.326.717-.317.726.005.005.182-.08.393-.19.327-.169 1.544-.79 1.889-.964l.11-.056.2.107c.11.059.549.289.975.51l.96.503c.101.054.19.094.195.088.006-.007-.184-.451-.422-.988a39.387 39.387 0 0 1-.434-.995c0-.011.53-.292 1.177-.626l1.178-.606-1.476-.006-1.476-.006-.03-.05c-.017-.027-.219-.47-.448-.985-.23-.514-.423-.935-.43-.935-.007 0-.107.201-.222.448Zm83.096-.25c-.084.184-.16.35-.359.775a1155.979 1155.979 0 0 0-.4.858l-.107.227h-1.457l-1.458.001.21.112.565.297c1.188.622 1.573.83 1.579.857.003.016-.194.461-.438.99-.244.528-.443.964-.443.97 0 .004.341-.167.758-.38.418-.215.96-.49 1.204-.614l.445-.225.696.361c.382.199.745.388.806.422.418.227.858.444.847.418l-.448-1.005c-.399-.892-.432-.976-.397-1.002.021-.015.194-.107.384-.203l1.142-.587.797-.411-.388-.004c-.213-.001-.88-.009-1.482-.017l-1.096-.013-.152-.343c-.22-.495-.68-1.508-.714-1.573-.029-.054-.03-.053-.094.089Zm-40.045 2.483v1.93l-.172-.015a4.165 4.165 0 0 1-.792-.176c-.782-.271-1.517-.767-2.303-1.553-.319-.318-.801-.865-.977-1.107l-.047-.064-.169.127c-.093.07-.169.132-.169.138 0 .02.11.158.366.463 1.338 1.597 2.73 2.485 4.102 2.613l.16.016V39.855h-6.931v.42l3.46.005 3.46.006v1.594l-.298.017c-1.156.064-2.41.408-3.602.99-.352.171-.977.513-1.138.622-.03.02-.172.114-.315.206-.143.093-.26.18-.26.192 0 .033.206.33.23.331.011 0 .17-.097.355-.217 1.33-.868 2.72-1.42 4.075-1.62.243-.037.789-.088.926-.089.037 0 .039.111.039 2.016v2.015h.42V44.34c0-1.276.008-2.008.022-2.016.033-.02.638.029.964.078 1.374.208 2.758.781 4.073 1.687.085.058.16.106.168.106.014 0 .244-.32.244-.34 0-.02-.513-.358-.842-.556a14.4 14.4 0 0 0-1.56-.777c-.95-.374-1.994-.601-2.924-.636l-.133-.006v-1.594l3.216-.006 3.217-.005v-.42l-3.217-.006-3.216-.006v-1.661l.221-.027c.47-.058.88-.172 1.318-.365.656-.29 1.33-.752 1.941-1.332.467-.442 1.15-1.186 1.133-1.232a3.151 3.151 0 0 0-.316-.266c-.003 0-.084.092-.18.205-1.024 1.206-2.097 2.024-3.11 2.37-.317.109-.724.193-.929.193h-.09V33.875h-.42v1.93ZM83.45 44.35a62.35 62.35 0 0 1-.336.72 214.548 214.548 0 0 1-.441.949l-.09.196-1.452-.008c-.797-.005-1.45-.007-1.45-.004 0 .002.107.061.238.13l.349.186c.06.033.486.257.944.498l.834.439-.061.135-.255.557c-.52 1.128-.588 1.277-.588 1.287 0 .006.043-.014.094-.043.052-.03.423-.22.825-.425.402-.204.9-.459 1.108-.566l.377-.196.243.128c.46.241 1.141.598 1.755.918.198.103.36.184.36.179 0-.005-.2-.458-.444-1.008a37.811 37.811 0 0 1-.438-1.004c.011-.008.661-.344 1.18-.61a123.855 123.855 0 0 0 1.053-.545l.121-.064-1.482-.011-1.481-.011-.426-.951a48.477 48.477 0 0 0-.448-.986c-.018-.028-.035-.006-.089.11Zm-76.129.003c-.017.04-.077.169-.131.285-.126.266-.216.458-.464.996-.11.238-.223.48-.253.537l-.053.105H4.977c-.828 0-1.435.009-1.423.02.012.01.116.069.232.13l1.107.581c.493.26.919.485.946.501l.048.03-.112.239c-.062.13-.16.343-.218.47a158.782 158.782 0 0 1-.57 1.238c-.01.026.529-.243 2.1-1.047l.3-.154.885.461 1.181.617c.164.085.292.14.285.124L9.29 48.48c-.238-.535-.426-.98-.417-.988.02-.018.302-.165 1.422-.74.47-.241.863-.447.874-.458.012-.01-.423-.02-.985-.022a77.826 77.826 0 0 1-1.472-.016l-.465-.014-.434-.97c-.24-.533-.44-.975-.448-.982-.007-.007-.027.021-.045.062Zm26.603.846c.053.058.053.058.007.075-.041.015-.011.057.304.416 2.012 2.292 4.692 3.897 7.841 4.697.604.154 1.282.28 1.993.372 1.255.161 2.498.184 3.787.068 3.578-.323 6.898-1.726 9.428-3.983.454-.405 1.358-1.334 1.358-1.395 0-.008-.016-.014-.036-.014-.033 0-.033-.005-.001-.053l.035-.053-.36-.014c-.197-.007-1.31-.023-2.473-.035a214.718 214.718 0 0 1-2.403-.033 35.71 35.71 0 0 0-.936-.013l-.648-.002-.138.108c-.758.595-1.827 1.102-2.884 1.368-2.44.614-5.28.076-7.125-1.35l-.149-.115-1.202-.016-2.952-.035-2.624-.035-.875-.015.053.057Zm41.32 8.12a514.416 514.416 0 0 0-.573 1.233l-.31.667-1.454-.011c-.943-.008-1.446-.004-1.432.01.02.018 1.49.797 2.121 1.123.183.094.215.119.206.157a34.58 34.58 0 0 1-.444.983c-.238.516-.428.943-.423.948a2.03 2.03 0 0 0 .282-.134c.15-.078.583-.3.96-.491.378-.193.79-.404.916-.47l.229-.12.158.082.834.435c.813.427 1.347.704 1.357.704.006 0-.182-.436-.419-.97a27.406 27.406 0 0 1-.435-1.007c-.005-.042.028-.06 1.302-.713a66.499 66.499 0 0 0 .92-.48l.099-.053-1.47-.01-1.472-.012-.416-.93c-.229-.511-.43-.96-.448-.996l-.032-.067-.055.122ZM16.81 54.82l-.463.996-.21.448-1.45.006-1.451.005.44.231c.243.127.566.298.718.38l.61.32c.306.158.563.296.584.313.008.006-.194.45-.792 1.744-.05.108-.091.206-.091.217 0 .01.171-.07.382-.178a313.364 313.364 0 0 1 1.684-.864l.327-.168.326.17 1.167.61c.463.242.844.434.847.427.003-.007-.188-.45-.426-.984a29.852 29.852 0 0 1-.432-.996c0-.014.162-.108.36-.208.198-.1.52-.265.714-.367l.806-.415.45-.231-.727-.014c-.4-.008-1.063-.015-1.472-.017l-.743-.003-.257-.57-.44-.985a5.298 5.298 0 0 0-.197-.414c-.006 0-.125.246-.264.547Zm48.083 4.9-.233.498-.356.764-.233.498-1.457.01-1.458.012.188.097.598.314.698.368c.768.403.875.461.875.478 0 .01-.146.333-.324.72-.392.85-.562 1.223-.562 1.237 0 .005.361-.175.803-.402.441-.226.983-.502 1.202-.612l.4-.202.52.272 1.227.642c.147.076.34.178.428.227a.88.88 0 0 0 .169.08c.004-.004-.192-.455-.435-1.001-.257-.576-.434-1.002-.423-1.013.02-.02.526-.283 1.657-.86.34-.175.63-.326.64-.337.013-.01-.374-.02-.887-.02-.5 0-1.163-.006-1.474-.014l-.565-.014-.417-.932c-.229-.513-.429-.958-.444-.988-.027-.053-.032-.047-.137.177Zm-37.011.439c0 .01-.183.411-.407.891-.224.48-.427.92-.453.978l-.046.105H24.06l.465.245.687.362.714.377c.271.143.493.269.493.279 0 .01-.093.22-.207.468-.542 1.177-.679 1.478-.679 1.49 0 .008.102-.04.227-.106.125-.065.526-.271.891-.457.366-.186.796-.407.956-.49.285-.149.354-.172.396-.134.012.01.181.102.376.203a419.97 419.97 0 0 1 1.843.96l.072.038-.056-.128-.446-1.009a21.124 21.124 0 0 1-.381-.888c.005-.004.233-.123.507-.264a1562.478 1562.478 0 0 0 1.61-.829 2.47 2.47 0 0 0 .2-.107 75.485 75.485 0 0 0-2.153-.032H28.8l-.44-.986c-.383-.857-.48-1.05-.48-.966Zm15.524.823c-.635.067-1.204.356-1.54.782-.33.417-.484.916-.482 1.565.003 1.08.405 1.719 1.225 1.945.337.094.908.115 1.264.048.2-.038.464-.13.672-.235l.197-.1-.015.187c-.046.598-.22 1.043-.534 1.356-.282.282-.52.38-.978.402a2.876 2.876 0 0 1-.981-.12c-.411-.114-.436-.119-.498-.095-.085.032-.107.145-.098.51.006.275.014.332.053.398.06.104.23.186.55.266.653.165 1.428.139 1.99-.068.634-.234 1.063-.624 1.373-1.25.222-.448.353-.925.42-1.528.038-.349.038-1.47 0-1.792-.159-1.33-.677-2.026-1.656-2.227a3.947 3.947 0 0 0-.962-.044Zm5.548-.01c-.338.035-.741.141-.975.258a2.083 2.083 0 0 0-.708.604c-.175.246-.284.49-.368.83-.046.187-.052.262-.051.654 0 .37.008.478.048.659.18.814.655 1.248 1.484 1.357.68.089 1.131.004 1.805-.34.038-.019-.054.616-.122.838-.172.57-.592.975-1.111 1.074-.36.069-.84.03-1.298-.103-.363-.107-.394-.112-.46-.08-.08.037-.111.163-.114.442-.003.42.059.537.342.644.658.25 1.611.255 2.266.014.164-.06.451-.206.575-.291a2.85 2.85 0 0 0 .59-.603c.211-.319.346-.62.467-1.04.25-.867.27-2.39.044-3.28-.118-.464-.303-.813-.576-1.085-.266-.264-.54-.408-.945-.495a4.352 4.352 0 0 0-.893-.056Zm-10.867.097c-.032.01-.216.12-.41.246l-.494.32c-.512.33-.724.474-.759.513-.06.069-.09.28-.075.542.026.472.075.478.757.103l.58-.32.14-.076v4.431h-1.326l-.046.058c-.075.095-.095.22-.086.517.009.308.047.43.144.468.07.026 3.795.027 3.865 0 .104-.039.139-.175.139-.533 0-.342-.023-.435-.12-.487-.027-.014-.267-.023-.62-.023h-.578v-5.684l-.046-.043c-.043-.038-.09-.042-.526-.047a4.593 4.593 0 0 0-.539.015Zm16.382-.005c-.038.01-.657.404-1.422.906-.317.209-.326.227-.314.667.007.251.016.319.05.37.079.121.204.07 1.158-.468a4 4 0 0 1 .26-.14c.007 0 .012.996.012 2.215v2.214h-1.32l-.05.052c-.094.1-.133.397-.09.695.022.161.037.203.089.254l.061.062h1.915c1.897 0 1.915 0 1.972-.045.08-.063.11-.19.112-.475.002-.295-.015-.388-.09-.476l-.056-.067h-1.169v-2.825c0-1.863-.008-2.84-.023-2.867-.012-.023-.06-.052-.105-.065-.082-.022-.905-.028-.99-.007Zm-10.405 1.028c.16.06.33.225.412.4.127.268.191.616.226 1.225.016.275.02.265-.166.369a1.786 1.786 0 0 1-.886.222c-.645 0-.915-.317-.916-1.079 0-.328.035-.51.142-.721a.84.84 0 0 1 .574-.456 1.29 1.29 0 0 1 .614.04Zm5.289-.045c.354.065.586.321.697.768.066.266.086.43.103.807.017.407.037.367-.251.506-.245.118-.499.18-.76.182-.556.006-.825-.203-.922-.716-.049-.259-.032-.682.036-.895.16-.505.572-.75 1.097-.652Z"/>
</svg>
