<svg width="24" height="25" viewBox="0 0 24 25" fill="none" xmlns="http://www.w3.org/2000/svg">
<g clip-path="url(#clip0_314_8259)">
<path d="M0.875999 11.4071L4.755 7.52911C4.94253 7.34164 5.19684 7.23633 5.462 7.23633C5.72716 7.23633 5.98147 7.34164 6.169 7.52911C6.35647 7.71664 6.46179 7.97095 6.46179 8.23611C6.46179 8.50128 6.35647 8.75559 6.169 8.94311L2.614 12.5001H23C23.2652 12.5001 23.5196 12.6055 23.7071 12.793C23.8946 12.9805 24 13.2349 24 13.5001V13.5001C24 13.7653 23.8946 14.0197 23.7071 14.2072C23.5196 14.3948 23.2652 14.5001 23 14.5001H2.553L6.169 18.1151C6.26198 18.208 6.33574 18.3183 6.38606 18.4397C6.43638 18.5611 6.46229 18.6912 6.46229 18.8226C6.46229 18.954 6.43638 19.0842 6.38606 19.2056C6.33574 19.327 6.26198 19.4372 6.169 19.5301C5.98147 19.7176 5.72716 19.8229 5.462 19.8229C5.19684 19.8229 4.94253 19.7176 4.755 19.5301L0.875 15.6511C0.314062 15.0873 -0.000743866 14.3242 -0.000556946 13.5289C-0.000370026 12.7336 0.314796 11.9707 0.875999 11.4071Z" fill="white"/>
</g>
<defs>
<clipPath id="clip0_314_8259">
<rect width="24" height="24" fill="white" transform="matrix(-1 0 0 1 24 0.5)"/>
</clipPath>
</defs>
</svg>
