<svg width="106" height="36" viewBox="0 0 106 36" fill="none" xmlns="http://www.w3.org/2000/svg">
<g clip-path="url(#clip0_1382_2109)">
<path d="M63.0289 12.9731C63.9679 12.8977 64.9846 12.8158 65.8561 13.2666C66.6755 13.612 67.28 14.4224 67.4175 15.323C67.4905 15.9077 67.596 16.4924 67.5532 17.0856C67.4183 17.0849 67.1494 17.0849 67.0145 17.0849C67.0425 16.0163 67.0125 14.7505 66.1708 13.9864C65.6437 13.5523 64.9572 13.2555 64.2742 13.3036C63.0776 13.1365 61.6258 13.6703 61.2073 14.9427C61.0152 15.4747 60.9761 16.0508 60.9887 16.6126C60.9921 18.8503 60.9887 21.087 60.9905 23.3245C61.0606 24.3186 61.5519 25.3693 62.5111 25.7206C63.6573 26.1514 65.0452 26.1139 66.0791 25.3839C66.5804 24.9512 66.8713 24.3022 66.9585 23.64C67.0556 22.4384 66.9973 21.2253 67.0016 20.0197C66.1217 19.9981 65.2435 20.0376 64.3653 20.0115C64.3574 19.8888 64.3574 19.765 64.3653 19.6423C65.4258 19.6357 66.4881 19.6351 67.5504 19.6436C67.4367 21.4267 67.918 23.3901 67.0036 25.0239C66.3544 26.0794 65.055 26.4592 63.906 26.3534C62.7332 26.4625 61.4886 25.9329 60.8779 24.8584C60.443 23.9504 60.4276 22.9005 60.4402 21.9074C60.4564 19.9572 60.4164 18.0042 60.4572 16.055C60.5098 14.9306 61.0559 13.7894 62.0543 13.2793C62.367 13.148 62.6924 13.0422 63.0253 12.9763L63.0289 12.9731ZM82.0766 12.9761C83.1973 12.8544 84.4247 12.8527 85.4005 13.5196C86.0998 13.9478 86.4836 14.7726 86.5986 15.5805C86.6128 18.2575 86.601 20.9346 86.6033 23.6117C86.5162 24.5189 86.0393 25.4473 85.2323 25.8694C84.3215 26.4835 83.1719 26.3535 82.1424 26.3359C81.2857 26.1792 80.3518 25.7832 79.9526 24.9304C79.6447 24.3938 79.4531 23.7674 79.4911 23.139C79.4954 20.7757 79.4891 18.4124 79.4934 16.0502C79.4855 14.9457 80.0553 13.7959 81.0438 13.3158C81.3755 13.1686 81.7191 13.0444 82.0766 12.9784V12.9761ZM82.1677 13.3572C80.968 13.4903 80.048 14.6328 80.0437 15.8618C80.0366 18.3819 80.0366 20.9031 80.0446 23.4233C80.05 24.4599 80.6754 25.515 81.674 25.7954C82.6277 26.1667 83.7555 26.0458 84.692 25.6935C85.7469 25.2598 86.1381 24.0334 86.1443 22.9506C86.1515 20.7454 86.1529 18.5402 86.1434 16.335C86.1054 15.4562 85.8866 14.4953 85.1857 13.9275C84.3516 13.2018 83.1825 13.2562 82.1685 13.357L82.1677 13.3572ZM70.087 13.032C71.4538 13.0228 72.8205 13.0283 74.1885 13.0283C75.1823 13.1218 76.2482 13.6291 76.6474 14.6334C76.9455 15.4847 76.7979 16.3973 76.8324 17.2805C76.9014 17.9769 76.6025 18.6393 76.1886 19.1656C75.6853 19.6352 75.0251 19.7958 74.3841 19.9345L74.3724 20.0045C75.4146 20.0833 76.4731 20.7059 76.7548 21.8046C77.0181 23.2642 76.5142 24.8839 77.2063 26.2519C76.6392 26.5395 76.5619 25.9821 76.4298 25.624C76.1977 24.2201 76.6862 22.6572 76.0096 21.341C75.385 20.3651 74.133 20.1742 73.0917 20.2024C72.2821 20.1006 71.4627 20.0734 70.6504 20.1279C70.6257 20.1523 70.5779 20.2032 70.5533 20.2277C70.5224 22.1099 70.547 23.9929 70.5435 25.876C70.5226 26.1271 70.6546 26.5871 70.0888 26.2537C70.0825 21.8455 70.0825 17.4366 70.0888 13.0283L70.087 13.032ZM70.5455 13.4052C70.5356 15.5123 70.5391 17.6204 70.5434 19.7277C71.5446 19.7453 72.5475 19.7342 73.5503 19.7277C74.4477 19.6568 75.5108 19.4842 76.0104 18.6C76.5556 17.5472 76.3616 16.3013 76.2267 15.1694C76.0856 14.1406 75.0763 13.5579 74.1591 13.4427C72.9563 13.3589 71.749 13.4193 70.5453 13.4072L70.5455 13.4052ZM89.2484 13.0275H89.7881C89.799 16.4925 89.7817 19.9567 89.7951 23.4216C89.8157 24.3466 90.2817 25.3536 91.1587 25.6918C91.6866 26.0004 92.3001 25.995 92.8899 25.9774C93.9893 26.0605 95.1983 25.3854 95.5019 24.2429C95.6668 23.7364 95.6122 23.1869 95.7098 22.6663C95.7288 19.4534 95.7035 16.2395 95.7208 13.0277L96.1684 13.027C96.1785 16.3341 96.166 19.6416 96.1747 22.9486C96.2373 23.9285 95.8675 24.9326 95.1963 25.6223C94.1011 26.4858 92.6001 26.5169 91.309 26.1986C90.0016 25.8701 89.1645 24.4983 89.2398 23.1386C89.2461 19.7682 89.2335 16.3974 89.2461 13.028L89.2484 13.0275ZM98.8127 13.0307C100.179 13.0221 101.546 13.0248 102.914 13.0285C103.693 13.1209 104.504 13.4106 105.016 14.0596C105.811 15.1925 105.67 16.6846 105.609 18.0037C105.519 18.9203 105.047 19.8479 104.187 20.2009C102.67 20.8726 100.964 20.6129 99.3592 20.6844C99.3418 22.54 99.3727 24.3965 99.3506 26.2524H98.8127C98.808 21.8441 98.8066 17.4359 98.8142 13.0277L98.8127 13.0307ZM99.3626 13.4046C99.3493 15.7005 99.3569 17.9975 99.3597 20.2935C100.513 20.333 101.666 20.2886 102.817 20.1908C103.372 20.087 103.943 19.935 104.395 19.5666C104.926 19.0611 105.135 18.29 105.103 17.5608C105.059 16.597 105.26 15.5463 104.798 14.6582C104.374 13.8153 103.423 13.4394 102.55 13.4074C101.486 13.3964 100.424 13.4 99.3631 13.4057L99.3626 13.4046ZM52.4912 4.40189C52.6708 4.40189 53.035 4.40122 53.2171 4.40122C53.2271 14.8384 53.237 25.2755 53.2097 35.7117C53.0301 35.7117 52.6658 35.7122 52.4837 35.7122C52.4738 25.275 52.4639 14.8379 52.4912 4.40172V4.40189ZM24.3571 13.6742C26.3906 13.6742 27.1426 16.1824 27.1297 16.771C27.1225 19.036 27.1426 21.2961 27.1297 23.5609C27.1179 24.481 26.3911 26.4377 24.3576 26.4377C22.2739 26.4377 20.5873 26.4377 19.2971 26.4377V13.6733C20.5881 13.6733 22.2749 13.6733 24.3576 13.6733L24.3571 13.6742ZM21.2337 15.0912V25.0192C22.5874 25.0192 23.5157 25.0192 24.0184 25.0192C24.7187 25.0192 25.2861 24.1466 25.2779 23.5611C25.288 21.2979 25.2865 19.0338 25.2792 16.7707C25.2787 16.1829 24.7735 15.092 24.0193 15.092C23.513 15.092 22.5848 15.092 21.234 15.092L21.2337 15.0912ZM34.4852 13.6742C35.8232 13.6742 36.6177 13.6742 36.8689 13.6742C37.0482 13.6742 37.1656 13.7823 37.2211 13.9987L39.8859 23.6018L42.544 14.0025C42.6046 13.7835 42.7426 13.6742 42.9581 13.6742C43.1736 13.6742 43.9407 13.6742 45.2594 13.6742L45.2587 26.4386H43.432L43.4154 16.584L40.898 26.1358C40.8701 26.3009 40.7488 26.4019 40.5333 26.4381C40.2638 26.4381 39.5095 26.4381 39.1865 26.4381C39.0072 26.4381 38.8891 26.3373 38.8327 26.1357L36.3498 16.5835V26.4379H34.484L34.4845 13.6735L34.4852 13.6742ZM2.15552 26.4379L-0.00146561 13.6733C0.932887 13.6733 1.5078 13.6733 1.7231 13.6733C1.9384 13.6733 2.07362 13.7816 2.12844 13.9985L3.69648 24.4003L5.65682 14.0025C5.69298 13.814 5.81879 13.7041 6.0341 13.6735C6.41104 13.6735 7.00395 13.6735 7.32706 13.6735C7.54237 13.7041 7.66306 13.8148 7.68915 14.0052L9.6835 24.4003L11.2676 13.999C11.3346 13.7816 11.4581 13.673 11.6376 13.673C11.8889 13.673 12.4625 13.673 13.3583 13.673L11.2035 26.4376H8.36296L6.69222 17.9278L5.01504 26.4376H2.15139L2.15552 26.4379ZM2.03136 6.41103C2.39856 6.41103 2.7055 6.31106 2.95234 6.11097C3.20215 5.90786 3.3372 5.64598 3.35751 5.3255H3.8644C3.84987 5.60881 3.75906 5.86751 3.5918 6.1021C3.42471 6.33383 3.20148 6.51551 2.92245 6.64712C2.64639 6.77873 2.34952 6.84453 2.03218 6.84453C1.40625 6.84453 0.909606 6.63272 0.542238 6.20943C0.177843 5.7858 -0.00427246 5.21633 -0.00427246 4.50085V4.3463C-0.00427246 3.88851 0.0779519 3.48381 0.2424 3.13184C0.406849 2.77988 0.641964 2.50796 0.947416 2.3164C1.25584 2.12485 1.61561 2.02941 2.0269 2.02941C2.5498 2.02941 2.98007 2.18111 3.31805 2.48435C3.659 2.78758 3.84112 3.18676 3.86423 3.68189H3.35735C3.33423 3.31854 3.19917 3.02535 2.95234 2.80232C2.70847 2.57912 2.40005 2.4676 2.0269 2.4676C1.55105 2.4676 1.18072 2.63504 0.91621 2.96976C0.654678 3.30464 0.523911 3.77398 0.523911 4.37778V4.52781C0.523911 5.12022 0.654348 5.58202 0.91588 5.91372C1.18038 6.24543 1.55188 6.41119 2.03086 6.41119L2.03136 6.41103ZM6.07653 4.36773C6.07653 3.92133 6.16453 3.5193 6.3407 3.16198C6.51985 2.80466 6.77098 2.52721 7.0941 2.3298C7.42019 2.1297 7.78904 2.02957 8.20016 2.02957C8.83484 2.02957 9.34916 2.24691 9.74278 2.68159C10.1364 3.11343 10.3332 3.68708 10.3332 4.40256V4.50972C10.3332 4.95897 10.2437 5.36351 10.0646 5.72384C9.8884 6.0815 9.63876 6.35761 9.31564 6.55201C8.99252 6.74641 8.62367 6.8437 8.20941 6.8437C7.5777 6.8437 7.06339 6.62786 6.66679 6.19569C6.27317 5.76085 6.07636 5.18552 6.07636 4.47004V4.36723L6.07653 4.36773ZM6.60537 4.50889C6.60537 5.06396 6.75232 5.52023 7.04621 5.87789C7.34259 6.2327 7.7301 6.40969 8.20875 6.40969C8.68476 6.40969 9.06979 6.2327 9.36369 5.87789C9.66006 5.52023 9.80849 5.04939 9.80849 4.46569V4.36723C9.80849 4.01242 9.74112 3.68758 9.60623 3.39289C9.47134 3.09819 9.28179 2.8708 9.03826 2.71056C8.79472 2.54747 8.51552 2.46593 8.20148 2.46593C7.73142 2.46593 7.34787 2.6461 7.0515 3.0066C6.75513 3.36392 6.60686 3.83326 6.60686 4.41411V4.50855L6.60537 4.50889ZM12.6632 4.39268C12.6632 3.67168 12.8275 3.09802 13.1564 2.67155C13.4883 2.24223 13.9375 2.02757 14.5049 2.02757C15.1483 2.02757 15.6388 2.27488 15.9766 2.76967V0.163602H16.5012V6.7583H16.0077L15.9859 6.1401C15.6481 6.60911 15.1516 6.8437 14.4964 6.8437C13.9469 6.8437 13.5031 6.62937 13.1653 6.20005C12.8305 5.76788 12.6632 5.18552 12.6632 4.45279V4.39285V4.39268ZM13.1965 4.48293C13.1965 5.07534 13.318 5.54284 13.5619 5.88626C13.8058 6.22667 14.1494 6.39696 14.5932 6.39696C15.2426 6.39696 15.7037 6.11834 15.977 5.56042V3.37932C15.7037 2.7757 15.2452 2.4738 14.6018 2.4738C14.1583 2.4738 13.8132 2.64392 13.5664 2.98416C13.3195 3.32172 13.1965 3.8212 13.1965 4.48226V4.48293ZM21.1837 6.84353C20.7782 6.84353 20.411 6.74624 20.0821 6.55184C19.7561 6.35744 19.5019 6.08703 19.3199 5.74092C19.138 5.39181 19.047 5.00133 19.047 4.5695V4.38498C19.047 3.93858 19.135 3.53655 19.311 3.17906C19.49 2.82174 19.7383 2.54128 20.0555 2.33817C20.3727 2.13222 20.7163 2.02924 21.0864 2.02924C21.6653 2.02924 22.1236 2.2223 22.4613 2.60859C22.8019 2.99203 22.9723 3.51696 22.9723 4.18388V4.47155H19.5687V4.57C19.5687 5.09627 19.7228 5.5353 20.0311 5.88693C20.3426 6.23605 20.7334 6.41052 21.2035 6.41052C21.4857 6.41052 21.7337 6.36063 21.9481 6.26066C22.1656 6.1607 22.3624 6.00046 22.5387 5.7801L22.8693 6.02457C22.4816 6.57127 21.9191 6.84436 21.1815 6.84436L21.1837 6.84353ZM21.0846 2.46509C20.6879 2.46509 20.353 2.60675 20.0798 2.89006C19.8095 3.17337 19.6452 3.55363 19.5866 4.03134H22.4478V3.97575C22.4336 3.52935 22.3028 3.16617 22.0564 2.8857C21.8096 2.60524 21.4867 2.46526 21.0869 2.46526L21.0846 2.46509ZM25.2341 4.39302C25.2341 3.67184 25.3986 3.09819 25.7273 2.67171C26.0595 2.24239 26.5091 2.02773 27.0764 2.02773C27.7197 2.02773 28.2104 2.27504 28.548 2.76983V0.16377H29.0723V6.75847H28.5786L28.5566 6.14027C28.219 6.60928 27.7223 6.84386 27.0673 6.84386C26.5177 6.84386 26.074 6.62954 25.7364 6.20022C25.4017 5.76805 25.2343 5.18569 25.2343 4.45296V4.39302H25.2341ZM25.7674 4.4831C25.7674 5.07551 25.889 5.54301 26.1328 5.88643C26.3767 6.22684 26.7201 6.39713 27.1638 6.39713C27.813 6.39713 28.2743 6.1185 28.5475 5.56059V3.37949C28.2743 2.77586 27.8159 2.47397 27.1727 2.47397C26.729 2.47397 26.3838 2.64409 26.1369 2.98433C25.8901 3.32189 25.7668 3.82137 25.7668 4.48243L25.7674 4.4831ZM39.3873 4.48243C39.3873 5.20645 39.2228 5.78178 38.8941 6.20792C38.5654 6.63121 38.123 6.84303 37.5676 6.84303C36.9037 6.84303 36.4013 6.60275 36.0607 6.12202L36.0387 6.75746H35.545V0.162598H36.0692V2.78591C36.4039 2.2794 36.9006 2.02623 37.5585 2.02623C38.1229 2.02623 38.5677 2.23653 38.8934 2.65715C39.2222 3.07475 39.3866 3.65711 39.3866 4.4039V4.48092L39.3873 4.48243ZM38.8576 4.39084C38.8576 3.77834 38.7361 3.30615 38.4922 2.97445C38.2484 2.63956 37.9049 2.47212 37.4613 2.47212C37.1236 2.47212 36.8372 2.55367 36.6021 2.71659C36.3671 2.87683 36.1898 3.11292 36.0694 3.4247V5.51973C36.3334 6.1036 36.8007 6.39545 37.4705 6.39545C37.9053 6.39545 38.2447 6.22801 38.4886 5.89313C38.7354 5.55824 38.8588 5.05759 38.8588 4.39067L38.8576 4.39084ZM43.4602 6.01787L44.8532 2.11078H45.4218L43.3851 7.54628L43.2796 7.78656C43.018 8.35 42.614 8.63164 42.0675 8.63164C41.9414 8.63164 41.8063 8.61188 41.6623 8.5722L41.658 8.14756L41.9313 8.17302C42.1898 8.17302 42.3984 8.11023 42.557 7.98431C42.7185 7.86141 42.8549 7.64825 42.9664 7.34502L43.2 6.71828L41.4013 2.11129H41.9787L43.4599 6.01837L43.4602 6.01787Z" fill="#DBDBDB"/>
</g>
<defs>
<clipPath id="clip0_1382_2109">
<rect width="106" height="36" fill="white"/>
</clipPath>
</defs>
</svg>
