<svg width="24" height="24" viewBox="0 0 24 24" fill="none" xmlns="http://www.w3.org/2000/svg">
<path d="M21.1111 11H6.88889C6.39797 11 6 11.4477 6 12C6 12.5523 6.39797 13 6.88889 13H21.1111C21.602 13 22 12.5523 22 12C22 11.4477 21.602 11 21.1111 11Z" fill="white"/>
<path d="M21.1667 4H2.83333C2.3731 4 2 4.44772 2 5C2 5.55228 2.3731 6 2.83333 6H21.1667C21.6269 6 22 5.55228 22 5C22 4.44772 21.6269 4 21.1667 4Z" fill="white"/>
<path d="M21.1667 18H2.83333C2.3731 18 2 18.4477 2 19C2 19.5523 2.3731 20 2.83333 20H21.1667C21.6269 20 22 19.5523 22 19C22 18.4477 21.6269 18 21.1667 18Z" fill="white"/>
</svg>
