<svg width="80" height="69" viewBox="0 0 80 69" fill="none" xmlns="http://www.w3.org/2000/svg">
<path opacity="0.5" fill-rule="evenodd" clip-rule="evenodd" d="M38.2223 0.0390377C38.0086 0.0689441 37.4989 0.12565 37.0894 0.165072C36.3235 0.238738 34.9107 0.438309 34.3383 0.553597C34.1603 0.589459 33.7962 0.660859 33.5291 0.712257C32.8443 0.844052 32.1865 0.994167 31.8461 1.09632C31.6859 1.14441 31.3218 1.25012 31.0369 1.33116C30.4251 1.50542 29.408 1.83103 29.2244 1.91149C29.1532 1.94269 28.9784 2.0029 28.836 2.0453C28.6936 2.0877 28.5494 2.14796 28.5156 2.17929C28.4818 2.21056 28.3929 2.23619 28.3182 2.23619C28.2434 2.23619 28.1546 2.26066 28.1207 2.29057C28.087 2.32047 27.9573 2.38216 27.8327 2.42767C27.7081 2.47318 27.4605 2.57772 27.2825 2.66006C27.1044 2.7424 26.6821 2.9309 26.3438 3.07901C25.7641 3.33283 24.057 4.19772 23.9164 4.30886C23.8808 4.33702 23.6768 4.4551 23.4632 4.57129C23.2496 4.68749 22.7835 4.96797 22.4275 5.19454C22.0715 5.4211 21.723 5.6419 21.653 5.68527C21.5831 5.72864 21.3731 5.87339 21.1865 6.00687C20.9998 6.14041 20.8167 6.24961 20.7796 6.24961C20.7425 6.24961 20.7121 6.27635 20.7121 6.30904C20.7121 6.34179 20.6029 6.43546 20.4694 6.51728C20.3359 6.59917 20.1541 6.73258 20.0654 6.81389C19.9768 6.89519 19.8842 6.96167 19.8597 6.96167C19.8352 6.96167 19.7766 6.9985 19.7295 7.04343C19.6825 7.08842 19.3236 7.3858 18.932 7.70435C18.5403 8.02283 18.2053 8.30235 18.1875 8.32546C18.1697 8.34857 18.0095 8.49137 17.8315 8.64284C16.9737 9.37257 15.1148 11.2833 14.3683 12.2026C14.2437 12.3561 14.1118 12.514 14.0751 12.5537C14.0384 12.5933 13.755 12.9608 13.4451 13.3702C13.1352 13.7796 12.8584 14.1438 12.8298 14.1794C12.8013 14.215 12.6187 14.4771 12.4241 14.7619C12.2295 15.0468 12.0485 15.2895 12.0217 15.3014C11.995 15.3133 11.9732 15.3499 11.9732 15.3829C11.9732 15.4159 11.8184 15.6829 11.6293 15.9763C11.3212 16.4541 11.1863 16.6767 10.796 17.3513C10.7342 17.4581 10.6024 17.7057 10.5031 17.9015C10.4038 18.0973 10.3068 18.2721 10.2876 18.2899C10.2373 18.3365 9.4997 19.8648 9.28783 20.3613C9.18912 20.5927 9.05803 20.8986 8.99654 21.041C8.9351 21.1834 8.81794 21.4747 8.73631 21.6883C8.65462 21.902 8.55066 22.1641 8.50534 22.2709C8.45997 22.3777 8.40203 22.5525 8.37659 22.6593C8.35115 22.7661 8.31044 22.8827 8.28616 22.9183C8.26189 22.9539 8.20434 23.1141 8.15825 23.2743C8.11216 23.4345 8.05002 23.6238 8.02011 23.695C7.9902 23.7663 7.93207 23.9556 7.8909 24.1158C7.84973 24.276 7.79212 24.4654 7.76286 24.5366C7.7336 24.6078 7.66162 24.8554 7.60297 25.0868C7.54432 25.3182 7.46911 25.6095 7.43583 25.7341C7.25122 26.4253 6.99992 27.6363 6.89182 28.3558C6.83829 28.7118 6.77841 29.046 6.75873 29.0984C6.73899 29.1508 6.65166 29.9072 6.56453 30.7793C6.43791 32.0472 6.40652 32.722 6.40794 34.1472C6.40891 35.1275 6.43578 36.1917 6.46769 36.5121C6.4996 36.8325 6.55825 37.4297 6.59813 37.8391C6.65872 38.4617 6.80611 39.533 6.95001 40.3961C7.10045 41.2984 7.83497 44.1791 8.02289 44.6037C8.05442 44.6749 8.11339 44.8497 8.15398 44.9921C8.19456 45.1345 8.25975 45.3166 8.29891 45.3966L8.37005 45.5423H10.7866C13.1643 45.5423 13.2031 45.5402 13.2031 45.4121C13.2031 45.3405 13.1493 45.1585 13.0834 45.0075C12.8988 44.5846 12.7103 44.0714 12.5306 43.5032C12.4406 43.2184 12.3075 42.7985 12.2348 42.5701C12.1621 42.3417 12.1027 42.1031 12.1027 42.0399C12.1027 41.9766 12.0766 41.9088 12.0448 41.8891C12.0129 41.8694 11.9722 41.7439 11.9543 41.6102C11.9364 41.4764 11.8875 41.2505 11.8457 41.1081C11.8039 40.9657 11.7438 40.7181 11.7122 40.5579C11.6805 40.3977 11.6229 40.1064 11.5841 39.9106C11.5453 39.7147 11.484 39.3652 11.4479 39.1338C11.4118 38.9024 11.3546 38.5382 11.321 38.3246C11.1655 37.3385 11.0592 35.6246 11.06 34.117C11.0611 31.9051 11.249 29.9549 11.6401 28.0969C11.7151 27.7408 11.8332 27.2311 11.9025 26.964C11.9719 26.697 12.0764 26.2892 12.1348 26.0578C12.1932 25.8264 12.2662 25.5788 12.2972 25.5076C12.3281 25.4364 12.4283 25.1305 12.5198 24.8279C12.6113 24.5252 12.742 24.132 12.8102 23.954C13.2124 22.9041 13.304 22.6756 13.511 22.2062C13.8972 21.3302 14.8052 19.5416 15.0721 19.1311C15.2082 18.9218 15.2891 18.7888 15.5444 18.3546C15.6595 18.1588 15.7916 17.9601 15.8378 17.9131C15.8841 17.866 15.9219 17.8025 15.9219 17.772C15.9219 17.7415 15.9584 17.678 16.003 17.631C16.0476 17.584 16.2426 17.3124 16.4363 17.0276C16.6299 16.7428 16.8056 16.4952 16.8266 16.4774C16.8476 16.4596 16.9799 16.2861 17.1205 16.0921C17.7774 15.1856 18.5458 14.3091 19.6764 13.1772C20.6189 12.2336 21.1867 11.7013 21.6568 11.3205C22.1888 10.8895 22.7043 10.4845 22.8792 10.3601C22.9793 10.2889 23.1071 10.1797 23.1633 10.1174C23.2194 10.055 23.2896 10.0041 23.3192 10.0041C23.3489 10.0041 23.5897 9.84389 23.8545 9.64807C24.1192 9.45226 24.3541 9.29204 24.3764 9.29204C24.3986 9.29204 24.5655 9.18284 24.7471 9.0493C24.9287 8.91582 25.1365 8.7747 25.2089 8.7358C25.2812 8.69683 25.4497 8.60219 25.5832 8.52542C25.8984 8.3441 26.2195 8.16071 26.5218 7.98911C26.989 7.72403 28.3867 7.03391 28.8037 6.86237C29.0351 6.76721 29.341 6.63924 29.4834 6.578C29.7137 6.47902 29.8536 6.42206 30.4867 6.1696C30.5757 6.13407 30.6991 6.0793 30.7609 6.04784C30.8227 6.01638 30.9136 5.99068 30.9627 5.99068C31.0118 5.99068 31.1943 5.93449 31.3682 5.86588C31.8439 5.67802 32.4077 5.516 33.9499 5.12385C35.0327 4.84847 36.8826 4.5465 38.2223 4.42642C39.3867 4.32201 42.4347 4.32246 43.5627 4.42713C45.7285 4.62813 47.657 5.0127 49.8741 5.68553C50.2302 5.79357 50.5491 5.90647 50.583 5.93631C50.6167 5.96621 50.6983 5.99068 50.7641 5.99068C50.8299 5.99068 51.0043 6.04894 51.1517 6.12015C51.2991 6.19135 51.4571 6.24961 51.5029 6.24961C51.5486 6.24961 51.7107 6.30561 51.8629 6.37403C52.0152 6.44245 52.2417 6.54123 52.3663 6.59354C53.2071 6.94633 53.6788 7.16668 54.5349 7.60634C55.546 8.12576 55.8075 8.26655 55.8619 8.32119C55.8797 8.33899 55.9805 8.39725 56.086 8.45065C56.6851 8.75366 59.0986 10.4281 59.7247 10.9751C59.8266 11.0641 60.0975 11.2971 60.3268 11.493C61.4941 12.4898 62.8641 13.8738 63.7237 14.9242C63.9711 15.2266 64.2187 15.5236 64.2739 15.5842C64.3945 15.7166 64.3855 15.705 64.9732 16.4849C65.2312 16.8272 65.4423 17.138 65.4423 17.1754C65.4423 17.2128 65.4642 17.2531 65.4909 17.265C65.7273 17.37 67.4259 20.3126 67.9882 21.5912C68.043 21.7158 68.203 22.0686 68.3438 22.375C68.4845 22.6815 68.6208 23.002 68.6465 23.0871C68.6723 23.1723 68.7308 23.3293 68.7766 23.4361C68.8224 23.5429 68.9387 23.8634 69.035 24.1482C69.1314 24.433 69.2344 24.7243 69.2641 24.7955C69.2937 24.8667 69.3812 25.1434 69.4585 25.4105C69.5357 25.6775 69.6499 26.0707 69.7121 26.2844C69.7744 26.498 69.8617 26.8475 69.9062 27.0611C69.9507 27.2748 70.011 27.5078 70.0401 27.579C70.0693 27.6502 70.1098 27.825 70.1302 27.9674C70.1506 28.1098 70.1965 28.372 70.2324 28.55C70.2933 28.8524 70.3525 29.2192 70.4937 30.1683C70.5255 30.3819 70.5989 31.1247 70.6569 31.819C70.8072 33.6211 70.7301 36.5553 70.49 38.1628C70.4501 38.4298 70.3942 38.8085 70.3658 39.0043C70.3066 39.4128 70.1241 40.3533 70.0393 40.6874C70.0076 40.812 69.9472 41.0596 69.9049 41.2376C69.7771 41.7761 69.5746 42.5242 69.5194 42.6617C69.4909 42.7329 69.3751 43.0909 69.262 43.4573C69.149 43.8237 68.957 44.377 68.8353 44.6868C68.7137 44.9966 68.6142 45.3159 68.6142 45.3962V45.5423H70.7204H72.8264L72.9609 45.2348C73.0348 45.0657 73.1338 44.7817 73.181 44.6037C73.2282 44.4257 73.3298 44.0761 73.4069 43.8269C73.7265 42.7943 74.0135 41.5745 74.3056 40.0077C74.3388 39.8296 74.399 39.4364 74.4395 39.1338C74.48 38.8311 74.5387 38.4379 74.5701 38.2599C74.845 36.7031 74.845 31.5957 74.5701 30.0388C74.5387 29.8608 74.48 29.4676 74.4395 29.165C74.3142 28.227 74.1181 27.2445 73.6968 25.4428C73.6385 25.1936 73.5652 24.9314 73.5338 24.8602C73.5024 24.789 73.4574 24.6288 73.4337 24.5042C73.4101 24.3796 73.3512 24.1903 73.3028 24.0834C73.2544 23.9766 73.1865 23.7727 73.1519 23.6303C73.0945 23.394 72.9751 23.052 72.5645 21.9473C72.4851 21.7337 72.4052 21.4934 72.3869 21.4132C72.3686 21.3331 72.331 21.2676 72.3035 21.2676C72.2759 21.2676 72.2334 21.1885 72.2091 21.0918C72.1849 20.9951 72.1056 20.784 72.0331 20.6225C71.9605 20.4611 71.8315 20.1751 71.7465 19.9872C71.6615 19.7992 71.5919 19.6172 71.5919 19.5826C71.5919 19.5481 71.5628 19.5198 71.5272 19.5198C71.4916 19.5198 71.4624 19.4907 71.4624 19.4553C71.4624 19.3901 71.1216 18.6639 71.0066 18.4841C70.9724 18.4307 70.9152 18.3142 70.8793 18.2251C70.8038 18.0375 70.5341 17.5515 70.1293 16.8737C69.9724 16.6111 69.8441 16.3708 69.8441 16.3397C69.8441 16.3086 69.815 16.2832 69.7794 16.2832C69.7438 16.2832 69.7147 16.2541 69.7147 16.2185C69.7147 16.0615 67.8562 13.407 67.3196 12.7975C67.2662 12.7369 67.0249 12.4475 66.7834 12.1545C66.5419 11.8615 66.1923 11.4552 66.0066 11.2518C65.5906 10.796 63.8667 9.07189 63.5618 8.80655C63.439 8.69968 63.1918 8.4812 63.0125 8.32106C62.8331 8.16084 62.5899 7.95693 62.472 7.86793C62.3541 7.77892 62.2095 7.66046 62.1507 7.60472C62.0639 7.52245 61.4191 7.02012 61.139 6.81654C61.1026 6.79013 60.9272 6.6573 60.7492 6.5213C60.3931 6.24929 58.6438 5.08999 58.3865 4.95548C58.2975 4.90894 58.2101 4.85275 58.1923 4.83067C58.1745 4.8086 58.0871 4.75442 57.9981 4.7104C57.9091 4.66632 57.7488 4.57634 57.642 4.51051C57.1301 4.19474 55.5307 3.37031 54.8585 3.07564C54.6805 2.99758 54.3892 2.86928 54.2112 2.79043C54.0332 2.71159 53.7128 2.5783 53.4992 2.49422C53.2855 2.41013 53.0962 2.32203 53.0784 2.2984C53.0606 2.27477 52.9732 2.23833 52.8842 2.21742C52.7952 2.19645 52.1689 1.99027 51.4924 1.75924C49.303 1.01139 46.928 0.475271 44.6955 0.22482C44.3751 0.188894 43.8362 0.128239 43.498 0.0901118C42.7333 0.00382325 38.7494 -0.0347575 38.2223 0.0390377ZM42.9703 7.26566C42.8424 7.4137 42.0091 8.89465 42.0091 8.97395C42.0091 9.00651 41.9854 9.03311 41.9565 9.03311C41.9275 9.03311 41.8638 9.13507 41.8149 9.25968C41.766 9.38429 41.7095 9.48624 41.6891 9.48624C41.6689 9.48624 41.6111 9.58095 41.5608 9.69662C41.5105 9.8123 41.4516 9.92157 41.4299 9.93937C41.3663 9.99167 40.3204 11.8325 40.342 11.8542C40.3529 11.865 40.5498 11.9041 40.7797 11.9412C41.2723 12.0205 41.256 12.0313 41.6038 11.3959C41.8398 10.9646 41.8626 10.9431 42.0761 10.951C42.5021 10.9667 43.804 11.1018 43.9059 11.1409C44.0087 11.1804 44.2748 11.8957 44.2748 12.1326C44.2748 12.2794 44.532 12.3802 44.9868 12.4115C45.2757 12.4314 45.2779 12.4299 45.2575 12.2374C45.2462 12.1306 45.2098 12.0155 45.1766 11.9817C45.1434 11.9479 45.1163 11.8656 45.1163 11.7989C45.1163 11.7322 45.0461 11.4685 44.9604 11.213C44.8746 10.9575 44.7839 10.639 44.7588 10.5051C44.7338 10.3711 44.6874 10.2456 44.6558 10.2261C44.6243 10.2067 44.5984 10.1332 44.5984 10.0629C44.5984 9.99277 44.5441 9.76873 44.4778 9.56509C44.3639 9.21592 44.1804 8.61145 43.9086 7.68978C43.7849 7.27032 43.7697 7.25711 43.3331 7.18953C43.127 7.15755 43.0497 7.1738 42.9703 7.26566ZM36.1686 7.32145C36.1488 7.34133 35.8185 7.39881 35.4346 7.44917C35.0508 7.49953 34.7138 7.56368 34.6858 7.59165C34.6356 7.64188 34.7684 8.85801 34.8857 9.42151C34.9191 9.58172 34.9944 10.0478 35.0531 10.4572C35.2886 12.1002 35.3355 12.4338 35.3386 12.4845C35.3402 12.5136 35.3927 12.5233 35.4549 12.5061C35.5172 12.4889 35.7101 12.4555 35.8835 12.4319L36.1989 12.3889L36.1571 12.0866C36.1341 11.9203 36.0887 11.5949 36.0562 11.3635C36.0238 11.1321 35.9771 10.7936 35.9527 10.6114L35.9083 10.2801L36.2214 10.2332C36.5024 10.1911 36.547 10.2018 36.6537 10.3379C36.7192 10.4213 36.8076 10.5335 36.8502 10.5871C36.8928 10.6407 37.1461 10.9816 37.4131 11.3447C37.6801 11.7077 37.9374 12.0207 37.9847 12.0401C38.1215 12.0963 38.9667 11.9992 38.9667 11.9272C38.9667 11.8702 38.6501 11.4531 38.4296 11.2195C38.3868 11.1741 38.272 11.0302 38.1747 10.8998C38.0773 10.7694 37.9606 10.6237 37.9154 10.5761C37.7178 10.3685 37.4778 10.0544 37.4778 10.0035C37.4778 9.97303 37.5338 9.93037 37.6021 9.90862C37.7632 9.85748 38.1503 9.49641 38.2507 9.3035C38.3596 9.09442 38.3463 8.23697 38.2307 8.01487C37.9617 7.49746 37.5278 7.28533 36.7388 7.28533C36.4451 7.28533 36.1885 7.30158 36.1686 7.32145ZM37.083 8.09119C37.4998 8.30675 37.6096 8.82196 37.2998 9.1093C37.0979 9.29671 36.9886 9.33464 36.3232 9.44857C35.8608 9.52767 35.8469 9.52618 35.7955 9.39096C35.7187 9.18893 35.5838 8.25153 35.6256 8.20978C35.6754 8.15994 36.431 8.01442 36.6881 8.0051C36.8055 8.00089 36.9833 8.0396 37.083 8.09119ZM43.3341 8.53144C43.5434 9.31341 43.7008 9.94423 43.74 10.1587L43.7742 10.3458L43.1722 10.2987C42.8411 10.2728 42.5017 10.2256 42.4182 10.1938L42.2662 10.1361L42.6631 9.37419C42.8813 8.95518 43.0867 8.56141 43.1194 8.49907C43.2008 8.34397 43.2873 8.35698 43.3341 8.53144ZM48.806 8.44314C48.806 8.4836 48.7448 8.65469 48.67 8.82345C48.3667 9.50728 48.2992 9.66303 48.1578 10.0041C48.0766 10.1999 47.9736 10.4475 47.9288 10.5543C47.8841 10.6611 47.7705 10.9379 47.6765 11.1693C47.5825 11.4007 47.4788 11.6483 47.4459 11.7195C47.2352 12.177 47.0655 12.6071 47.0274 12.7805C46.992 12.9421 47.0066 12.9897 47.1016 13.0212C47.1668 13.0427 47.3075 13.0975 47.4143 13.1428C47.5211 13.188 47.7978 13.3052 48.0293 13.403C48.2607 13.5009 48.5396 13.6199 48.6491 13.6675C49.0285 13.8323 49.7513 13.9059 50.2087 13.8262C51.2426 13.6462 51.879 13.0143 52.1891 11.8599C52.3115 11.4042 52.3171 11.313 52.2439 10.9589C52.0389 9.96604 51.5548 9.45575 50.3273 8.93828C50.0068 8.80325 49.6208 8.63753 49.4696 8.57002C49.1012 8.40573 48.806 8.34928 48.806 8.44314ZM30.2278 8.97583C30.1032 9.0091 29.8556 9.09811 29.6776 9.17365C29.2943 9.33632 29.0879 9.42242 28.6095 9.6192C28.0246 9.85975 28.0291 9.84014 28.3798 10.6191C28.5614 11.0224 28.7299 11.4095 28.9012 11.8166C28.9986 12.048 29.115 12.3248 29.16 12.4316C29.205 12.5384 29.3034 12.7638 29.3788 12.9325C29.4541 13.1013 29.5157 13.2615 29.5155 13.2886C29.5155 13.3157 29.572 13.4544 29.6411 13.5968C29.7103 13.7392 29.8258 13.9914 29.8978 14.1574L30.0288 14.4591L30.7918 14.137C31.9611 13.6434 32.1808 13.5284 32.466 13.2613C32.9407 12.8168 33.0712 12.2544 32.8241 11.7195C32.6059 11.2473 32.3442 11.0544 31.8412 10.9948C31.634 10.9703 31.5224 10.9262 31.5224 10.869C31.5224 10.8205 31.548 10.7809 31.5793 10.7809C31.6827 10.7809 31.8033 10.383 31.796 10.0656C31.784 9.53576 31.4766 9.13552 30.9647 8.98301C30.6601 8.89232 30.5448 8.89116 30.2278 8.97583ZM50.4798 9.89548C50.5281 9.93465 50.6292 9.99737 50.7043 10.0349C50.7795 10.0723 50.951 10.2482 51.0855 10.4258C51.3182 10.733 51.33 10.7721 51.3303 11.2381C51.3305 11.6266 51.2976 11.7961 51.1706 12.0594C50.6589 13.12 49.6777 13.3206 48.3095 12.6444L48.0396 12.5109L48.1735 12.2123C48.3364 11.8489 48.4822 11.5104 48.6784 11.0398C48.8348 10.6646 48.967 10.351 49.1665 9.8813C49.3671 9.40908 49.3912 9.40099 49.9239 9.62632C50.1813 9.7352 50.4315 9.85632 50.4798 9.89548ZM30.8054 9.91277C30.9699 10.0512 31.0046 10.1279 31.0046 10.3538C31.0046 10.7058 30.8016 10.9087 30.1906 11.1675C29.664 11.3905 29.6331 11.3754 29.4024 10.7809C29.1678 10.1765 29.1603 10.1946 29.7423 9.96008C30.3754 9.70491 30.5492 9.69714 30.8054 9.91277ZM31.7557 11.6758C32.0312 11.9061 32.1193 12.2847 31.9725 12.6065C31.9068 12.7503 31.5214 13.0465 31.4 13.0465C31.3487 13.0465 31.1003 13.1588 30.6642 13.3791C30.5688 13.4274 30.5237 13.3766 30.3843 13.0636C30.2929 12.8584 30.1792 12.6031 30.1315 12.4963C29.9484 12.0856 29.9531 12.0789 30.6162 11.8098C31.2937 11.5348 31.5508 11.5045 31.7557 11.6758ZM55.308 12.3883C54.9771 12.543 54.582 12.9993 54.5275 13.2895C54.4378 13.768 54.6725 14.5325 54.9901 14.796C55.0423 14.8394 55.0851 14.9033 55.0851 14.9379C55.0851 14.9725 55.146 15.0865 55.2205 15.191C55.3529 15.377 55.4135 15.8595 55.3228 16.0062C55.2267 16.1617 54.8176 16.2931 54.5631 16.2501C54.423 16.2264 54.3083 16.1805 54.3083 16.148C54.3083 16.1155 54.264 16.089 54.2098 16.089C54.0836 16.089 53.7396 15.5491 53.6869 15.2684C53.643 15.034 53.6175 15.0262 53.1198 15.0944C52.823 15.1351 52.8195 15.1384 52.8195 15.3791C52.8195 15.8189 53.3244 16.5068 53.891 16.8388C54.5138 17.2039 55.391 17.1778 55.7968 16.7823C56.2045 16.3849 56.3464 16.1041 56.3405 15.7065C56.3349 15.322 56.2113 15.0193 55.839 14.4776C55.367 13.7907 55.3297 13.5138 55.6707 13.2291C55.7909 13.1287 55.9426 13.0465 56.0077 13.0465C56.3669 13.0465 56.9754 13.5811 57.0519 13.9639C57.0807 14.1079 57.119 14.1482 57.2044 14.1247C57.2671 14.1073 57.4577 14.0742 57.628 14.0511L57.9376 14.009L57.8941 13.7705C57.8702 13.6394 57.7923 13.4446 57.7211 13.3378C57.5218 13.0392 57.0267 12.608 56.7034 12.4517C56.297 12.2552 55.6551 12.2261 55.308 12.3883ZM37.5426 15.2123C36.1733 15.4622 34.9684 16.066 33.9823 16.9961C33.0093 17.9139 32.5582 18.3676 32.5582 18.4281C32.5582 18.4968 32.7032 18.6545 33.8802 19.8667L34.5628 20.5697L35.0008 20.1493C36.0793 19.1142 36.2267 18.9771 36.4098 18.8382C37.7038 17.8569 39.5769 17.8575 40.8791 18.8395C41.4754 19.2893 42.0027 20.0197 42.188 20.6526C42.3057 21.0546 42.3975 21.5737 42.3975 21.8372C42.3975 22.3191 42.1867 23.0933 41.927 23.5656C41.8879 23.6368 41.818 23.7679 41.7718 23.8569C41.6715 24.0503 41.3556 24.385 40.4695 25.2372C40.1058 25.5871 39.8082 25.8966 39.8082 25.9252C39.8082 25.9538 40.2545 26.4367 40.8001 26.9982C41.6499 27.8728 41.809 28.0095 41.9106 27.9526C42.1757 27.8043 43.8827 26.0375 44.1586 25.6259C44.9358 24.4665 45.3792 23.0584 45.3738 21.7666C45.3712 21.1336 45.0738 19.6459 44.9187 19.4907C44.885 19.4569 44.8574 19.3876 44.8574 19.3369C44.8574 19.286 44.7668 19.0661 44.6562 18.8481C43.6493 16.8645 41.8155 15.5305 39.629 15.191C39.0471 15.1007 38.101 15.1103 37.5426 15.2123ZM20.3884 15.5811C20.1926 15.7287 20.0225 15.8748 20.0105 15.9056C19.9984 15.9365 19.9547 15.9977 19.9134 16.0416C19.7415 16.224 19.6548 16.4993 19.6548 16.8626C19.6548 17.1759 19.6875 17.2956 19.8287 17.4994C20.0295 17.7892 20.4145 17.9979 20.8655 18.0615L21.1808 18.106L21.1388 18.4773C21.0738 19.0519 21.1898 19.4644 21.5052 19.7798C21.6513 19.9259 21.8537 20.0621 21.9549 20.0823C22.0561 20.1025 22.1546 20.1445 22.1738 20.1755C22.2712 20.3331 23.0118 20.1728 23.3661 19.9174C23.9402 19.5037 24.1943 19.103 24.2328 18.5507C24.2473 18.341 24.2785 18.1381 24.302 18.1001C24.3255 18.0621 24.5014 18.0309 24.6929 18.0309C25.0277 18.0309 25.0536 18.018 25.3688 17.6927C25.549 17.5067 25.6965 17.3319 25.6965 17.3043C25.6965 17.2767 25.3646 17.2542 24.959 17.2542C24.3171 17.2542 24.2156 17.2395 24.1762 17.1409C24.091 16.9279 23.9487 16.3418 23.9487 16.2037C23.9487 16.089 23.8311 15.665 23.7755 15.5791C23.7339 15.5149 23.1719 16.2024 23.1719 16.3175C23.1719 16.3899 23.2101 16.5961 23.2566 16.7756C23.3032 16.9552 23.3299 17.1363 23.316 17.1781C23.2993 17.2282 23.1075 17.2542 22.7543 17.2542H22.2179L22.2228 16.6554C22.227 16.1283 22.2092 16.0289 22.0737 15.8251C21.8529 15.493 21.5051 15.3121 21.0877 15.3124C20.7859 15.3127 20.7015 15.3451 20.3884 15.5811ZM59.8916 15.8508C59.7429 15.964 59.6201 16.0796 59.6188 16.1078C59.6175 16.136 59.8178 16.4093 60.0641 16.7153L60.5117 17.2716L60.3716 17.4135C60.2945 17.4915 60.1003 17.6548 59.94 17.7764C59.7798 17.8979 59.5905 18.0513 59.5193 18.1171C59.4481 18.183 59.266 18.3265 59.1147 18.4362C58.9634 18.5458 58.8396 18.6597 58.8396 18.6893C58.8396 18.7188 58.7976 18.743 58.7462 18.743C58.6948 18.743 58.6146 18.7953 58.5682 18.8592C58.5216 18.9231 58.367 19.0604 58.2246 19.1642C58.0822 19.2681 57.918 19.3978 57.8597 19.4526C57.8014 19.5074 57.6497 19.6364 57.5225 19.7393C57.2826 19.9333 57.2803 20.005 57.5051 20.2794C57.8157 20.6586 57.6638 20.7344 59.425 19.3208C60.9088 18.1297 61.1668 17.9465 61.1718 18.0795C61.1728 18.1062 61.292 18.2591 61.4367 18.4193C61.5814 18.5796 61.7449 18.7774 61.8001 18.8589C61.9894 19.1388 62.0978 19.1453 62.3865 18.8938L62.6521 18.6624L62.4451 18.3952C62.3312 18.2483 62.2208 18.1135 62.1998 18.0957C62.1788 18.0779 61.7458 17.539 61.2375 16.8981C60.7293 16.2573 60.2794 15.7131 60.2378 15.6889C60.1961 15.6647 60.0403 15.7375 59.8916 15.8508ZM21.3578 16.2815C21.5288 16.4526 21.5845 16.7039 21.5143 16.9879C21.4578 17.2168 21.4491 17.2222 21.1086 17.2417C20.6858 17.2657 20.4532 17.099 20.4532 16.7718C20.4532 16.2857 21.0425 15.9662 21.3578 16.2815ZM23.465 18.0987C23.4881 18.1359 23.4865 18.3147 23.4616 18.496C23.428 18.7405 23.361 18.8859 23.2018 19.0594C23.004 19.2752 22.9598 19.293 22.6298 19.2899C22.3146 19.2869 22.2544 19.2642 22.1233 19.099C21.9427 18.8715 21.8931 18.6692 21.9287 18.3061L21.9556 18.0309H22.6894C23.1304 18.0309 23.4399 18.058 23.465 18.0987ZM31.971 20.2078C31.9686 20.2388 31.969 21.2238 31.9721 22.3965L31.9776 24.5288L32.4459 25.0146C32.7034 25.2818 33.0121 25.604 33.1318 25.7306C33.2514 25.8571 34.0525 26.6863 34.9119 27.5733C35.7714 28.4602 36.6493 29.3674 36.8629 29.5891C37.0765 29.8109 37.8804 30.6437 38.6494 31.4397C39.4184 32.2358 40.336 33.19 40.6885 33.5602C41.041 33.9304 41.6644 34.5758 42.0739 34.9944C44.1391 37.1063 45.2152 38.2491 45.2323 38.3486C45.2441 38.4181 44.9803 38.7211 44.5183 39.1685C41.5961 41.9984 41.6276 41.9702 40.9682 42.3312C40.0764 42.8194 39.0382 43.0134 38.0016 42.8854C36.7187 42.7271 35.6487 42.117 34.7591 41.0366C34.42 40.6248 34.136 40.0694 33.9185 39.3927C33.7848 38.9766 33.7627 38.7823 33.7642 38.0333C33.7656 37.3084 33.7907 37.0821 33.9112 36.7063C34.074 36.1988 34.444 35.426 34.6534 35.1562C34.8038 34.9626 35.8051 33.9499 36.7886 32.9969L37.4101 32.3948L37.2216 32.1878C36.6083 31.5143 35.3536 30.2654 35.2902 30.2654C35.1961 30.2654 33.0291 32.3508 32.5258 32.9258C32.2652 33.2234 31.7814 33.9273 31.7814 34.0086C31.7814 34.0445 31.7594 34.0835 31.7326 34.0954C31.6708 34.1227 31.3235 34.8465 31.1476 35.3145C30.8068 36.2209 30.7197 36.7707 30.7164 38.0333C30.7137 39.092 30.7314 39.3022 30.8693 39.8458C30.9551 40.1841 31.0789 40.5843 31.1444 40.7352C31.2099 40.8861 31.2635 41.0328 31.2635 41.0612C31.2635 41.1337 31.7726 42.1077 31.9193 42.3156C31.9858 42.4101 32.0403 42.5194 32.0403 42.5584C32.0403 42.5974 32.0645 42.6293 32.094 42.6293C32.1236 42.6293 32.2415 42.7598 32.356 42.9192C32.8076 43.548 33.9963 44.5993 34.6007 44.9044C34.7056 44.9573 34.8497 45.0321 34.9209 45.0707C35.062 45.1471 35.4997 45.3479 35.8622 45.5026C36.074 45.5929 36.2037 45.6301 36.9276 45.809C37.6854 45.9962 39.5721 45.9949 40.3099 45.8067C40.4612 45.7681 40.6943 45.7113 40.8278 45.6805C41.1365 45.6092 41.6499 45.4047 42.2681 45.1067C43.1918 44.6614 43.6899 44.2378 46.5067 41.5016C47.0045 41.0182 47.4296 40.6226 47.4514 40.6226C47.4734 40.6226 47.8381 40.9766 48.262 41.4092C48.6858 41.8418 49.3749 42.5447 49.7932 42.9711C50.2115 43.3975 50.5538 43.7712 50.5538 43.8016C50.5538 43.8319 50.627 43.8752 50.7166 43.8976C50.8525 43.9318 50.9403 43.8788 51.2506 43.5757C51.4548 43.3762 51.8841 42.9577 52.2045 42.6458C52.9669 41.9037 52.985 41.8799 52.8744 41.7666C52.8264 41.7174 52.2336 41.1007 51.5572 40.3961C49.7577 38.5216 47.6313 36.3214 46.0873 34.7362C45.6778 34.3159 45.1 33.7133 44.8034 33.3972C44.5066 33.081 43.8803 32.4291 43.4116 31.9485C42.9428 31.4678 41.9331 30.4235 41.1676 29.6279C40.4021 28.8322 39.4409 27.8364 39.0314 27.4148C38.622 26.9932 38.0417 26.3917 37.7418 26.0779C37.4419 25.7642 36.8156 25.1131 36.35 24.6309C34.4673 22.6812 32.5635 20.706 32.3882 20.5205C32.1456 20.2637 31.9767 20.1371 31.971 20.2078ZM63.7916 21.3836C63.6848 21.4473 63.4081 21.5829 63.1767 21.6852C62.9453 21.7874 62.4551 22.012 62.0874 22.1843C61.7197 22.3565 61.4082 22.4975 61.3952 22.4975C61.3734 22.4975 59.7329 23.2771 59.698 23.3041C59.6656 23.3292 59.9028 23.8942 59.9889 23.9967C60.0727 24.0966 60.0959 24.0957 60.317 23.9835C61.2726 23.4988 61.7932 23.2709 61.9066 23.2874C61.9996 23.301 62.0619 23.3871 62.1171 23.5785L62.1956 23.8504L61.5209 24.7548C61.1499 25.2521 60.8475 25.7124 60.849 25.7776C60.8504 25.8427 60.933 26.0661 61.0325 26.2742C61.2027 26.63 61.2199 26.6459 61.3234 26.5424C61.4139 26.4519 61.8259 25.8638 62.1086 25.4217C62.1442 25.366 62.2243 25.2624 62.2866 25.1914C62.3489 25.1205 62.3999 25.0293 62.3999 24.9888C62.3999 24.8731 62.7368 24.5886 62.7686 24.6774C62.8264 24.8388 63.2766 25.1127 63.5531 25.1546C64.1315 25.2424 64.7978 24.946 65.0564 24.4858C65.1748 24.2752 65.1928 24.1587 65.1715 23.7391C65.1567 23.4463 65.0979 23.1354 65.0285 22.983C64.9636 22.8406 64.8006 22.491 64.6662 22.2062C64.5318 21.9214 64.3822 21.5937 64.3337 21.478C64.2318 21.2349 64.0846 21.2093 63.7916 21.3836ZM64.1371 22.8535C64.4436 23.4757 64.4712 23.7702 64.2478 24.0357C63.8907 24.46 63.3553 24.3382 63.0625 23.7659C62.9078 23.4638 62.6588 22.935 62.6588 22.9088C62.6588 22.8726 63.4696 22.4975 63.5479 22.4975C63.593 22.4975 63.6298 22.4664 63.6298 22.4282C63.6298 22.3902 63.6937 22.3684 63.7718 22.3797C63.875 22.3948 63.9747 22.5241 64.1371 22.8535ZM47.2886 23.6481C47.2343 23.7024 47.2471 26.5969 47.302 26.6798C47.3281 26.7193 47.4588 26.7907 47.5923 26.8385C47.7258 26.8862 47.8351 26.9486 47.8351 26.9771C47.8351 27.0055 47.8662 27.0288 47.9043 27.0288C48.0806 27.0288 48.7752 27.6162 49.2906 28.2011C49.5446 28.4894 50.0182 29.3236 50.0727 29.5787C50.0963 29.6894 50.1402 29.8107 50.1703 29.8482C50.2872 29.994 50.3748 30.9035 50.3416 31.6248C50.287 32.81 49.8908 33.7544 49.065 34.6674C48.8692 34.8839 48.702 35.0816 48.6935 35.1069C48.6735 35.1666 50.6472 37.1918 50.7255 37.1918C50.8025 37.1918 51.3032 36.6689 51.6242 36.2532C51.7617 36.0752 51.9049 35.9004 51.9423 35.8648C51.9797 35.8292 52.0539 35.7127 52.1073 35.6058C52.1607 35.499 52.2189 35.3971 52.2367 35.3793C52.4596 35.1572 52.9843 33.8684 53.1857 33.0489C53.3574 32.35 53.3573 30.2514 53.1855 29.5533C53.0311 28.926 52.6798 27.9773 52.4903 27.6761C52.4567 27.6227 52.3977 27.4989 52.3591 27.401C52.3205 27.3031 52.2674 27.223 52.2409 27.223C52.2145 27.223 52.1582 27.1467 52.1157 27.0535C51.868 26.5098 50.8454 25.4307 50.0401 24.8631C49.5074 24.4877 48.5708 23.9945 48.1264 23.8553C47.9839 23.8107 47.8092 23.7516 47.738 23.7239C47.5309 23.6433 47.3276 23.6091 47.2886 23.6481ZM14.9354 24.1967C14.8489 24.4999 14.8491 24.5488 14.9371 24.6499C14.9914 24.7121 15.0796 24.7631 15.1332 24.7631C15.2298 24.7631 17.1943 25.3666 17.4431 25.4727C17.5143 25.5031 17.7109 25.5636 17.88 25.6071C18.1866 25.686 18.2529 25.7508 18.1146 25.8363C18.0431 25.8805 16.8858 26.2106 16.4397 26.314C16.3151 26.3429 15.9365 26.445 15.5982 26.5408C15.26 26.6366 14.8041 26.7581 14.5853 26.8109C14.1181 26.9235 14.0344 27.0055 13.9 27.4819C13.8447 27.6777 13.7803 27.8848 13.7568 27.942C13.7018 28.0765 13.7301 28.0868 16.6016 28.9735C16.9576 29.0834 17.3072 29.1979 17.3784 29.2279C17.4496 29.2578 17.6469 29.3182 17.817 29.362C17.987 29.4058 18.1416 29.4668 18.1607 29.4975C18.1796 29.5282 18.2592 29.5533 18.3374 29.5533C18.4929 29.5533 18.6219 29.331 18.6823 28.9584C18.7218 28.7148 18.7453 28.7283 17.7991 28.4521C17.5321 28.3741 17.2554 28.2861 17.1842 28.2564C17.113 28.2268 16.9528 28.1721 16.8281 28.1349C16.7035 28.0978 16.4249 28.0084 16.2088 27.9365C15.9929 27.8645 15.7852 27.8056 15.7475 27.8056C15.7097 27.8056 15.5668 27.7588 15.43 27.7016L15.1812 27.5976L15.3411 27.5158C15.4291 27.4708 15.6613 27.3967 15.8572 27.3511C16.053 27.3054 16.3443 27.2266 16.5045 27.1759C16.6647 27.1253 16.9123 27.0592 17.0547 27.0292C17.4257 26.9508 19.1596 26.473 19.3581 26.3944C19.4902 26.342 19.5547 26.235 19.6656 25.8837C19.8359 25.3439 19.8384 25.281 19.6893 25.281C19.6252 25.281 19.5451 25.2569 19.5113 25.2275C19.4775 25.1981 19.3187 25.1359 19.1585 25.0894C18.9983 25.0428 18.707 24.9534 18.5112 24.8909C18.3154 24.8282 17.6308 24.613 16.99 24.4127C16.3491 24.2123 15.6937 24.0052 15.5335 23.9524C15.0798 23.8027 15.0434 23.8176 14.9354 24.1967ZM65.9602 27.6526C65.7288 27.7024 65.3646 27.7716 65.151 27.8064C64.9374 27.8412 64.617 27.9005 64.439 27.9382C64.2609 27.9758 63.9697 28.0304 63.7916 28.0594C63.6136 28.0885 63.1672 28.1743 62.7997 28.2502C62.4322 28.3261 62.0789 28.3882 62.0147 28.3882C61.7946 28.3882 61.7627 28.5216 61.852 29.0679C61.8985 29.3527 61.971 29.7314 62.0129 29.9094C62.0549 30.0874 62.1132 30.3933 62.1427 30.5891C62.2128 31.0548 62.3747 31.7507 62.4247 31.8006C62.4464 31.8223 62.5384 31.8062 62.6292 31.7647C62.7201 31.7234 62.8658 31.6895 62.9532 31.6895C63.1306 31.6895 63.1437 31.6117 63.0504 31.1069C63.0209 30.9467 62.9372 30.4883 62.8644 30.0882C62.7917 29.6881 62.7149 29.3327 62.6937 29.2985C62.6366 29.2061 62.8467 29.1155 63.3125 29.0315C64.1025 28.8889 64.0177 28.8129 64.2204 29.8446C64.3182 30.3431 64.4002 30.835 64.4025 30.9377C64.4065 31.1223 64.4102 31.124 64.707 31.0834C64.8721 31.0607 65.0469 31.0422 65.0954 31.0422C65.2099 31.0422 65.2062 30.817 65.0807 30.1683C64.9006 29.2379 64.8501 28.825 64.9091 28.766C64.9702 28.705 65.6252 28.5833 65.8961 28.5827C66.0493 28.5824 66.0652 28.6162 66.1768 29.1811C66.2419 29.5104 66.3091 29.8673 66.3262 29.9741C66.3432 30.0809 66.3872 30.325 66.4239 30.5164L66.4907 30.8646L66.8168 30.8259C66.9962 30.8047 67.1594 30.7708 67.1796 30.7506C67.2405 30.6897 67.1966 30.2657 67.0656 29.6504C66.9973 29.33 66.9086 28.8785 66.8684 28.6471C66.8282 28.4157 66.761 28.0734 66.7191 27.8865C66.6326 27.5009 66.6459 27.5051 65.9602 27.6526ZM13.1384 32.1002V32.5108L14.1197 32.5533C14.6593 32.5767 15.4354 32.5958 15.8441 32.5958C16.4717 32.5958 16.6301 32.6171 16.862 32.7329C17.2299 32.9167 17.4107 33.2428 17.4107 33.7226C17.4107 34.1982 17.1989 34.5354 16.774 34.7362C16.4786 34.8759 16.4364 34.878 14.8052 34.8341L13.1384 34.7893V35.209V35.6287L13.7048 35.6526C15.1501 35.7136 16.5734 35.7038 16.8703 35.6309C17.3813 35.5054 17.7345 35.2226 18.0339 34.6996C18.2054 34.4001 18.2192 34.3252 18.2196 33.6962C18.2199 33.057 18.2084 32.9973 18.027 32.6942C17.8005 32.3156 17.7218 32.2326 17.372 32.0038C16.9939 31.7564 16.4178 31.6895 14.6634 31.6895H13.1384V32.1002ZM62.4407 34.3274C62.4084 34.7594 62.3181 36.5963 62.3067 37.0542C62.3032 37.1937 62.3344 37.2106 62.6425 37.2356C62.9486 37.2603 62.9886 37.2482 63.0459 37.1141C63.0808 37.0322 63.1318 36.47 63.1592 35.8648L63.209 34.7643L63.8549 34.7822C64.2101 34.7921 64.523 34.8225 64.5504 34.8498C64.5776 34.8771 64.5688 35.3742 64.5306 35.9543C64.4925 36.5344 64.4799 37.0278 64.5027 37.0505C64.5254 37.0732 64.7097 37.0924 64.9122 37.0933L65.2805 37.0947L65.3209 36.1561C65.3431 35.6398 65.365 35.1363 65.3694 35.037L65.3776 34.8566L65.9764 34.8751L66.5751 34.8938L66.5932 35.3469C66.6032 35.5961 66.5877 36.1145 66.5589 36.4989C66.53 36.8833 66.5239 37.226 66.5452 37.2605C66.5666 37.295 66.7422 37.3301 66.9356 37.3385L67.2871 37.3536L67.3629 36.2208C67.4045 35.5978 67.441 34.8661 67.4438 34.595L67.449 34.1021L66.559 34.0571C66.0694 34.0325 65.1602 33.9702 64.5386 33.919C63.9169 33.8676 63.1989 33.8257 62.9432 33.8257H62.4781L62.4407 34.3274ZM15.8895 38.324C15.1421 38.5274 14.5165 38.982 14.2702 39.5009C14.1285 39.7995 13.9799 40.3874 13.9799 40.6492C13.9799 40.8467 14.1627 41.682 14.3069 42.1438C14.3403 42.2506 14.4273 42.5493 14.5002 42.8073C14.605 43.1786 14.6584 43.2767 14.7556 43.2767C14.8232 43.2767 14.8942 43.2513 14.9133 43.2204C14.9324 43.1895 15.0652 43.1454 15.2084 43.1226C15.3516 43.0997 15.5925 43.0414 15.7439 42.9929C15.8952 42.9446 16.2666 42.8413 16.5692 42.7635C16.8718 42.6856 17.3233 42.5647 17.5726 42.4948C17.8218 42.4248 18.3316 42.2877 18.7054 42.19C19.3512 42.0213 19.3861 42.0034 19.4059 41.8315C19.4174 41.7319 19.4001 41.6159 19.3674 41.5735C19.3348 41.5311 19.2724 41.3509 19.2287 41.1728C18.9665 40.1039 18.8468 39.7786 18.5496 39.328C17.9541 38.4251 16.9339 38.0401 15.8895 38.324ZM17.2631 39.2692C17.6064 39.4592 17.8729 39.7302 18.0349 40.0541C18.2456 40.4753 18.4746 41.2677 18.4055 41.3368C18.3728 41.3695 18.0555 41.4729 17.7003 41.5665C16.3958 41.9104 16.2112 41.9606 16.1161 41.9975C15.9486 42.0625 15.4173 42.1762 15.281 42.1762C15.0863 42.1762 14.886 41.4498 14.8865 40.7451C14.8869 40.142 14.9947 39.8829 15.3774 39.5649C15.883 39.1448 16.7832 39.0036 17.2631 39.2692ZM66.0006 40.1683C65.9483 40.2989 65.8854 40.5132 65.8608 40.6444C65.8361 40.7756 65.7902 40.899 65.7587 40.9184C65.7271 40.9379 65.7012 41.026 65.7012 41.1139C65.7012 41.4052 65.5947 41.3979 64.4713 41.0295C64.3111 40.977 64.0926 40.911 63.9858 40.8828C63.879 40.8548 63.5295 40.7522 63.209 40.655C62.8886 40.5577 62.3998 40.4119 62.1226 40.3311L61.6188 40.184L61.531 40.394C61.4828 40.5095 61.424 40.6915 61.4006 40.7984C61.3526 41.0166 61.3335 41.0053 62.1733 41.2564C62.4225 41.3309 63.0051 41.5071 63.468 41.6479C63.9308 41.7887 64.5352 41.9704 64.8112 42.0518C65.2839 42.1913 65.3129 42.2105 65.3129 42.3832C65.3129 42.4839 65.2846 42.617 65.2501 42.6788C65.1945 42.7785 64.922 43.665 64.9469 43.6651C64.9524 43.6651 65.1102 43.7234 65.2976 43.7946L65.6385 43.9242L65.7304 43.7137C65.7811 43.5979 65.9004 43.2265 65.9955 42.8883C66.0907 42.55 66.1932 42.215 66.2233 42.1438C66.2533 42.0726 66.3115 41.8833 66.3527 41.7231C66.3939 41.5629 66.4531 41.3735 66.4843 41.3023C66.56 41.1299 66.7484 40.4275 66.76 40.2744C66.7671 40.1821 66.6878 40.1258 66.4325 40.0417L66.0956 39.9308L66.0006 40.1683ZM4.23765 48.5486C2.38151 48.8642 0.924122 50.0949 0.28547 51.8861C0.0224619 52.6238 0 53.1327 0 58.3594C0 62.2957 0.0192255 63.5016 0.0892014 63.9587C0.213617 64.7718 0.366645 65.1848 0.843206 65.994C0.89441 66.081 1.02368 66.2541 1.13049 66.3789C1.85964 67.2304 2.56723 67.7063 3.65506 68.0767L4.10819 68.2311H40.0734C66.7967 68.2311 76.0619 68.2122 76.1294 68.1576C76.1794 68.1172 76.3222 68.0643 76.4469 68.04C76.5715 68.0158 76.9501 67.86 77.2884 67.6939C77.8149 67.4352 77.9941 67.3011 78.5345 66.7613C78.8816 66.4146 79.1656 66.0863 79.1656 66.032C79.1656 65.9776 79.1948 65.9331 79.2304 65.9331C79.266 65.9331 79.2951 65.8894 79.2951 65.836C79.2951 65.7826 79.3242 65.7389 79.3598 65.7389C79.3954 65.7389 79.4246 65.698 79.4246 65.6479C79.4246 65.5978 79.4817 65.4449 79.5515 65.3081C79.6213 65.1712 79.7447 64.8553 79.8257 64.606L79.973 64.1529L79.9936 58.7154C80.0143 53.2319 79.9954 52.6382 79.7793 51.9775C79.2895 50.4804 78.0781 49.2463 76.6115 48.7504C75.6999 48.4422 77.6231 48.4572 39.97 48.4646C13.0136 48.4699 4.58391 48.4898 4.23765 48.5486ZM55.8749 50.1423C56.3481 50.2371 56.7538 50.4433 57.0559 50.7425C57.3016 50.9859 57.3065 50.9989 57.1854 51.086C57.1161 51.1358 57.0081 51.2196 56.9455 51.2724C56.78 51.4115 56.6628 51.3913 56.4613 51.189C56.2909 51.018 56.1885 50.9588 55.7779 50.7937C55.2994 50.6013 54.5395 50.7996 54.1342 51.2226L53.8552 51.5139V52.0461C53.8552 52.5708 53.8585 52.5817 54.0911 52.8212C54.2969 53.0332 55.0257 53.4397 55.1999 53.4397C55.3407 53.4397 56.2374 53.7561 56.4769 53.8903C56.8315 54.0891 56.9518 54.2018 57.1663 54.5366C57.3375 54.8037 57.3507 54.8708 57.3507 55.4696C57.3507 56.0504 57.3336 56.1443 57.1786 56.4117C56.9533 56.8005 56.7226 57.0184 56.3025 57.2397C55.9763 57.4116 55.9166 57.4206 55.1175 57.4178C54.3631 57.4152 54.2424 57.3987 53.9523 57.2583C53.7743 57.1722 53.5907 57.0715 53.5444 57.0347C53.3323 56.8658 52.9489 56.4661 52.9489 56.4137C52.9489 56.3818 53.029 56.3044 53.1269 56.2417C53.2249 56.179 53.3435 56.091 53.3905 56.046C53.5135 55.9285 53.5454 55.9424 53.7257 56.1913C53.8147 56.3141 53.9386 56.4318 54.0008 56.4527C54.0631 56.4737 54.1141 56.5133 54.1141 56.5408C54.1141 56.5939 54.411 56.6923 54.8909 56.7983C55.1763 56.8613 55.7788 56.7743 56.0023 56.6378C56.542 56.3081 56.8024 55.7118 56.6426 55.1714C56.4957 54.6747 56.2159 54.4839 55.072 54.1008C54.6554 53.9612 54.2414 53.7991 54.1519 53.7405C54.0624 53.6818 53.9639 53.6339 53.933 53.6339C53.8202 53.6339 53.3872 53.1407 53.2508 52.8571C53.0568 52.4536 53.0605 51.6567 53.2584 51.2355C53.6473 50.4072 54.7979 49.9265 55.8749 50.1423ZM25.3077 50.4626C26.3406 50.8123 26.9124 51.3116 27.3448 52.2411C27.5946 52.7781 27.7121 53.5504 27.6379 54.1679C27.578 54.6664 27.3949 55.3418 27.3118 55.3708C27.2779 55.3828 27.2501 55.4358 27.2501 55.4887C27.2501 55.6171 26.9316 56.0729 26.6492 56.3484C26.4176 56.5745 26.0536 56.8153 25.7612 56.9359C25.6722 56.9726 25.5411 57.0287 25.4699 57.0605C25.1288 57.213 24.6544 57.2703 23.4544 57.3041C22.7375 57.3243 22.0457 57.321 21.917 57.2969L21.6831 57.253V53.8035C21.6831 51.9064 21.7049 50.3313 21.7316 50.3034C21.7584 50.2755 22.4793 50.2678 23.3338 50.2864C24.7086 50.3163 24.9357 50.3366 25.3077 50.4626ZM32.9475 52.8247C32.9807 55.3402 32.9813 55.3506 33.1417 55.7086C33.4397 56.3741 33.7479 56.6386 34.3797 56.7708C35.1379 56.9295 35.8679 56.6804 36.2394 56.1364C36.6287 55.5666 36.701 54.9701 36.701 52.331V50.2607L37.0085 50.2804L37.316 50.3001L37.3363 52.6629C37.3577 55.1542 37.3196 55.6667 37.0758 56.1713C36.8941 56.5475 36.4077 57.0447 36.0214 57.2493C35.7172 57.4104 35.6449 57.4207 34.8238 57.4201C34.0352 57.4197 33.9183 57.4045 33.6262 57.2643C33.146 57.034 32.6797 56.5255 32.4585 55.9912L32.2732 55.5435L32.2497 52.9954C32.2368 51.594 32.2424 50.4053 32.2621 50.3539C32.288 50.2866 32.3836 50.2661 32.6061 50.2804L32.9142 50.3001L32.9475 52.8247ZM43.3475 50.4134C43.4666 50.5457 43.7663 50.9601 44.0158 51.3371C44.0692 51.4178 44.2021 51.6107 44.311 51.7659C45.2894 53.1593 46.6498 55.1201 46.767 55.3059C46.8026 55.3624 46.8633 55.4435 46.9021 55.4863C46.9408 55.529 47.0676 55.7123 47.1839 55.8936C47.3002 56.0749 47.4212 56.2232 47.4527 56.2232C47.485 56.2232 47.5175 54.9253 47.5269 53.2617L47.5438 50.3001L47.791 50.2798C48.2478 50.2421 48.2234 50.0444 48.2234 53.7957C48.2234 56.725 48.2104 57.1891 48.1262 57.259C47.9116 57.4372 47.123 57.2468 47.123 57.0168C47.123 56.9853 47.072 56.9032 47.0097 56.8342C46.9013 56.714 46.486 56.1291 46.2815 55.8086C46.0832 55.4977 45.5323 54.7198 45.3915 54.5519C45.3114 54.4564 45.2459 54.3443 45.2458 54.3028C45.2458 54.2613 45.223 54.2176 45.1952 54.2057C45.1455 54.1844 44.8575 53.7831 44.1575 52.76C43.9627 52.4752 43.7346 52.152 43.6506 52.0418C43.5666 51.9317 43.498 51.8078 43.498 51.7667C43.498 51.7256 43.4682 51.6919 43.4319 51.6919C43.3955 51.6919 43.3326 51.6191 43.292 51.5301C43.2515 51.4411 43.1938 51.3682 43.1639 51.3682C43.134 51.3682 43.1096 52.6923 43.1096 54.3107V57.253L42.8886 57.2945C42.7671 57.3173 42.6069 57.3166 42.5326 57.2931C42.3978 57.2503 42.3975 57.2412 42.3975 53.8021C42.3975 51.9057 42.4169 50.3346 42.4407 50.311C42.4644 50.2872 42.6487 50.2678 42.8501 50.2678C43.1481 50.2678 43.2409 50.295 43.3475 50.4134ZM60.1552 50.4286C60.5367 50.5444 60.9283 50.8453 61.159 51.1998C61.3137 51.4376 61.3318 51.5261 61.3318 52.0479C61.3318 52.5972 61.3201 52.6474 61.126 52.9268C60.8468 53.3288 60.5179 53.5657 60.08 53.6804C58.8143 54.0116 57.6567 52.7405 58.0944 51.5C58.2165 51.1538 58.5352 50.7492 58.798 50.6068C59.3064 50.3312 59.6746 50.2829 60.1552 50.4286ZM59.2442 50.6981C59.1641 50.7156 59.0985 50.757 59.0985 50.7902C59.0985 50.8232 59.0573 50.8504 59.0069 50.8504C58.8658 50.8504 58.4076 51.408 58.3622 51.6351C58.2533 52.1797 58.3378 52.5827 58.6331 52.9278C59.3321 53.7444 60.5397 53.5472 60.9817 52.5442C61.1377 52.1902 61.1381 51.9078 60.9834 51.5516C60.7381 50.9869 60.359 50.7131 59.784 50.6853C59.5672 50.6748 59.3242 50.6806 59.2442 50.6981ZM22.428 50.9877C22.4091 51.0367 22.4013 52.3295 22.4106 53.8604L22.4275 56.6439L23.082 56.6623C24.0785 56.6902 24.9215 56.5527 25.5058 56.2668C25.8515 56.0977 26.4744 55.597 26.4737 55.4887C26.4735 55.4586 26.5272 55.3567 26.5931 55.2622C26.8909 54.835 27.0524 53.922 26.9384 53.3102C26.717 52.122 26.0639 51.3998 24.9154 51.0727C24.4149 50.9302 22.4755 50.8639 22.428 50.9877ZM60.3156 51.1982C60.3868 51.2694 60.4255 51.4119 60.4255 51.6027C60.4255 51.8438 60.3932 51.9251 60.2475 52.0504C60.0292 52.2382 60.0281 52.2709 60.2313 52.5071C60.3202 52.6106 60.393 52.7317 60.3931 52.7762C60.3931 52.8207 60.4223 52.8571 60.4579 52.8571C60.4935 52.8571 60.5226 52.8862 60.5226 52.9218C60.5226 52.9574 60.4399 52.9865 60.3389 52.9865C60.2135 52.9865 60.1313 52.9402 60.0804 52.8409C59.8608 52.4124 59.6759 52.2098 59.5049 52.2098C59.3678 52.2098 59.3575 52.2371 59.3575 52.5982C59.3575 52.9434 59.3431 52.9865 59.228 52.9865C59.1045 52.9865 59.0985 52.9434 59.0985 52.0587C59.0985 51.5484 59.1203 51.1085 59.1471 51.081C59.1738 51.0536 59.4229 51.044 59.7007 51.0597C60.0605 51.08 60.2373 51.1199 60.3156 51.1982ZM59.3698 51.64C59.3879 51.8926 59.407 51.9204 59.5748 51.9396C59.6765 51.9513 59.8455 51.9253 59.9504 51.8818C60.1116 51.815 60.1381 51.7717 60.1215 51.6017C60.1023 51.4046 60.0943 51.4002 59.7258 51.381L59.3497 51.3616L59.3698 51.64ZM31.0046 54.9623V55.255L29.7908 55.2374L28.5771 55.2198L28.5572 54.9447L28.5373 54.6696H29.771H31.0046V54.9623ZM41.0256 54.9447L41.0058 55.2198H39.8082H38.6107L38.5908 54.9447L38.5708 54.6696H39.8082H41.0456L41.0256 54.9447ZM52.0302 54.9425C52.0563 55.2561 52.0312 55.2614 50.6509 55.2383L49.5505 55.2198L49.5294 55.0364C49.4864 54.661 49.4714 54.6651 50.7951 54.6844L52.0103 54.702L52.0302 54.9425ZM27.1644 59.2269C27.3487 59.276 27.589 59.363 27.6985 59.4203C27.8079 59.4777 27.9783 59.5671 28.0771 59.6192C28.176 59.6712 28.3393 59.7998 28.4402 59.9052C28.6222 60.0952 28.6227 60.0977 28.5032 60.2596C28.437 60.3494 28.3168 60.459 28.2361 60.5031C28.1061 60.5742 28.0653 60.5612 27.8801 60.39C27.4451 59.9879 26.8365 59.7825 26.0914 59.7863C24.7403 59.7932 23.8703 60.3828 23.3729 61.6283C23.1538 62.1768 23.1396 63.3312 23.3454 63.8645C23.6858 64.7472 24.0935 65.2079 24.855 65.5708C25.2693 65.7682 25.291 65.7712 26.2791 65.7712C27.2344 65.7712 27.3004 65.7628 27.6562 65.5961L28.03 65.421L28.0122 64.3014L27.9945 63.1819L27.2023 63.1637C26.4298 63.1461 26.4091 63.1418 26.3715 62.9923C26.3504 62.9081 26.3428 62.7706 26.3546 62.6869L26.3762 62.5346L27.5576 62.5169L28.7389 62.4993V64.1808V65.8623L28.4315 66.0008C27.6883 66.3358 27.1345 66.4481 26.2187 66.4496C25.3053 66.451 24.9627 66.3795 24.2846 66.0459C23.9557 65.8841 23.1719 65.185 23.1719 65.0534C23.1719 65.0032 23.1489 64.9621 23.1207 64.9621C23.0528 64.9621 22.7632 64.3717 22.6129 63.9264C22.443 63.4232 22.4435 62.1615 22.6137 61.6607C22.849 60.9687 23.1705 60.4457 23.6095 60.0413C23.8407 59.8283 24.0698 59.654 24.1187 59.654C24.1677 59.654 24.2077 59.6317 24.2077 59.6045C24.2077 59.5374 24.692 59.3203 25.0492 59.2274C25.465 59.1191 26.7586 59.1189 27.1644 59.2269ZM36.0138 59.213C36.4541 59.3399 37.1559 59.8824 37.0667 60.0269C37.0467 60.0592 36.9135 60.1666 36.7706 60.2656L36.5109 60.4456L36.3475 60.2513C36.0783 59.9314 35.6799 59.7835 35.0873 59.7835C34.8041 59.7835 34.5545 59.8126 34.5325 59.8482C34.5105 59.8838 34.4395 59.9129 34.3749 59.9129C34.3102 59.9129 34.1382 60.025 33.9926 60.1622C33.6663 60.4695 33.5797 60.8053 33.6778 61.383C33.7207 61.6359 33.8283 61.7872 34.153 62.0516C34.3084 62.1781 34.8483 62.3909 35.4699 62.5707C36.6928 62.9246 37.2189 63.4939 37.2189 64.4636C37.2189 65.3209 36.7635 65.9743 35.9318 66.3102C35.6562 66.4215 35.4503 66.4509 34.9471 66.4509C34.2399 66.4509 33.781 66.3227 33.2907 65.9881C33.0542 65.8267 32.7524 65.4934 32.7524 65.3936C32.7524 65.3749 32.8844 65.2705 33.0458 65.1616L33.3392 64.9636L33.689 65.3133C33.9763 65.6006 34.1012 65.677 34.3893 65.7415C35.5203 65.9946 36.4102 65.5016 36.4859 64.58C36.5088 64.3027 36.4865 64.1649 36.3912 63.9928C36.2409 63.7213 35.8013 63.4064 35.4055 63.2869C34.113 62.8965 33.2994 62.4469 33.1747 62.0543C33.1512 61.9802 33.1096 61.9196 33.082 61.9196C33.0545 61.9196 32.9958 61.7171 32.9516 61.4696C32.7607 60.4013 33.2754 59.563 34.3383 59.2107C34.6124 59.1198 35.6959 59.1213 36.0138 59.213ZM14.0876 59.3562C14.5904 59.49 15.0071 59.7212 15.2049 59.976C15.7446 60.6711 15.7216 61.7427 15.1541 62.3415C14.9033 62.6061 14.6898 62.7269 14.1977 62.8827L13.8466 62.9939L14.1074 63.3976C14.2509 63.6196 14.3683 63.8158 14.3683 63.8335C14.3683 63.8513 14.4958 64.0615 14.6515 64.3006C14.8073 64.5398 15.0068 64.8666 15.0949 65.0268C15.183 65.187 15.3766 65.5056 15.5251 65.7348C15.6736 65.964 15.785 66.1825 15.7726 66.2203C15.746 66.3016 15.3832 66.3465 15.1751 66.2943C15.0406 66.2605 14.9553 66.1482 14.6184 65.5609C14.5521 65.4452 14.4435 65.2558 14.3771 65.1401C14.11 64.6742 13.8154 64.2164 13.7695 64.1961C13.7428 64.1842 13.721 64.1392 13.721 64.096C13.721 63.9966 13.1514 63.0686 13.0513 63.0049C12.9162 62.919 12.0597 62.9483 11.9823 63.0415C11.9356 63.0978 11.9048 63.6749 11.8934 64.7084L11.8761 66.2891L11.6687 66.3092C11.5546 66.3202 11.4017 66.2973 11.3288 66.2583C11.198 66.1883 11.1964 66.1469 11.1964 62.7696C11.1964 60.8899 11.2158 59.3325 11.2396 59.3088C11.3252 59.2232 13.7391 59.2633 14.0876 59.3562ZM21.4115 59.6055L21.4313 59.9129H19.6152H17.7991V61.1105V62.308H19.3798C20.2491 62.308 21.0065 62.3257 21.0628 62.3473C21.1346 62.3749 21.1652 62.4713 21.1652 62.6699V62.9532L19.4984 62.9705L17.8315 62.9877L17.814 64.33L17.7965 65.6721L19.6589 65.6893L21.5213 65.7065L21.5419 65.9588C21.5549 66.117 21.5307 66.2314 21.4772 66.2653C21.3579 66.341 17.1689 66.3367 17.122 66.2609C17.0729 66.1814 17.0735 59.4047 17.1227 59.3252C17.1456 59.288 17.9952 59.2706 19.2761 59.2809L21.3918 59.298L21.4115 59.6055ZM31.2863 59.6055C31.3394 60.0474 31.3282 65.4689 31.2733 65.9331L31.2311 66.2891H30.9398H30.6486L30.6318 62.7774L30.6151 59.2656H30.9303H31.2454L31.2863 59.6055ZM43.2719 59.3965C43.2947 59.4685 43.2944 59.6142 43.2711 59.7202L43.2287 59.9129H42.0687H40.9087V63.0446C40.9087 66.5184 40.9314 66.3469 40.4763 66.3095L40.229 66.2891L40.2122 63.101L40.1954 59.9129H38.9985H37.8015V59.5893V59.2656H40.5159C43.1835 59.2656 43.231 59.2679 43.2719 59.3965ZM48.5992 59.6044L48.6188 59.9109L46.819 59.9281L45.0192 59.9453L45.0007 61.0134C44.9905 61.6008 44.9965 62.1397 45.014 62.2109C45.0449 62.3367 45.0917 62.3399 46.6414 62.322C47.7788 62.3089 48.2631 62.3251 48.3274 62.3785C48.3771 62.4196 48.4176 62.5663 48.4176 62.7043V62.9554H46.7422H45.0666L45.0276 63.101C44.9699 63.3163 44.9803 65.499 45.0395 65.5922C45.0774 65.6518 45.5576 65.6765 46.932 65.6893L48.7737 65.7065L48.7943 65.9588C48.8073 66.117 48.7831 66.2314 48.7296 66.2653C48.5872 66.3556 44.4439 66.3353 44.3524 66.2438C44.2941 66.1854 44.2748 65.3358 44.2748 62.8183C44.2748 60.9769 44.2926 59.4239 44.3144 59.3671C44.3497 59.275 44.5824 59.2657 46.4667 59.2809L48.5795 59.298L48.5992 59.6044ZM53.0295 59.3602C54.0942 59.6833 54.5025 60.1776 54.5025 61.1433C54.5025 61.7522 54.3852 62.0437 53.9903 62.4155C53.7609 62.6315 53.1102 62.9554 52.9056 62.9554C52.8047 62.9554 52.7896 63.1234 52.8851 63.1825C52.9212 63.2048 53.0093 63.3304 53.0809 63.4614C53.1524 63.5925 53.2837 63.8163 53.3726 63.9587C53.4615 64.1011 53.5534 64.2613 53.5767 64.3148C53.6001 64.3682 53.6378 64.4264 53.6605 64.4442C53.6998 64.475 53.7763 64.6007 54.4209 65.6941C54.5719 65.9502 54.6957 66.1961 54.6961 66.2405C54.6965 66.2943 54.5935 66.3207 54.3892 66.3194C54.0794 66.3173 53.9158 66.2413 53.8363 66.0625C53.8126 66.0091 53.7205 65.8489 53.6315 65.7065C53.5426 65.5641 53.4102 65.3456 53.3373 65.221C53.2644 65.0964 53.1321 64.8779 53.0434 64.7355C52.9546 64.5931 52.8538 64.4183 52.8195 64.3471C52.7851 64.2759 52.6849 64.1011 52.5969 63.9587C52.5089 63.8163 52.3438 63.5366 52.2301 63.3371L52.0233 62.9744L51.5771 62.9614C50.8159 62.9392 50.8776 62.8011 50.8766 64.5295C50.8761 65.3549 50.8578 66.0972 50.8359 66.179C50.8005 66.311 50.7622 66.3257 50.4969 66.3084L50.1978 66.2891L50.181 62.8583C50.1717 60.9713 50.178 59.3911 50.1951 59.3465C50.2421 59.2238 52.6178 59.2353 53.0295 59.3602ZM60.3158 59.6044L60.3354 59.9109L58.5356 59.9281L56.7358 59.9453V61.1105V62.2757L58.3541 62.308C59.2442 62.3258 60.0089 62.364 60.0533 62.3928C60.0979 62.4216 60.1342 62.5599 60.1342 62.7003V62.9554H58.4581C56.9894 62.9554 56.7771 62.9681 56.7427 63.0578C56.7211 63.1141 56.7034 63.7254 56.7034 64.4162V65.6722L58.5968 65.6893L60.4903 65.7065L60.5109 65.9211C60.55 66.3288 60.5909 66.3215 58.2867 66.3215C57.1369 66.3215 56.1501 66.3038 56.0938 66.2822C56.0022 66.247 55.9914 65.8795 55.9914 62.7974C55.9914 60.9024 56.0112 59.3321 56.0354 59.3079C56.0596 59.2837 57.0282 59.2716 58.1877 59.2809L60.2961 59.298L60.3158 59.6044ZM64.8846 59.3355C65.511 59.4997 65.6883 59.5615 66.0332 59.7357C66.7383 60.0919 67.3954 60.9406 67.6239 61.7902C67.7317 62.1908 67.7267 63.3645 67.6156 63.7821C67.2432 65.1809 66.2227 66.0486 64.7094 66.253C63.9909 66.3501 61.9299 66.3435 61.8302 66.2438C61.7718 66.1853 61.7526 65.3226 61.7526 62.759C61.7526 60.8851 61.772 59.3325 61.7957 59.3088C61.868 59.2365 64.5971 59.2601 64.8846 59.3355ZM69.4438 59.5731C69.4281 59.6558 69.348 59.6917 69.1477 59.7062L68.8731 59.7262V60.5013C68.8731 61.1402 68.8556 61.2831 68.7733 61.3147C68.5838 61.3874 68.5612 61.2912 68.5545 60.3822L68.5495 59.7187H68.3606C68.1064 59.7187 67.9669 59.6589 67.9669 59.55C67.9669 59.4781 68.1189 59.4598 68.716 59.4598C69.3946 59.4598 69.4632 59.4705 69.4438 59.5731ZM70.244 59.6055C70.3415 59.781 70.557 60.3435 70.602 60.5397C70.6581 60.7848 70.8008 60.7687 70.8817 60.5082C70.9569 60.2657 71.1624 59.7668 71.2602 59.5893C71.2896 59.5359 71.4062 59.483 71.5193 59.4718L71.725 59.4513L71.707 60.3772C71.6911 61.1919 71.6757 61.3057 71.578 61.3244C71.4795 61.3433 71.4648 61.2665 71.4485 60.6455L71.4301 59.9453L71.2904 60.2366C71.2136 60.3968 71.0766 60.7027 70.986 60.9163C70.8954 61.1299 70.7835 61.3125 70.7373 61.322C70.6896 61.3319 70.6005 61.206 70.531 61.0307C70.4131 60.7328 70.3072 60.4757 70.1909 60.2042C70.153 60.1159 70.1295 60.2527 70.1169 60.6353C70.0975 61.2163 70.0253 61.3776 69.82 61.2989C69.7301 61.2644 69.7147 61.1333 69.7147 60.4023C69.7147 59.9314 69.7341 59.5267 69.7578 59.503C69.8608 59.3999 70.1657 59.4641 70.244 59.6055ZM11.939 59.9916C11.9204 60.0399 11.9133 60.5737 11.923 61.1776L11.9408 62.2757L12.8471 62.2947C13.8268 62.3153 14.2386 62.2459 14.4754 62.0202C14.9822 61.5371 15.0297 60.8845 14.5949 60.3767C14.3075 60.0411 13.9606 59.947 12.9277 59.9245C12.1681 59.9079 11.9658 59.9216 11.939 59.9916ZM50.8775 61.1058V62.308L51.8323 62.3031C52.3734 62.3003 52.8876 62.2652 53.019 62.2221C53.7173 61.9934 54.0217 61.2159 53.6629 60.5775C53.5496 60.376 53.4175 60.2598 53.1488 60.1258C52.8103 59.9569 52.7258 59.9439 51.8323 59.9245L50.8775 59.9036V61.1058ZM62.4943 59.9939C62.4772 60.0384 62.4708 61.3273 62.4801 62.8583L62.497 65.6418L63.3061 65.6619C64.7149 65.697 65.6763 65.3987 66.3227 64.7259C66.5149 64.5258 66.6722 64.3223 66.6722 64.2737C66.6722 64.2251 66.6942 64.1853 66.7212 64.1853C66.788 64.1853 66.9059 63.7905 66.9991 63.2554C67.1511 62.3825 66.8252 61.2902 66.2562 60.7657C65.8858 60.4243 65.2331 60.1143 64.6121 59.9848C64.1198 59.8822 62.5345 59.889 62.4943 59.9939Z" fill="white"/>
</svg>
