<svg width="14" height="24" viewBox="0 0 14 24" fill="none" xmlns="http://www.w3.org/2000/svg">
<path d="M13.7064 9.20709C13.5189 9.01962 13.2646 8.91431 12.9994 8.91431C12.7343 8.91431 12.48 9.01962 12.2924 9.20709L7.70643 13.7931C7.5163 13.9756 7.26297 14.0775 6.99943 14.0775C6.73589 14.0775 6.48256 13.9756 6.29243 13.7931L1.70643 9.20709C1.51783 9.02493 1.26523 8.92414 1.00303 8.92642C0.740833 8.9287 0.49002 9.03387 0.304612 9.21927C0.119204 9.40468 0.014035 9.65549 0.0117566 9.91769C0.00947813 10.1799 0.110273 10.4325 0.292431 10.6211L4.87743 15.2071C5.15601 15.4857 5.48675 15.7067 5.85076 15.8575C6.21477 16.0083 6.60492 16.086 6.99893 16.086C7.39294 16.086 7.78309 16.0083 8.1471 15.8575C8.51111 15.7067 8.84185 15.4857 9.12043 15.2071L13.7064 10.6211C13.8939 10.4336 13.9992 10.1793 13.9992 9.91409C13.9992 9.64893 13.8939 9.39462 13.7064 9.20709Z" fill="#8252CC"/>
</svg>
