<svg width="91" height="68" viewBox="0 0 91 68" fill="none" xmlns="http://www.w3.org/2000/svg">
<path opacity="0.5" fill-rule="evenodd" clip-rule="evenodd" d="M42.641 0.0111946C42.3792 0.0190122 42.1516 0.0358876 42.1201 0.0498176C42.0266 0.091231 41.9276 0.210289 41.8976 0.31761C41.8744 0.400326 41.874 1.01262 41.8954 3.59762C41.9181 6.34528 41.9261 6.78273 41.9546 6.82627C42.0109 6.91218 42.1396 6.93373 42.5968 6.93373C43.0666 6.93373 43.1994 6.91036 43.2752 6.81434C43.3204 6.75709 43.3207 6.74615 43.3047 5.63538L43.2885 4.51419L43.8395 4.50293C44.5735 4.48794 44.9317 4.42228 45.3606 4.22411C46.2082 3.8325 46.6546 3.04007 46.6098 2.00619C46.5854 1.44047 46.4362 1.04412 46.1208 0.706364C45.7923 0.354638 45.3509 0.142145 44.7449 0.0441038C44.4943 0.00355412 43.4458 -0.0128562 42.641 0.0111946ZM49.5054 0.231461C49.4152 0.28645 49.3918 0.325804 49.2117 0.723506C49.0402 1.10241 48.8261 1.57086 48.0333 3.30175C47.5074 4.45007 47.2365 5.04286 46.7886 6.02573C46.5929 6.45506 46.5662 6.52838 46.5637 6.64292C46.5612 6.75806 46.5674 6.77777 46.6175 6.81564C46.6988 6.8771 46.9745 6.92143 47.3693 6.93658C47.8533 6.95512 47.7925 7.01485 48.1604 6.15914C48.3225 5.78212 48.4634 5.46537 48.4735 5.45525C48.4836 5.4451 48.6454 5.45201 48.833 5.47059C49.0207 5.48917 49.386 5.5245 49.6448 5.54912C50.7604 5.65523 51.0574 5.68683 51.0706 5.70082C51.0783 5.709 51.105 5.81036 51.13 5.92607C51.2421 6.44644 51.4047 7.1539 51.4234 7.20316C51.4358 7.23584 51.4819 7.27402 51.5397 7.29958C51.6691 7.35683 52.122 7.41397 52.4769 7.4178C52.7391 7.42063 52.7726 7.41658 52.8171 7.37665C52.8621 7.3363 52.8655 7.31754 52.8553 7.16626C52.8487 7.06656 52.7719 6.70803 52.6634 6.26934C52.4857 5.55138 52.3445 4.97733 52.0863 3.92184C52.0148 3.62951 51.8854 3.10132 51.7987 2.74809C51.712 2.39486 51.5912 1.90155 51.5301 1.65185C51.2148 0.362256 51.2332 0.418973 51.1103 0.355391C51.0147 0.306005 50.7694 0.262731 50.3644 0.223843C49.8718 0.176538 49.5914 0.179019 49.5054 0.231461ZM36.9162 0.568903C36.5132 0.623892 36.2098 0.685946 36.1083 0.734091C36.0155 0.778118 35.959 0.878374 35.9208 1.06699C35.9087 1.12679 35.7535 1.91318 35.5758 2.81453C35.3981 3.71588 35.1942 4.74734 35.1226 5.10666C34.5991 7.73371 34.6095 7.67252 34.6661 7.78188C34.7131 7.87279 34.7662 7.88449 35.0536 7.86726C35.3881 7.84721 35.7913 7.76075 35.8856 7.68887C35.9738 7.62154 35.9667 7.64954 36.1222 6.75656C36.1837 6.40332 36.241 6.10685 36.2495 6.09775C36.2581 6.08865 36.3742 6.06652 36.5076 6.04861C36.641 6.03067 37.2177 5.95094 37.7892 5.87144C38.3607 5.79193 38.8303 5.72933 38.8327 5.73234C38.8351 5.73537 38.9218 5.91223 39.0253 6.12539C39.4774 7.05644 39.5134 7.12491 39.5702 7.16205C39.646 7.21162 39.8591 7.20681 40.2966 7.14573C40.8515 7.06822 40.9614 7.01688 40.9391 6.84558C40.9277 6.75866 40.7664 6.42518 40.2318 5.38349C40.0818 5.09116 39.8163 4.57294 39.6417 4.23189C39.4672 3.89084 39.2622 3.4922 39.1863 3.34604C39.1103 3.19987 38.796 2.58698 38.4877 1.98405C37.7657 0.571893 37.7977 0.63027 37.7131 0.572225C37.6493 0.528419 37.6149 0.52275 37.4279 0.525253C37.3109 0.526825 37.0807 0.546469 36.9162 0.568903ZM44.2726 1.09831C44.6882 1.15841 44.957 1.37662 45.0911 1.76258C45.1322 1.88104 45.1413 1.95554 45.1423 2.18336C45.1443 2.61462 45.0518 2.88449 44.8245 3.111C44.581 3.35366 44.3684 3.41562 43.7348 3.42858L43.3004 3.43748L43.2863 3.23887C43.2785 3.12963 43.2722 2.59832 43.2722 2.05815V1.07605L43.6985 1.07649C43.933 1.07674 44.1913 1.08655 44.2726 1.09831ZM33.2381 1.15155C33.2331 1.15651 33.0097 1.21712 32.7417 1.28622C32.4737 1.35532 32.0253 1.47136 31.7451 1.54411C31.2626 1.66944 30.8396 1.77899 30.0066 1.99445C29.8057 2.04645 29.402 2.15043 29.1097 2.22555C28.4621 2.39194 28.4654 2.3897 28.4861 2.64752C28.5125 2.97728 28.6666 3.39921 28.7794 3.45057C28.8246 3.47121 28.8789 3.46492 29.072 3.41673C29.4562 3.32081 30.3412 3.09131 30.4546 3.0582L30.5593 3.0276L30.5806 3.10932C30.5923 3.15425 30.6479 3.3704 30.7042 3.58965C30.7605 3.80889 30.8353 4.0979 30.8704 4.23189C30.9735 4.62525 31.3853 6.21477 31.7868 7.7689C31.9864 8.54145 31.9705 8.49977 32.0805 8.5378C32.1616 8.56588 32.1994 8.56506 32.4099 8.53076C32.6641 8.48934 33.0759 8.36537 33.1902 8.29581C33.2284 8.27255 33.2766 8.22782 33.2972 8.19637C33.3377 8.13449 33.3486 8.18235 32.9177 6.52402C32.8623 6.31086 32.7435 5.85244 32.6535 5.5053C32.4623 4.76703 32.3216 4.22407 32.1856 3.70038C31.996 2.9702 31.9276 2.69113 31.9359 2.68287C31.944 2.67499 32.1062 2.63224 33.1624 2.35976C33.406 2.29693 33.6226 2.23623 33.6438 2.22486C33.6992 2.19523 33.7131 2.11404 33.6978 1.9093C33.6778 1.64233 33.561 1.28635 33.4603 1.18561C33.4218 1.14714 33.2668 1.12338 33.2381 1.15155ZM58.0659 1.45132C57.5542 1.50538 57.4248 1.58273 57.3126 1.90202C57.2395 2.11001 57.174 2.44331 57.1898 2.52723C57.2131 2.65173 57.2541 2.65842 57.5735 2.58977C57.8196 2.53688 57.9062 2.529 58.2541 2.52789C58.5991 2.52681 58.6795 2.53343 58.8512 2.57714C59.2583 2.68079 59.5173 2.85335 59.6401 3.10272C59.7073 3.23923 59.7095 3.25291 59.6996 3.46144C59.6865 3.73437 59.6274 3.89283 59.4774 4.05689C59.297 4.2543 59.0384 4.35425 58.7107 4.35325C58.4942 4.35261 58.3145 4.32171 57.8113 4.19869C57.5622 4.13779 57.3489 4.08794 57.3373 4.08794C57.3258 4.08794 57.2864 4.11312 57.2498 4.1439C57.1783 4.20405 57.103 4.40199 57.0377 4.70132C56.9571 5.07034 56.9588 5.07196 57.6119 5.23843C58.171 5.38092 58.2391 5.40269 58.443 5.50386C58.7318 5.64719 58.8939 5.80075 59.0042 6.03576C59.0644 6.16412 59.0722 6.20361 59.0721 6.38007C59.0718 6.83101 58.8312 7.17169 58.4213 7.30188C58.2131 7.36801 57.8584 7.36708 57.5897 7.29969C57.1372 7.18619 56.8204 7.01319 56.416 6.65882C56.3307 6.5841 56.2395 6.51738 56.2132 6.51053C56.1486 6.49375 56.0802 6.53388 56.0396 6.61238C55.975 6.73736 55.8734 7.21239 55.8734 7.38965C55.8734 7.54133 55.8798 7.56682 55.9351 7.63638C56.3548 8.16459 57.4635 8.57064 58.4867 8.57093C59.1183 8.57111 59.5632 8.43353 59.9655 8.11359C60.238 7.89693 60.4871 7.4995 60.594 7.1109C60.6588 6.87548 60.6655 6.40662 60.6072 6.19557C60.4859 5.75685 60.178 5.3859 59.7613 5.17651L59.5944 5.0926L59.8127 5.067C60.4899 4.98754 60.9548 4.59692 61.1752 3.92235C61.3409 3.4148 61.2935 2.89554 61.0468 2.51815C60.6417 1.89841 59.676 1.49165 58.4977 1.44443C58.3516 1.43856 58.1572 1.44166 58.0659 1.45132ZM50.2337 1.93975C50.6867 3.90047 50.8314 4.55303 50.8165 4.56793C50.8106 4.57389 50.6479 4.56322 50.455 4.54419C50.2621 4.52519 49.8851 4.4892 49.6171 4.46422C49.3491 4.43924 49.078 4.41165 49.0145 4.40286L48.899 4.38691L49.0383 4.06579C49.1962 3.70149 49.6853 2.5806 49.9321 2.01727C50.0228 1.8102 50.1025 1.62269 50.1092 1.60056C50.1307 1.52936 50.1528 1.58969 50.2337 1.93975ZM37.2466 2.4768C37.3908 2.77219 37.6946 3.39153 37.9217 3.85312C38.1487 4.31474 38.3311 4.69576 38.327 4.69988C38.3189 4.70801 38.0151 4.7523 37.1377 4.87322C36.8271 4.91603 36.5406 4.95662 36.501 4.96342C36.4353 4.97472 36.429 4.97086 36.429 4.91884C36.429 4.8875 36.4685 4.64538 36.5167 4.38078C36.6673 3.55443 36.7642 3.01814 36.7837 2.90311C36.8406 2.56682 36.9414 2.01197 36.9516 1.97851C36.9582 1.95718 36.9682 1.93975 36.9739 1.93975C36.9796 1.93975 37.1023 2.18141 37.2466 2.4768ZM26.2026 3.13797C25.1453 3.26091 24.1331 3.94662 23.7049 4.82984C23.4921 5.26893 23.4182 5.62411 23.4195 6.2029C23.4208 6.85145 23.5302 7.34835 23.8314 8.07426C24.3366 9.29203 25.1716 10.0754 26.1421 10.2422C26.9309 10.3778 27.8672 10.147 28.6566 9.62239C28.9241 9.44466 29.3336 9.04191 29.4195 8.87214C29.5254 8.66293 29.4856 8.43358 29.2629 7.96953C29.1481 7.73033 29.0828 7.67051 28.9921 7.72142C28.9606 7.73907 28.8911 7.80824 28.8376 7.87512C28.5491 8.23572 28.4798 8.31239 28.3152 8.45338C28.0991 8.63836 27.7001 8.84417 27.4155 8.91747C27.1699 8.98077 26.824 8.98511 26.6183 8.92753C26.2077 8.81257 25.8364 8.51441 25.5427 8.06385C25.1542 7.46785 24.8684 6.59764 24.8688 6.01182C24.8692 5.43522 25.1096 4.90819 25.4991 4.63025C26.017 4.26068 26.6247 4.1753 27.4114 4.3616C27.7341 4.43802 27.7939 4.26947 27.6107 3.80004C27.5364 3.60962 27.4239 3.39268 27.3607 3.31747C27.2214 3.15195 26.7331 3.07628 26.2026 3.13797ZM65.1757 3.51823C65.1244 3.54416 64.9623 3.72844 64.3337 4.4755C64.0178 4.85081 62.3682 6.80767 61.4345 7.91449C61.0617 8.35647 60.7268 8.77217 60.6902 8.8383C60.6275 8.95187 60.6256 8.9619 60.6576 9.01977C60.7111 9.11666 60.856 9.19884 61.2051 9.33021C61.553 9.46112 61.7487 9.49717 61.8415 9.4475C61.8706 9.43193 62.1058 9.15645 62.3643 8.83531C62.6227 8.51417 62.845 8.25145 62.8584 8.25149C62.8718 8.25151 63.1169 8.34174 63.4031 8.45198C63.6894 8.56223 64.2223 8.76672 64.5874 8.90644C64.9525 9.04617 65.2593 9.16859 65.2692 9.17851C65.2791 9.18841 65.2769 9.385 65.2642 9.61537C65.2114 10.574 65.2092 10.7467 65.2491 10.8074C65.2934 10.8751 65.5498 11.0018 65.9274 11.1426C66.4944 11.354 66.5919 11.335 66.6241 11.0072C66.6313 10.9349 66.6569 10.228 66.681 9.43625C66.7488 7.21202 66.7688 6.56532 66.7911 5.87071C66.8024 5.51748 66.8183 4.98853 66.8264 4.69527L66.8412 4.16206L66.7665 4.0768C66.6773 3.97492 66.4825 3.87952 65.9708 3.68711C65.4332 3.48496 65.2981 3.45626 65.1757 3.51823ZM65.4977 5.00147C65.4921 5.02889 65.4819 5.20577 65.475 5.39456C65.4551 5.93797 65.3739 7.69228 65.3602 7.87129C65.3455 8.06445 65.3863 8.0632 64.9259 7.88455C64.4386 7.69545 64.0117 7.53068 63.7702 7.43844C63.6493 7.39229 63.5496 7.34861 63.5487 7.34144C63.5478 7.33424 63.8466 6.96052 64.2127 6.51095C64.5788 6.06136 65.0124 5.52706 65.1761 5.32361C65.3398 5.12013 65.4815 4.95321 65.4908 4.95266C65.5002 4.95211 65.5033 4.97405 65.4977 5.00147ZM70.5474 5.88174C70.4201 5.92171 70.337 6.03889 70.076 6.54617C69.9349 6.82023 69.7524 7.17401 69.6704 7.33236C69.5884 7.4907 69.419 7.81957 69.294 8.06318C69.1691 8.30679 68.9997 8.63566 68.9176 8.79401C68.8356 8.95235 68.6511 9.31112 68.5077 9.59127C68.3643 9.87142 68.1949 10.2003 68.1312 10.3221C68.0675 10.4439 67.8736 10.8207 67.7003 11.1593C67.3963 11.7532 67.3861 11.7775 67.4133 11.8432C67.4497 11.9312 67.6389 12.0697 67.9199 12.214C68.3534 12.4366 68.5474 12.4838 68.6328 12.3872C68.657 12.3598 68.7665 12.163 68.876 11.9498C68.9856 11.7367 69.2055 11.3082 69.3648 10.9976C69.5241 10.687 69.7015 10.3431 69.759 10.2335C69.8165 10.1239 69.9889 9.79003 70.142 9.49161C70.2952 9.19319 70.5258 8.74473 70.6543 8.49503C70.7829 8.24534 70.9604 7.89908 71.0489 7.72559C71.1373 7.55211 71.2228 7.41009 71.2389 7.41C71.255 7.40994 71.3596 7.45833 71.4714 7.51752C71.5833 7.57674 71.884 7.7325 72.1398 7.86367C72.3956 7.99482 72.7556 8.18058 72.9398 8.27643C73.1568 8.38933 73.3001 8.45074 73.3466 8.45074C73.4511 8.45074 73.5669 8.31401 73.7179 8.01251C73.8219 7.80483 73.8446 7.73859 73.8521 7.62123L73.8611 7.47998L73.7756 7.42663C73.7285 7.39731 73.411 7.23064 73.07 7.05631C72.7289 6.88195 72.3602 6.6922 72.2505 6.63466C71.4209 6.19909 70.7766 5.88249 70.7 5.87275C70.6515 5.86657 70.5828 5.8706 70.5474 5.88174ZM20.28 7.87731C19.9714 7.91753 19.6322 8.09813 19.4217 8.33428C19.2139 8.56743 19.0664 8.95594 19.0664 9.27015C19.0664 9.90099 19.5334 10.4911 20.146 10.6346C21.0418 10.8443 21.8804 10.1752 21.8786 9.2521C21.8776 8.7248 21.5733 8.24303 21.0943 8.01023C20.8309 7.88229 20.5694 7.83957 20.28 7.87731ZM14.8697 8.76513C14.777 8.82816 13.9339 9.50803 11.5889 11.4109C11.4045 11.5605 11.228 11.7134 11.1967 11.7506C11.0947 11.8719 11.0924 12.0536 11.1911 12.199C11.2197 12.2411 11.6301 12.7528 12.1031 13.3362C12.5761 13.9197 13.4508 14.9999 14.0469 15.7368C14.6429 16.4738 15.156 17.1041 15.187 17.1376C15.2942 17.2534 15.4676 17.1984 15.7888 16.947C16.1598 16.6566 16.3489 16.4262 16.3015 16.3224C16.281 16.2773 15.451 15.247 13.4483 12.7803C13.0824 12.3297 12.7871 11.9535 12.7922 11.9446C12.8129 11.9076 14.7735 10.3307 14.7907 10.3372C14.8073 10.3435 15.2836 10.929 17.6613 13.8655C18.4062 14.7855 18.3641 14.7496 18.5748 14.6428C18.7105 14.5741 18.9849 14.3685 19.1802 14.1892C19.3342 14.048 19.424 13.9048 19.4047 13.8313C19.3985 13.8074 19.0034 13.306 18.5268 12.717C16.1785 9.81513 15.3412 8.79029 15.2862 8.7508C15.2497 8.7246 15.1777 8.70409 15.1032 8.69874C14.9927 8.69074 14.9694 8.69736 14.8697 8.76513ZM75.3067 9.49297C74.3731 9.69133 73.5207 10.3562 72.7815 11.4626C72.0046 12.6255 71.856 13.6563 72.3344 14.5631C72.4779 14.8349 72.6348 15.0457 72.8928 15.3129C73.3882 15.8261 73.9428 16.2078 74.4916 16.4133C75.4807 16.7838 76.4223 16.6305 77.3442 15.9489C77.572 15.7804 78.0746 15.2764 78.2843 15.006C79.4267 13.5332 79.6041 12.2589 78.8221 11.1433C78.7531 11.0449 78.5917 10.8561 78.4633 10.7237C77.8218 10.0621 77.0895 9.63153 76.3697 9.49263C76.0578 9.43244 75.5909 9.43259 75.3067 9.49297ZM76.4205 10.7446C76.7855 10.8195 77.0865 10.995 77.4236 11.3295C77.5994 11.504 77.6517 11.5725 77.728 11.7284C77.8627 12.0037 77.8947 12.1543 77.8808 12.4481C77.8583 12.9222 77.6358 13.4135 77.1529 14.0553C76.6384 14.739 76.1254 15.143 75.6043 15.2748C75.4494 15.3139 75.3763 15.3199 75.1633 15.3104C74.8879 15.2981 74.7787 15.27 74.5372 15.1492C74.3228 15.0418 74.0931 14.8643 73.8891 14.6484C73.6931 14.441 73.5971 14.2801 73.5233 14.0354C73.4517 13.7982 73.4682 13.4388 73.5639 13.1537C73.7548 12.5846 74.2257 11.8844 74.772 11.3569C75.3033 10.844 75.8729 10.6324 76.4205 10.7446ZM8.83414 13.9193C8.70113 13.9603 8.85318 13.7917 6.8769 16.0893C6.45169 16.5837 5.99825 17.1104 5.86925 17.2599C5.60263 17.5688 5.53506 17.6783 5.53506 17.801C5.53506 17.9704 5.56653 18.0038 6.38769 18.7076C7.49681 19.6583 9.79041 21.6298 10.219 22.001C10.3651 22.1275 10.506 22.2409 10.5319 22.2529C10.631 22.2986 10.8216 22.1587 11.0887 21.8441C11.3623 21.5219 11.4683 21.331 11.4302 21.2292C11.4146 21.1876 11.3292 21.1126 9.93108 19.9115C9.49259 19.5348 8.85478 18.9866 8.51373 18.6933C8.17267 18.4 7.74414 18.0322 7.56144 17.876C7.37873 17.7198 7.21585 17.5794 7.19948 17.564C7.17494 17.5409 7.26643 17.4235 7.71932 16.8966C8.71094 15.7431 8.84111 15.593 8.85467 15.5875C8.86204 15.5845 9.06738 15.7533 9.31099 15.9626C10.1803 16.7094 11.3324 17.7003 11.7028 18.0196C13.28 19.3795 13.1501 19.285 13.3084 19.1886C13.4733 19.0881 13.8784 18.6246 13.9848 18.4146C14.0845 18.2179 14.0957 18.2343 13.5298 17.749C12.719 17.0536 10.3693 15.0335 9.68747 14.4456C9.40732 14.204 9.14323 13.9884 9.1006 13.9663C9.0005 13.9146 8.90452 13.8977 8.83414 13.9193ZM82.1608 14.3173C82.0322 14.3581 81.9138 14.4508 80.84 15.3519C80.2206 15.8716 79.356 16.5969 78.9186 16.9636C77.2397 18.3712 77.124 18.4712 77.1023 18.533C77.0852 18.5815 77.0913 18.6156 77.1317 18.6991C77.2419 18.9267 77.5824 19.3353 77.7849 19.483C77.9496 19.6032 77.9321 19.6132 78.7413 18.9354C79.1422 18.5996 79.5268 18.2757 79.5961 18.2157C79.6653 18.1556 79.7265 18.1065 79.732 18.1065C79.7376 18.1065 79.8617 18.2487 80.0078 18.4226C80.6462 19.182 81.14 19.5336 81.7738 19.6801C81.9551 19.722 82.0265 19.7272 82.2778 19.717C82.4846 19.7086 82.6195 19.6908 82.7368 19.6566C82.9955 19.581 83.3323 19.4081 83.5714 19.228C84.1988 18.7553 84.4866 18.249 84.4857 17.6193C84.4848 16.9688 84.2293 16.4338 83.5067 15.5693C83.3329 15.3614 83.0432 15.015 82.8627 14.7994C82.5286 14.4002 82.4537 14.3361 82.2928 14.3115C82.2508 14.305 82.1914 14.3077 82.1608 14.3173ZM82.6134 16.1798C83.0629 16.7159 83.1696 16.9301 83.1533 17.2643C83.1411 17.5166 83.0443 17.7237 82.8435 17.9273C82.484 18.292 82.0275 18.4594 81.6539 18.3635C81.3583 18.2877 81.2045 18.1675 80.8182 17.7103C80.5781 17.4261 80.5674 17.4092 80.6047 17.3737C80.7855 17.2016 82.3719 15.8949 82.3841 15.9081C82.3928 15.9174 82.496 16.0397 82.6134 16.1798ZM32.0994 18.6748C31.7149 18.7306 31.4223 18.7865 31.1281 18.8603C29.4632 19.2776 27.3738 20.3359 25.932 21.4922C24.9609 22.271 24.6086 22.8717 25.0091 23.0655C25.2005 23.1582 25.322 23.1508 26.0646 23.0013C31.9173 21.8237 36.4213 21.7649 40.4793 22.8133C41.0132 22.9512 41.1091 22.9806 41.0875 22.9996C41.0771 23.0087 40.969 23.089 40.8472 23.1782C39.0559 24.4887 37.2018 26.2148 35.852 27.8287C34.5057 29.4382 33.4625 31.1592 32.7642 32.9226C31.813 35.3246 31.5378 37.7731 31.9453 40.2084C32.0186 40.6463 32.0584 40.8263 32.2342 41.515C32.2742 41.6714 32.4732 42.2922 32.5644 42.5448C32.7068 42.9393 32.9056 43.4162 33.0776 43.776L33.2214 44.077L34.9415 44.092C35.8875 44.1003 36.9855 44.1163 37.3813 44.1275C37.7772 44.1388 38.6587 44.1553 39.3402 44.164L40.5793 44.1799L40.5176 44.1043C39.5412 42.907 39.1077 41.6945 39.1049 40.1531C39.1036 39.3772 39.2128 38.7493 39.4748 38.0264C40.2917 35.7726 42.406 34.031 44.987 33.4859C47.4373 32.9685 49.9965 33.5585 51.8717 35.0732C53.1178 36.0798 53.951 37.4052 54.2646 38.8796C54.4474 39.739 54.4282 40.7376 54.212 41.6165C53.9775 42.5697 53.5398 43.4538 52.9336 44.1984C52.8635 44.2845 52.7933 44.3725 52.7775 44.394C52.7503 44.4311 52.8139 44.4337 54.0842 44.4463C54.8186 44.4536 56.2974 44.4651 57.3704 44.4719L59.3214 44.4842L59.3779 44.3561C59.8252 43.3397 60.1799 42.1708 60.3674 41.0943C60.4832 40.4298 60.5121 40.0613 60.5114 39.2561C60.5108 38.5969 60.504 38.4404 60.4615 38.1156C60.2397 36.4182 59.66 35.0257 58.6452 33.7528C58.3933 33.4367 57.8409 32.8675 57.5012 32.574C56.0216 31.2955 54.0303 30.3914 51.6878 29.9345C48.9804 29.4066 45.6766 29.492 42.3753 30.1753C42.2657 30.198 42.1735 30.2142 42.1706 30.2112C42.1604 30.2013 42.2918 29.833 42.3965 29.5782C42.5344 29.2427 42.8275 28.6558 43.0159 28.338C43.3789 27.7257 43.7419 27.2486 44.1801 26.808C44.795 26.1896 45.3043 25.881 46.0206 25.6928C47.4112 25.3274 49.2718 25.0728 51.7764 24.9052C53.1697 24.812 54.2035 24.7699 58.3095 24.6394C58.7175 24.6265 59.0813 24.61 59.1178 24.6028C59.2814 24.5705 60.4155 24.0346 61.0446 23.6923C63.1877 22.5262 64.5676 21.1418 65.0624 19.6617C65.1121 19.5132 65.1527 19.3871 65.1527 19.3814C65.1527 19.3757 65.0356 19.3757 64.8925 19.3815C64.7493 19.3873 64.1888 19.4065 63.6467 19.4243C62.3039 19.4683 62.086 19.4758 61.0667 19.513C60.5795 19.5308 59.8221 19.5559 59.3836 19.5688C58.9451 19.5817 58.3123 19.6025 57.9773 19.615C57.0292 19.6504 51.9624 19.6657 50.6912 19.637C49.4299 19.6086 47.4871 19.5508 47.2918 19.5359C47.2187 19.5303 46.0078 19.5159 44.601 19.5039C41.7171 19.4793 40.1108 19.4361 38.7433 19.3464C37.6656 19.2758 37.3646 19.2542 36.9052 19.2147C36.3217 19.1645 35.7036 19.1019 35.1446 19.0365C34.461 18.9566 33.6445 18.8391 33.1071 18.7434C32.737 18.6774 32.2905 18.647 32.0994 18.6748ZM4.05835 20.043C4.0135 20.0754 3.93572 20.2162 3.52551 21.0076C3.21595 21.6049 3.0549 21.9152 2.76694 22.4693C2.47069 23.0393 2.34997 23.272 1.96148 24.0216C1.83916 24.2577 1.74805 24.4602 1.74805 24.4961C1.74805 24.597 1.9093 24.7311 2.20473 24.8758C2.47952 25.0105 2.65315 25.0486 2.72601 24.9902C2.75892 24.9638 3.05484 24.411 3.39378 23.7427C3.46173 23.6087 3.53147 23.4799 3.54874 23.4565C3.57875 23.4158 3.6286 23.439 4.66281 23.9745C5.79204 24.5593 5.93626 24.6341 6.80847 25.0878C7.1008 25.2399 7.50939 25.4516 7.71646 25.5584C7.92353 25.6651 8.19409 25.806 8.31771 25.8715C8.56409 26.002 8.62304 26.0131 8.70934 25.9452C8.85577 25.83 9.15437 25.2902 9.22511 25.0128C9.28685 24.7705 9.34153 24.8153 8.36977 24.3128C8.18098 24.2152 7.78733 24.0111 7.495 23.8592C7.20267 23.7073 6.78411 23.4904 6.56486 23.3772C6.34561 23.264 5.96193 23.0646 5.71223 22.9342C5.46253 22.8038 5.02902 22.5795 4.74887 22.4358C4.46872 22.2921 4.23459 22.1703 4.22856 22.1652C4.22254 22.16 4.26003 22.0744 4.3119 21.9748C4.87402 20.896 5.0257 20.5922 5.0257 20.5452C5.0257 20.4501 4.83626 20.2931 4.55591 20.1559C4.27819 20.02 4.13502 19.9875 4.05835 20.043ZM86.4684 20.9638C85.5076 21.1155 85.1908 21.1652 84.6192 21.2539C84.0807 21.3374 83.8656 21.3706 83.2129 21.4711C82.8268 21.5305 81.1097 21.797 80.7767 21.8492C80.2749 21.9279 80.1818 21.9572 80.1328 22.052C80.0878 22.139 80.1163 22.237 80.2808 22.56C80.5137 23.0176 80.6425 23.1776 80.7781 23.1779C80.8032 23.1779 81.0474 23.1381 81.3207 23.0894C81.5941 23.0406 81.9074 22.9849 82.017 22.9655C82.1266 22.9461 82.2323 22.9259 82.2518 22.9207C82.2784 22.9137 82.3335 22.999 82.4712 23.2606C82.5724 23.4527 82.6821 23.6597 82.7151 23.7206C82.7481 23.7815 82.838 23.9509 82.915 24.097C82.992 24.2432 83.1579 24.5567 83.2838 24.7937L83.5127 25.2245L83.383 25.3584C82.7255 26.0368 82.4408 26.3417 82.4243 26.3847C82.3909 26.472 82.4439 26.6294 82.6234 26.9761C82.9237 27.5562 83.0155 27.6623 83.1628 27.5993C83.2695 27.5537 83.4989 27.3123 85.6601 24.9723C85.8245 24.7943 86.3995 24.1736 86.9379 23.5931C87.4763 23.0125 87.9336 22.5119 87.9541 22.4806C88.036 22.3556 87.9529 22.1223 87.586 21.4474C87.3382 20.9917 87.2284 20.8711 87.0667 20.8773C87.03 20.8787 86.7607 20.9176 86.4684 20.9638ZM86.3116 22.3198C85.7387 22.9283 84.3231 24.396 84.3091 24.396C84.2995 24.396 84.1695 24.1643 84.0202 23.8811C83.8709 23.5979 83.7219 23.3164 83.689 23.2555C83.476 22.861 83.3981 22.7086 83.4056 22.7011C83.4102 22.6965 83.5631 22.6668 83.7453 22.6353C84.062 22.5805 84.2516 22.5476 84.8185 22.4491C84.9586 22.4247 85.2825 22.3686 85.5383 22.3244C85.7941 22.2802 86.0731 22.231 86.1584 22.2151C86.2436 22.1992 86.3423 22.1851 86.3777 22.1838C86.441 22.1814 86.4401 22.1834 86.3116 22.3198ZM30.4274 24.7978C29.654 24.8073 28.5727 24.8093 28.0245 24.8022C26.8916 24.7875 26.9837 24.7783 26.0927 24.9957C24.8823 25.291 23.9835 25.6607 23.3494 26.124C23.149 26.2705 22.8266 26.6034 22.7099 26.7843C22.4133 27.244 22.2555 27.8289 22.2555 28.4676V28.6529L22.3164 28.6375C22.4333 28.608 23.3089 28.4229 23.4846 28.3906C24.3044 28.2397 24.5242 28.2029 25.1788 28.1064C26.7319 27.8774 28.6469 27.7163 30.5824 27.6518C31.473 27.6221 33.0443 27.5859 33.4648 27.5854L33.7893 27.5851L33.9278 27.3581C34.3227 26.7107 34.6456 26.289 35.0775 25.8569C35.4867 25.4475 35.872 25.1496 36.3862 24.8452L36.5065 24.774L34.1701 24.7772C32.8851 24.7789 31.2009 24.7882 30.4274 24.7978ZM31.7119 29.5712C30.9798 29.5893 29.7808 29.6654 28.9768 29.745C28.5345 29.7887 27.5674 29.8902 26.6625 29.9877C26.2266 30.0348 25.2641 30.1273 25.0459 30.1432C24.3467 30.194 23.1256 30.5556 22.4548 30.9104C21.3911 31.4731 20.8283 32.2088 20.6364 33.2877C20.5985 33.5009 20.5869 33.6748 20.5781 34.1667L20.567 34.7799L20.697 34.7494C20.7685 34.7327 21.0812 34.6591 21.3918 34.586C21.7024 34.513 22.0462 34.4332 22.1558 34.4088C22.2654 34.3843 22.5345 34.3233 22.7537 34.2732C23.1824 34.1752 23.2913 34.1517 24.0382 33.9962C25.2097 33.7523 26.1483 33.5991 27.2162 33.4773C28.0777 33.3791 29.3986 33.2999 30.1872 33.2992L30.5782 33.2988L30.633 33.2047C30.6631 33.1529 30.8098 32.8764 30.959 32.5901C31.4323 31.6818 31.5816 31.4153 31.8398 31.0177C32.2367 30.4066 32.6839 29.9341 33.1459 29.6379C33.1976 29.6048 33.24 29.5728 33.24 29.5669C33.24 29.5565 32.187 29.5594 31.7119 29.5712ZM3.63121 33.5701C3.51621 33.8168 3.33133 34.2129 3.22038 34.4504C3.10943 34.6879 2.99438 34.9362 2.9647 35.0021L2.91073 35.1219L1.45061 35.107C0.647521 35.0987 -0.0052391 35.0959 3.16969e-05 35.1007C0.0127879 35.1124 0.510657 35.3789 0.895425 35.58C1.738 36.0205 2.33677 36.3385 2.35347 36.3544C2.36912 36.3694 2.24484 36.6527 1.8092 37.5952C1.57653 38.0986 1.48316 38.3121 1.49189 38.3208C1.49736 38.3263 1.67433 38.2413 1.88516 38.1319C2.21248 37.9622 3.42862 37.3406 3.77355 37.1668L3.88339 37.1114L4.0836 37.2182C4.19371 37.2769 4.6326 37.5067 5.05891 37.7288C5.48523 37.951 5.91706 38.1771 6.01851 38.2313C6.11998 38.2855 6.20806 38.3248 6.21424 38.3186C6.22042 38.3124 6.03027 37.868 5.79169 37.331C5.55311 36.794 5.35789 36.346 5.35789 36.3355C5.35789 36.3249 5.88774 36.0435 6.53531 35.71L7.71274 35.1037L6.23674 35.098L4.76076 35.0923L4.73029 35.0427C4.71352 35.0153 4.5121 34.5719 4.28269 34.0573C4.05328 33.5427 3.8599 33.1216 3.85296 33.1216C3.84601 33.1216 3.74622 33.3234 3.63121 33.5701ZM86.7277 33.3209C86.6439 33.5055 86.5671 33.6715 86.3691 34.0961C86.281 34.2849 86.1788 34.5041 86.1419 34.5833C86.105 34.6625 86.027 34.8294 85.9686 34.9542L85.8623 35.1812L84.4047 35.1817L82.9472 35.1821L83.1576 35.294C83.2733 35.3555 83.5274 35.4893 83.7223 35.5913C84.9104 36.2128 85.2953 36.4217 85.3007 36.4476C85.304 36.4636 85.1072 36.9091 84.8633 37.4375C84.6194 37.9659 84.4199 38.4022 84.4199 38.4071C84.4199 38.412 84.7612 38.2411 85.1784 38.0272C85.5956 37.8134 86.1372 37.5372 86.3821 37.4135L86.8272 37.1887L87.5226 37.55C87.9051 37.7487 88.2678 37.9384 88.3287 37.9715C88.7469 38.1989 89.1865 38.4161 89.1756 38.3901C89.1685 38.3731 88.967 37.921 88.7278 37.3854C88.3293 36.493 88.2962 36.4092 88.3313 36.3835C88.3524 36.3681 88.5249 36.2764 88.7146 36.1796C88.9043 36.0829 89.4183 35.8188 89.8568 35.5927L90.6541 35.1817L90.2665 35.1784C90.0533 35.1766 89.386 35.169 88.7836 35.1615L87.6882 35.148L87.5356 34.8047C87.3155 34.3095 86.8561 33.2973 86.8221 33.2324C86.7935 33.1777 86.7922 33.1789 86.7277 33.3209ZM46.6827 35.8044V37.7342L46.5111 37.7189C46.3081 37.7008 45.9367 37.6182 45.7194 37.5429C44.937 37.2719 44.2017 36.7763 43.4155 35.9902C43.0971 35.6719 42.6148 35.1252 42.439 34.8834L42.392 34.8187L42.2231 34.9458C42.1302 35.0158 42.0542 35.0781 42.0542 35.0843C42.0542 35.1032 42.1641 35.2425 42.4196 35.5474C43.758 37.1443 45.1508 38.0315 46.5222 38.1604L46.6827 38.1755V39.0148V39.8541H43.2169H39.751V40.0644V40.2747L43.2113 40.2803L46.6717 40.2859V41.0832V41.8805L46.3727 41.897C45.2173 41.961 43.9637 42.3054 42.7711 42.8866C42.4191 43.0581 41.7936 43.4004 41.6334 43.5093C41.6029 43.5299 41.4609 43.6226 41.3178 43.7153C41.1747 43.8079 41.0576 43.8941 41.0576 43.9069C41.0576 43.9403 41.2641 44.237 41.2882 44.2381C41.2994 44.2386 41.4588 44.141 41.6426 44.0212C42.9737 43.1534 44.3621 42.6011 45.7175 42.4006C45.961 42.3645 46.5069 42.3126 46.644 42.3124C46.6806 42.3123 46.6827 42.423 46.6827 44.3276V46.3429H46.8931H47.1035V44.34C47.1035 43.0636 47.1113 42.3322 47.1251 42.3237C47.1577 42.3036 47.7632 42.3528 48.089 42.4022C49.4633 42.6102 50.8472 43.1833 52.1623 44.0891C52.2467 44.1472 52.3221 44.1947 52.3299 44.1947C52.3442 44.1947 52.5736 43.875 52.5736 43.8551C52.5736 43.8357 52.0608 43.4966 51.7321 43.2988C51.3544 43.0714 50.5478 42.6698 50.1714 42.5217C49.2214 42.1479 48.1775 41.9207 47.2475 41.8855L47.1146 41.8805V41.0832V40.2859L50.3313 40.2803L53.5481 40.2747V40.0645V39.8542L50.3313 39.8486L47.1146 39.843V39.0125V38.182L47.336 38.1548C47.8061 38.097 48.2167 37.9834 48.6537 37.7904C49.3101 37.5005 49.9844 37.0379 50.5954 36.4581C51.0615 36.0159 51.7449 35.2721 51.7278 35.2256C51.7215 35.2085 51.426 34.9598 51.412 34.9598C51.4086 34.9598 51.3275 35.0519 51.2319 35.1646C50.2078 36.3714 49.135 37.1893 48.1222 37.5352C47.8047 37.6437 47.3984 37.728 47.1934 37.728H47.1035V35.8013V33.8746H46.8931H46.6827V35.8044ZM83.4501 44.3498C83.4136 44.4289 83.3368 44.5934 83.2794 44.7152C83.222 44.837 83.1474 44.9964 83.1137 45.0695C83.0799 45.1426 82.9872 45.3419 82.9077 45.5124C82.8281 45.683 82.7224 45.9108 82.6727 46.0188L82.5823 46.2151L81.1314 46.2067C80.3335 46.2021 79.6806 46.2004 79.6806 46.203C79.6806 46.2055 79.7877 46.2645 79.9187 46.3339C80.0496 46.4034 80.2066 46.4868 80.2675 46.5192C80.3284 46.5516 80.7535 46.7756 81.2121 47.0169L82.046 47.4557L81.9848 47.5914C81.9511 47.666 81.8364 47.9164 81.7299 48.1478C81.2104 49.2763 81.1423 49.4255 81.1423 49.435C81.1423 49.4406 81.1846 49.4212 81.2364 49.3918C81.2881 49.3624 81.6594 49.1713 82.0613 48.9672C82.4633 48.7631 82.9618 48.5082 83.1693 48.4008L83.5463 48.2055L83.7893 48.3332C84.2488 48.5744 84.9302 48.9308 85.5438 49.2507C85.7418 49.3539 85.9037 49.4346 85.9037 49.43C85.9037 49.4254 85.7039 48.9719 85.4597 48.4223C85.2155 47.8726 85.0187 47.4206 85.0223 47.4179C85.0332 47.4099 85.6832 47.0739 86.2027 46.8078C86.4706 46.6705 86.7895 46.506 86.9113 46.4422C87.0331 46.3784 87.1876 46.2976 87.2546 46.2626L87.3764 46.199L85.8945 46.1879L84.4127 46.1768L83.9873 45.226C83.7533 44.703 83.5516 44.2595 83.5392 44.2405C83.5208 44.2125 83.5037 44.2336 83.4501 44.3498ZM7.32142 44.3529C7.30368 44.3938 7.24441 44.5219 7.18969 44.6377C7.0637 44.9041 6.9745 45.0959 6.72602 45.6342C6.61637 45.8718 6.50272 46.1134 6.47342 46.1713L6.42015 46.2765H4.9766C4.14893 46.2765 3.54201 46.2848 3.55408 46.2959C3.56566 46.3066 3.66979 46.365 3.78551 46.4258C3.90122 46.4866 4.39951 46.7482 4.89282 47.0072C5.38613 47.2661 5.81171 47.4915 5.83857 47.5082L5.88738 47.5385L5.77512 47.7767C5.71338 47.9077 5.61527 48.1196 5.55712 48.2475C5.49894 48.3754 5.34989 48.6993 5.22585 48.9672C5.10183 49.2352 4.99454 49.4682 4.9874 49.485C4.9764 49.511 5.51561 49.242 7.08682 48.4376L7.3873 48.2837L8.27164 48.7454C8.75802 48.9993 9.28968 49.2768 9.45312 49.362C9.61654 49.4471 9.74454 49.5028 9.73757 49.4856C9.73059 49.4685 9.52971 49.0164 9.29115 48.4809C9.05256 47.9455 8.86477 47.5008 8.8738 47.4926C8.8936 47.4748 9.1763 47.3277 10.2965 46.7524C10.7654 46.5116 11.1586 46.306 11.1702 46.2955C11.1819 46.2849 10.747 46.2751 10.1847 46.2734C9.63105 46.2717 8.96894 46.2642 8.71326 46.2568L8.24844 46.2433L7.81366 45.2735C7.57453 44.7402 7.3732 44.2981 7.36626 44.2912C7.35933 44.2842 7.33913 44.312 7.32142 44.3529ZM33.9243 45.1994C33.9774 45.2565 33.9774 45.2567 33.9312 45.2739C33.8895 45.2893 33.92 45.3311 34.2348 45.6896C36.2472 47.9817 38.9272 49.5873 42.0763 50.3874C42.6799 50.5408 43.3584 50.6672 44.0695 50.7588C45.3242 50.9205 46.5666 50.9428 47.8565 50.8265C51.4339 50.5042 54.7544 49.1014 57.2845 46.8435C57.7379 46.4389 58.6417 45.5102 58.6417 45.4489C58.6417 45.4412 58.6256 45.4349 58.6059 45.4349C58.5733 45.4349 58.5732 45.4303 58.6049 45.3819L58.6397 45.3288L58.2808 45.3154C58.0834 45.308 56.9702 45.2921 55.807 45.28C54.6437 45.268 53.5625 45.253 53.4041 45.2468C53.2458 45.2406 52.8246 45.2347 52.4682 45.2337L51.8203 45.2319L51.682 45.3403C50.9237 45.9354 49.8549 46.4423 48.7977 46.7084C46.3586 47.3224 43.5175 46.7837 41.6729 45.3577L41.5241 45.2427L40.322 45.2275C39.6608 45.2192 38.3325 45.203 37.3702 45.1917C36.408 45.1802 35.227 45.1645 34.7459 45.1566L33.8711 45.1422L33.9243 45.1994ZM75.2449 53.319C75.2146 53.386 75.1432 53.5404 75.0861 53.6622C75.029 53.784 74.8426 54.1843 74.6718 54.5516L74.3613 55.2195L72.9073 55.2077C71.964 55.2001 71.4611 55.2036 71.4754 55.2176C71.4946 55.2362 72.9646 56.0148 73.5964 56.341C73.7792 56.4353 73.8111 56.4597 73.802 56.4977C73.7961 56.5225 73.5965 56.9651 73.3585 57.4812C73.1204 57.9973 72.9297 58.4237 72.9348 58.4287C72.9398 58.4338 73.0669 58.3738 73.2173 58.2954C73.3677 58.2171 73.7997 57.9958 74.1773 57.8036C74.5549 57.6115 74.9668 57.4001 75.0928 57.3338L75.3218 57.2133L75.4803 57.2956C75.6677 57.3928 75.9911 57.5618 76.3144 57.7314C77.1266 58.1576 77.6613 58.4348 77.6711 58.4348C77.6773 58.4348 77.4888 57.9988 77.2521 57.4659C77.0155 56.933 76.8198 56.4792 76.8173 56.4576C76.8124 56.416 76.8448 56.3982 78.1193 55.745C78.4482 55.5764 78.7671 55.4114 78.828 55.3782C78.8889 55.345 78.9836 55.2941 79.0384 55.2652L79.138 55.2125L77.6671 55.2014L76.1962 55.1903L75.78 54.2602C75.5511 53.7486 75.3494 53.3002 75.3319 53.2636L75.3 53.1972L75.2449 53.319ZM16.8088 54.82C16.6694 55.1211 16.461 55.5692 16.3457 55.8158L16.136 56.2641L14.6855 56.2698L13.2349 56.2755L13.6758 56.5064C13.9183 56.6333 14.2413 56.8038 14.3935 56.8851C14.5458 56.9664 14.8199 57.1104 15.0026 57.2052C15.3091 57.3643 15.5661 57.5021 15.587 57.5187C15.5949 57.525 15.3935 57.9682 14.7947 59.2628C14.7446 59.3711 14.7036 59.4687 14.7036 59.4796C14.7036 59.4906 14.8755 59.4107 15.0856 59.3022C15.2957 59.1937 15.6869 58.9928 15.9549 58.8557C16.2228 58.7187 16.5895 58.5309 16.7696 58.4384L17.0972 58.2702L17.4229 58.4403C17.6021 58.5338 18.1274 58.8083 18.5903 59.0502C19.0531 59.2921 19.4343 59.4842 19.4374 59.477C19.4405 59.4699 19.2487 59.027 19.0111 58.4929C18.7736 57.9587 18.5793 57.5104 18.5794 57.4966C18.5795 57.4827 18.7415 57.3893 18.9393 57.289C19.1371 57.1887 19.4584 57.0238 19.6533 56.9224C19.8482 56.821 20.2106 56.634 20.4588 56.5068L20.9099 56.2755L20.1819 56.262C19.7815 56.2545 19.1193 56.247 18.7103 56.2454L17.9666 56.2423L17.7104 55.672C17.5695 55.3584 17.371 54.9152 17.2693 54.6872C17.1676 54.4591 17.0793 54.2725 17.0732 54.2725C17.0671 54.2725 16.9481 54.5188 16.8088 54.82ZM64.8919 59.7192C64.8318 59.8471 64.727 60.0714 64.6589 60.2175C64.5909 60.3637 64.4306 60.7075 64.3028 60.9816L64.0703 61.4799L62.6128 61.4909L61.1553 61.502L61.3435 61.5992C61.4471 61.6526 61.7161 61.7938 61.9415 61.9128C62.1668 62.0319 62.4808 62.1975 62.6393 62.2808C63.4075 62.6844 63.5139 62.7424 63.5139 62.7586C63.5139 62.7682 63.368 63.0923 63.1897 63.4789C62.7977 64.3285 62.628 64.7023 62.628 64.7157C62.628 64.7212 62.9893 64.5406 63.4308 64.3144C63.8724 64.0881 64.4135 63.8124 64.6334 63.7016L65.0332 63.5001L65.5525 63.7719C66.232 64.1276 66.4593 64.2465 66.7804 64.4141C66.9266 64.4904 67.1191 64.5924 67.2081 64.6409C67.2972 64.6893 67.3732 64.7254 67.377 64.721C67.3808 64.7167 67.1849 64.2662 66.9416 63.7198C66.685 63.1435 66.5076 62.7183 66.519 62.7069C66.5388 62.6871 67.0453 62.4239 68.1756 61.8462C68.5167 61.6719 68.8052 61.5206 68.8168 61.5101C68.8286 61.4993 68.4417 61.4909 67.929 61.4909C67.4291 61.4909 66.7658 61.4844 66.455 61.4764L65.8898 61.4619L65.4733 60.5296C65.2442 60.0169 65.0442 59.5725 65.0289 59.5421C65.0021 59.4888 64.997 59.4954 64.8919 59.7192ZM27.8806 60.1588C27.8806 60.1691 27.6977 60.5702 27.4741 61.0502C27.2505 61.5301 27.0468 61.9701 27.0213 62.028L26.9751 62.1332L25.5177 62.1333L24.0604 62.1335L24.5254 62.3784C24.7812 62.5132 25.0902 62.676 25.212 62.7403C25.3338 62.8046 25.6552 62.9743 25.9262 63.1173C26.1972 63.2604 26.4189 63.3857 26.4189 63.3958C26.4189 63.406 26.3257 63.6168 26.2117 63.8644C25.6702 65.0409 25.5331 65.342 25.5331 65.3544C25.5331 65.3618 25.6352 65.3141 25.7601 65.2484C25.885 65.1827 26.2861 64.9767 26.6515 64.7907C27.0169 64.6047 27.4469 64.3841 27.6072 64.3005C27.8916 64.1521 27.9606 64.1289 28.0035 64.1674C28.0151 64.1777 28.184 64.2688 28.3789 64.3697C28.5738 64.4706 29.0521 64.7198 29.4419 64.9235C29.8317 65.1272 30.183 65.3104 30.2225 65.3307L30.2945 65.3676L30.2381 65.2397C30.2071 65.1694 30.0063 64.7156 29.7918 64.2312C29.5774 63.7469 29.406 63.3472 29.4109 63.3431C29.4157 63.339 29.644 63.2202 29.918 63.0791C30.1921 62.938 30.6206 62.7171 30.8703 62.5883C31.12 62.4595 31.4161 62.3073 31.5282 62.2501C31.6404 62.1929 31.7301 62.1445 31.7275 62.1427C31.7141 62.1328 30.2449 62.1111 29.5748 62.1109L28.7997 62.1105L28.3595 61.1253C27.9768 60.2684 27.8806 60.0743 27.8806 60.1588ZM43.4051 60.9823C42.7699 61.0493 42.2012 61.3377 41.8644 61.7637C41.5344 62.181 41.381 62.6796 41.3828 63.3291C41.3858 64.409 41.7882 65.0479 42.6078 65.2744C42.9451 65.3676 43.5159 65.3891 43.8721 65.322C44.0726 65.2843 44.3358 65.192 44.5435 65.0866L44.7407 64.9866L44.7263 65.1737C44.6803 65.772 44.5051 66.2166 44.1918 66.5297C43.9097 66.8117 43.6715 66.9097 43.2142 66.932C42.8772 66.9484 42.5978 66.9145 42.233 66.8127C41.8217 66.698 41.7968 66.6932 41.7353 66.7166C41.6497 66.7492 41.6279 66.8618 41.6368 67.2279C41.6434 67.5022 41.651 67.559 41.69 67.6254C41.7506 67.7286 41.9205 67.8108 42.2401 67.8915C42.8929 68.0564 43.6685 68.0297 44.2292 67.8231C44.8638 67.5892 45.2929 67.1989 45.6028 66.5735C45.8252 66.1248 45.9561 65.648 46.0224 65.0454C46.0608 64.6961 46.0607 63.5757 46.0222 63.2527C45.8641 61.9239 45.3464 61.2271 44.3674 61.0257C44.1225 60.9753 43.6664 60.9547 43.4051 60.9823ZM48.9527 60.9728C48.6152 61.0066 48.2119 61.1131 47.9783 61.2303C47.7161 61.3618 47.4395 61.5977 47.2704 61.8342C47.0947 62.08 46.9864 62.3243 46.9021 62.6647C46.856 62.8509 46.8501 62.926 46.8507 63.318C46.8513 63.6884 46.8592 63.7962 46.8992 63.9767C47.0795 64.7911 47.5538 65.2249 48.3829 65.3336C49.0633 65.4228 49.5143 65.3382 50.1878 64.9948C50.2256 64.9754 50.1336 65.6101 50.0664 65.8316C49.8936 66.4011 49.4741 66.8066 48.9549 66.906C48.5949 66.9748 48.1143 66.9366 47.6572 66.8026C47.2938 66.6962 47.2629 66.6908 47.1961 66.7227C47.1177 66.7601 47.0855 66.8862 47.0831 67.1648C47.0797 67.5851 47.1418 67.7024 47.4246 67.8093C48.0832 68.0583 49.0364 68.064 49.6912 67.8231C49.8548 67.7629 50.1423 67.6174 50.2665 67.5319C50.4457 67.4087 50.7343 67.1136 50.8567 66.9287C51.0672 66.6103 51.2025 66.3086 51.3234 65.8883C51.5726 65.0219 51.5928 63.4987 51.3669 62.6082C51.2494 62.1449 51.064 61.796 50.7909 61.5242C50.5251 61.2596 50.2516 61.1163 49.8455 61.0287C49.6445 60.9853 49.142 60.9539 48.9527 60.9728ZM38.0864 61.0687C38.054 61.079 37.8696 61.1897 37.6767 61.3148C37.4838 61.4398 37.2612 61.584 37.182 61.6351C36.6701 61.9656 36.4575 62.1093 36.4234 62.148C36.3629 62.2168 36.3337 62.4273 36.3482 62.6899C36.3743 63.1617 36.4233 63.1684 37.1045 62.7932C37.3481 62.659 37.6097 62.5148 37.6858 62.4729L37.8242 62.3968V64.6125V66.8282H37.1615H36.4987L36.4529 66.8864C36.3785 66.981 36.3578 67.1051 36.3666 67.4031C36.3757 67.7106 36.4138 67.8338 36.5114 67.8709C36.5814 67.8975 40.3064 67.8978 40.3763 67.8713C40.4797 67.832 40.515 67.696 40.5149 67.338C40.5148 66.9962 40.4918 66.9031 40.3944 66.851C40.3683 66.837 40.1281 66.8282 39.7746 66.8282H39.1973V63.9858V61.1435L39.1507 61.1013C39.1083 61.0629 39.0614 61.0587 38.6248 61.0545C38.3611 61.052 38.1188 61.0584 38.0864 61.0687ZM54.4681 61.0642C54.4301 61.0738 53.8112 61.4682 53.0462 61.9702C52.7286 62.1787 52.7199 62.1971 52.732 62.6373C52.7389 62.8883 52.7479 62.9559 52.7811 63.0066C52.8607 63.1281 52.9858 63.0776 53.9402 62.539C54.0767 62.462 54.1938 62.3989 54.2004 62.3989C54.207 62.3989 54.2124 63.3955 54.2124 64.6136V66.8282H53.5519H52.8914L52.8427 66.88C52.7481 66.9807 52.7092 67.2771 52.7515 67.5749C52.7744 67.7361 52.7889 67.7777 52.8406 67.8294L52.9024 67.8912H54.8168C56.7143 67.8912 56.7316 67.8908 56.789 67.8457C56.8689 67.7828 56.8989 67.6558 56.9011 67.3708C56.9033 67.0764 56.8858 66.9833 56.8118 66.8953L56.7553 66.8282H56.1704H55.5855V64.0031C55.5855 62.1401 55.5779 61.1637 55.5631 61.1361C55.5508 61.1131 55.5034 61.0839 55.4579 61.0712C55.3763 61.0486 54.5526 61.0427 54.4681 61.0642ZM44.0626 62.0924C44.2223 62.1521 44.3925 62.3171 44.4754 62.4925C44.6019 62.7601 44.666 63.1082 44.7008 63.7173C44.7166 63.9924 44.7214 63.9818 44.5345 64.0857C44.267 64.2346 43.9735 64.3084 43.6487 64.3085C43.0039 64.3087 42.7344 63.9911 42.7332 63.2294C42.7326 62.9007 42.7684 62.7181 42.8745 62.5078C42.9953 62.2685 43.1927 62.1119 43.4494 62.0518C43.6145 62.0131 43.9017 62.0321 44.0626 62.0924ZM49.3519 62.0466C49.706 62.112 49.9383 62.3681 50.0487 62.8147C50.1146 63.0812 50.1354 63.2443 50.1516 63.6222C50.169 64.0294 50.1889 63.9891 49.9009 64.1282C49.6558 64.2465 49.402 64.3073 49.141 64.3101C48.5854 64.3161 48.3161 64.1069 48.2189 63.5939C48.17 63.3352 48.187 62.9123 48.255 62.6987C48.4156 62.1944 48.8274 61.9496 49.3519 62.0466Z" fill="#FFFEFE"/>
</svg>
