<svg width="13" height="24" viewBox="0 0 13 24" fill="none" xmlns="http://www.w3.org/2000/svg">
<g clip-path="url(#clip0_521_10532)">
<path d="M11.7466 13.121C11.5591 12.9335 11.3048 12.8282 11.0396 12.8282C10.7745 12.8282 10.5202 12.9335 10.3326 13.121L7.03963 16.413L7.03263 6C7.03263 5.73478 6.92727 5.48043 6.73974 5.29289C6.5522 5.10536 6.29785 5 6.03263 5C5.76742 5 5.51306 5.10536 5.32553 5.29289C5.13799 5.48043 5.03263 5.73478 5.03263 6L5.03963 16.414L1.74663 13.121C1.65438 13.0255 1.54404 12.9493 1.42204 12.8969C1.30003 12.8445 1.16881 12.8169 1.03603 12.8157C0.903254 12.8146 0.771574 12.8399 0.648678 12.8902C0.525782 12.9405 0.414129 13.0147 0.320237 13.1086C0.226344 13.2025 0.152091 13.3141 0.10181 13.437C0.0515292 13.5599 0.0262277 13.6916 0.0273815 13.8244C0.0285353 13.9572 0.0561216 14.0884 0.108531 14.2104C0.16094 14.3324 0.237122 14.4428 0.332632 14.535L3.91763 18.121C4.19621 18.3996 4.52695 18.6207 4.89096 18.7715C5.25497 18.9222 5.64512 18.9999 6.03913 18.9999C6.43314 18.9999 6.82329 18.9222 7.1873 18.7715C7.55131 18.6207 7.88205 18.3996 8.16063 18.121L11.7466 14.535C11.9341 14.3475 12.0394 14.0932 12.0394 13.828C12.0394 13.5628 11.9341 13.3085 11.7466 13.121Z" fill="#8252CC"/>
</g>
<defs>
<clipPath id="clip0_521_10532">
<rect width="12" height="24" fill="white" transform="translate(0.00976562)"/>
</clipPath>
</defs>
</svg>
