<svg width="242" height="37" viewBox="0 0 242 37" fill="none" xmlns="http://www.w3.org/2000/svg">
<path d="M37.0284 8.32663C37.4557 9.70417 37.5736 9.98618 37.3082 11.9073C35.8529 22.4398 25.5096 36.4436 19.0667 36.9822C19.0728 36.9817 19.079 36.9812 19.0853 36.9806C18.1964 34.7368 16.4862 31.1809 16.5615 25.8664C16.6291 21.09 19.288 18.4327 19.288 18.4327C19.288 18.4327 24.7746 18.1132 30.0811 15.4727C34.1851 13.4305 36.6538 8.96902 37.0284 8.32663Z" fill="url(#paint0_radial_1047_1859)"/>
<path d="M37.0284 8.32663C37.4557 9.70417 37.5736 9.98618 37.3082 11.9073C35.8529 22.4398 25.5096 36.4436 19.0667 36.9822C19.0728 36.9817 19.079 36.9812 19.0853 36.9806C18.1964 34.7368 16.4862 31.1809 16.5615 25.8664C16.6291 21.09 19.288 18.4327 19.288 18.4327C19.288 18.4327 24.7746 18.1132 30.0811 15.4727C34.1851 13.4305 36.6538 8.96902 37.0284 8.32663Z" fill="url(#paint1_radial_1047_1859)" fill-opacity="0.5"/>
<path d="M37.0284 8.32663C37.4557 9.70417 37.5736 9.98618 37.3082 11.9073C35.8529 22.4398 25.5096 36.4436 19.0667 36.9822C19.0728 36.9817 19.079 36.9812 19.0853 36.9806C18.1964 34.7368 16.4862 31.1809 16.5615 25.8664C16.6291 21.09 19.288 18.4327 19.288 18.4327C19.288 18.4327 24.7746 18.1132 30.0811 15.4727C34.1851 13.4305 36.6538 8.96902 37.0284 8.32663Z" fill="url(#paint2_radial_1047_1859)" fill-opacity="0.5"/>
<path d="M37.0284 8.32663C37.4557 9.70417 37.5736 9.98618 37.3082 11.9073C35.8529 22.4398 25.5096 36.4436 19.0667 36.9822C19.0728 36.9817 19.079 36.9812 19.0853 36.9806C18.1964 34.7368 16.4862 31.1809 16.5615 25.8664C16.6291 21.09 19.288 18.4327 19.288 18.4327C19.288 18.4327 24.7746 18.1132 30.0811 15.4727C34.1851 13.4305 36.6538 8.96902 37.0284 8.32663Z" fill="white"/>
<path d="M36.7699 7.61171C36.762 7.59274 36.7541 7.57377 36.746 7.55493C36.4824 8.06661 34.2044 11.7526 28.8305 13.8918C23.0847 16.1791 19.8062 15.4727 19.8062 15.4727C19.8062 15.4727 16.5277 10.9166 12.0324 8.32662C8.29413 6.17277 2.94052 5.88636 1.28638 6.44007C4.22449 1.78812 10.7481 0 19.0666 0C27.3852 0 34.408 1.92564 36.7699 7.61171Z" fill="url(#paint3_radial_1047_1859)"/>
<path d="M36.7699 7.61171C36.762 7.59274 36.7541 7.57377 36.746 7.55493C36.4824 8.06661 34.2044 11.7526 28.8305 13.8918C23.0847 16.1791 19.8062 15.4727 19.8062 15.4727C19.8062 15.4727 16.5277 10.9166 12.0324 8.32662C8.29413 6.17277 2.94052 5.88636 1.28638 6.44007C4.22449 1.78812 10.7481 0 19.0666 0C27.3852 0 34.408 1.92564 36.7699 7.61171Z" fill="url(#paint4_radial_1047_1859)" fill-opacity="0.5"/>
<path d="M36.7699 7.61171C36.762 7.59274 36.7541 7.57377 36.746 7.55493C36.4824 8.06661 34.2044 11.7526 28.8305 13.8918C23.0847 16.1791 19.8062 15.4727 19.8062 15.4727C19.8062 15.4727 16.5277 10.9166 12.0324 8.32662C8.29413 6.17277 2.94052 5.88636 1.28638 6.44007C4.22449 1.78812 10.7481 0 19.0666 0C27.3852 0 34.408 1.92564 36.7699 7.61171Z" fill="url(#paint5_radial_1047_1859)" fill-opacity="0.5"/>
<path d="M36.7699 7.61171C36.762 7.59274 36.7541 7.57377 36.746 7.55493C36.4824 8.06661 34.2044 11.7526 28.8305 13.8918C23.0847 16.1791 19.8062 15.4727 19.8062 15.4727C19.8062 15.4727 16.5277 10.9166 12.0324 8.32662C8.29413 6.17277 2.94052 5.88636 1.28638 6.44007C4.22449 1.78812 10.7481 0 19.0666 0C27.3852 0 34.408 1.92564 36.7699 7.61171Z" fill="white"/>
<path d="M1.1154 6.72411C1.11444 6.72576 1.1135 6.72742 1.11256 6.7291C2.88792 6.75681 6.27072 7.57115 9.73408 9.28364C15.1081 11.9409 17.2036 16.7173 17.2036 16.7173C17.2036 16.7173 13.9927 20.7536 14.2293 25.53C14.2293 29.4991 17.3397 34.7923 18.4329 36.9861C11.9936 36.5097 1.60011 22.4673 0.141081 11.9073C-0.235517 9.18159 0.159494 8.39235 1.1154 6.72411Z" fill="url(#paint6_radial_1047_1859)"/>
<path d="M1.1154 6.72411C1.11444 6.72576 1.1135 6.72742 1.11256 6.7291C2.88792 6.75681 6.27072 7.57115 9.73408 9.28364C15.1081 11.9409 17.2036 16.7173 17.2036 16.7173C17.2036 16.7173 13.9927 20.7536 14.2293 25.53C14.2293 29.4991 17.3397 34.7923 18.4329 36.9861C11.9936 36.5097 1.60011 22.4673 0.141081 11.9073C-0.235517 9.18159 0.159494 8.39235 1.1154 6.72411Z" fill="url(#paint7_radial_1047_1859)" fill-opacity="0.5"/>
<path d="M1.1154 6.72411C1.11444 6.72576 1.1135 6.72742 1.11256 6.7291C2.88792 6.75681 6.27072 7.57115 9.73408 9.28364C15.1081 11.9409 17.2036 16.7173 17.2036 16.7173C17.2036 16.7173 13.9927 20.7536 14.2293 25.53C14.2293 29.4991 17.3397 34.7923 18.4329 36.9861C11.9936 36.5097 1.60011 22.4673 0.141081 11.9073C-0.235517 9.18159 0.159494 8.39235 1.1154 6.72411Z" fill="url(#paint8_radial_1047_1859)" fill-opacity="0.5"/>
<path d="M1.1154 6.72411C1.11444 6.72576 1.1135 6.72742 1.11256 6.7291C2.88792 6.75681 6.27072 7.57115 9.73408 9.28364C15.1081 11.9409 17.2036 16.7173 17.2036 16.7173C17.2036 16.7173 13.9927 20.7536 14.2293 25.53C14.2293 29.4991 17.3397 34.7923 18.4329 36.9861C11.9936 36.5097 1.60011 22.4673 0.141081 11.9073C-0.235517 9.18159 0.159494 8.39235 1.1154 6.72411Z" fill="white"/>
<path d="M52.3984 15.0809V12.136H63.1839V15.0809H59.446V25.6982H56.1363V15.0809H52.3984Z" fill="white"/>
<path d="M67.0179 25.8919C65.9666 25.8919 65.0581 25.7046 64.2923 25.3301C63.5396 24.9426 62.9555 24.4001 62.5402 23.7026C62.1249 23.0051 61.9172 22.1849 61.9172 21.242C61.9172 19.7954 62.365 18.6588 63.2605 17.8321C64.1561 17.0055 65.3891 16.5921 66.9595 16.5921C68.5042 16.5921 69.6912 16.9861 70.522 17.774C71.3656 18.5619 71.7874 19.6727 71.7874 21.1064C71.7874 21.2485 71.7874 21.3841 71.7874 21.5133C71.7874 21.6424 71.7814 21.7587 71.7678 21.862H64.9348C65.0127 22.4691 65.2268 22.9405 65.5772 23.2764C65.9277 23.6122 66.3884 23.7801 66.9595 23.7801C67.9979 23.7801 68.7374 23.3926 69.1789 22.6176L71.8267 23.257C70.8789 25.0136 69.2762 25.8919 67.0179 25.8919ZM66.9011 18.549C65.8368 18.549 65.1944 19.1108 64.9737 20.2345H68.634C68.582 19.7179 68.4001 19.311 68.0885 19.014C67.7904 18.704 67.3943 18.549 66.9011 18.549Z" fill="white"/>
<path d="M87.2693 19.9633V25.6982H84.3105V20.2733C84.3105 19.7437 84.2192 19.3433 84.0374 19.0721C83.8691 18.7879 83.5832 18.6458 83.1809 18.6458C82.7916 18.6458 82.4739 18.7815 82.2271 19.0527C81.9804 19.324 81.8574 19.7308 81.8574 20.2733V25.6982H78.898V20.2733C78.898 19.7437 78.8074 19.3433 78.6255 19.0721C78.4565 18.7879 78.1713 18.6458 77.7691 18.6458C77.3797 18.6458 77.0613 18.7815 76.8153 19.0527C76.5685 19.324 76.4448 19.7308 76.4448 20.2733V25.6982H73.603V16.7859H76.4448V18.1034C76.7044 17.6125 77.0485 17.238 77.4771 16.9796C77.9049 16.7084 78.4241 16.5728 79.0345 16.5728C79.7355 16.5728 80.2932 16.6955 80.7089 16.9409C81.1368 17.1863 81.4356 17.5544 81.6039 18.0452C81.9284 17.5802 82.3312 17.2186 82.8112 16.9603C83.2911 16.7019 83.8366 16.5728 84.4464 16.5728C85.4847 16.5728 86.2114 16.8698 86.6271 17.464C87.055 18.0582 87.2693 18.8913 87.2693 19.9633Z" fill="white"/>
<path d="M92.4933 29.9606H89.5535V16.7859H92.4933V18.2196C92.8178 17.6642 93.2328 17.238 93.7391 16.9409C94.2583 16.6309 94.8619 16.4759 95.5494 16.4759C96.2761 16.4759 96.9642 16.6567 97.6131 17.0184C98.2621 17.3671 98.788 17.8967 99.1902 18.6071C99.6053 19.3175 99.8128 20.1958 99.8128 21.2421C99.8128 22.2883 99.6053 23.1666 99.1902 23.877C98.788 24.5745 98.2621 25.1041 97.6131 25.4657C96.9642 25.8274 96.2761 26.0082 95.5494 26.0082C94.8619 26.0082 94.2583 25.8597 93.7391 25.5626C93.2328 25.2526 92.8178 24.8199 92.4933 24.2645V29.9606ZM96.7175 21.2421C96.7175 20.5446 96.5032 20.0085 96.0753 19.634C95.6596 19.2594 95.16 19.0721 94.576 19.0721C94.2515 19.0721 93.927 19.1561 93.6026 19.324C93.2781 19.479 93.0124 19.7179 92.8042 20.0408C92.5967 20.3508 92.4933 20.7512 92.4933 21.2421C92.4933 21.72 92.5967 22.1204 92.8042 22.4433C93.0124 22.7662 93.2781 23.0116 93.6026 23.1795C93.927 23.3345 94.2515 23.412 94.576 23.412C95.16 23.412 95.6596 23.2247 96.0753 22.8502C96.5032 22.4756 96.7175 21.9395 96.7175 21.2421Z" fill="white"/>
<path d="M106.144 25.8919C105.093 25.8919 104.184 25.7046 103.418 25.3301C102.666 24.9426 102.082 24.4001 101.666 23.7026C101.251 23.0051 101.044 22.1849 101.044 21.242C101.044 19.7954 101.491 18.6588 102.387 17.8321C103.283 17.0055 104.516 16.5921 106.086 16.5921C107.63 16.5921 108.818 16.9861 109.648 17.774C110.492 18.5619 110.914 19.6727 110.914 21.1064C110.914 21.2485 110.914 21.3841 110.914 21.5133C110.914 21.6424 110.908 21.7587 110.895 21.862H104.061C104.139 22.4691 104.353 22.9405 104.703 23.2764C105.054 23.6122 105.515 23.7801 106.086 23.7801C107.124 23.7801 107.864 23.3926 108.305 22.6176L110.953 23.257C110.005 25.0136 108.402 25.8919 106.144 25.8919ZM106.028 18.549C104.963 18.549 104.321 19.1108 104.1 20.2345H107.76C107.708 19.7179 107.526 19.311 107.215 19.014C106.917 18.704 106.52 18.549 106.028 18.549Z" fill="white"/>
<path d="M118.219 19.8277C118.064 19.6727 117.895 19.55 117.713 19.4596C117.544 19.3692 117.33 19.324 117.071 19.324C116.643 19.324 116.292 19.4919 116.019 19.8277C115.76 20.1635 115.63 20.6543 115.63 21.3002V25.6982H112.729V16.7859H115.63V17.9096C115.915 17.4963 116.253 17.1734 116.643 16.9409C117.045 16.6955 117.46 16.5728 117.889 16.5728C118.213 16.5728 118.525 16.6438 118.823 16.7859C119.122 16.9151 119.349 17.0894 119.504 17.309L118.219 19.8277Z" fill="white"/>
<path d="M120.558 13.4535C120.558 12.9885 120.72 12.6075 121.045 12.3104C121.382 12.0133 121.791 11.8648 122.272 11.8648C122.752 11.8648 123.154 12.0133 123.478 12.3104C123.816 12.6075 123.985 12.9885 123.985 13.4535C123.985 13.9185 123.816 14.2995 123.478 14.5966C123.154 14.8807 122.752 15.0228 122.272 15.0228C121.791 15.0228 121.382 14.8807 121.045 14.5966C120.72 14.2995 120.558 13.9185 120.558 13.4535ZM120.83 16.7859H123.693V25.6982H120.83V16.7859Z" fill="white"/>
<path d="M132.242 12.136H135.532V22.8695H141.003V25.6982H132.242V12.136Z" fill="white"/>
<path d="M141.71 21.2421C141.71 20.2992 141.931 19.479 142.372 18.7815C142.826 18.084 143.436 17.5415 144.202 17.154C144.981 16.7665 145.857 16.5728 146.83 16.5728C147.817 16.5728 148.693 16.7665 149.459 17.154C150.224 17.5415 150.828 18.084 151.269 18.7815C151.723 19.479 151.95 20.2992 151.95 21.2421C151.95 22.172 151.723 22.9858 151.269 23.6833C150.828 24.3807 150.224 24.9232 149.459 25.3107C148.693 25.6982 147.817 25.892 146.83 25.892C145.857 25.892 144.981 25.6982 144.202 25.3107C143.436 24.9232 142.826 24.3807 142.372 23.6833C141.931 22.9858 141.71 22.172 141.71 21.2421ZM144.747 21.2421C144.747 21.9266 144.949 22.4691 145.351 22.8695C145.766 23.2699 146.259 23.4701 146.83 23.4701C147.401 23.4701 147.888 23.2699 148.291 22.8695C148.706 22.4691 148.913 21.9266 148.913 21.2421C148.913 20.5575 148.706 20.015 148.291 19.6146C147.888 19.2013 147.401 18.9946 146.83 18.9946C146.259 18.9946 145.766 19.2013 145.351 19.6146C144.949 20.015 144.747 20.5575 144.747 21.2421Z" fill="white"/>
<path d="M153.369 26.3375H156.231C156.283 26.8929 156.49 27.3062 156.854 27.5775C157.217 27.8487 157.685 27.9843 158.255 27.9843C158.878 27.9843 159.404 27.7777 159.832 27.3644C160.274 26.951 160.494 26.3311 160.494 25.5044V24.1094C159.78 25.1427 158.755 25.6594 157.418 25.6594C156.692 25.6594 156.004 25.4915 155.355 25.1557C154.706 24.8198 154.18 24.3161 153.778 23.6445C153.375 22.9599 153.175 22.1203 153.175 21.1258C153.175 20.1183 153.375 19.2787 153.778 18.6071C154.18 17.9354 154.706 17.4317 155.355 17.0959C156.004 16.76 156.692 16.5921 157.418 16.5921C158.755 16.5921 159.78 17.1088 160.494 18.1421V16.7859H163.317V25.5044C163.317 26.654 163.097 27.5839 162.655 28.2943C162.214 29.0047 161.617 29.5214 160.864 29.8443C160.124 30.1672 159.3 30.3287 158.392 30.3287C157.276 30.3287 156.36 30.1607 155.647 29.8249C154.933 29.4891 154.394 29.0177 154.031 28.4106C153.667 27.8164 153.447 27.1254 153.369 26.3375ZM156.27 21.1258C156.27 21.8232 156.477 22.3593 156.892 22.7339C157.321 23.1084 157.827 23.2957 158.411 23.2957C158.749 23.2957 159.073 23.2182 159.385 23.0632C159.709 22.8953 159.975 22.6499 160.183 22.327C160.391 22.0041 160.494 21.6037 160.494 21.1258C160.494 20.6349 160.391 20.2345 160.183 19.9245C159.975 19.6016 159.709 19.3627 159.385 19.2077C159.073 19.0398 158.749 18.9558 158.411 18.9558C157.827 18.9558 157.321 19.1431 156.892 19.5177C156.477 19.8923 156.27 20.4283 156.27 21.1258Z" fill="white"/>
<path d="M165.407 13.4535C165.407 12.9885 165.569 12.6075 165.894 12.3104C166.231 12.0133 166.64 11.8648 167.121 11.8648C167.601 11.8648 168.003 12.0133 168.327 12.3104C168.665 12.6075 168.834 12.9885 168.834 13.4535C168.834 13.9185 168.665 14.2995 168.327 14.5966C168.003 14.8807 167.601 15.0228 167.121 15.0228C166.64 15.0228 166.231 14.8807 165.894 14.5966C165.569 14.2995 165.407 13.9185 165.407 13.4535ZM165.679 16.7859H168.541V25.6982H165.679V16.7859Z" fill="white"/>
<path d="M171.45 22.4626C172.137 23.0309 172.721 23.4184 173.202 23.6251C173.694 23.8188 174.097 23.9157 174.408 23.9157C174.992 23.9157 175.284 23.6832 175.284 23.2182C175.284 22.9341 175.149 22.708 174.876 22.5401C174.603 22.3593 174.103 22.1526 173.377 21.9201C172.961 21.7781 172.559 21.5972 172.169 21.3777C171.78 21.1581 171.462 20.8675 171.216 20.5058C170.969 20.1441 170.846 19.6791 170.846 19.1108C170.846 18.2971 171.164 17.6771 171.8 17.2509C172.436 16.8117 173.234 16.5921 174.194 16.5921C174.96 16.5921 175.661 16.7213 176.297 16.9796C176.933 17.225 177.51 17.535 178.03 17.9096L176.978 19.8277C176.615 19.4789 176.187 19.1883 175.693 18.9558C175.213 18.7233 174.772 18.6071 174.37 18.6071C174.11 18.6071 173.909 18.6588 173.766 18.7621C173.636 18.8654 173.571 19.001 173.571 19.1689C173.571 19.466 173.747 19.6856 174.097 19.8277C174.46 19.9698 174.973 20.17 175.635 20.4283C176.102 20.5962 176.53 20.79 176.92 21.0095C177.309 21.2291 177.621 21.5068 177.854 21.8426C178.101 22.1785 178.224 22.6241 178.224 23.1795C178.224 24.1224 177.932 24.8392 177.348 25.3301C176.764 25.8209 175.933 26.0663 174.856 26.0663C173.883 26.0663 173.02 25.9113 172.267 25.6013C171.514 25.2784 170.833 24.878 170.223 24.4001L171.45 22.4626Z" fill="white"/>
<path d="M178.79 16.7859H180.367V13.6859H183.209V16.7859H184.786V19.2077H183.209V25.6982H180.367V19.2077H178.79V16.7859Z" fill="white"/>
<path d="M185.864 13.4535C185.864 12.9885 186.026 12.6075 186.351 12.3104C186.688 12.0133 187.097 11.8648 187.577 11.8648C188.057 11.8648 188.46 12.0133 188.784 12.3104C189.122 12.6075 189.29 12.9885 189.29 13.4535C189.29 13.9185 189.122 14.2995 188.784 14.5966C188.46 14.8807 188.057 15.0228 187.577 15.0228C187.097 15.0228 186.688 14.8807 186.351 14.5966C186.026 14.2995 185.864 13.9185 185.864 13.4535ZM186.137 16.7859H188.998V25.6982H186.137V16.7859Z" fill="white"/>
<path d="M193.892 21.242C193.892 21.9524 194.125 22.5143 194.593 22.9276C195.06 23.3409 195.624 23.5476 196.286 23.5476C196.818 23.5476 197.325 23.4378 197.805 23.2182C198.285 22.9857 198.655 22.6564 198.914 22.2301V25.0782C198.603 25.3236 198.213 25.5238 197.746 25.6788C197.279 25.8209 196.708 25.8919 196.033 25.8919C195.034 25.8919 194.145 25.6982 193.366 25.3107C192.587 24.9232 191.971 24.3807 191.517 23.6832C191.075 22.9857 190.855 22.172 190.855 21.242C190.855 20.2991 191.075 19.4854 191.517 18.8008C191.971 18.1033 192.587 17.5609 193.366 17.1734C194.145 16.7859 195.034 16.5921 196.033 16.5921C196.708 16.5921 197.279 16.6696 197.746 16.8246C198.213 16.9667 198.603 17.1475 198.914 17.3671V20.2345C198.655 19.8083 198.272 19.4854 197.766 19.2658C197.26 19.0462 196.767 18.9365 196.286 18.9365C195.845 18.9365 195.443 19.0398 195.08 19.2464C194.716 19.4402 194.424 19.7114 194.204 20.0602C193.995 20.4089 193.892 20.8029 193.892 21.242Z" fill="white"/>
<path d="M201.507 22.4626C202.195 23.0309 202.779 23.4184 203.259 23.6251C203.753 23.8188 204.155 23.9157 204.466 23.9157C205.05 23.9157 205.342 23.6832 205.342 23.2182C205.342 22.9341 205.206 22.708 204.934 22.5401C204.661 22.3593 204.162 22.1526 203.435 21.9201C203.019 21.7781 202.617 21.5972 202.228 21.3777C201.838 21.1581 201.521 20.8675 201.274 20.5058C201.027 20.1441 200.904 19.6791 200.904 19.1108C200.904 18.2971 201.222 17.6771 201.858 17.2509C202.494 16.8117 203.292 16.5921 204.252 16.5921C205.018 16.5921 205.719 16.7213 206.355 16.9796C206.991 17.225 207.568 17.535 208.088 17.9096L207.036 19.8277C206.673 19.4789 206.244 19.1883 205.751 18.9558C205.271 18.7233 204.83 18.6071 204.427 18.6071C204.168 18.6071 203.967 18.6588 203.824 18.7621C203.694 18.8654 203.63 19.001 203.63 19.1689C203.63 19.466 203.805 19.6856 204.155 19.8277C204.518 19.9698 205.031 20.17 205.693 20.4283C206.16 20.5962 206.588 20.79 206.978 21.0095C207.367 21.2291 207.679 21.5068 207.913 21.8426C208.159 22.1785 208.282 22.6241 208.282 23.1795C208.282 24.1224 207.99 24.8392 207.406 25.3301C206.822 25.8209 205.991 26.0663 204.914 26.0663C203.941 26.0663 203.078 25.9113 202.325 25.6013C201.572 25.2784 200.89 24.878 200.281 24.4001L201.507 22.4626Z" fill="white"/>
<path d="M216.028 12.136H219.318V22.8695H224.788V25.6982H216.028V12.136Z" fill="white"/>
<path d="M224.97 16.7859H226.547V13.6859H229.389V16.7859H230.966V19.2077H229.389V25.6982H226.547V19.2077H224.97V16.7859Z" fill="white"/>
<path d="M231.693 21.2421C231.693 20.2346 231.894 19.3886 232.297 18.704C232.699 18.0065 233.224 17.4834 233.873 17.1347C234.522 16.773 235.21 16.5922 235.937 16.5922C237.261 16.5922 238.286 17.1347 239.014 18.2196V10.5861H241.953V25.6982H239.014V24.2645C238.286 25.3495 237.261 25.892 235.937 25.892C235.21 25.892 234.522 25.7176 233.873 25.3688C233.224 25.0072 232.699 24.4776 232.297 23.7801C231.894 23.0827 231.693 22.2366 231.693 21.2421ZM234.789 21.2421C234.789 21.9396 234.996 22.495 235.412 22.9083C235.84 23.3216 236.346 23.5283 236.93 23.5283C237.267 23.5283 237.592 23.4378 237.904 23.257C238.228 23.0762 238.494 22.8179 238.702 22.482C238.909 22.1333 239.014 21.72 239.014 21.2421C239.014 20.7512 238.909 20.3379 238.702 20.0021C238.494 19.6663 238.228 19.4079 237.904 19.2271C237.592 19.0463 237.267 18.9559 236.93 18.9559C236.346 18.9559 235.84 19.1625 235.412 19.5759C234.996 19.9892 234.789 20.5446 234.789 21.2421Z" fill="white"/>
<defs>
<radialGradient id="paint0_radial_1047_1859" cx="0" cy="0" r="1" gradientUnits="userSpaceOnUse" gradientTransform="translate(18.7246 18.9918) rotate(90) scale(18.0077 18.7027)">
<stop stop-color="#9684B4"/>
<stop offset="0.375" stop-color="#6F5E8B"/>
<stop offset="0.695659" stop-color="#564277"/>
<stop offset="0.9375" stop-color="#483369"/>
</radialGradient>
<radialGradient id="paint1_radial_1047_1859" cx="0" cy="0" r="1" gradientUnits="userSpaceOnUse" gradientTransform="translate(18.7246 22.7634) rotate(128.98) scale(13.8623 14.3557)">
<stop stop-color="white"/>
<stop offset="0.78125" stop-color="white" stop-opacity="0"/>
</radialGradient>
<radialGradient id="paint2_radial_1047_1859" cx="0" cy="0" r="1" gradientUnits="userSpaceOnUse" gradientTransform="translate(18.7246 23.1675) rotate(90) scale(15.2212 15.8087)">
<stop stop-color="white"/>
<stop offset="0.848958" stop-color="white" stop-opacity="0"/>
</radialGradient>
<radialGradient id="paint3_radial_1047_1859" cx="0" cy="0" r="1" gradientUnits="userSpaceOnUse" gradientTransform="translate(18.7246 18.9918) rotate(90) scale(18.0077 18.7026)">
<stop stop-color="#9684B4"/>
<stop offset="0.375" stop-color="#6F5E8B"/>
<stop offset="0.695659" stop-color="#564277"/>
<stop offset="0.9375" stop-color="#483369"/>
</radialGradient>
<radialGradient id="paint4_radial_1047_1859" cx="0" cy="0" r="1" gradientUnits="userSpaceOnUse" gradientTransform="translate(18.7246 22.7633) rotate(128.98) scale(13.8623 14.3557)">
<stop stop-color="white"/>
<stop offset="0.78125" stop-color="white" stop-opacity="0"/>
</radialGradient>
<radialGradient id="paint5_radial_1047_1859" cx="0" cy="0" r="1" gradientUnits="userSpaceOnUse" gradientTransform="translate(18.7246 23.1675) rotate(90) scale(15.2212 15.8086)">
<stop stop-color="white"/>
<stop offset="0.848958" stop-color="white" stop-opacity="0"/>
</radialGradient>
<radialGradient id="paint6_radial_1047_1859" cx="0" cy="0" r="1" gradientUnits="userSpaceOnUse" gradientTransform="translate(18.7246 18.9918) rotate(90) scale(18.0077 18.7026)">
<stop stop-color="#9684B4"/>
<stop offset="0.375" stop-color="#6F5E8B"/>
<stop offset="0.695659" stop-color="#564277"/>
<stop offset="0.9375" stop-color="#483369"/>
</radialGradient>
<radialGradient id="paint7_radial_1047_1859" cx="0" cy="0" r="1" gradientUnits="userSpaceOnUse" gradientTransform="translate(18.7246 22.7634) rotate(128.98) scale(13.8623 14.3557)">
<stop stop-color="white"/>
<stop offset="0.78125" stop-color="white" stop-opacity="0"/>
</radialGradient>
<radialGradient id="paint8_radial_1047_1859" cx="0" cy="0" r="1" gradientUnits="userSpaceOnUse" gradientTransform="translate(18.7246 23.1675) rotate(90) scale(15.2212 15.8086)">
<stop stop-color="white"/>
<stop offset="0.848958" stop-color="white" stop-opacity="0"/>
</radialGradient>
</defs>
</svg>
