<svg width="24" height="24" viewBox="0 0 24 24" fill="none" xmlns="http://www.w3.org/2000/svg">
<path d="M9 2C9 1.5 9.7 1 10.5 1C11.2 1 12 1.5 12 2V8.8999" stroke="#664599" stroke-width="2" stroke-miterlimit="10" stroke-linecap="round" stroke-linejoin="round"/>
<path d="M12 8.99976C12 10.0998 11.1 10.9998 10 10.9998C8.9 10.9998 8 10.0998 8 8.99976V6.2998" stroke="#664599" stroke-width="2" stroke-miterlimit="10" stroke-linecap="round" stroke-linejoin="round"/>
<path d="M19 18V4C19 3.4 18.5 3 18 3H5C4.4 3 4 3.5 4 4V22C4 22.6 4.5 23 5 23H14" stroke="#664599" stroke-width="2" stroke-miterlimit="10" stroke-linecap="round" stroke-linejoin="round"/>
<path d="M19 18H14V23L19 18Z" stroke="#664599" stroke-width="2" stroke-miterlimit="10" stroke-linecap="round" stroke-linejoin="round"/>
</svg>
