<svg width="24" height="25" viewBox="0 0 24 25" fill="none" xmlns="http://www.w3.org/2000/svg">
<g clip-path="url(#clip0_313_8255)">
<path d="M23.124 11.4071L19.245 7.52911C19.0575 7.34164 18.8032 7.23633 18.538 7.23633C18.2728 7.23633 18.0185 7.34164 17.831 7.52911C17.6435 7.71664 17.5382 7.97095 17.5382 8.23611C17.5382 8.50128 17.6435 8.75559 17.831 8.94311L21.386 12.5001H1C0.734784 12.5001 0.48043 12.6055 0.292893 12.793C0.105357 12.9805 0 13.2349 0 13.5001H0C0 13.7653 0.105357 14.0197 0.292893 14.2072C0.48043 14.3948 0.734784 14.5001 1 14.5001H21.447L17.831 18.1151C17.738 18.208 17.6643 18.3183 17.6139 18.4397C17.5636 18.5611 17.5377 18.6912 17.5377 18.8226C17.5377 18.954 17.5636 19.0842 17.6139 19.2056C17.6643 19.327 17.738 19.4372 17.831 19.5301C18.0185 19.7176 18.2728 19.8229 18.538 19.8229C18.8032 19.8229 19.0575 19.7176 19.245 19.5301L23.125 15.6511C23.6859 15.0873 24.0007 14.3242 24.0006 13.5289C24.0004 12.7336 23.6852 11.9707 23.124 11.4071Z" fill="white"/>
</g>
<defs>
<clipPath id="clip0_313_8255">
<rect width="24" height="24" fill="white" transform="translate(0 0.5)"/>
</clipPath>
</defs>
</svg>
