<svg width="75" height="46" viewBox="0 0 75 46" fill="none" xmlns="http://www.w3.org/2000/svg">
<path d="M0.519135 25.0598C0.933983 24.489 1.53193 24.1158 2.20599 23.996V21.709C2.20599 20.287 3.31892 19.1253 4.71396 19.051V16.7888C4.17551 16.7179 3.75952 16.2549 3.75952 15.6933C3.75952 12.9524 5.9751 10.7229 8.69821 10.7229H12.3271V7.88409H9.72417C9.11763 7.88409 8.62554 7.38878 8.62554 6.77828C8.62554 6.1672 9.11763 5.67247 9.72417 5.67247H12.3271V4.30863H11.308C10.7009 4.30863 10.2094 3.8139 10.2094 3.20282C10.2094 2.59232 10.7009 2.09701 11.308 2.09701H12.3271V1.10581C12.3271 0.495311 12.8186 0 13.4258 0C14.0329 0 14.5244 0.495311 14.5244 1.10581V2.09701H15.5435C16.1506 2.09701 16.6421 2.59232 16.6421 3.20282C16.6421 3.8139 16.1506 4.30863 15.5435 4.30863H14.5244V5.67247H17.1273C17.7339 5.67247 18.226 6.1672 18.226 6.77828C18.226 7.38878 17.7339 7.88409 17.1273 7.88409H14.5244V10.7223H18.1533C20.877 10.7223 23.092 12.9524 23.092 15.6933C23.092 16.2549 22.676 16.7173 22.1376 16.7888V19.051C23.5326 19.1253 24.6455 20.287 24.6455 21.709V24.155C25.438 24.4539 26.0909 25.0696 26.4297 25.8886L28.1199 29.9686C28.2924 30.3864 28.7594 30.804 29.2208 30.8039C45.8286 30.8019 52.1897 30.8039 56.0065 30.8039C58.0428 30.8039 57.894 28.3603 58.9286 26.3922C59.5499 24.6768 59.5499 23.9546 62.732 23.9546H72.5058C73.1787 23.9546 73.8184 24.2811 74.2167 24.8277C74.6149 25.3743 74.7316 26.0861 74.5291 26.7329L72.5086 33.1662C72.3604 33.6373 71.9278 33.9391 71.4615 33.9391C71.3516 33.9391 71.2401 33.9224 71.1296 33.8873C70.5511 33.703 70.2307 33.0816 70.4132 32.4993L72.4022 26.1662H61.7861C61.3947 26.1662 61.0434 26.4156 60.9123 26.7871L59.5499 30.6591C59.1093 31.9124 57.9254 32.7538 56.6054 32.7538H28.9754C27.7091 32.7538 26.5767 31.9936 26.0915 30.8181L24.4018 26.7393C24.2576 26.3908 23.9223 26.1656 23.5475 26.1656H11.8997C11.2926 26.1656 10.8011 25.6709 10.8011 25.0598C10.8011 24.4493 11.2926 23.9546 11.8997 23.9546H22.4483V21.709C22.4483 21.459 22.2457 21.2557 21.9974 21.2557H4.85358C4.60524 21.2557 4.40268 21.459 4.40268 21.709V23.9546H6.85743C7.46397 23.9546 7.95606 24.4499 7.95606 25.0604C7.95606 25.6709 7.46397 26.1662 6.85743 26.1662H2.68149C2.46863 26.1662 2.34618 26.2912 2.29239 26.3655C2.2386 26.4392 2.15792 26.5941 2.22201 26.7974L5.34453 36.6783C5.45153 37.0193 5.59114 37.3574 5.7588 37.6822C5.78397 37.7306 5.804 37.7801 5.82117 37.8302C6.1376 38.007 6.48779 38.1101 7.00677 38.1101C7.91143 38.1101 8.30396 37.7974 8.89848 37.3245C9.60516 36.7618 10.4852 36.0615 12.1537 36.0615C13.8223 36.0615 14.7018 36.7618 15.4084 37.3245C16.0024 37.7974 16.3949 38.1101 17.2996 38.1101C18.2042 38.1101 18.5968 37.798 19.1907 37.3245C19.8974 36.7618 20.7774 36.0615 22.446 36.0615C24.1145 36.0615 24.994 36.7618 25.7007 37.3245C26.2946 37.7974 26.6871 38.1101 27.5918 38.1101C28.4959 38.1101 28.889 37.798 29.4829 37.3245C30.1896 36.7618 31.0691 36.0615 32.7376 36.0615C34.4062 36.0615 35.2851 36.7618 35.9917 37.3245C36.5863 37.7974 36.9782 38.1101 37.8829 38.1101C38.787 38.1101 39.1795 37.798 39.7734 37.3245C40.4801 36.7618 41.3596 36.0615 43.0276 36.0615C44.6967 36.0615 45.5762 36.7618 46.2823 37.3245C46.8768 37.7974 47.2693 38.1101 48.174 38.1101C49.078 38.1101 49.4706 37.798 50.0651 37.3245C50.7718 36.7618 51.6512 36.0615 53.3192 36.0615C54.9878 36.0615 55.8672 36.7618 56.5739 37.3245C57.1684 37.798 57.561 38.1101 58.465 38.1101C59.3697 38.1101 59.7622 37.798 60.3562 37.3245C61.0628 36.7618 61.9423 36.0615 63.6103 36.0615C65.2788 36.0615 66.1583 36.7618 66.865 37.3245C67.4589 37.7974 67.8515 38.1101 68.7555 38.1101C69.6602 38.1101 70.0527 37.798 70.6467 37.3245C71.3533 36.7618 72.2328 36.0615 73.9014 36.0615C74.5079 36.0615 75 36.5568 75 37.1673C75 37.7784 74.5079 38.2731 73.9014 38.2731C72.9967 38.2731 72.6042 38.5858 72.0102 39.0593C71.3036 39.622 70.4241 40.3217 68.7555 40.3217C67.0876 40.3217 66.2081 39.6214 65.5014 39.0587C64.9069 38.5858 64.5149 38.2731 63.6103 38.2731C62.7062 38.2731 62.3137 38.5858 61.7192 39.0593C61.0131 39.622 60.1336 40.3217 58.465 40.3217C56.7965 40.3217 55.9176 39.622 55.2109 39.0593C54.6164 38.5858 54.2239 38.2731 53.3192 38.2731C52.4151 38.2731 52.0226 38.5858 51.4281 39.0593C50.7214 39.622 49.8419 40.3217 48.174 40.3217C46.5054 40.3217 45.6259 39.622 44.9193 39.0593C44.3247 38.5858 43.9322 38.2731 43.0276 38.2731C42.1235 38.2731 41.7309 38.5858 41.137 39.0587C40.4303 39.6214 39.5508 40.3217 37.8829 40.3217C36.2143 40.3217 35.3349 39.6214 34.6282 39.0587C34.0342 38.5858 33.6417 38.2731 32.7376 38.2731C31.833 38.2731 31.4404 38.5858 30.8465 39.0593C30.1398 39.622 29.2603 40.3217 27.5918 40.3217C25.9233 40.3217 25.0438 39.622 24.3371 39.0593C23.7426 38.5858 23.3501 38.2731 22.446 38.2731C21.5413 38.2731 21.1488 38.5858 20.5543 39.0593C19.8476 39.622 18.9681 40.3217 17.2996 40.3217C15.631 40.3217 14.7516 39.622 14.0449 39.0593C13.4504 38.5858 13.0578 38.2731 12.1537 38.2731C11.2491 38.2731 10.8566 38.5858 10.2615 39.0593C9.55537 39.622 8.67532 40.3217 7.00677 40.3217C5.33823 40.3217 4.45876 39.622 3.75208 39.0593C3.15756 38.5858 2.76504 38.2731 1.85981 38.2731C1.25327 38.2731 0.761177 37.7784 0.761177 37.1673C0.761177 36.5568 1.25327 36.0615 1.85981 36.0615C2.23689 36.0615 2.57162 36.0989 2.87547 36.1605L0.128319 27.4678C-0.133179 26.639 0.00930023 25.7619 0.519135 25.0598ZM18.1539 12.934H8.69821C7.57669 12.934 6.61081 13.6153 6.18623 14.5875H20.6653C20.2407 13.6153 19.2748 12.934 18.1539 12.934ZM19.9403 19.0441V16.7991H6.91122V19.0441H19.9403Z" fill="#664599"/>
<path d="M1.86038 41.6379C3.52892 41.6379 4.4084 42.3383 5.11507 42.901C5.70959 43.3738 6.10212 43.6866 7.00677 43.6866C7.912 43.6866 8.30453 43.3738 8.89906 42.901C9.60573 42.3383 10.4852 41.6379 12.1537 41.6379C13.8223 41.6379 14.7018 42.3383 15.4084 42.901C16.0024 43.3738 16.3949 43.6866 17.2996 43.6866C18.2042 43.6866 18.5968 43.3744 19.1913 42.901C19.8979 42.3383 20.7774 41.6379 22.446 41.6379C24.1145 41.6379 24.994 42.3383 25.7007 42.901C26.2946 43.3738 26.6871 43.6866 27.5918 43.6866C28.4965 43.6866 28.889 43.3744 29.4829 42.901C30.1896 42.3383 31.0691 41.6379 32.7376 41.6379C34.4062 41.6379 35.2856 42.3383 35.9917 42.901C36.5863 43.3738 36.9788 43.6866 37.8829 43.6866C38.787 43.6866 39.1795 43.3744 39.774 42.901C40.4801 42.3383 41.3596 41.6379 43.0281 41.6379C44.6967 41.6379 45.5762 42.3383 46.2828 42.901C46.8768 43.3738 47.2693 43.6866 48.174 43.6866C49.0786 43.6866 49.4706 43.3744 50.0651 42.901C50.7718 42.3383 51.6512 41.6379 53.3198 41.6379C54.9883 41.6379 55.8672 42.3383 56.5739 42.901C57.1684 43.3744 57.561 43.6866 58.465 43.6866C59.3697 43.6866 59.7622 43.3744 60.3562 42.901C61.0628 42.3383 61.9423 41.6379 63.6109 41.6379C65.2788 41.6379 66.1583 42.3383 66.865 42.901C67.4589 43.3738 67.8515 43.6866 68.7561 43.6866C69.6602 43.6866 70.0527 43.3744 70.6472 42.901C71.3539 42.3383 72.2328 41.6379 73.9014 41.6379C74.5085 41.6379 75 42.1332 75 42.7437C75 43.3548 74.5085 43.8496 73.9014 43.8496C72.9973 43.8496 72.6042 44.1623 72.0102 44.6357C71.3036 45.1984 70.4241 45.8982 68.7561 45.8982C67.0876 45.8982 66.2081 45.1978 65.5014 44.6351C64.9075 44.1623 64.5149 43.8496 63.6109 43.8496C62.7062 43.8496 62.3137 44.1623 61.7197 44.6357C61.0131 45.1984 60.1336 45.8982 58.465 45.8982C56.7971 45.8982 55.9176 45.1984 55.2109 44.6357C54.6164 44.1623 54.2239 43.8496 53.3198 43.8496C52.4151 43.8496 52.0226 44.1623 51.4286 44.6357C50.722 45.1984 49.8425 45.8982 48.174 45.8982C46.5054 45.8982 45.6259 45.1984 44.9193 44.6357C44.3253 44.1623 43.9328 43.8496 43.0281 43.8496C42.1235 43.8496 41.7309 44.1623 41.137 44.6351C40.4303 45.1978 39.5514 45.8982 37.8829 45.8982C36.2143 45.8982 35.3349 45.1978 34.6288 44.6351C34.0342 44.1623 33.6417 43.8496 32.7376 43.8496C31.8335 43.8496 31.441 44.1623 30.8465 44.6357C30.1398 45.1984 29.2603 45.8982 27.5918 45.8982C25.9233 45.8982 25.0438 45.1984 24.3371 44.6357C23.7432 44.1623 23.3506 43.8496 22.446 43.8496C21.5413 43.8496 21.1488 44.1623 20.5543 44.6357C19.8476 45.1984 18.9681 45.8982 17.2996 45.8982C15.631 45.8982 14.7516 45.1984 14.0449 44.6357C13.4509 44.1623 13.0584 43.8496 12.1537 43.8496C11.2491 43.8496 10.8566 44.1623 10.262 44.6357C9.55537 45.1984 8.6759 45.8982 7.00677 45.8982C5.33823 45.8982 4.45876 45.1984 3.75208 44.6357C3.15756 44.1623 2.76503 43.8496 1.86038 43.8496C1.25327 43.8496 0.761749 43.3548 0.761749 42.7437C0.761749 42.1332 1.25327 41.6379 1.86038 41.6379Z" fill="#664599"/>
</svg>
