<svg width="24" height="24" viewBox="0 0 24 24" fill="none" xmlns="http://www.w3.org/2000/svg">
<path d="M20.707 3.293C20.5195 3.10553 20.2652 3.00021 20 3.00021C19.7349 3.00021 19.4806 3.10553 19.293 3.293L12 10.586L4.70703 3.293C4.5195 3.10553 4.26519 3.00021 4.00003 3.00021C3.73487 3.00021 3.48056 3.10553 3.29303 3.293C3.10556 3.48053 3.00024 3.73484 3.00024 4C3.00024 4.26516 3.10556 4.51947 3.29303 4.707L10.586 12L3.29303 19.293C3.10556 19.4805 3.00024 19.7348 3.00024 20C3.00024 20.2652 3.10556 20.5195 3.29303 20.707C3.48056 20.8945 3.73487 20.9998 4.00003 20.9998C4.26519 20.9998 4.5195 20.8945 4.70703 20.707L12 13.414L19.293 20.707C19.4806 20.8945 19.7349 20.9998 20 20.9998C20.2652 20.9998 20.5195 20.8945 20.707 20.707C20.8945 20.5195 20.9998 20.2652 20.9998 20C20.9998 19.7348 20.8945 19.4805 20.707 19.293L13.414 12L20.707 4.707C20.8945 4.51947 20.9998 4.26516 20.9998 4C20.9998 3.73484 20.8945 3.48053 20.707 3.293Z" fill="white"/>
</svg>
