<svg width="32" height="32" viewBox="0 0 32 32" fill="none" xmlns="http://www.w3.org/2000/svg">
<path d="M13.333 16H1.33301" stroke="#664599" stroke-width="2.66667" stroke-miterlimit="10" stroke-linecap="round" stroke-linejoin="round"/>
<path d="M30.6665 16H18.6665" stroke="#664599" stroke-width="2.66667" stroke-miterlimit="10" stroke-linecap="round" stroke-linejoin="round"/>
<path d="M10.6665 6.66659V3.99992C10.6665 2.53325 11.8665 1.33325 13.3332 1.33325H18.6665C20.1332 1.33325 21.3332 2.53325 21.3332 3.99992V6.66659" stroke="#664599" stroke-width="2.66667" stroke-miterlimit="10" stroke-linecap="round" stroke-linejoin="round"/>
<path d="M30.6663 28.0001C30.6663 28.8001 30.133 29.3334 29.333 29.3334H2.66634C1.99967 29.3334 1.33301 28.8001 1.33301 28.0001V8.00008C1.33301 7.20008 1.99967 6.66675 2.66634 6.66675H29.333C30.133 6.66675 30.6663 7.20008 30.6663 8.00008V28.0001Z" stroke="#664599" stroke-width="2.66667" stroke-miterlimit="10" stroke-linecap="round" stroke-linejoin="round"/>
<path d="M18.6668 17.3333C18.6668 18.8 17.4668 20 16.0002 20C15.3335 20 14.6668 19.7332 14.1335 19.1999C13.6001 18.6665 13.3335 18 13.3335 17.3333V14.6667C13.3335 13.2 14.5335 12 16.0002 12C16.6668 12 17.3335 12.2668 17.8669 12.8001C18.4002 13.3335 18.6668 14 18.6668 14.6667V17.3333Z" stroke="#664599" stroke-width="2.66667" stroke-miterlimit="10" stroke-linecap="round" stroke-linejoin="round"/>
</svg>
