<svg width="24" height="24" viewBox="0 0 24 24" fill="none" xmlns="http://www.w3.org/2000/svg">
<path d="M22 24H2C0.9 24 0 23.1 0 22V16C0 15.4 0.4 15 1 15C1.6 15 2 15.4 2 16V22H22V16C22 15.4 22.4 15 23 15C23.6 15 24 15.4 24 16V22C24 23.1 23.1 24 22 24Z" fill="#664599"/>
<path d="M12 18C11.4 18 11 17.6 11 17V1C11 0.4 11.4 0 12 0C12.6 0 13 0.4 13 1V17C13 17.5 12.6 18 12 18Z" fill="#664599"/>
<path d="M12 18C11.7 18 11.5 17.9 11.3 17.7L6.3 12.7C5.9 12.3 5.9 11.7 6.3 11.3C6.7 10.9 7.30002 10.9 7.70002 11.3L12 15.6L16.3 11.3C16.7 10.9 17.3 10.9 17.7 11.3C18.1 11.7 18.1 12.3 17.7 12.7L12.7 17.7C12.5 17.9 12.3 18 12 18Z" fill="#664599"/>
</svg>
