<?xml version="1.0" encoding="utf-8"?><svg viewBox="0 0 242 74" xmlns="http://www.w3.org/2000/svg" xmlns:xlink="http://www.w3.org/1999/xlink"><style>:root>svg{display:none}:root>svg:target{display:block}</style><svg viewBox="0 0 14 24" id="icon-arr-down" xmlns="http://www.w3.org/2000/svg"><path d="M13.706 9.207a1 1 0 00-1.414 0l-4.586 4.586a1.021 1.021 0 01-1.414 0L1.706 9.207a1 1 0 00-1.414 1.414l4.585 4.586a3 3 0 004.243 0l4.586-4.586a1 1 0 000-1.414z"/></svg><svg class="bbi bbi-arrow-down" viewBox="0 0 16 16" id="icon-arrow-down" xmlns="http://www.w3.org/2000/svg"><path fill-rule="evenodd" d="M8 1a.5.5 0 01.5.5v11.793l3.146-3.147a.5.5 0 01.708.708l-4 4a.5.5 0 01-.708 0l-4-4a.5.5 0 01.708-.708L7.5 13.293V1.5A.5.5 0 018 1z"/></svg><svg class="cbi cbi-arrow-left" viewBox="0 0 16 16" id="icon-arrow-left" xmlns="http://www.w3.org/2000/svg"><path fill-rule="evenodd" d="M15 8a.5.5 0 00-.5-.5H2.707l3.147-3.146a.5.5 0 10-.708-.708l-4 4a.5.5 0 000 .708l4 4a.5.5 0 00.708-.708L2.707 8.5H14.5A.5.5 0 0015 8z"/></svg><svg class="dbi dbi-arrow-right" viewBox="0 0 16 16" id="icon-arrow-right" xmlns="http://www.w3.org/2000/svg"><path fill-rule="evenodd" d="M1 8a.5.5 0 01.5-.5h11.793l-3.147-3.146a.5.5 0 01.708-.708l4 4a.5.5 0 010 .708l-4 4a.5.5 0 01-.708-.708L13.293 8.5H1.5A.5.5 0 011 8z"/></svg><svg viewBox="0 0 36 36" id="icon-boxes" xmlns="http://www.w3.org/2000/svg"><path d="M18 18H1v17h17V18zm8-17H9v17h17V1zm9 17H18v17h17V18z" stroke="#664599" stroke-width="2" stroke-miterlimit="10" stroke-linecap="round" stroke-linejoin="round"/></svg><svg class="fbi fbi-briefcase" viewBox="0 0 16 16" id="icon-briefcase" xmlns="http://www.w3.org/2000/svg"><path d="M6.5 1A1.5 1.5 0 005 2.5V3H1.5A1.5 1.5 0 000 4.5v8A1.5 1.5 0 001.5 14h13a1.5 1.5 0 001.5-1.5v-8A1.5 1.5 0 0014.5 3H11v-.5A1.5 1.5 0 009.5 1h-3zm0 1h3a.5.5 0 01.5.5V3H6v-.5a.5.5 0 01.5-.5zm1.886 6.914L15 7.151V12.5a.5.5 0 01-.5.5h-13a.5.5 0 01-.5-.5V7.15l6.614 1.764a1.5 1.5 0 00.772 0zM1.5 4h13a.5.5 0 01.5.5v1.616L8.129 7.948a.5.5 0 01-.258 0L1 6.116V4.5a.5.5 0 01.5-.5z"/></svg><svg viewBox="0 0 24 24" id="icon-burger" xmlns="http://www.w3.org/2000/svg"><path d="M21.111 11H6.89c-.492 0-.89.448-.89 1s.398 1 .889 1H21.11c.491 0 .889-.448.889-1s-.398-1-.889-1zm.056-7H2.833C2.373 4 2 4.448 2 5s.373 1 .833 1h18.334c.46 0 .833-.448.833-1s-.373-1-.833-1zm0 14H2.833c-.46 0-.833.448-.833 1s.373 1 .833 1h18.334c.46 0 .833-.448.833-1s-.373-1-.833-1z"/></svg><svg viewBox="0 0 24 25" id="icon-carousel-next" xmlns="http://www.w3.org/2000/svg"><g clip-path="url(#ha)"><path d="M23.124 11.407L19.245 7.53a1 1 0 00-1.414 1.414l3.555 3.557H1a1 1 0 00-1 1 1 1 0 001 1h20.447l-3.616 3.615a1.001 1.001 0 001.414 1.415l3.88-3.879a3.009 3.009 0 00-.001-4.244z"/></g><defs><clipPath id="ha"><path transform="translate(0 .5)" d="M0 0h24v24H0z"/></clipPath></defs></svg><svg viewBox="0 0 24 25" id="icon-carousel-prev" xmlns="http://www.w3.org/2000/svg"><g clip-path="url(#ia)"><path d="M.876 11.407L4.755 7.53a1 1 0 011.414 1.414L2.614 12.5H23a1 1 0 011 1 1 1 0 01-1 1H2.553l3.616 3.615a1 1 0 11-1.414 1.415l-3.88-3.879a3.008 3.008 0 01.001-4.244z"/></g><defs><clipPath id="ia"><path transform="matrix(-1 0 0 1 24 .5)" d="M0 0h24v24H0z"/></clipPath></defs></svg><svg class="jbi jbi-download" viewBox="0 0 16 16" id="icon-download" xmlns="http://www.w3.org/2000/svg"><path d="M.5 9.9a.5.5 0 01.5.5v2.5a1 1 0 001 1h12a1 1 0 001-1v-2.5a.5.5 0 011 0v2.5a2 2 0 01-2 2H2a2 2 0 01-2-2v-2.5a.5.5 0 01.5-.5z"/><path d="M7.646 11.854a.5.5 0 00.708 0l3-3a.5.5 0 00-.708-.708L8.5 10.293V1.5a.5.5 0 00-1 0v8.793L5.354 8.146a.5.5 0 10-.708.708l3 3z"/></svg><svg class="kbi kbi-file-earmark-arrow-down" viewBox="0 0 16 16" id="icon-file" xmlns="http://www.w3.org/2000/svg"><path d="M8.5 6.5a.5.5 0 00-1 0v3.793L6.354 9.146a.5.5 0 10-.708.708l2 2a.5.5 0 00.708 0l2-2a.5.5 0 00-.708-.708L8.5 10.293V6.5z"/><path d="M14 14V4.5L9.5 0H4a2 2 0 00-2 2v12a2 2 0 002 2h8a2 2 0 002-2zM9.5 3A1.5 1.5 0 0011 4.5h2V14a1 1 0 01-1 1H4a1 1 0 01-1-1V2a1 1 0 011-1h5.5v2z"/></svg><svg viewBox="0 0 91 68" id="icon-logo-dt" xmlns="http://www.w3.org/2000/svg"><path opacity=".5" fill-rule="evenodd" clip-rule="evenodd" d="M42.641.011c-.262.008-.49.025-.52.039a.461.461 0 00-.223.268c-.024.082-.024.695-.003 3.28.023 2.747.031 3.185.06 3.228.056.086.185.108.642.108.47 0 .602-.024.678-.12.045-.057.046-.068.03-1.179l-.017-1.12.552-.012c.733-.015 1.092-.08 1.52-.279.848-.392 1.295-1.184 1.25-2.218-.025-.566-.174-.962-.49-1.3-.328-.351-.77-.564-1.375-.662-.25-.04-1.3-.057-2.104-.033zm6.864.22c-.09.055-.113.095-.293.493-.172.378-.386.847-1.179 2.578-.526 1.148-.797 1.74-1.244 2.724-.196.43-.223.502-.225.617-.003.115.003.135.053.173.082.061.358.105.752.12.484.02.423.079.791-.777.163-.377.303-.694.314-.704.01-.01.171-.003.359.016l.812.078c1.115.106 1.412.138 1.426.152.007.008.034.11.059.225.112.52.275 1.228.293 1.277.013.033.059.071.117.097.13.057.582.114.937.118.262.003.296-.001.34-.041.045-.04.048-.06.038-.21-.006-.1-.083-.459-.192-.898a800.43 800.43 0 01-.864-3.52l-.269-1.097c-.315-1.29-.297-1.233-.42-1.297-.095-.049-.34-.092-.746-.131-.492-.047-.773-.045-.859.007zM36.916.57c-.403.055-.706.117-.808.165-.092.044-.149.144-.187.333l-.345 1.748-.453 2.292c-.524 2.627-.514 2.566-.457 2.675.047.09.1.102.388.085.334-.02.737-.106.832-.178.088-.067.08-.04.236-.932.062-.354.119-.65.127-.66.01-.008.125-.03.259-.048l1.281-.178c.572-.08 1.041-.142 1.044-.139l.192.393c.452.931.488 1 .545 1.037.076.05.29.045.727-.016.555-.078.664-.13.642-.3-.011-.087-.173-.42-.707-1.463a1716.569 1716.569 0 01-1.046-2.037c-.076-.146-.39-.759-.698-1.362-.722-1.412-.69-1.354-.775-1.412-.064-.044-.098-.05-.285-.047a5.225 5.225 0 00-.512.044zm7.357.53c.415.06.684.278.818.664.041.118.05.193.051.42.002.432-.09.701-.318.928-.243.243-.456.305-1.09.318l-.434.008-.014-.198c-.008-.11-.014-.64-.014-1.18v-.983h.427c.234 0 .492.01.574.022zm-11.035.053a10.91 10.91 0 01-.496.134l-.997.258a1636.004 1636.004 0 01-2.635.682c-.648.166-.645.164-.624.422.026.33.18.751.293.803.046.02.1.014.293-.034.384-.096 1.27-.326 1.383-.359l.104-.03.022.081a305.584 305.584 0 01.29 1.123c.103.393.514 1.983.916 3.537.2.772.184.73.294.769.08.028.118.027.329-.007.254-.042.666-.166.78-.235a.398.398 0 00.107-.1c.04-.062.052-.014-.38-1.672l-.264-1.019-.467-1.805c-.19-.73-.258-1.009-.25-1.017.008-.008.17-.05 1.226-.323a7.53 7.53 0 00.482-.135c.055-.03.07-.111.054-.316-.02-.267-.137-.623-.238-.723-.038-.039-.193-.063-.222-.034zm24.828.3c-.512.053-.641.13-.753.45-.074.208-.139.541-.123.625.023.125.064.131.384.063.246-.053.332-.061.68-.062.345-.001.425.005.597.05.407.103.666.275.79.525.066.136.069.15.059.358-.014.273-.073.432-.223.596-.18.197-.439.297-.766.296-.217 0-.396-.031-.9-.154a12.657 12.657 0 00-.474-.111.271.271 0 00-.087.056c-.072.06-.147.258-.212.557-.08.37-.08.371.574.537.559.143.627.165.831.266.289.143.45.297.561.532.06.128.068.168.068.344 0 .451-.24.792-.65.922-.209.066-.564.065-.832-.002-.453-.114-.77-.287-1.174-.641a.986.986 0 00-.203-.148c-.064-.017-.133.023-.173.101-.065.125-.167.6-.167.778 0 .151.007.177.062.246.42.529 1.529.935 2.552.935.631 0 1.076-.137 1.478-.457.273-.217.522-.615.629-1.003.065-.236.072-.704.013-.915a1.634 1.634 0 00-.846-1.02l-.167-.083.219-.026c.677-.08 1.142-.47 1.362-1.145.166-.507.119-1.026-.128-1.404-.405-.62-1.371-1.026-2.55-1.074a3.76 3.76 0 00-.431.007zm-7.832.488c.453 1.96.597 2.613.582 2.628a2.929 2.929 0 01-.361-.024l-.838-.08a24.035 24.035 0 01-.602-.061l-.116-.016.14-.321c.157-.365.646-1.485.893-2.049.09-.207.17-.394.177-.416.022-.072.044-.011.125.339zm-12.987.537l.675 1.376c.227.462.41.843.405.847-.008.008-.312.052-1.19.173l-.636.09c-.066.012-.072.008-.072-.044 0-.031.04-.274.088-.538l.267-1.478c.057-.336.157-.891.168-.924.006-.022.016-.04.022-.04.006 0 .128.242.273.538zm-11.044.661c-1.058.123-2.07.809-2.498 1.692-.213.439-.287.794-.285 1.373 0 .648.11 1.145.411 1.871.506 1.218 1.34 2.001 2.311 2.168.789.136 1.725-.095 2.515-.62.267-.177.677-.58.762-.75.106-.21.067-.438-.156-.902-.115-.24-.18-.3-.27-.249a.796.796 0 00-.155.154c-.289.36-.358.437-.523.578a2.63 2.63 0 01-.9.464c-.245.064-.591.068-.797.01-.41-.114-.782-.413-1.075-.863-.389-.596-.675-1.466-.674-2.052 0-.577.24-1.104.63-1.382.518-.37 1.126-.455 1.912-.268.323.076.383-.093.2-.562a2.24 2.24 0 00-.25-.483c-.14-.165-.628-.24-1.158-.179zm38.973.38c-.052.026-.214.21-.842.958l-2.9 3.438c-.372.442-.707.858-.744.924-.063.114-.064.124-.032.182.053.097.198.179.547.31.348.131.544.167.637.117.029-.015.264-.29.522-.612.259-.32.481-.584.494-.584.014 0 .259.09.545.201l1.184.454c.365.14.672.263.682.273.01.01.008.206-.005.436-.053.959-.055 1.132-.015 1.192.044.068.3.195.678.336.567.211.665.192.697-.136.007-.072.033-.779.057-1.57a2195.297 2195.297 0 01.145-4.742l.015-.533-.075-.085c-.089-.102-.284-.197-.795-.39-.538-.202-.673-.23-.795-.169zm.322 1.483a5.849 5.849 0 00-.023.394 185.7 185.7 0 01-.115 2.476c-.014.193.026.192-.434.014-.487-.19-.914-.354-1.156-.447-.12-.046-.22-.09-.221-.097-.001-.007.298-.38.664-.83.366-.45.8-.984.963-1.187a4.93 4.93 0 01.315-.371c.01 0 .012.021.007.048zm5.05.88c-.128.04-.211.158-.472.665a486.978 486.978 0 01-.782 1.517l-.376.731-.41.797c-.144.28-.313.61-.377.731-.064.122-.257.499-.43.837-.305.594-.315.618-.288.684.037.088.226.227.507.371.433.223.627.27.713.173a4.96 4.96 0 00.243-.437 1217.78 1217.78 0 00.883-1.716 1362.603 1362.603 0 011.29-2.508c.088-.174.174-.316.19-.316.016 0 .12.048.232.108.112.059.413.215.669.346.256.13.616.317.8.412.217.113.36.175.407.175.104 0 .22-.137.37-.438.105-.208.128-.274.135-.392l.01-.141-.086-.053a23.42 23.42 0 00-.706-.37l-.82-.422c-.83-.436-1.473-.753-1.55-.762a.433.433 0 00-.153.009zM20.28 7.878a1.48 1.48 0 00-.858.457 1.54 1.54 0 00-.356.936c0 .631.467 1.221 1.08 1.365.896.21 1.734-.46 1.733-1.383a1.386 1.386 0 00-.785-1.242 1.385 1.385 0 00-.814-.133zm-5.41.888c-.093.063-.936.743-3.281 2.646-.184.15-.361.302-.392.34-.102.12-.105.303-.006.448.029.042.44.554.912 1.137l1.944 2.4c.596.738 1.109 1.368 1.14 1.402.107.115.28.06.602-.191.37-.29.56-.52.513-.625-.021-.045-.851-1.075-2.854-3.542-.366-.45-.66-.826-.656-.835.02-.037 1.982-1.614 1.999-1.608.016.007.493.592 2.87 3.529.745.92.703.884.914.777.136-.069.41-.275.605-.454.154-.141.244-.284.225-.358-.007-.024-.402-.525-.878-1.114-2.349-2.902-3.186-3.927-3.24-3.966a.396.396 0 00-.184-.052c-.11-.008-.134-.002-.233.066zm60.437.728c-.934.198-1.786.863-2.526 1.97-.776 1.163-.925 2.193-.447 3.1.144.272.3.483.559.75.495.513 1.05.895 1.599 1.1.989.37 1.93.218 2.852-.464.228-.169.73-.673.94-.943 1.143-1.473 1.32-2.747.538-3.863a4.379 4.379 0 00-.359-.42c-.641-.66-1.373-1.091-2.093-1.23a3.145 3.145 0 00-1.063 0zm1.114 1.252c.364.075.665.25 1.003.585.175.174.228.242.304.398.135.276.167.426.153.72-.023.474-.245.966-.728 1.607-.515.684-1.028 1.088-1.549 1.22a1.217 1.217 0 01-.44.035 1.249 1.249 0 01-.627-.16 2.435 2.435 0 01-.648-.502 1.391 1.391 0 01-.366-.613c-.071-.237-.055-.596.04-.881.192-.57.663-1.27 1.209-1.797.531-.513 1.1-.725 1.648-.612zM8.834 13.919c-.133.041.02-.127-1.957 2.17-.425.495-.879 1.021-1.008 1.17-.266.31-.334.42-.334.542 0 .17.032.203.853.907 1.109.95 3.402 2.922 3.831 3.293.146.127.287.24.313.252.099.046.29-.094.557-.409.273-.322.38-.513.341-.615-.015-.041-.1-.116-1.499-1.317A4389.451 4389.451 0 017.2 17.564c-.024-.023.067-.14.52-.667.992-1.154 1.122-1.304 1.136-1.31.007-.002.212.166.456.376.87.746 2.021 1.737 2.392 2.057 1.577 1.36 1.447 1.265 1.605 1.169.165-.1.57-.564.677-.774.1-.197.11-.18-.455-.666-.811-.695-3.16-2.715-3.843-3.303a8.7 8.7 0 00-.586-.48c-.1-.051-.196-.068-.267-.047zm73.327.398c-.129.041-.247.134-1.321 1.035l-1.921 1.612c-1.68 1.407-1.795 1.507-1.817 1.569-.017.048-.01.083.03.166.11.228.45.636.653.784.165.12.147.13.956-.548.401-.335.786-.66.855-.72.07-.06.13-.108.136-.108.006 0 .13.142.276.316.638.759 1.132 1.11 1.766 1.257.181.042.252.047.504.037.207-.008.341-.026.459-.06.259-.076.595-.249.834-.429.628-.473.916-.979.915-1.609-.001-.65-.257-1.185-.98-2.05l-.643-.77c-.334-.399-.41-.463-.57-.487a.353.353 0 00-.132.005zm.452 1.863c.45.536.557.75.54 1.084-.012.253-.109.46-.31.663-.359.365-.816.532-1.19.436-.295-.075-.449-.195-.835-.653-.24-.284-.25-.3-.213-.336.18-.172 1.767-1.48 1.78-1.466l.228.272zM32.1 18.675a9.382 9.382 0 00-.97.185c-1.666.418-3.755 1.476-5.197 2.632-.971.779-1.323 1.38-.923 1.573.192.093.313.086 1.056-.064 5.852-1.177 10.356-1.236 14.414-.188.534.138.63.168.608.187-.01.009-.118.089-.24.178-1.791 1.31-3.645 3.037-4.995 4.65-1.346 1.61-2.39 3.331-3.088 5.095-.951 2.402-1.226 4.85-.819 7.285.074.438.113.618.29 1.307.04.156.238.777.33 1.03.142.394.34.871.513 1.231l.143.301 1.72.015a176.8 176.8 0 012.44.035c.396.012 1.278.028 1.96.037l1.238.016-.061-.076c-.977-1.197-1.41-2.41-1.413-3.95a5.835 5.835 0 01.37-2.128c.817-2.253 2.931-3.995 5.512-4.54 2.45-.517 5.01.073 6.885 1.587 1.246 1.007 2.079 2.332 2.393 3.807a6.353 6.353 0 01-.053 2.736 6.58 6.58 0 01-1.278 2.582l-.156.196c-.028.037.036.04 1.306.052.735.008 2.213.02 3.286.026l1.951.012.057-.128c.447-1.016.802-2.185.99-3.262.115-.664.144-1.033.143-1.838 0-.66-.007-.816-.05-1.14-.221-1.698-.801-3.09-1.816-4.363a11.432 11.432 0 00-1.144-1.179c-1.48-1.278-3.47-2.183-5.813-2.64-2.708-.527-6.011-.442-9.313.241-.11.023-.202.04-.204.036-.01-.01.12-.378.226-.633.137-.335.43-.922.619-1.24a7.542 7.542 0 011.164-1.53c.615-.618 1.124-.927 1.84-1.115 1.391-.366 3.252-.62 5.756-.788 1.394-.093 2.427-.135 6.533-.266.409-.012.772-.029.809-.036.163-.033 1.297-.568 1.927-.91 2.143-1.167 3.523-2.551 4.017-4.031a7 7 0 00.09-.28 1.64 1.64 0 00-.26 0l-1.245.042c-1.343.044-1.561.052-2.58.089-.487.018-1.245.043-1.683.056-.439.013-1.072.034-1.407.046-.948.035-6.015.05-7.286.022a200.183 200.183 0 01-3.4-.101c-.072-.006-1.283-.02-2.69-.032-2.884-.025-4.49-.068-5.858-.158a59.34 59.34 0 01-3.599-.31 38.45 38.45 0 01-2.037-.293c-.37-.066-.816-.096-1.008-.068zM4.06 20.043c-.046.032-.123.173-.533.965l-.76 1.461-.805 1.553c-.122.236-.213.438-.213.474 0 .101.161.235.457.38.275.134.448.173.521.114.033-.026.329-.579.668-1.247.068-.134.137-.263.155-.287.03-.04.08-.017 1.114.518a964.133 964.133 0 013.053 1.584c.208.107.478.248.602.314.246.13.305.141.391.073.147-.115.445-.655.516-.932.062-.243.117-.198-.855-.7a592.216 592.216 0 01-1.805-.936c-.22-.113-.603-.312-.853-.443-.25-.13-.683-.355-.963-.498a27.58 27.58 0 01-.52-.27.804.804 0 01.083-.191c.562-1.079.714-1.383.714-1.43 0-.095-.19-.252-.47-.39-.278-.135-.421-.168-.498-.112zm82.41.92a593.301 593.301 0 01-3.256.508l-2.436.378c-.502.079-.595.108-.644.203-.045.087-.017.185.148.508.233.458.361.618.497.618.025 0 .27-.04.543-.089l.696-.123c.11-.02.215-.04.235-.045.026-.007.082.078.22.34.1.192.21.399.243.46l.2.376.369.697.229.43-.13.134c-.657.679-.942.984-.959 1.027-.033.087.02.244.2.591.3.58.392.686.539.623.106-.045.336-.287 2.497-2.627l1.278-1.379a53.66 53.66 0 001.016-1.112c.082-.125-.001-.359-.368-1.034-.248-.455-.358-.576-.52-.57-.036.002-.305.04-.598.087zm-.157 1.357c-.573.608-1.989 2.076-2.003 2.076-.01 0-.14-.232-.289-.515-.15-.283-.298-.565-.331-.625-.213-.395-.29-.547-.283-.555.004-.005.157-.034.34-.066a1340.15 1340.15 0 002.412-.42 2.14 2.14 0 01.22-.031c.063-.003.062 0-.066.136zm-55.885 2.478c-.773.01-1.854.011-2.402.004-1.133-.014-1.041-.024-1.932.194-1.21.295-2.11.665-2.744 1.128-.2.146-.522.48-.64.66-.296.46-.453 1.045-.453 1.684v.185l.06-.015c.117-.03.993-.215 1.169-.247.82-.151 1.04-.188 1.694-.285 1.553-.229 3.468-.39 5.403-.454.891-.03 2.462-.066 2.883-.067h.324l.139-.227c.395-.647.718-1.069 1.15-1.501a6.22 6.22 0 011.308-1.012l.12-.071-2.336.003a431.2 431.2 0 00-3.743.02zm1.285 4.773a43.68 43.68 0 00-2.735.174c-.442.044-1.41.145-2.314.243-.436.047-1.399.14-1.617.155-.7.051-1.92.413-2.591.767-1.064.563-1.627 1.299-1.819 2.378-.037.213-.05.387-.058.879l-.011.613.13-.03.695-.164a102.112 102.112 0 011.362-.313c.428-.098.537-.121 1.284-.277a33.287 33.287 0 013.178-.519 31.769 31.769 0 012.971-.178h.391l.055-.094c.03-.052.177-.329.326-.615.473-.908.623-1.175.88-1.572.398-.611.845-1.084 1.307-1.38a.428.428 0 00.094-.071c0-.01-1.053-.008-1.528.004zm-28.08 4a1425.091 1425.091 0 01-.667 1.431l-.054.12-1.46-.015A60.37 60.37 0 000 35.101c.013.011.51.278.895.479.843.44 1.442.759 1.458.774.016.015-.108.299-.544 1.241-.232.504-.326.717-.317.726.005.005.182-.08.393-.19.327-.169 1.544-.79 1.889-.964l.11-.056.2.107c.11.059.549.289.975.51l.96.503c.101.054.19.094.195.088.006-.007-.184-.451-.422-.988a39.387 39.387 0 01-.434-.995c0-.011.53-.292 1.177-.626l1.178-.606-1.476-.006-1.476-.006-.03-.05c-.017-.027-.219-.47-.448-.985-.23-.514-.423-.935-.43-.935-.007 0-.107.201-.222.448zm83.096-.25c-.084.184-.16.35-.359.775a1155.979 1155.979 0 00-.4.858l-.107.227h-1.457l-1.458.001.21.112.565.297c1.188.622 1.573.83 1.579.857.003.016-.194.461-.438.99a62.17 62.17 0 00-.443.97c0 .004.341-.167.758-.38.418-.215.96-.49 1.204-.614l.445-.225.696.361c.382.199.745.388.806.422.418.227.858.444.847.418l-.448-1.005c-.399-.892-.432-.976-.397-1.002.021-.015.194-.107.384-.203l1.142-.587.797-.411-.388-.004c-.213-.001-.88-.009-1.482-.017l-1.096-.013-.152-.343c-.22-.495-.68-1.508-.714-1.573-.029-.054-.03-.053-.094.089zm-40.045 2.483v1.93l-.172-.015a4.165 4.165 0 01-.792-.176c-.782-.271-1.517-.767-2.303-1.553a12.7 12.7 0 01-.977-1.107l-.047-.064-.169.127c-.093.07-.169.132-.169.138 0 .02.11.158.366.463 1.338 1.597 2.73 2.485 4.102 2.613l.16.016v1.679h-6.931v.42l3.46.005 3.46.006v1.594l-.298.017c-1.156.064-2.41.408-3.602.99-.352.171-.977.513-1.138.622-.03.02-.172.114-.315.206-.143.093-.26.18-.26.192 0 .033.206.33.23.331.011 0 .17-.097.355-.217 1.33-.868 2.72-1.42 4.075-1.62.243-.037.789-.088.926-.089.037 0 .039.111.039 2.016v2.015h.42V44.34c0-1.276.008-2.008.022-2.016.033-.02.638.029.964.078 1.374.208 2.758.781 4.073 1.687.085.058.16.106.168.106.014 0 .244-.32.244-.34 0-.02-.513-.358-.842-.556a14.4 14.4 0 00-1.56-.777c-.95-.374-1.994-.601-2.924-.636l-.133-.006v-1.594l3.216-.006 3.217-.005v-.42l-3.217-.006-3.216-.006v-1.661l.221-.027c.47-.058.88-.172 1.318-.365.656-.29 1.33-.752 1.941-1.332.467-.442 1.15-1.186 1.133-1.232a3.151 3.151 0 00-.316-.266c-.003 0-.084.092-.18.205-1.024 1.206-2.097 2.024-3.11 2.37-.317.109-.724.193-.929.193h-.09v-3.853h-.42v1.93zM83.45 44.35a62.35 62.35 0 01-.336.72 214.548 214.548 0 01-.441.949l-.09.196-1.452-.008c-.797-.005-1.45-.007-1.45-.004 0 .002.107.061.238.13l.349.186c.06.033.486.257.944.498l.834.439-.061.135-.255.557c-.52 1.128-.588 1.277-.588 1.287 0 .006.043-.014.094-.043.052-.03.423-.22.825-.425.402-.204.9-.459 1.108-.566l.377-.196.243.128c.46.241 1.141.598 1.755.918.198.103.36.184.36.179 0-.005-.2-.458-.444-1.008a37.811 37.811 0 01-.438-1.004c.011-.008.661-.344 1.18-.61a123.855 123.855 0 001.053-.545l.121-.064-1.482-.011-1.481-.011-.426-.951a48.477 48.477 0 00-.448-.986c-.018-.028-.035-.006-.089.11zm-76.129.003c-.017.04-.077.169-.131.285-.126.266-.216.458-.464.996-.11.238-.223.48-.253.537l-.053.105H4.977c-.828 0-1.435.009-1.423.02.012.01.116.069.232.13l1.107.581c.493.26.919.485.946.501l.048.03-.112.239c-.062.13-.16.343-.218.47a158.782 158.782 0 01-.57 1.238c-.01.026.529-.243 2.1-1.047l.3-.154.885.461 1.181.617c.164.085.292.14.285.124L9.29 48.48c-.238-.535-.426-.98-.417-.988.02-.018.302-.165 1.422-.74.47-.241.863-.447.874-.458.012-.01-.423-.02-.985-.022a77.826 77.826 0 01-1.472-.016l-.465-.014-.434-.97c-.24-.533-.44-.975-.448-.982-.007-.007-.027.021-.045.062zm26.603.846c.053.058.053.058.007.075-.041.015-.011.057.304.416 2.012 2.292 4.692 3.897 7.841 4.697.604.154 1.282.28 1.993.372a17.28 17.28 0 003.787.068c3.578-.323 6.898-1.726 9.428-3.983.454-.405 1.358-1.334 1.358-1.395 0-.008-.016-.014-.036-.014-.033 0-.033-.005-.001-.053l.035-.053-.36-.014a214.98 214.98 0 00-2.473-.035 214.718 214.718 0 01-2.403-.033 35.71 35.71 0 00-.936-.013l-.648-.002-.138.108c-.758.595-1.827 1.102-2.884 1.368-2.44.614-5.28.076-7.125-1.35l-.149-.115-1.202-.016-2.952-.035-2.624-.035-.875-.015.053.057zm41.32 8.12a514.416 514.416 0 00-.573 1.233l-.31.667-1.454-.011c-.943-.008-1.446-.004-1.432.01.02.018 1.49.797 2.121 1.123.183.094.215.119.206.157a34.58 34.58 0 01-.444.983 21.86 21.86 0 00-.423.948 2.03 2.03 0 00.282-.134c.15-.078.583-.3.96-.491.378-.193.79-.404.916-.47l.229-.12.158.082.834.435c.813.427 1.347.704 1.357.704.006 0-.182-.436-.419-.97a27.406 27.406 0 01-.435-1.007c-.005-.042.028-.06 1.302-.713a66.499 66.499 0 00.92-.48l.099-.053-1.47-.01-1.472-.012-.416-.93c-.229-.511-.43-.96-.448-.996l-.032-.067-.055.122zM16.81 54.82l-.463.996-.21.448-1.45.006-1.451.005.44.231c.243.127.566.298.718.38l.61.32c.306.158.563.296.584.313.008.006-.194.45-.792 1.744a1.89 1.89 0 00-.091.217c0 .01.171-.07.382-.178a313.364 313.364 0 011.684-.864l.327-.168.326.17 1.167.61c.463.242.844.434.847.427a27.17 27.17 0 00-.426-.984 29.852 29.852 0 01-.432-.996c0-.014.162-.108.36-.208.198-.1.52-.265.714-.367l.806-.415.45-.231-.727-.014c-.4-.008-1.063-.015-1.472-.017l-.743-.003-.257-.57-.44-.985a5.298 5.298 0 00-.197-.414c-.006 0-.125.246-.264.547zm48.083 4.9l-.233.498-.356.764-.233.498-1.457.01-1.458.012.188.097.598.314.698.368c.768.403.875.461.875.478 0 .01-.146.333-.324.72-.392.85-.562 1.223-.562 1.237 0 .005.361-.175.803-.402.441-.226.983-.502 1.202-.612l.4-.202.52.272 1.227.642c.147.076.34.178.428.227a.88.88 0 00.169.08 31.44 31.44 0 00-.435-1.001c-.257-.576-.434-1.002-.423-1.013.02-.02.526-.283 1.657-.86.34-.175.63-.326.64-.337.013-.01-.374-.02-.887-.02-.5 0-1.163-.006-1.474-.014l-.565-.014-.417-.932c-.229-.513-.429-.958-.444-.988-.027-.053-.032-.047-.137.177zm-37.011.439c0 .01-.183.411-.407.891-.224.48-.427.92-.453.978l-.046.105H24.06l.465.245.687.362.714.377c.271.143.493.269.493.279 0 .01-.093.22-.207.468-.542 1.177-.679 1.478-.679 1.49 0 .008.102-.04.227-.106.125-.065.526-.271.891-.457.366-.186.796-.407.956-.49.285-.149.354-.172.396-.134.012.01.181.102.376.203a419.97 419.97 0 011.843.96l.072.038-.056-.128-.446-1.009a21.124 21.124 0 01-.381-.888c.005-.004.233-.123.507-.264a1562.478 1562.478 0 001.61-.829 2.47 2.47 0 00.2-.107 75.485 75.485 0 00-2.153-.032H28.8l-.44-.986c-.383-.857-.48-1.05-.48-.966zm15.524.823c-.635.067-1.204.356-1.54.782-.33.417-.484.916-.482 1.565.003 1.08.405 1.719 1.225 1.945a3.33 3.33 0 001.264.048c.2-.038.464-.13.672-.235l.197-.1-.015.187c-.046.598-.22 1.043-.534 1.356-.282.282-.52.38-.978.402a2.876 2.876 0 01-.981-.12c-.411-.114-.436-.119-.498-.095-.085.032-.107.145-.098.51.006.275.014.332.053.398.06.104.23.186.55.266.653.165 1.428.139 1.99-.068.634-.234 1.063-.624 1.373-1.25.222-.448.353-.925.42-1.528.038-.349.038-1.47 0-1.792-.159-1.33-.677-2.026-1.656-2.227a3.947 3.947 0 00-.962-.044zm5.548-.01c-.338.035-.741.141-.975.258a2.083 2.083 0 00-.708.604c-.175.246-.284.49-.368.83-.046.187-.052.262-.051.654 0 .37.008.478.048.659.18.814.655 1.248 1.484 1.357.68.089 1.131.004 1.805-.34.038-.019-.054.616-.122.838-.172.57-.592.975-1.111 1.074-.36.069-.84.03-1.298-.103-.363-.107-.394-.112-.46-.08-.08.037-.111.163-.114.442-.003.42.059.537.342.644.658.25 1.611.255 2.266.014.164-.06.451-.206.575-.291a2.85 2.85 0 00.59-.603c.211-.319.346-.62.467-1.04.25-.867.27-2.39.044-3.28-.118-.464-.303-.813-.576-1.085-.266-.264-.54-.408-.945-.495a4.352 4.352 0 00-.893-.056zm-10.867.097c-.032.01-.216.12-.41.246l-.494.32c-.512.33-.724.474-.759.513-.06.069-.09.28-.075.542.026.472.075.478.757.103l.58-.32.14-.076v4.431H36.5l-.046.058c-.075.095-.095.22-.086.517.009.308.047.43.144.468.07.026 3.795.027 3.865 0 .104-.039.139-.175.139-.533 0-.342-.023-.435-.12-.487-.027-.014-.267-.023-.62-.023h-.578v-5.684l-.046-.043c-.043-.038-.09-.042-.526-.047a4.593 4.593 0 00-.539.015zm16.382-.005c-.038.01-.657.404-1.422.906-.317.209-.326.227-.314.667.007.251.016.319.05.37.079.121.204.07 1.158-.468a4 4 0 01.26-.14c.007 0 .012.996.012 2.215v2.214h-1.32l-.05.052c-.094.1-.133.397-.09.695.022.161.037.203.089.254l.061.062h1.915c1.897 0 1.915 0 1.972-.045.08-.063.11-.19.112-.475.002-.295-.015-.388-.09-.476l-.056-.067h-1.169v-2.825c0-1.863-.008-2.84-.023-2.867-.012-.023-.06-.052-.105-.065-.082-.022-.905-.028-.99-.007zm-10.405 1.028c.16.06.33.225.412.4.127.268.191.616.226 1.225.016.275.02.265-.166.369a1.786 1.786 0 01-.886.222c-.645 0-.915-.317-.916-1.079 0-.328.035-.51.142-.721a.84.84 0 01.574-.456 1.29 1.29 0 01.614.04zm5.289-.045c.354.065.586.321.697.768.066.266.086.43.103.807.017.407.037.367-.251.506-.245.118-.499.18-.76.182-.556.006-.825-.203-.922-.716-.049-.259-.032-.682.036-.895.16-.505.572-.75 1.097-.652z"/></svg><svg viewBox="0 0 80 69" id="icon-logo-dun" xmlns="http://www.w3.org/2000/svg"><path opacity=".5" fill-rule="evenodd" clip-rule="evenodd" d="M38.222.039c-.213.03-.723.087-1.133.126-.765.074-2.178.273-2.75.389-.179.035-.543.107-.81.158-.685.132-1.343.282-1.683.384-.16.048-.524.154-.81.235-.61.174-1.628.5-1.812.58a4.391 4.391 0 01-.388.134c-.142.043-.287.103-.32.134-.034.032-.123.057-.198.057a.355.355 0 00-.197.055c-.034.03-.164.091-.288.137a8.75 8.75 0 00-.55.232c-.179.082-.6.27-.94.419-.579.254-2.286 1.119-2.427 1.23a6.46 6.46 0 01-.453.262c-.213.116-.68.397-1.036.624-.355.226-.704.447-.774.49-.07.044-.28.188-.466.322-.187.133-.37.243-.407.243-.038 0-.068.026-.068.059s-.11.126-.243.208a3.21 3.21 0 00-.404.297c-.088.081-.18.148-.205.148-.025 0-.083.037-.13.081a34.71 34.71 0 01-.798.661c-.392.319-.727.598-.744.621a6.297 6.297 0 01-.357.318c-.857.73-2.716 2.64-3.463 3.56-.124.153-.256.311-.293.35-.037.04-.32.408-.63.817-.31.41-.587.774-.615.81a21.92 21.92 0 00-.406.582c-.194.285-.375.527-.402.54-.027.011-.049.048-.049.08 0 .034-.155.3-.344.594-.308.478-.443.7-.833 1.375-.062.107-.194.355-.293.55a3.6 3.6 0 01-.215.389c-.05.047-.788 1.575-1 2.071l-.291.68c-.062.142-.18.434-.26.647-.082.214-.186.476-.232.583a2.953 2.953 0 00-.128.388 1.087 1.087 0 01-.09.26 2.078 2.078 0 00-.129.355 5.11 5.11 0 01-.138.421 4.12 4.12 0 00-.13.42 4.19 4.19 0 01-.127.422c-.03.07-.101.318-.16.55l-.167.647a29.64 29.64 0 00-.544 2.622c-.054.356-.114.69-.133.742-.02.053-.107.81-.194 1.681-.127 1.268-.158 1.943-.157 3.368 0 .98.028 2.045.06 2.365l.13 1.327c.06.623.208 1.694.352 2.557.15.902.885 3.783 1.073 4.208.031.07.09.246.131.388.04.143.106.325.145.405l.071.145h2.417c2.377 0 2.416-.002 2.416-.13 0-.072-.054-.254-.12-.404a15.595 15.595 0 01-.552-1.505l-.296-.933c-.073-.228-.132-.467-.132-.53s-.026-.131-.058-.15c-.032-.02-.073-.146-.09-.28a4.086 4.086 0 00-.11-.502 7.572 7.572 0 01-.133-.55l-.128-.647a23.05 23.05 0 01-.136-.777 776.56 776.56 0 00-.127-.81c-.155-.985-.262-2.7-.261-4.207.001-2.212.189-4.162.58-6.02.075-.356.193-.866.262-1.133.07-.267.174-.675.233-.906a5.5 5.5 0 01.162-.55c.031-.072.131-.377.223-.68.091-.303.222-.696.29-.874.402-1.05.494-1.278.701-1.748.386-.876 1.294-2.664 1.561-3.075.136-.21.217-.342.472-.776.115-.196.248-.395.294-.442.046-.047.084-.11.084-.141 0-.03.036-.094.081-.141a9.39 9.39 0 00.433-.603 9.69 9.69 0 01.39-.55c.022-.018.154-.192.294-.386.657-.906 1.426-1.783 2.556-2.915.943-.943 1.51-1.476 1.98-1.857a37.323 37.323 0 011.223-.96c.1-.071.228-.18.284-.243.056-.062.127-.113.156-.113.03 0 .27-.16.536-.356.264-.196.5-.356.521-.356.023 0 .19-.11.371-.243a6.2 6.2 0 01.462-.313l.374-.21c.315-.182.637-.365.939-.537a35.009 35.009 0 012.282-1.127c.231-.095.537-.223.68-.284.23-.099.37-.156 1.003-.408.089-.036.212-.09.274-.122a.549.549 0 01.202-.057c.049 0 .231-.057.405-.125.476-.188 1.04-.35 2.582-.742 1.083-.276 2.933-.577 4.272-.698 1.165-.104 4.213-.104 5.34.001 2.166.201 4.095.586 6.312 1.259.356.108.675.22.709.25a.32.32 0 00.181.055c.066 0 .24.058.388.13.147.07.305.129.35.129.047 0 .209.056.36.124.153.068.38.167.504.22.841.352 1.313.573 2.169 1.012 1.011.52 1.273.66 1.327.715.018.018.118.076.224.13.6.303 3.013 1.977 3.639 2.524.102.09.372.322.602.518 1.167.997 2.537 2.38 3.397 3.431.247.303.495.6.55.66.12.133.111.121.7.9.257.343.468.654.468.691 0 .038.022.078.049.09.236.105 1.935 3.048 2.497 4.326.055.125.215.478.356.784.14.306.277.627.303.712.025.085.084.242.13.35.045.106.162.426.258.711s.2.576.23.648c.029.07.116.347.194.614.077.267.19.66.253.874.062.214.15.564.194.777.045.214.105.447.134.518.03.071.07.246.09.388.02.143.067.405.102.583.061.302.12.67.262 1.618.031.214.105.957.163 1.651.15 1.802.073 4.736-.167 6.344l-.124.841c-.06.409-.242 1.35-.327 1.683a44.8 44.8 0 00-.134.55c-.128.54-.33 1.287-.386 1.425-.028.07-.144.429-.257.795-.113.367-.305.92-.427 1.23-.121.31-.22.629-.22.71v.145h4.211l.135-.307c.074-.17.173-.453.22-.631.047-.178.149-.528.226-.777.32-1.033.606-2.252.899-3.82.033-.177.093-.57.133-.873.041-.303.1-.696.131-.874.275-1.557.275-6.664 0-8.221a27.32 27.32 0 01-.13-.874c-.126-.938-.322-1.92-.743-3.722a5.265 5.265 0 00-.163-.583 2.068 2.068 0 01-.1-.356 2.242 2.242 0 00-.131-.42 3.121 3.121 0 01-.151-.454c-.058-.236-.177-.578-.588-1.683a6.4 6.4 0 01-.177-.534c-.018-.08-.056-.145-.084-.145-.027 0-.07-.08-.094-.176a3.68 3.68 0 00-.176-.47l-.287-.635c-.084-.188-.154-.37-.154-.404a.064.064 0 00-.065-.063.065.065 0 01-.065-.065c0-.065-.34-.791-.455-.97a1.94 1.94 0 01-.128-.26c-.075-.188-.345-.674-.75-1.351-.157-.263-.285-.503-.285-.534 0-.031-.029-.057-.065-.057a.065.065 0 01-.064-.065c0-.157-1.859-2.811-2.395-3.42-.054-.061-.295-.35-.537-.643-.241-.293-.59-.7-.776-.903-.416-.456-2.14-2.18-2.445-2.445-.123-.107-.37-.326-.55-.486a10.8 10.8 0 00-.54-.453 4.84 4.84 0 01-.321-.263 23.32 23.32 0 00-1.012-.788l-.39-.296c-.356-.272-2.105-1.431-2.363-1.566a.94.94 0 01-.194-.124.876.876 0 00-.194-.12 5.41 5.41 0 01-.356-.2c-.512-.316-2.111-1.14-2.784-1.435a230.7 230.7 0 01-.647-.286 22.41 22.41 0 00-.712-.296c-.214-.084-.403-.172-.42-.196a.478.478 0 00-.195-.08 40.632 40.632 0 01-1.392-.459A32.807 32.807 0 0044.696.225L43.498.09c-.765-.086-4.749-.125-5.276-.051zm4.748 7.227c-.128.148-.96 1.629-.96 1.708 0 .033-.025.06-.053.06-.03 0-.093.101-.142.226-.049.124-.105.226-.126.226-.02 0-.078.095-.128.21a1.1 1.1 0 01-.131.243c-.064.053-1.11 1.893-1.088 1.915.01.011.208.05.438.087.492.08.476.09.824-.545.236-.431.259-.453.472-.445.426.016 1.728.15 1.83.19.103.04.369.755.369.992 0 .146.257.247.712.279.289.02.29.018.27-.175-.01-.106-.047-.222-.08-.255a.301.301 0 01-.06-.183c0-.067-.07-.33-.157-.586a7.074 7.074 0 01-.201-.708c-.025-.134-.072-.26-.103-.279-.032-.02-.058-.093-.058-.163s-.054-.294-.12-.498a81.45 81.45 0 01-.57-1.875c-.123-.42-.138-.433-.575-.5-.206-.032-.283-.016-.363.076zm-6.801.055c-.02.02-.35.078-.734.128s-.721.115-.75.143c-.05.05.083 1.266.2 1.83.034.16.11.626.168 1.035.236 1.643.283 1.977.286 2.027.001.03.054.04.116.022.062-.017.255-.05.428-.074l.316-.043-.042-.302-.1-.723c-.033-.232-.08-.57-.104-.753l-.045-.33.313-.048c.281-.042.326-.031.433.105l.196.25c.043.053.296.394.563.757.267.363.524.676.572.695.136.056.982-.04.982-.113 0-.057-.317-.474-.537-.707a5.19 5.19 0 01-.255-.32 5.042 5.042 0 00-.26-.324c-.197-.208-.437-.522-.437-.572 0-.031.056-.074.124-.095.161-.052.548-.413.649-.606.109-.209.095-1.066-.02-1.288-.27-.518-.703-.73-1.492-.73-.294 0-.55.017-.57.036zm.914.77c.417.216.527.731.217 1.018-.202.188-.311.226-.977.34-.462.079-.476.077-.528-.058-.076-.202-.211-1.14-.17-1.181.05-.05.806-.196 1.063-.205a.945.945 0 01.395.086zm6.251.44c.21.782.367 1.413.406 1.628l.034.187-.602-.047c-.33-.026-.67-.073-.754-.105l-.152-.058.397-.762.456-.875c.082-.155.168-.142.215.032zm5.472-.088c0 .04-.061.212-.136.38-.303.684-.37.84-.512 1.181a85.647 85.647 0 00-.481 1.165c-.094.232-.198.48-.231.55-.21.458-.38.888-.419 1.062-.035.161-.02.209.075.24.065.022.206.076.312.122l.615.26.62.264c.38.165 1.102.239 1.56.16 1.034-.18 1.67-.813 1.98-1.967.123-.456.128-.547.055-.901-.205-.993-.69-1.503-1.917-2.02-.32-.136-.706-.301-.857-.369-.369-.164-.664-.22-.664-.127zm-18.578.533a5.217 5.217 0 00-.55.198c-.384.162-.59.248-1.069.445-.584.24-.58.221-.23 1 .182.403.35.79.522 1.198l.259.615c.045.106.143.332.219.5.075.17.137.33.136.357 0 .027.057.165.126.308.07.142.185.394.257.56l.13.302.764-.322c1.17-.494 1.389-.609 1.674-.876.475-.444.605-1.007.358-1.541-.218-.473-.48-.666-.983-.725-.207-.025-.319-.069-.319-.126 0-.049.026-.088.057-.088.104 0 .224-.398.217-.715-.012-.53-.32-.93-.831-1.083-.305-.09-.42-.092-.737-.007zm20.252.92c.048.039.15.101.224.139.075.037.247.213.382.39.232.308.244.347.244.813 0 .389-.032.558-.16.821-.511 1.061-1.492 1.262-2.86.585l-.27-.133.133-.299c.163-.363.31-.702.505-1.172.157-.375.289-.689.489-1.159.2-.472.224-.48.757-.255.257.11.508.23.556.27zm-19.675.017c.165.138.2.215.2.44 0 .353-.203.556-.814.815-.527.223-.558.207-.789-.387-.234-.604-.242-.586.34-.82.633-.256.807-.264 1.063-.048zm.95 1.763c.276.23.364.609.218.93-.066.144-.452.44-.573.44-.051 0-.3.113-.736.333-.095.048-.14-.002-.28-.315l-.253-.568c-.183-.41-.178-.417.485-.686.678-.275.935-.306 1.14-.134zm23.553.712c-.33.155-.726.611-.78.902-.09.478.145 1.243.462 1.506.052.043.095.107.095.142 0 .034.061.148.136.253.132.186.193.668.102.815-.096.156-.505.287-.76.244-.14-.024-.255-.07-.255-.102 0-.032-.044-.059-.098-.059-.126 0-.47-.54-.523-.82-.044-.235-.07-.243-.567-.175-.297.041-.3.044-.3.285 0 .44.504 1.128 1.071 1.46.623.365 1.5.339 1.906-.057.408-.397.55-.678.544-1.075-.006-.385-.13-.688-.502-1.23-.472-.686-.51-.963-.168-1.248.12-.1.272-.182.337-.182.359 0 .967.534 1.044.917.029.144.067.184.152.16.063-.017.254-.05.424-.073l.31-.042-.044-.239a1.377 1.377 0 00-.173-.432c-.2-.299-.694-.73-1.018-.886-.406-.197-1.048-.226-1.395-.064zm-17.765 2.824a6.924 6.924 0 00-3.56 1.784c-.974.918-1.425 1.372-1.425 1.432 0 .069.145.226 1.322 1.439l.683.703.438-.42c1.078-1.036 1.226-1.173 1.409-1.312 1.294-.981 3.167-.98 4.47.002.595.45 1.123 1.18 1.308 1.813.118.402.21.92.21 1.184 0 .482-.211 1.256-.471 1.729-.04.07-.109.202-.155.29-.1.194-.416.529-1.303 1.381-.363.35-.66.66-.66.688 0 .029.446.512.991 1.073.85.875 1.009 1.011 1.11.955.266-.149 1.973-1.915 2.249-2.327.777-1.16 1.22-2.568 1.215-3.86-.003-.632-.3-2.12-.455-2.275a.25.25 0 01-.062-.154c0-.051-.09-.27-.2-.489a6.746 6.746 0 00-5.028-3.657c-.582-.09-1.528-.08-2.086.021zm-17.155.37c-.195.147-.366.293-.378.324a.569.569 0 01-.097.136c-.172.182-.258.457-.258.82 0 .314.032.434.174.637.2.29.585.499 1.037.563l.315.044-.042.371c-.065.575.05.987.366 1.303.146.146.349.282.45.302.101.02.2.063.219.093.097.158.838-.002 1.192-.258.574-.413.828-.814.867-1.366.014-.21.046-.413.069-.45.024-.039.2-.07.39-.07.336 0 .362-.013.677-.338.18-.186.328-.361.328-.389 0-.027-.332-.05-.738-.05-.642 0-.743-.015-.783-.113-.085-.213-.227-.8-.227-.937 0-.115-.118-.539-.174-.625-.041-.064-.603.623-.603.738 0 .073.038.28.085.459.046.18.073.36.059.402-.017.05-.208.076-.562.076h-.536l.005-.599c.004-.527-.014-.626-.15-.83a1.14 1.14 0 00-.985-.513c-.302 0-.387.033-.7.27zm39.504.269c-.15.113-.272.229-.273.257-.002.028.199.301.445.607l.448.557-.14.142a5.18 5.18 0 01-.432.362c-.16.122-.35.275-.42.341-.072.066-.254.21-.405.32-.152.109-.275.223-.275.252 0 .03-.042.054-.094.054-.051 0-.131.052-.178.116a2.038 2.038 0 01-.343.305 5.167 5.167 0 00-.365.289c-.059.054-.21.183-.337.286-.24.194-.243.266-.018.54.31.38.159.455 1.92-.958 1.484-1.191 1.742-1.375 1.747-1.242 0 .027.12.18.265.34.144.16.308.358.363.44.19.28.298.286.587.035l.265-.232-.207-.267a4.557 4.557 0 00-.245-.3 64.209 64.209 0 01-.963-1.197c-.508-.64-.958-1.185-1-1.21-.04-.023-.197.05-.345.163zm-38.534.43c.17.172.226.423.156.707-.056.229-.065.234-.405.254-.423.024-.656-.143-.656-.47 0-.486.59-.806.905-.49zm2.107 1.818c.023.037.021.216-.003.397a.92.92 0 01-.26.563c-.198.216-.242.234-.572.23-.315-.002-.376-.025-.507-.19-.18-.227-.23-.43-.194-.793l.027-.275h.733c.441 0 .75.027.776.068zm8.506 2.109c-.002.03-.002 1.016.001 2.189l.006 2.132.468.486a535.257 535.257 0 002.466 2.559 1644.51 1644.51 0 015.776 5.986c.353.37.976 1.016 1.386 1.434 2.065 2.112 3.141 3.255 3.158 3.355.012.07-.252.372-.714.82-2.922 2.83-2.89 2.801-3.55 3.162a4.92 4.92 0 01-2.966.554c-1.283-.158-2.353-.768-3.243-1.848-.339-.412-.623-.968-.84-1.644-.134-.416-.156-.61-.155-1.36.002-.725.027-.95.147-1.327.163-.507.533-1.28.742-1.55.15-.193 1.152-1.206 2.136-2.16l.621-.601-.188-.207c-.614-.674-1.868-1.923-1.932-1.923-.094 0-2.26 2.086-2.764 2.66-.26.298-.745 1.002-.745 1.084 0 .035-.022.075-.048.086-.062.028-.41.752-.585 1.22-.341.906-.428 1.456-.432 2.718-.002 1.059.015 1.27.153 1.813.086.338.21.738.275.89.066.15.12.297.12.325 0 .073.509 1.047.655 1.255.067.094.121.203.121.242 0 .04.025.071.054.071.03 0 .148.13.262.29.452.629 1.64 1.68 2.245 1.985.105.053.249.128.32.167.141.076.579.277.941.432.212.09.342.127 1.066.306.757.187 2.644.186 3.382-.002.151-.039.384-.096.518-.127.308-.07.822-.275 1.44-.573.924-.446 1.422-.87 4.239-3.605.498-.484.923-.88.944-.88.022 0 .387.355.811.787l1.531 1.562c.419.427.76.8.76.83 0 .03.074.074.164.097.136.034.223-.02.534-.322l.954-.93c.762-.742.78-.766.67-.88-.049-.049-.641-.665-1.318-1.37-1.8-1.874-3.926-4.075-5.47-5.66a119.3 119.3 0 01-1.284-1.339c-.296-.316-.923-.968-1.391-1.448a612.79 612.79 0 01-2.244-2.321 845.68 845.68 0 00-2.137-2.213c-.409-.422-.99-1.023-1.29-1.337-.3-.314-.925-.965-1.391-1.447-1.883-1.95-3.787-3.925-3.962-4.11-.242-.257-.411-.384-.417-.313zm31.82 1.176a7.639 7.639 0 01-.614.301 60.66 60.66 0 00-1.09.5c-.367.172-.679.313-.692.313-.022 0-1.662.78-1.697.806-.032.025.205.59.29.693.085.1.108.099.329-.014.956-.484 1.476-.712 1.59-.696.093.014.155.1.21.291l.079.272-.675.905c-.371.497-.674.957-.672 1.023.001.065.084.288.184.496.17.356.187.372.29.268.09-.09.503-.678.786-1.12.035-.056.115-.16.178-.23.062-.072.113-.163.113-.203 0-.116.337-.4.369-.312.057.162.508.436.784.478.579.087 1.245-.209 1.503-.67.119-.21.137-.326.115-.746-.014-.293-.073-.604-.143-.756a85.921 85.921 0 00-.362-.777 26.178 26.178 0 01-.332-.728c-.102-.243-.25-.269-.542-.094zm.346 1.47c.307.622.334.916.11 1.182-.356.424-.892.302-1.184-.27-.155-.302-.404-.831-.404-.857 0-.036.81-.412.889-.412.045 0 .082-.03.082-.069 0-.038.064-.06.142-.048.103.015.203.144.365.474zm-16.848.794c-.055.054-.042 2.949.013 3.032.026.04.157.11.29.159.134.047.243.11.243.138 0 .029.031.052.07.052.176 0 .87.587 1.386 1.172.254.288.727 1.123.782 1.378.023.11.067.232.097.27.117.145.205 1.055.172 1.776-.055 1.185-.451 2.13-1.277 3.042a4.952 4.952 0 00-.371.44c-.02.06 1.953 2.085 2.031 2.085.078 0 .578-.523.9-.939.137-.178.28-.353.317-.388a1.19 1.19 0 00.165-.26 1.66 1.66 0 01.13-.226c.223-.222.747-1.51.949-2.33.171-.699.171-2.798 0-3.496-.155-.627-.506-1.576-.696-1.877a2.095 2.095 0 01-.13-.275c-.04-.098-.093-.178-.12-.178-.026 0-.082-.076-.124-.17-.248-.543-1.27-1.622-2.076-2.19-.533-.375-1.47-.869-1.914-1.008a8.048 8.048 0 01-.388-.131c-.207-.08-.41-.115-.45-.076zm-32.354.549c-.086.303-.086.352.002.453.054.062.143.113.196.113.097 0 2.061.604 2.31.71.071.03.268.09.437.134.307.079.373.144.235.23-.072.044-1.23.374-1.675.477a26.41 26.41 0 00-.842.227c-.338.096-.794.217-1.013.27-.467.113-.55.195-.685.67-.055.197-.12.404-.143.461-.055.134-.027.145 2.845 1.032.356.11.705.224.776.254.072.03.269.09.439.134.17.044.325.105.344.136.019.03.098.055.176.055.156 0 .285-.222.345-.595.04-.243.063-.23-.883-.506a9.827 9.827 0 01-.615-.196 4.63 4.63 0 00-.356-.121 26.635 26.635 0 01-.62-.199 3.39 3.39 0 00-.46-.13 1.5 1.5 0 01-.318-.104l-.249-.104.16-.082c.088-.045.32-.12.516-.165.196-.046.487-.124.648-.175.16-.05.407-.117.55-.147.37-.078 2.105-.556 2.303-.635.132-.052.197-.159.308-.51.17-.54.172-.603.023-.603a.317.317 0 01-.178-.053c-.034-.03-.192-.092-.352-.139-.16-.046-.452-.136-.648-.198-.196-.063-.88-.278-1.521-.478-.64-.2-1.296-.408-1.456-.46-.454-.15-.49-.135-.599.244zm51.025 3.456c-.231.05-.595.119-.809.153-.214.035-.534.095-.712.132-.178.038-.47.092-.647.121-.178.03-.625.115-.992.191a8.712 8.712 0 01-.785.138c-.22 0-.252.134-.163.68.047.285.119.663.16.841.043.178.101.484.13.68.07.466.233 1.162.283 1.212.021.021.113.005.204-.036a.942.942 0 01.324-.076c.178 0 .19-.077.097-.582l-.186-1.019c-.072-.4-.15-.755-.17-.79-.057-.092.153-.182.618-.266.79-.143.706-.22.908.813.098.498.18.99.183 1.093.003.184.007.186.304.145.165-.022.34-.04.388-.04.115 0 .111-.226-.014-.875-.18-.93-.23-1.343-.172-1.402.061-.061.716-.183.987-.183.153 0 .17.033.28.598.066.33.133.686.15.793.017.107.061.351.098.542l.067.349.326-.04c.18-.02.342-.054.363-.074.06-.061.017-.485-.114-1.1a34.547 34.547 0 01-.198-1.004c-.04-.231-.107-.574-.149-.76-.086-.386-.073-.382-.759-.234zM13.138 32.1v.41l.982.043c.54.024 1.315.043 1.724.043.628 0 .786.021 1.018.137.368.184.549.51.549.99 0 .475-.212.812-.637 1.013-.295.14-.338.142-1.969.098l-1.667-.045v.84l.567.024c1.445.06 2.868.05 3.165-.022.511-.126.864-.408 1.164-.931.171-.3.185-.375.186-1.004 0-.639-.012-.699-.193-1.002-.227-.378-.305-.461-.655-.69-.378-.248-.954-.314-2.709-.314h-1.525v.41zm49.303 2.227c-.033.432-.123 2.27-.134 2.727-.004.14.027.157.335.182.307.024.347.012.404-.122.035-.082.086-.644.113-1.25l.05-1.1.646.018c.355.01.668.04.695.068.028.027.019.524-.02 1.104-.037.58-.05 1.074-.027 1.096.022.023.207.042.41.043l.368.002.04-.939.048-1.119.009-.18.598.018.6.019.017.453c.01.25-.005.767-.034 1.152-.029.384-.035.727-.014.761.022.035.197.07.39.079l.352.015.076-1.133c.041-.623.078-1.355.08-1.626l.006-.493-.89-.045a77.766 77.766 0 01-2.02-.138 27.586 27.586 0 00-1.596-.093h-.465l-.037.501zm-46.552 3.997c-.747.203-1.372.658-1.619 1.177-.141.299-.29.886-.29 1.148 0 .198.183 1.033.327 1.495.033.107.12.405.193.663.105.372.158.47.256.47.067 0 .138-.026.157-.057.02-.03.152-.075.295-.097.144-.023.384-.082.536-.13.151-.048.523-.152.825-.23.303-.077.754-.198 1.004-.268.249-.07.759-.207 1.132-.305.646-.169.681-.187.7-.358.012-.1-.005-.216-.038-.258-.032-.043-.095-.223-.138-.401-.262-1.07-.382-1.394-.68-1.845-.595-.903-1.615-1.288-2.66-1.004zm1.374.945c.343.19.61.461.772.785.21.421.44 1.214.37 1.283-.032.032-.35.136-.705.23-1.304.343-1.489.394-1.584.43-.167.066-.699.18-.835.18-.195 0-.395-.727-.395-1.432 0-.603.109-.862.491-1.18.506-.42 1.406-.561 1.886-.296zm48.738.9c-.053.13-.116.344-.14.475-.025.132-.07.255-.102.274-.032.02-.058.108-.058.196 0 .291-.106.284-1.23-.084a9.939 9.939 0 00-.485-.147c-.107-.028-.456-.13-.777-.228-.32-.097-.81-.243-1.086-.324l-.504-.147-.088.21a2.872 2.872 0 00-.13.404c-.048.219-.068.207.772.458l1.295.392 1.343.404c.473.14.502.159.502.331 0 .1-.028.234-.063.296-.055.1-.328.986-.303.986.005 0 .163.058.35.13l.341.13.092-.211c.051-.116.17-.487.266-.826.095-.338.197-.673.227-.744.03-.071.088-.26.13-.42.04-.161.1-.35.131-.422.076-.172.264-.874.276-1.028.007-.092-.072-.148-.328-.232l-.336-.111-.095.237zm-61.763 8.38c-1.856.315-3.314 1.546-3.953 3.337C.022 52.624 0 53.133 0 58.36c0 3.937.02 5.143.09 5.6.124.813.277 1.226.753 2.035.051.087.18.26.287.385.73.851 1.437 1.327 2.525 1.698l.453.154h35.965c26.724 0 35.989-.019 36.056-.073a.92.92 0 01.318-.118c.124-.024.503-.18.841-.346.527-.259.706-.393 1.246-.933.348-.346.632-.675.632-.729 0-.054.029-.099.064-.099.036 0 .065-.044.065-.097 0-.053.03-.097.065-.097s.065-.041.065-.091c0-.05.057-.203.127-.34a6.15 6.15 0 00.274-.702l.147-.453.02-5.438c.021-5.483.002-6.077-.214-6.738-.49-1.497-1.7-2.73-3.167-3.227-.912-.308 1.011-.293-36.642-.285-26.956.005-35.386.025-35.732.084zm51.637 1.593c.473.095.879.301 1.18.6.247.244.252.257.13.344-.069.05-.177.134-.24.186-.165.14-.282.12-.484-.083-.17-.171-.273-.23-.683-.395-.479-.193-1.239.006-1.644.429l-.279.29v.533c0 .525.004.536.236.775.206.212.935.619 1.109.619.14 0 1.037.316 1.277.45.355.2.475.312.69.647.17.267.184.334.184.933 0 .58-.017.674-.172.942-.226.389-.456.606-.877.828-.326.172-.385.18-1.184.178-.755-.003-.876-.02-1.166-.16a3.416 3.416 0 01-.408-.223c-.212-.17-.595-.569-.595-.621 0-.032.08-.11.178-.172.098-.063.216-.151.264-.196.123-.117.154-.104.335.145.089.123.213.24.275.262.062.02.113.06.113.088 0 .053.297.151.777.257.285.063.888-.024 1.111-.16.54-.33.8-.926.64-1.467-.146-.496-.426-.687-1.57-1.07-.417-.14-.83-.302-.92-.36a.692.692 0 00-.219-.107c-.113 0-.546-.493-.682-.777-.194-.403-.19-1.2.007-1.621.39-.829 1.54-1.31 2.617-1.094zm-30.567.32c1.033.35 1.604.85 2.037 1.78.25.536.367 1.308.293 1.926-.06.498-.243 1.174-.326 1.203-.034.012-.062.065-.062.118 0 .128-.318.584-.6.86a3.132 3.132 0 01-.889.587l-.291.124c-.341.153-.816.21-2.016.244-.716.02-1.408.017-1.537-.007l-.234-.044v-3.45c0-1.897.022-3.472.049-3.5.026-.027.747-.035 1.602-.017 1.375.03 1.602.05 1.974.177zm7.64 2.363c.033 2.515.033 2.526.194 2.884.298.665.606.93 1.238 1.062.758.158 1.488-.09 1.86-.635.389-.57.461-1.166.461-3.805v-2.07l.307.02.308.02.02 2.362c.022 2.491-.016 3.004-.26 3.508-.182.377-.668.874-1.055 1.078-.304.161-.376.172-1.197.171-.789 0-.906-.016-1.198-.156-.48-.23-.946-.739-1.167-1.273l-.186-.447-.023-2.549c-.013-1.401-.008-2.59.012-2.641.026-.067.122-.088.344-.074l.308.02.033 2.525zm10.4-2.412c.119.133.418.547.668.924.053.08.186.274.295.429a300.595 300.595 0 012.456 3.54c.036.056.096.138.135.18.039.043.166.226.282.408.116.18.237.33.269.33.032 0 .064-1.299.074-2.962l.017-2.962.247-.02c.457-.038.432-.236.432 3.516 0 2.929-.013 3.393-.097 3.463-.214.178-1.003-.012-1.003-.242 0-.032-.051-.114-.113-.183-.109-.12-.524-.705-.728-1.025-.199-.311-.75-1.09-.89-1.257-.08-.096-.146-.208-.146-.25 0-.04-.023-.084-.05-.096-.05-.022-.338-.423-1.038-1.446a24.576 24.576 0 00-.507-.718c-.084-.11-.153-.234-.153-.275 0-.041-.03-.075-.066-.075-.037 0-.1-.073-.14-.162-.04-.089-.098-.162-.128-.162s-.054 1.324-.054 2.943v2.942l-.221.041a.909.909 0 01-.356 0c-.135-.044-.136-.053-.136-3.492 0-1.896.02-3.467.044-3.491.023-.024.208-.043.41-.043.297 0 .39.027.496.145zm16.807.016c.382.115.773.416 1.004.77.155.239.173.327.173.849 0 .55-.012.6-.206.879-.28.402-.608.639-1.046.753-1.266.332-2.423-.94-1.986-2.18.123-.346.441-.75.704-.893.508-.276.877-.324 1.357-.178zm-.91.27c-.08.017-.146.058-.146.091 0 .033-.042.06-.092.06-.141 0-.6.558-.645.785-.109.545-.024.948.271 1.293.7.816 1.907.62 2.349-.384.156-.354.156-.636.001-.992-.245-.565-.624-.839-1.199-.867a3.006 3.006 0 00-.54.013zm-36.817.289c-.019.049-.027 1.342-.017 2.872l.016 2.784.655.018c.996.028 1.84-.11 2.424-.395.346-.17.968-.67.968-.778 0-.03.053-.132.12-.227.297-.427.458-1.34.344-1.952-.221-1.188-.874-1.91-2.023-2.237-.5-.143-2.44-.21-2.487-.085zm37.888.21c.07.071.11.214.11.405 0 .24-.033.322-.178.447-.219.188-.22.22-.017.457.09.104.162.225.162.27 0 .044.03.08.065.08s.065.03.065.065-.083.065-.184.065c-.125 0-.208-.047-.259-.146-.22-.429-.404-.631-.575-.631-.137 0-.148.027-.148.388 0 .345-.014.389-.129.389-.123 0-.13-.044-.13-.928 0-.51.022-.95.05-.978.026-.027.275-.037.553-.021.36.02.536.06.615.138zm-.946.442c.018.253.037.28.205.3a.9.9 0 00.375-.058c.162-.067.188-.11.171-.28-.019-.197-.027-.202-.395-.221l-.376-.02.02.279zm-28.365 3.322v.293l-1.214-.018-1.214-.017-.02-.275-.02-.275h2.468v.292zm10.02-.017l-.02.275h-2.394l-.02-.275-.02-.275h2.475l-.02.275zm11.005-.002c.026.313.001.318-1.38.295l-1.1-.018-.02-.184c-.044-.375-.059-.37 1.265-.352l1.215.018.02.24zm-24.866 4.284c.185.049.425.136.534.193l.38.2c.098.051.261.18.362.285.182.19.183.193.063.355a.991.991 0 01-.267.243c-.13.071-.17.058-.356-.113-.435-.402-1.043-.608-1.789-.604-1.35.007-2.22.597-2.718 1.842-.22.549-.233 1.703-.028 2.236.34.883.748 1.344 1.51 1.707.414.197.436.2 1.424.2.955 0 1.021-.008 1.377-.175l.374-.175-.018-1.12-.018-1.12-.792-.017c-.772-.018-.793-.022-.83-.172a.956.956 0 01-.017-.305l.021-.152 1.182-.018 1.18-.018v3.363l-.306.139c-.744.335-1.297.447-2.213.449-.914.001-1.256-.07-1.934-.404-.33-.162-1.113-.861-1.113-.993 0-.05-.023-.09-.051-.09-.068 0-.358-.591-.508-1.037-.17-.503-.17-1.765 0-2.265.236-.692.558-1.215.997-1.62.23-.213.46-.387.509-.387.049 0 .089-.022.089-.05 0-.067.484-.284.841-.377.416-.108 1.71-.108 2.115 0zm8.85-.014c.44.127 1.142.67 1.053.814a1.83 1.83 0 01-.296.239l-.26.18-.164-.195c-.269-.32-.667-.468-1.26-.468-.283 0-.533.03-.555.065-.021.036-.092.065-.157.065s-.237.112-.382.25c-.327.306-.413.642-.315 1.22.043.253.15.404.475.669.155.126.695.339 1.317.519 1.223.354 1.749.923 1.749 1.893 0 .857-.456 1.51-1.287 1.846-.276.111-.482.14-.985.14-.707 0-1.166-.127-1.656-.462-.237-.161-.539-.495-.539-.594 0-.02.132-.124.294-.232l.293-.198.35.35c.287.287.412.363.7.428 1.131.253 2.021-.24 2.097-1.162.023-.277 0-.415-.095-.587-.15-.272-.59-.587-.985-.706-1.293-.39-2.107-.84-2.231-1.233-.024-.074-.065-.134-.093-.134-.028 0-.086-.203-.13-.45-.191-1.069.323-1.907 1.386-2.26.274-.09 1.358-.089 1.676.003zm-21.926.143c.502.134.92.365 1.117.62.54.695.517 1.767-.05 2.366-.252.264-.465.385-.957.54l-.351.112.26.404c.144.222.261.418.261.435 0 .018.128.228.284.468.155.239.355.566.443.726.088.16.282.479.43.708.149.229.26.448.248.485-.027.082-.39.127-.598.074-.134-.034-.22-.146-.557-.733a904.13 904.13 0 00-.24-.42c-.268-.467-.563-.925-.608-.945-.027-.012-.049-.057-.049-.1 0-.1-.57-1.027-.67-1.091-.135-.086-.991-.057-1.069.036-.046.057-.077.634-.089 1.667l-.017 1.581-.207.02a.716.716 0 01-.34-.05c-.131-.07-.133-.112-.133-3.49 0-1.88.02-3.436.044-3.46.085-.086 2.5-.046 2.848.047zm7.324.25l.02.307h-3.633v2.395h1.58c.87 0 1.627.018 1.684.04.072.027.102.123.102.322v.283l-1.667.017-1.667.018-.017 1.342-.017 1.342 1.862.017 1.862.018.02.252c.014.158-.01.272-.064.306-.12.076-4.308.072-4.355-.004-.05-.08-.049-6.856 0-6.936.024-.037.873-.054 2.154-.044l2.116.017.02.307zm9.874 0c.053.441.042 5.863-.013 6.327l-.042.356h-.582l-.017-3.512-.017-3.511h.63l.041.34zm11.986-.21a.763.763 0 010 .324l-.043.193h-2.32v3.132c0 3.473.022 3.302-.433 3.264l-.247-.02-.017-3.188-.017-3.188h-2.394v-.647h2.715c2.668 0 2.715.002 2.756.13zm5.327.208l.02.307-1.8.017-1.8.017-.018 1.068c-.01.588-.005 1.127.013 1.198.03.126.078.129 1.627.111 1.138-.013 1.622.003 1.686.056.05.042.09.188.09.326v.251h-3.35l-.04.146c-.057.215-.047 2.398.012 2.491.038.06.519.085 1.893.097l1.842.018.02.252c.013.158-.01.272-.064.306-.143.09-4.286.07-4.378-.021-.058-.059-.077-.908-.077-3.426 0-1.841.018-3.394.04-3.45.035-.093.267-.102 2.152-.087l2.113.017.02.306zm4.43-.244c1.065.323 1.473.818 1.473 1.783 0 .61-.117.9-.512 1.273-.23.216-.88.54-1.084.54-.101 0-.116.167-.02.226.035.023.123.148.195.28.071.13.203.354.292.497.089.142.18.302.204.356a.417.417 0 00.084.13c.039.03.115.156.76 1.25.15.255.275.501.275.546 0 .053-.102.08-.307.078-.31-.002-.473-.078-.553-.257a4.418 4.418 0 00-.204-.355 20.73 20.73 0 01-.295-.486 24.954 24.954 0 00-.294-.486 5.622 5.622 0 01-.224-.388 5.888 5.888 0 00-.222-.388 25.117 25.117 0 01-.367-.622l-.207-.363-.446-.013c-.761-.022-.7-.16-.7 1.569 0 .825-.02 1.567-.041 1.649-.035.132-.074.147-.34.13l-.298-.02-.017-3.43c-.01-1.888-.003-3.468.014-3.513.047-.122 2.423-.11 2.834.014zm7.287.244l.02.307-1.8.017-1.8.017v2.331l1.618.032c.89.018 1.655.056 1.7.085.044.029.08.167.08.307v.255h-1.676c-1.469 0-1.68.013-1.715.103-.022.056-.04.667-.04 1.358v1.256l1.894.017 1.893.018.02.214c.04.408.08.4-2.223.4-1.15 0-2.137-.017-2.193-.039-.092-.035-.103-.403-.103-3.485 0-1.895.02-3.465.044-3.49.025-.023.993-.035 2.153-.026l2.108.017.02.306zm4.569-.268c.626.164.803.226 1.148.4.705.356 1.362 1.205 1.59 2.054.109.4.104 1.575-.007 1.992-.373 1.399-1.393 2.267-2.907 2.471-.718.097-2.78.09-2.879-.01-.058-.058-.077-.92-.077-3.484 0-1.874.019-3.426.043-3.45.072-.072 2.801-.049 3.089.027zm4.559.237c-.016.083-.096.119-.296.133l-.275.02v.775c0 .64-.017.782-.1.814-.19.072-.212-.024-.218-.933l-.006-.663h-.188c-.255 0-.394-.06-.394-.169 0-.072.152-.09.749-.09.679 0 .747.01.728.113zm.8.032c.097.176.313.739.358.935.056.245.199.229.28-.032.075-.242.28-.741.378-.919.03-.053.146-.106.26-.117l.205-.02-.018.925c-.016.815-.031.929-.129.947-.099.02-.113-.057-.13-.678l-.018-.7-.14.29c-.076.16-.213.467-.304.68-.09.214-.203.397-.249.406-.047.01-.136-.116-.206-.291a31.069 31.069 0 00-.34-.827c-.038-.088-.062.049-.074.431-.02.581-.092.743-.297.664-.09-.035-.105-.166-.105-.897 0-.47.02-.875.043-.899.103-.103.408-.039.486.102zm-58.305.387c-.019.048-.026.582-.016 1.186l.018 1.098.906.019c.98.02 1.392-.05 1.628-.275.507-.483.555-1.136.12-1.643-.288-.336-.634-.43-1.667-.453-.76-.016-.962-.002-.989.068zm38.938 1.114v1.202l.955-.005c.541-.003 1.056-.038 1.187-.08a1.13 1.13 0 00.644-1.645c-.113-.202-.245-.318-.514-.452-.339-.17-.423-.182-1.317-.201l-.955-.021v1.202zm11.617-1.112c-.017.044-.023 1.333-.014 2.864l.017 2.784.81.02c1.408.035 2.37-.263 3.016-.936.192-.2.35-.404.35-.452 0-.049.021-.089.048-.089.067 0 .185-.395.278-.93.152-.873-.174-1.965-.743-2.49-.37-.34-1.023-.65-1.644-.78-.492-.103-2.077-.096-2.118.009z"/></svg><svg viewBox="0 0 242 37" id="icon-logotype" xmlns="http://www.w3.org/2000/svg"><path d="M37.028 8.327c.428 1.377.546 1.66.28 3.58C35.853 22.44 25.51 36.444 19.067 36.982l.018-.001c-.889-2.244-2.599-5.8-2.524-11.115.068-4.776 2.727-7.433 2.727-7.433s5.487-.32 10.793-2.96c4.104-2.043 6.573-6.504 6.947-7.146z"/><path d="M37.028 8.327c.428 1.377.546 1.66.28 3.58C35.853 22.44 25.51 36.444 19.067 36.982l.018-.001c-.889-2.244-2.599-5.8-2.524-11.115.068-4.776 2.727-7.433 2.727-7.433s5.487-.32 10.793-2.96c4.104-2.043 6.573-6.504 6.947-7.146z" fill-opacity=".5"/><path d="M37.028 8.327c.428 1.377.546 1.66.28 3.58C35.853 22.44 25.51 36.444 19.067 36.982l.018-.001c-.889-2.244-2.599-5.8-2.524-11.115.068-4.776 2.727-7.433 2.727-7.433s5.487-.32 10.793-2.96c4.104-2.043 6.573-6.504 6.947-7.146z" fill-opacity=".5"/><path d="M37.028 8.327c.428 1.377.546 1.66.28 3.58C35.853 22.44 25.51 36.444 19.067 36.982l.018-.001c-.889-2.244-2.599-5.8-2.524-11.115.068-4.776 2.727-7.433 2.727-7.433s5.487-.32 10.793-2.96c4.104-2.043 6.573-6.504 6.947-7.146z"/><path d="M36.77 7.612l-.024-.057c-.264.512-2.542 4.198-7.916 6.337-5.745 2.287-9.024 1.58-9.024 1.58s-3.278-4.555-7.774-7.145C8.294 6.173 2.941 5.887 1.286 6.44 4.224 1.788 10.748 0 19.066 0c8.32 0 15.342 1.926 17.704 7.612z"/><path d="M36.77 7.612l-.024-.057c-.264.512-2.542 4.198-7.916 6.337-5.745 2.287-9.024 1.58-9.024 1.58s-3.278-4.555-7.774-7.145C8.294 6.173 2.941 5.887 1.286 6.44 4.224 1.788 10.748 0 19.066 0c8.32 0 15.342 1.926 17.704 7.612z" fill-opacity=".5"/><path d="M36.77 7.612l-.024-.057c-.264.512-2.542 4.198-7.916 6.337-5.745 2.287-9.024 1.58-9.024 1.58s-3.278-4.555-7.774-7.145C8.294 6.173 2.941 5.887 1.286 6.44 4.224 1.788 10.748 0 19.066 0c8.32 0 15.342 1.926 17.704 7.612z" fill-opacity=".5"/><path d="M36.77 7.612l-.024-.057c-.264.512-2.542 4.198-7.916 6.337-5.745 2.287-9.024 1.58-9.024 1.58s-3.278-4.555-7.774-7.145C8.294 6.173 2.941 5.887 1.286 6.44 4.224 1.788 10.748 0 19.066 0c8.32 0 15.342 1.926 17.704 7.612z"/><path d="M1.115 6.724a.341.341 0 00-.002.005c1.775.028 5.158.842 8.621 2.555 5.374 2.657 7.47 7.433 7.47 7.433s-3.211 4.037-2.975 8.813c0 3.97 3.11 9.262 4.204 11.456C11.993 36.51 1.6 22.467.14 11.907c-.377-2.725.018-3.515.974-5.183z"/><path d="M1.115 6.724a.341.341 0 00-.002.005c1.775.028 5.158.842 8.621 2.555 5.374 2.657 7.47 7.433 7.47 7.433s-3.211 4.037-2.975 8.813c0 3.97 3.11 9.262 4.204 11.456C11.993 36.51 1.6 22.467.14 11.907c-.377-2.725.018-3.515.974-5.183z" fill-opacity=".5"/><path d="M1.115 6.724a.341.341 0 00-.002.005c1.775.028 5.158.842 8.621 2.555 5.374 2.657 7.47 7.433 7.47 7.433s-3.211 4.037-2.975 8.813c0 3.97 3.11 9.262 4.204 11.456C11.993 36.51 1.6 22.467.14 11.907c-.377-2.725.018-3.515.974-5.183z" fill-opacity=".5"/><path d="M1.115 6.724a.341.341 0 00-.002.005c1.775.028 5.158.842 8.621 2.555 5.374 2.657 7.47 7.433 7.47 7.433s-3.211 4.037-2.975 8.813c0 3.97 3.11 9.262 4.204 11.456C11.993 36.51 1.6 22.467.14 11.907c-.377-2.725.018-3.515.974-5.183zm51.283 8.356v-2.944h10.786v2.945h-3.738v10.617h-3.31V15.081h-3.738zm14.62 10.812c-1.051 0-1.96-.187-2.726-.562a4.258 4.258 0 01-1.752-1.627c-.415-.698-.623-1.518-.623-2.461 0-1.447.448-2.583 1.343-3.41.896-.826 2.13-1.24 3.7-1.24 1.544 0 2.731.394 3.562 1.182.844.788 1.265 1.899 1.265 3.332v.407a2.7 2.7 0 01-.02.349h-6.832c.078.607.292 1.079.642 1.414.35.336.811.504 1.383.504 1.038 0 1.777-.387 2.219-1.162l2.648.639c-.948 1.757-2.55 2.635-4.81 2.635zm-.117-7.343c-1.064 0-1.707.562-1.927 1.686h3.66c-.052-.517-.234-.924-.546-1.221-.298-.31-.694-.465-1.187-.465zm20.369 1.414v5.735h-2.96v-5.425c0-.53-.09-.93-.273-1.2-.168-.285-.454-.427-.856-.427-.39 0-.707.136-.954.407-.247.271-.37.678-.37 1.22v5.425h-2.959v-5.425c0-.53-.09-.93-.272-1.2-.17-.285-.455-.427-.857-.427-.39 0-.708.136-.954.407-.246.271-.37.678-.37 1.22v5.425h-2.842v-8.912h2.842v1.317c.26-.49.604-.865 1.032-1.123.428-.272.947-.407 1.557-.407.701 0 1.26.122 1.675.368.428.245.727.613.895 1.104a3.456 3.456 0 011.207-1.085c.48-.258 1.026-.387 1.635-.387 1.039 0 1.765.297 2.181.891.428.594.642 1.427.642 2.5zm5.223 9.997h-2.94V16.787h2.94v1.434a3.49 3.49 0 011.246-1.28c.52-.31 1.123-.464 1.81-.464.727 0 1.415.18 2.064.542.65.35 1.175.879 1.577 1.59.415.71.623 1.588.623 2.634 0 1.046-.208 1.925-.623 2.635-.402.698-.928 1.227-1.577 1.589a4.176 4.176 0 01-2.064.542c-.687 0-1.29-.148-1.81-.445a3.639 3.639 0 01-1.246-1.298v5.696zm4.225-8.718c0-.697-.215-1.233-.643-1.608a2.162 2.162 0 00-1.499-.562c-.325 0-.649.084-.973.252-.325.155-.59.394-.799.717-.207.31-.31.71-.31 1.201 0 .478.103.878.31 1.201.208.323.474.569.799.736.324.155.648.233.973.233.584 0 1.084-.187 1.5-.562.427-.374.642-.91.642-1.608zm9.426 4.65c-1.051 0-1.96-.187-2.726-.562a4.267 4.267 0 01-1.752-1.627c-.415-.698-.622-1.518-.622-2.461 0-1.447.447-2.583 1.343-3.41.896-.826 2.129-1.24 3.699-1.24 1.544 0 2.732.394 3.562 1.182.844.788 1.266 1.899 1.266 3.332v.407c0 .13-.006.246-.019.349h-6.834c.078.607.292 1.079.642 1.414.351.336.812.504 1.383.504 1.038 0 1.778-.387 2.219-1.162l2.648.639c-.948 1.757-2.551 2.635-4.809 2.635zm-.116-7.343c-1.065 0-1.707.562-1.928 1.686h3.66c-.052-.517-.234-.924-.545-1.221-.298-.31-.695-.465-1.187-.465zm12.191 1.279a1.928 1.928 0 00-.506-.368 1.357 1.357 0 00-.642-.136c-.428 0-.779.168-1.052.504-.259.335-.389.826-.389 1.472v4.398h-2.901v-8.912h2.901v1.124a3.258 3.258 0 011.013-.97 2.36 2.36 0 011.246-.367c.324 0 .636.07.934.213.299.13.526.303.681.523l-1.285 2.519zm2.339-6.374c0-.466.162-.847.487-1.144.337-.297.746-.445 1.227-.445.48 0 .882.148 1.206.445.338.297.507.678.507 1.143 0 .466-.169.847-.507 1.144-.324.284-.726.426-1.206.426-.481 0-.89-.142-1.227-.426-.325-.297-.487-.678-.487-1.143zm.272 3.332h2.863v8.912h-2.863v-8.912zm11.412-4.65h3.29v10.733h5.471v2.83h-8.761V12.135zm9.468 9.106c0-.943.221-1.763.662-2.46a4.636 4.636 0 011.83-1.628c.779-.387 1.655-.581 2.628-.581.987 0 1.863.194 2.629.581a4.5 4.5 0 011.81 1.628c.454.697.681 1.517.681 2.46 0 .93-.227 1.744-.681 2.441a4.5 4.5 0 01-1.81 1.628c-.766.387-1.642.581-2.629.581-.973 0-1.849-.194-2.628-.581a4.637 4.637 0 01-1.83-1.628c-.441-.697-.662-1.511-.662-2.44zm3.037 0c0 .685.202 1.227.604 1.627.415.4.908.601 1.479.601.571 0 1.058-.2 1.461-.6.415-.4.622-.943.622-1.628 0-.684-.207-1.227-.622-1.627a1.966 1.966 0 00-1.461-.62c-.571 0-1.064.206-1.479.62-.402.4-.604.943-.604 1.627zm8.622 5.095h2.862c.052.556.259.97.623 1.24.363.272.831.407 1.401.407.623 0 1.149-.206 1.577-.62.442-.413.662-1.033.662-1.86V24.11c-.714 1.034-1.739 1.55-3.076 1.55a4.428 4.428 0 01-2.063-.503c-.649-.336-1.175-.84-1.577-1.511-.403-.685-.603-1.525-.603-2.52 0-1.007.2-1.846.603-2.518.402-.672.928-1.175 1.577-1.511a4.427 4.427 0 012.063-.504c1.337 0 2.362.517 3.076 1.55v-1.356h2.823v8.718c0 1.15-.22 2.08-.662 2.79a3.854 3.854 0 01-1.791 1.55c-.74.323-1.564.485-2.472.485-1.116 0-2.032-.168-2.745-.504-.714-.336-1.253-.807-1.616-1.414-.364-.595-.584-1.286-.662-2.074zm2.901-5.211c0 .697.207 1.233.622 1.608.429.374.935.562 1.519.562.338 0 .662-.078.974-.233.324-.168.59-.413.798-.736.208-.323.311-.723.311-1.201 0-.491-.103-.892-.311-1.202a1.932 1.932 0 00-.798-.716 2.027 2.027 0 00-.974-.252c-.584 0-1.09.187-1.519.562-.415.374-.622.91-.622 1.608zm9.137-7.672c0-.466.162-.847.487-1.144.337-.297.746-.445 1.227-.445.48 0 .882.148 1.206.445.338.297.507.678.507 1.143 0 .466-.169.847-.507 1.144-.324.284-.726.426-1.206.426-.481 0-.89-.142-1.227-.426-.325-.297-.487-.678-.487-1.143zm.272 3.332h2.862v8.912h-2.862v-8.912zm5.771 5.677c.687.568 1.271.955 1.752 1.162.492.194.895.29 1.206.29.584 0 .876-.232.876-.697 0-.284-.135-.51-.408-.678-.273-.18-.773-.387-1.499-.62a7.2 7.2 0 01-1.208-.542 2.8 2.8 0 01-.953-.872c-.247-.362-.37-.827-.37-1.395 0-.814.318-1.434.954-1.86.636-.44 1.434-.659 2.394-.659.766 0 1.467.13 2.103.388a7.673 7.673 0 011.733.93l-1.052 1.918a4.764 4.764 0 00-1.285-.872c-.48-.233-.921-.349-1.323-.349-.26 0-.461.052-.604.155a.495.495 0 00-.195.407c0 .297.176.517.526.659l1.538.6c.467.168.895.362 1.285.581.389.22.701.498.934.834.247.335.37.781.37 1.337 0 .942-.292 1.66-.876 2.15-.584.49-1.415.736-2.492.736-.973 0-1.836-.155-2.589-.465a9.128 9.128 0 01-2.044-1.2l1.227-1.938zm7.34-5.677h1.577v-3.1h2.842v3.1h1.577v2.422h-1.577v6.49h-2.842v-6.49h-1.577v-2.422zm7.074-3.332c0-.466.162-.847.487-1.144.337-.297.746-.445 1.226-.445s.883.148 1.207.445c.338.297.506.678.506 1.143 0 .466-.168.847-.506 1.144-.324.284-.727.426-1.207.426-.48 0-.889-.142-1.226-.426-.325-.297-.487-.678-.487-1.143zm.273 3.332h2.861v8.912h-2.861v-8.912zm7.755 4.456c0 .71.233 1.272.701 1.686.467.413 1.031.62 1.693.62.532 0 1.039-.11 1.519-.33.48-.232.85-.562 1.109-.988v2.848c-.311.246-.701.446-1.168.6-.467.143-1.038.214-1.713.214-.999 0-1.888-.194-2.667-.581a4.604 4.604 0 01-1.849-1.628c-.442-.697-.662-1.511-.662-2.441 0-.943.22-1.757.662-2.441a4.603 4.603 0 011.849-1.628c.779-.387 1.668-.58 2.667-.58.675 0 1.246.077 1.713.232.467.142.857.323 1.168.542v2.867c-.259-.426-.642-.749-1.148-.968a3.702 3.702 0 00-1.48-.33c-.441 0-.843.104-1.206.31a2.292 2.292 0 00-.876.814 2.253 2.253 0 00-.312 1.182zm7.615 1.221c.688.568 1.272.955 1.752 1.162.494.194.896.29 1.207.29.584 0 .876-.232.876-.697 0-.284-.136-.51-.408-.678-.273-.18-.772-.387-1.499-.62a7.154 7.154 0 01-1.207-.542c-.39-.22-.707-.51-.954-.872s-.37-.827-.37-1.395c0-.814.318-1.434.954-1.86.636-.44 1.434-.659 2.394-.659.766 0 1.467.13 2.103.388a7.673 7.673 0 011.733.93l-1.052 1.918a4.78 4.78 0 00-1.285-.872c-.48-.233-.921-.349-1.324-.349-.259 0-.46.052-.603.155a.494.494 0 00-.194.407c0 .297.175.517.525.659l1.538.6c.467.168.895.362 1.285.581.389.22.701.498.935.834.246.335.369.781.369 1.337 0 .942-.292 1.66-.876 2.15-.584.49-1.415.736-2.492.736-.973 0-1.836-.155-2.589-.465a9.106 9.106 0 01-2.044-1.2l1.226-1.938zm14.521-10.327h3.29v10.733h5.47v2.83h-8.76V12.135zm8.942 4.65h1.577v-3.1h2.842v3.1h1.577v2.422h-1.577v6.49h-2.842v-6.49h-1.577v-2.422zm6.723 4.456c0-1.007.201-1.853.604-2.538.402-.698.927-1.22 1.576-1.57a4.176 4.176 0 012.064-.542c1.324 0 2.349.543 3.077 1.628v-7.634h2.939v15.112h-2.939v-1.433c-.728 1.084-1.753 1.627-3.077 1.627a4.297 4.297 0 01-2.064-.523c-.649-.362-1.174-.891-1.576-1.589-.403-.697-.604-1.543-.604-2.538zm3.096 0c0 .698.207 1.253.623 1.666.428.414.934.62 1.518.62.337 0 .662-.09.974-.271.324-.18.59-.44.798-.775.207-.349.312-.762.312-1.24 0-.49-.105-.904-.312-1.24a2.184 2.184 0 00-.798-.775 1.917 1.917 0 00-.974-.271c-.584 0-1.09.207-1.518.62-.416.413-.623.969-.623 1.666z"/><defs><radialGradient id="na" cx="0" cy="0" r="1" gradientUnits="userSpaceOnUse" gradientTransform="matrix(0 18.0077 -18.7027 0 18.725 18.992)"><stop stop-color="#9684B4"/><stop offset=".375" stop-color="#6F5E8B"/><stop offset=".696" stop-color="#564277"/><stop offset=".938" stop-color="#483369"/></radialGradient><radialGradient id="nb" cx="0" cy="0" r="1" gradientUnits="userSpaceOnUse" gradientTransform="matrix(-8.72007 10.77607 -11.15963 -9.03044 18.725 22.763)"><stop stop-color="#fff"/><stop offset=".781" stop-color="#fff" stop-opacity="0"/></radialGradient><radialGradient id="nc" cx="0" cy="0" r="1" gradientUnits="userSpaceOnUse" gradientTransform="matrix(0 15.2212 -15.8087 0 18.725 23.168)"><stop stop-color="#fff"/><stop offset=".849" stop-color="#fff" stop-opacity="0"/></radialGradient><radialGradient id="nd" cx="0" cy="0" r="1" gradientUnits="userSpaceOnUse" gradientTransform="matrix(0 18.0077 -18.7026 0 18.725 18.992)"><stop stop-color="#9684B4"/><stop offset=".375" stop-color="#6F5E8B"/><stop offset=".696" stop-color="#564277"/><stop offset=".938" stop-color="#483369"/></radialGradient><radialGradient id="ne" cx="0" cy="0" r="1" gradientUnits="userSpaceOnUse" gradientTransform="matrix(-8.72007 10.77607 -11.15963 -9.03044 18.725 22.763)"><stop stop-color="#fff"/><stop offset=".781" stop-color="#fff" stop-opacity="0"/></radialGradient><radialGradient id="nf" cx="0" cy="0" r="1" gradientUnits="userSpaceOnUse" gradientTransform="matrix(0 15.2212 -15.8086 0 18.725 23.168)"><stop stop-color="#fff"/><stop offset=".849" stop-color="#fff" stop-opacity="0"/></radialGradient><radialGradient id="ng" cx="0" cy="0" r="1" gradientUnits="userSpaceOnUse" gradientTransform="matrix(0 18.0077 -18.7026 0 18.725 18.992)"><stop stop-color="#9684B4"/><stop offset=".375" stop-color="#6F5E8B"/><stop offset=".696" stop-color="#564277"/><stop offset=".938" stop-color="#483369"/></radialGradient><radialGradient id="nh" cx="0" cy="0" r="1" gradientUnits="userSpaceOnUse" gradientTransform="matrix(-8.72007 10.77607 -11.15963 -9.03044 18.725 22.763)"><stop stop-color="#fff"/><stop offset=".781" stop-color="#fff" stop-opacity="0"/></radialGradient><radialGradient id="ni" cx="0" cy="0" r="1" gradientUnits="userSpaceOnUse" gradientTransform="matrix(0 15.2212 -15.8086 0 18.725 23.168)"><stop stop-color="#fff"/><stop offset=".849" stop-color="#fff" stop-opacity="0"/></radialGradient></defs></svg><svg viewBox="0 0 14 24" id="icon-long-arr" xmlns="http://www.w3.org/2000/svg"><path d="M13 17l-6 6-6-6"/><path d="M13 17l-6 6-6-6m6 6V1" stroke="#fff" stroke-width="2" stroke-miterlimit="10" stroke-linecap="round" stroke-linejoin="round"/></svg><svg viewBox="0 0 17 18" id="icon-play" xmlns="http://www.w3.org/2000/svg"><path d="M17 9L0 0v18l17-9z"/></svg><svg class="qbi qbi-plus" viewBox="0 0 16 16" id="icon-plus" xmlns="http://www.w3.org/2000/svg"><path d="M8 4a.5.5 0 01.5.5v3h3a.5.5 0 010 1h-3v3a.5.5 0 01-1 0v-3h-3a.5.5 0 010-1h3v-3A.5.5 0 018 4z"/></svg><svg viewBox="0 0 86 74" id="icon-quotes" xmlns="http://www.w3.org/2000/svg"><path d="M86 37V0H49.143v37h24.571c0 13.6-11.023 24.667-24.571 24.667V74C69.467 74 86 57.403 86 37zM0 61.667V74c20.324 0 36.857-16.597 36.857-37V0H0v37h24.571c0 13.6-11.023 24.667-24.571 24.667z"/></svg><svg class="sbi sbi-search" viewBox="0 0 16 16" id="icon-search" xmlns="http://www.w3.org/2000/svg"><path d="M11.742 10.344a6.5 6.5 0 10-1.397 1.398h-.001c.03.04.062.078.098.115l3.85 3.85a1 1 0 001.415-1.414l-3.85-3.85a1.007 1.007 0 00-.115-.1zM12 6.5a5.5 5.5 0 11-11 0 5.5 5.5 0 0111 0z"/></svg><svg viewBox="0 0 75 46" id="icon-ship" xmlns="http://www.w3.org/2000/svg"><path d="M.52 25.06a2.648 2.648 0 011.686-1.064v-2.287a2.659 2.659 0 012.508-2.658v-2.262a1.103 1.103 0 01-.954-1.096c0-2.74 2.215-4.97 4.938-4.97h3.63V7.884H9.723a1.103 1.103 0 01-1.098-1.106c0-.61.492-1.106 1.098-1.106h2.603V4.31h-1.019a1.102 1.102 0 01-1.099-1.106c0-.61.492-1.106 1.099-1.106h1.02v-.991c0-.61.49-1.106 1.098-1.106.607 0 1.098.495 1.098 1.106v.991h1.02c.607 0 1.098.495 1.098 1.106 0 .61-.491 1.106-1.098 1.106h-1.02v1.363h2.603c.607 0 1.099.495 1.099 1.106 0 .61-.492 1.106-1.099 1.106h-2.603v2.838h3.63c2.723 0 4.938 2.23 4.938 4.971 0 .562-.416 1.024-.954 1.096v2.262a2.659 2.659 0 012.507 2.658v2.446a3.122 3.122 0 011.785 1.734l1.69 4.08c.172.417.64.835 1.1.835 16.609-.002 22.97 0 26.787 0 2.036 0 1.887-2.444 2.922-4.412.62-1.715.62-2.437 3.803-2.437h9.774c.673 0 1.312.326 1.71.873a2.15 2.15 0 01.313 1.905l-2.02 6.433a1.1 1.1 0 01-1.38.721 1.108 1.108 0 01-.716-1.388l1.99-6.333H61.785a.93.93 0 00-.874.621L59.55 30.66a3.13 3.13 0 01-2.945 2.095h-27.63a3.114 3.114 0 01-2.884-1.936l-1.69-4.079a.923.923 0 00-.854-.573H11.9a1.102 1.102 0 01-1.1-1.107c0-.61.492-1.105 1.099-1.105h10.548v-2.246a.453.453 0 00-.45-.453H4.853a.453.453 0 00-.451.453v2.246h2.454c.607 0 1.1.495 1.1 1.105s-.493 1.106-1.1 1.106H2.681a.472.472 0 00-.389.2.477.477 0 00-.07.431l3.123 9.881c.107.341.246.68.414 1.004.025.049.045.098.062.148.317.177.667.28 1.186.28.904 0 1.297-.313 1.891-.785.707-.563 1.587-1.264 3.256-1.264 1.668 0 2.548.7 3.254 1.264.594.472.987.785 1.892.785.904 0 1.297-.312 1.89-.785.707-.563 1.587-1.264 3.256-1.264 1.668 0 2.548.7 3.255 1.264.594.472.986.785 1.89.785.905 0 1.298-.312 1.892-.785.707-.563 1.586-1.264 3.255-1.264 1.668 0 2.547.7 3.254 1.264.594.472.986.785 1.89.785.905 0 1.297-.312 1.891-.785.707-.563 1.587-1.264 3.255-1.264 1.669 0 2.548.7 3.254 1.264.595.472.987.785 1.892.785.904 0 1.297-.312 1.891-.785.707-.563 1.586-1.264 3.254-1.264 1.669 0 2.548.7 3.255 1.264.594.473.987.785 1.891.785.905 0 1.297-.312 1.891-.785.707-.563 1.586-1.264 3.254-1.264 1.669 0 2.548.7 3.255 1.264.594.472.987.785 1.89.785.905 0 1.298-.312 1.892-.785.706-.563 1.586-1.264 3.254-1.264.607 0 1.099.496 1.099 1.106 0 .611-.492 1.106-1.099 1.106-.904 0-1.297.313-1.89.786-.707.563-1.587 1.263-3.255 1.263s-2.548-.7-3.255-1.263c-.594-.473-.986-.786-1.89-.786-.905 0-1.297.313-1.892.786-.706.563-1.585 1.263-3.254 1.263s-2.547-.7-3.254-1.263c-.595-.473-.987-.786-1.892-.786-.904 0-1.296.313-1.89.786-.708.563-1.587 1.263-3.255 1.263-1.669 0-2.548-.7-3.255-1.263-.594-.473-.987-.786-1.891-.786s-1.297.313-1.891.786c-.707.562-1.586 1.263-3.254 1.263-1.669 0-2.548-.7-3.255-1.263-.594-.473-.986-.786-1.89-.786-.905 0-1.298.313-1.892.786-.706.563-1.586 1.263-3.254 1.263-1.669 0-2.548-.7-3.255-1.263-.594-.473-.987-.786-1.891-.786-.905 0-1.297.313-1.892.786-.706.563-1.586 1.263-3.254 1.263-1.669 0-2.548-.7-3.255-1.263-.595-.473-.987-.786-1.891-.786-.905 0-1.297.313-1.893.786-.706.563-1.586 1.263-3.254 1.263-1.669 0-2.548-.7-3.255-1.263-.594-.473-.987-.786-1.892-.786a1.102 1.102 0 01-1.1-1.106c0-.61.492-1.105 1.099-1.105.377 0 .712.037 1.015.099L.128 27.468A2.684 2.684 0 01.52 25.06zm17.634-12.126H8.698a2.746 2.746 0 00-2.512 1.654h14.48a2.746 2.746 0 00-2.512-1.654zm1.786 6.11V16.8H6.911v2.245h13.03zM1.86 41.638c1.669 0 2.548.7 3.255 1.263.595.473.987.786 1.892.786.905 0 1.298-.313 1.892-.786.707-.563 1.586-1.263 3.255-1.263 1.668 0 2.548.7 3.254 1.263.594.473.987.786 1.892.786.904 0 1.297-.313 1.891-.786.707-.563 1.586-1.263 3.255-1.263 1.668 0 2.548.7 3.255 1.263.594.473.986.786 1.89.786.905 0 1.298-.313 1.892-.786.707-.563 1.586-1.263 3.255-1.263 1.668 0 2.548.7 3.254 1.263.594.473.987.786 1.89.786.905 0 1.297-.313 1.892-.786.706-.563 1.586-1.263 3.254-1.263 1.669 0 2.548.7 3.255 1.263.594.473.986.786 1.891.786s1.297-.313 1.891-.786c.707-.563 1.586-1.263 3.255-1.263 1.668 0 2.547.7 3.254 1.263.594.473.987.786 1.891.786.905 0 1.297-.313 1.891-.786.707-.563 1.586-1.263 3.255-1.263 1.668 0 2.547.7 3.254 1.263.594.473.987.786 1.891.786s1.297-.313 1.891-.786c.707-.563 1.586-1.263 3.254-1.263.608 0 1.099.495 1.099 1.106 0 .61-.492 1.106-1.099 1.106-.904 0-1.297.312-1.89.786-.707.562-1.587 1.262-3.255 1.262s-2.548-.7-3.255-1.263c-.594-.473-.986-.785-1.89-.785-.905 0-1.297.312-1.891.786-.707.562-1.586 1.262-3.255 1.262-1.668 0-2.547-.7-3.254-1.262-.595-.474-.987-.786-1.891-.786-.905 0-1.297.312-1.891.786-.707.562-1.587 1.262-3.255 1.262-1.669 0-2.548-.7-3.255-1.262-.594-.474-.986-.786-1.89-.786-.906 0-1.298.312-1.892.785-.707.563-1.586 1.263-3.254 1.263-1.669 0-2.548-.7-3.254-1.263-.595-.473-.987-.785-1.891-.785s-1.297.312-1.892.786c-.706.562-1.586 1.262-3.254 1.262-1.669 0-2.548-.7-3.255-1.262-.594-.474-.986-.786-1.891-.786s-1.297.312-1.892.786c-.706.562-1.586 1.262-3.254 1.262-1.669 0-2.548-.7-3.255-1.262-.594-.474-.987-.786-1.891-.786-.905 0-1.297.312-1.892.786-.707.562-1.586 1.262-3.255 1.262-1.669 0-2.548-.7-3.255-1.262-.594-.474-.987-.786-1.892-.786a1.102 1.102 0 01-1.098-1.106c0-.61.491-1.106 1.098-1.106z"/></svg><svg viewBox="0 0 47 29" id="icon-train" xmlns="http://www.w3.org/2000/svg"><path d="M43 1H4v23h39V1zM13 24V1M1 24v-2m45 0v2M4 23H2m41 0h2m-25 1V1m7 23V1m7 23V1m6 24c0 1.65-1.35 3-3 3s-3-1.35-3-3m-21 0c0 1.65-1.35 3-3 3s-3-1.35-3-3" stroke="#664599" stroke-width="2" stroke-miterlimit="10" stroke-linecap="round" stroke-linejoin="round"/></svg></svg>