<?xml version="1.0" encoding="utf-8"?><svg viewBox="0 0 86 74" xmlns="http://www.w3.org/2000/svg" xmlns:xlink="http://www.w3.org/1999/xlink"><style>:root>svg{display:none}:root>svg:target{display:block}</style><svg viewBox="0 0 14 25" id="icon-arrow-left" xmlns="http://www.w3.org/2000/svg"><path d="M13 23.5l-12-11 12-11" stroke="#664599" stroke-width="2" stroke-miterlimit="10" stroke-linecap="round" stroke-linejoin="round"/></svg><svg viewBox="0 0 14 25" id="icon-arrow-right" xmlns="http://www.w3.org/2000/svg"><path d="M1 1.5l12 11-12 11" stroke="#664599" stroke-width="2" stroke-miterlimit="10" stroke-linecap="round" stroke-linejoin="round"/></svg><svg viewBox="0 0 75 46" id="icon-boxes" xmlns="http://www.w3.org/2000/svg"><path d="M18 28H1v17h17V28zm8-17H9v17h17V11zm9 17H18v17h17V28z" stroke="#664599" stroke-width="2" stroke-miterlimit="10" stroke-linecap="round" stroke-linejoin="round"/></svg><svg viewBox="0 0 24 24" id="icon-download" xmlns="http://www.w3.org/2000/svg"><path d="M22 24H2c-1.1 0-2-.9-2-2v-6c0-.6.4-1 1-1s1 .4 1 1v6h20v-6c0-.6.4-1 1-1s1 .4 1 1v6c0 1.1-.9 2-2 2z"/><path d="M12 18c-.6 0-1-.4-1-1V1c0-.6.4-1 1-1s1 .4 1 1v16c0 .5-.4 1-1 1z"/><path d="M12 18c-.3 0-.5-.1-.7-.3l-5-5c-.4-.4-.4-1 0-1.4.4-.4 1-.4 1.4 0l4.3 4.3 4.3-4.3c.4-.4 1-.4 1.4 0 .4.4.4 1 0 1.4l-5 5c-.2.2-.4.3-.7.3z"/></svg><svg viewBox="0 0 24 24" id="icon-download2" xmlns="http://www.w3.org/2000/svg"><path d="M22 24H2c-1.1 0-2-.9-2-2v-6c0-.6.4-1 1-1s1 .4 1 1v6h20v-6c0-.6.4-1 1-1s1 .4 1 1v6c0 1.1-.9 2-2 2z"/><path d="M12 18c-.6 0-1-.4-1-1V1c0-.6.4-1 1-1s1 .4 1 1v16c0 .5-.4 1-1 1z"/><path d="M12 18c-.3 0-.5-.1-.7-.3l-5-5c-.4-.4-.4-1 0-1.4.4-.4 1-.4 1.4 0l4.3 4.3 4.3-4.3c.4-.4 1-.4 1.4 0 .4.4.4 1 0 1.4l-5 5c-.2.2-.4.3-.7.3z"/></svg><svg viewBox="0 0 24 24" id="icon-file" xmlns="http://www.w3.org/2000/svg"><path d="M9 2c0-.5.7-1 1.5-1 .7 0 1.5.5 1.5 1v6.9m0 .1c0 1.1-.9 2-2 2s-2-.9-2-2V6.3" stroke="#664599" stroke-width="2" stroke-miterlimit="10" stroke-linecap="round" stroke-linejoin="round"/><path d="M19 18V4c0-.6-.5-1-1-1H5c-.6 0-1 .5-1 1v18c0 .6.5 1 1 1h9" stroke="#664599" stroke-width="2" stroke-miterlimit="10" stroke-linecap="round" stroke-linejoin="round"/><path d="M19 18h-5v5l5-5z" stroke="#664599" stroke-width="2" stroke-miterlimit="10" stroke-linecap="round" stroke-linejoin="round"/></svg><svg viewBox="0 0 17 18" id="icon-play" xmlns="http://www.w3.org/2000/svg"><path d="M17 9L0 0v18l17-9z"/></svg><svg viewBox="0 0 12 12" id="icon-plus" xmlns="http://www.w3.org/2000/svg"><path d="M1 6h10M6 1v10" stroke="#8252CC" stroke-width="2" stroke-miterlimit="10" stroke-linecap="round" stroke-linejoin="round"/></svg><svg viewBox="0 0 86 74" id="icon-quotes" xmlns="http://www.w3.org/2000/svg"><path d="M86 37V0H49.143v37h24.571c0 13.6-11.023 24.667-24.571 24.667V74C69.467 74 86 57.403 86 37zM0 61.667V74c20.324 0 36.857-16.597 36.857-37V0H0v37h24.571c0 13.6-11.023 24.667-24.571 24.667z"/></svg><svg viewBox="0 0 23 22" id="icon-search" xmlns="http://www.w3.org/2000/svg"><path d="M18 9.5C18 4.825 14.175 1 9.5 1S1 4.825 1 9.5 4.825 18 9.5 18 18 14.175 18 9.5zm-2.5 6L21 21" stroke="#fff" stroke-width="2" stroke-miterlimit="10" stroke-linecap="round" stroke-linejoin="round"/></svg><svg viewBox="0 0 13 24" id="icon-select-indicator" xmlns="http://www.w3.org/2000/svg"><g clip-path="url(#ka)"><path d="M11.747 13.121a1 1 0 00-1.414 0L7.04 16.413 7.033 6a1 1 0 00-2 0l.007 10.414-3.293-3.293a1 1 0 10-1.414 1.414l3.585 3.586a3 3 0 004.243 0l3.586-3.586a1 1 0 000-1.414z"/></g><defs><clipPath id="ka"><path transform="translate(.01)" d="M0 0h12v24H0z"/></clipPath></defs></svg><svg viewBox="0 0 75 46" id="icon-ship" xmlns="http://www.w3.org/2000/svg"><path d="M.52 25.06a2.648 2.648 0 011.686-1.064v-2.287a2.659 2.659 0 012.508-2.658v-2.262a1.103 1.103 0 01-.954-1.096c0-2.74 2.215-4.97 4.938-4.97h3.63V7.884H9.723a1.103 1.103 0 01-1.098-1.106c0-.61.492-1.106 1.098-1.106h2.603V4.31h-1.019a1.102 1.102 0 01-1.099-1.106c0-.61.492-1.106 1.099-1.106h1.02v-.991c0-.61.49-1.106 1.098-1.106.607 0 1.098.495 1.098 1.106v.991h1.02c.607 0 1.098.495 1.098 1.106 0 .61-.491 1.106-1.098 1.106h-1.02v1.363h2.603c.607 0 1.099.495 1.099 1.106 0 .61-.492 1.106-1.099 1.106h-2.603v2.838h3.63c2.723 0 4.938 2.23 4.938 4.971 0 .562-.416 1.024-.954 1.096v2.262a2.659 2.659 0 012.507 2.658v2.446a3.122 3.122 0 011.785 1.734l1.69 4.08c.172.417.64.835 1.1.835 16.609-.002 22.97 0 26.787 0 2.036 0 1.887-2.444 2.922-4.412.62-1.715.62-2.437 3.803-2.437h9.774c.673 0 1.312.326 1.71.873a2.15 2.15 0 01.313 1.905l-2.02 6.433a1.1 1.1 0 01-1.38.721 1.108 1.108 0 01-.716-1.388l1.99-6.333H61.785a.93.93 0 00-.874.621L59.55 30.66a3.13 3.13 0 01-2.945 2.095h-27.63a3.114 3.114 0 01-2.884-1.936l-1.69-4.079a.923.923 0 00-.854-.573H11.9a1.102 1.102 0 01-1.1-1.107c0-.61.492-1.105 1.099-1.105h10.548v-2.246a.453.453 0 00-.45-.453H4.853a.453.453 0 00-.451.453v2.246h2.454c.607 0 1.1.495 1.1 1.105s-.493 1.106-1.1 1.106H2.681a.472.472 0 00-.389.2.477.477 0 00-.07.431l3.123 9.881c.107.341.246.68.414 1.004.025.049.045.098.062.148.317.177.667.28 1.186.28.904 0 1.297-.313 1.891-.785.707-.563 1.587-1.264 3.256-1.264 1.668 0 2.548.7 3.254 1.264.594.472.987.785 1.892.785.904 0 1.297-.312 1.89-.785.707-.563 1.587-1.264 3.256-1.264 1.668 0 2.548.7 3.255 1.264.594.472.986.785 1.89.785.905 0 1.298-.312 1.892-.785.707-.563 1.586-1.264 3.255-1.264 1.668 0 2.547.7 3.254 1.264.594.472.986.785 1.89.785.905 0 1.297-.312 1.891-.785.707-.563 1.587-1.264 3.255-1.264 1.669 0 2.548.7 3.254 1.264.595.472.987.785 1.892.785.904 0 1.297-.312 1.891-.785.707-.563 1.586-1.264 3.254-1.264 1.669 0 2.548.7 3.255 1.264.594.473.987.785 1.891.785.905 0 1.297-.312 1.891-.785.707-.563 1.586-1.264 3.254-1.264 1.669 0 2.548.7 3.255 1.264.594.472.987.785 1.89.785.905 0 1.298-.312 1.892-.785.706-.563 1.586-1.264 3.254-1.264.607 0 1.099.496 1.099 1.106 0 .611-.492 1.106-1.099 1.106-.904 0-1.297.313-1.89.786-.707.563-1.587 1.263-3.255 1.263s-2.548-.7-3.255-1.263c-.594-.473-.986-.786-1.89-.786-.905 0-1.297.313-1.892.786-.706.563-1.585 1.263-3.254 1.263s-2.547-.7-3.254-1.263c-.595-.473-.987-.786-1.892-.786-.904 0-1.296.313-1.89.786-.708.563-1.587 1.263-3.255 1.263-1.669 0-2.548-.7-3.255-1.263-.594-.473-.987-.786-1.891-.786s-1.297.313-1.891.786c-.707.562-1.586 1.263-3.254 1.263-1.669 0-2.548-.7-3.255-1.263-.594-.473-.986-.786-1.89-.786-.905 0-1.298.313-1.892.786-.706.563-1.586 1.263-3.254 1.263-1.669 0-2.548-.7-3.255-1.263-.594-.473-.987-.786-1.891-.786-.905 0-1.297.313-1.892.786-.706.563-1.586 1.263-3.254 1.263-1.669 0-2.548-.7-3.255-1.263-.595-.473-.987-.786-1.891-.786-.905 0-1.297.313-1.893.786-.706.563-1.586 1.263-3.254 1.263-1.669 0-2.548-.7-3.255-1.263-.594-.473-.987-.786-1.892-.786a1.102 1.102 0 01-1.1-1.106c0-.61.492-1.105 1.099-1.105.377 0 .712.037 1.015.099L.128 27.468A2.684 2.684 0 01.52 25.06zm17.634-12.126H8.698a2.746 2.746 0 00-2.512 1.654h14.48a2.746 2.746 0 00-2.512-1.654zm1.786 6.11V16.8H6.911v2.245h13.03zM1.86 41.638c1.669 0 2.548.7 3.255 1.263.595.473.987.786 1.892.786.905 0 1.298-.313 1.892-.786.707-.563 1.586-1.263 3.255-1.263 1.668 0 2.548.7 3.254 1.263.594.473.987.786 1.892.786.904 0 1.297-.313 1.891-.786.707-.563 1.586-1.263 3.255-1.263 1.668 0 2.548.7 3.255 1.263.594.473.986.786 1.89.786.905 0 1.298-.313 1.892-.786.707-.563 1.586-1.263 3.255-1.263 1.668 0 2.548.7 3.254 1.263.594.473.987.786 1.89.786.905 0 1.297-.313 1.892-.786.706-.563 1.586-1.263 3.254-1.263 1.669 0 2.548.7 3.255 1.263.594.473.986.786 1.891.786s1.297-.313 1.891-.786c.707-.563 1.586-1.263 3.255-1.263 1.668 0 2.547.7 3.254 1.263.594.473.987.786 1.891.786.905 0 1.297-.313 1.891-.786.707-.563 1.586-1.263 3.255-1.263 1.668 0 2.547.7 3.254 1.263.594.473.987.786 1.891.786s1.297-.313 1.891-.786c.707-.563 1.586-1.263 3.254-1.263.608 0 1.099.495 1.099 1.106 0 .61-.492 1.106-1.099 1.106-.904 0-1.297.312-1.89.786-.707.562-1.587 1.262-3.255 1.262s-2.548-.7-3.255-1.263c-.594-.473-.986-.785-1.89-.785-.905 0-1.297.312-1.891.786-.707.562-1.586 1.262-3.255 1.262-1.668 0-2.547-.7-3.254-1.262-.595-.474-.987-.786-1.891-.786-.905 0-1.297.312-1.891.786-.707.562-1.587 1.262-3.255 1.262-1.669 0-2.548-.7-3.255-1.262-.594-.474-.986-.786-1.89-.786-.906 0-1.298.312-1.892.785-.707.563-1.586 1.263-3.254 1.263-1.669 0-2.548-.7-3.254-1.263-.595-.473-.987-.785-1.891-.785s-1.297.312-1.892.786c-.706.562-1.586 1.262-3.254 1.262-1.669 0-2.548-.7-3.255-1.262-.594-.474-.986-.786-1.891-.786s-1.297.312-1.892.786c-.706.562-1.586 1.262-3.254 1.262-1.669 0-2.548-.7-3.255-1.262-.594-.474-.987-.786-1.891-.786-.905 0-1.297.312-1.892.786-.707.562-1.586 1.262-3.255 1.262-1.669 0-2.548-.7-3.255-1.262-.594-.474-.987-.786-1.892-.786a1.102 1.102 0 01-1.098-1.106c0-.61.491-1.106 1.098-1.106z"/></svg><svg viewBox="0 0 75 46" id="icon-train" xmlns="http://www.w3.org/2000/svg"><path d="M43 18H4v23h39V18zM13 41V18M1 41v-2m45 0v2M4 40H2m41 0h2m-25 1V18m7 23V18m7 23V18m6 24c0 1.65-1.35 3-3 3s-3-1.35-3-3m-21 0c0 1.65-1.35 3-3 3s-3-1.35-3-3" stroke="#664599" stroke-width="2" stroke-miterlimit="10" stroke-linecap="round" stroke-linejoin="round"/></svg></svg>