<?xml version="1.0" encoding="utf-8"?><svg viewBox="0 0 242 74" xmlns="http://www.w3.org/2000/svg" xmlns:xlink="http://www.w3.org/1999/xlink"><style>:root>svg{display:none}:root>svg:target{display:block}</style><svg viewBox="0 0 14 24" id="icon-arr-down" xmlns="http://www.w3.org/2000/svg"><path d="M13.706 9.207a1 1 0 00-1.414 0l-4.586 4.586a1.021 1.021 0 01-1.414 0L1.706 9.207a1 1 0 00-1.414 1.414l4.585 4.586a3 3 0 004.243 0l4.586-4.586a1 1 0 000-1.414z"/></svg><svg class="bbi bbi-arrow-down" viewBox="0 0 16 16" id="icon-arrow-down" xmlns="http://www.w3.org/2000/svg"><path fill-rule="evenodd" d="M8 1a.5.5 0 01.5.5v11.793l3.146-3.147a.5.5 0 01.708.708l-4 4a.5.5 0 01-.708 0l-4-4a.5.5 0 01.708-.708L7.5 13.293V1.5A.5.5 0 018 1z"/></svg><svg class="cbi cbi-arrow-left" viewBox="0 0 16 16" id="icon-arrow-left" xmlns="http://www.w3.org/2000/svg"><path fill-rule="evenodd" d="M15 8a.5.5 0 00-.5-.5H2.707l3.147-3.146a.5.5 0 10-.708-.708l-4 4a.5.5 0 000 .708l4 4a.5.5 0 00.708-.708L2.707 8.5H14.5A.5.5 0 0015 8z"/></svg><svg class="dbi dbi-arrow-right" viewBox="0 0 16 16" id="icon-arrow-right" xmlns="http://www.w3.org/2000/svg"><path fill-rule="evenodd" d="M1 8a.5.5 0 01.5-.5h11.793l-3.147-3.146a.5.5 0 01.708-.708l4 4a.5.5 0 010 .708l-4 4a.5.5 0 01-.708-.708L13.293 8.5H1.5A.5.5 0 011 8z"/></svg><svg viewBox="0 0 75 46" id="icon-boxes" xmlns="http://www.w3.org/2000/svg"><path d="M18 28H1v17h17V28zm8-17H9v17h17V11zm9 17H18v17h17V28z"/></svg><svg class="fbi fbi-briefcase" viewBox="0 0 16 16" id="icon-briefcase" xmlns="http://www.w3.org/2000/svg"><path d="M6.5 1A1.5 1.5 0 005 2.5V3H1.5A1.5 1.5 0 000 4.5v8A1.5 1.5 0 001.5 14h13a1.5 1.5 0 001.5-1.5v-8A1.5 1.5 0 0014.5 3H11v-.5A1.5 1.5 0 009.5 1h-3zm0 1h3a.5.5 0 01.5.5V3H6v-.5a.5.5 0 01.5-.5zm1.886 6.914L15 7.151V12.5a.5.5 0 01-.5.5h-13a.5.5 0 01-.5-.5V7.15l6.614 1.764a1.5 1.5 0 00.772 0zM1.5 4h13a.5.5 0 01.5.5v1.616L8.129 7.948a.5.5 0 01-.258 0L1 6.116V4.5a.5.5 0 01.5-.5z"/></svg><svg viewBox="0 0 24 24" id="icon-burger" xmlns="http://www.w3.org/2000/svg"><path d="M21.111 11H6.89c-.492 0-.89.448-.89 1s.398 1 .889 1H21.11c.491 0 .889-.448.889-1s-.398-1-.889-1zm.056-7H2.833C2.373 4 2 4.448 2 5s.373 1 .833 1h18.334c.46 0 .833-.448.833-1s-.373-1-.833-1zm0 14H2.833c-.46 0-.833.448-.833 1s.373 1 .833 1h18.334c.46 0 .833-.448.833-1s-.373-1-.833-1z"/></svg><svg viewBox="0 0 24 25" id="icon-carousel-next" xmlns="http://www.w3.org/2000/svg"><g clip-path="url(#ha)"><path d="M23.124 11.407L19.245 7.53a1 1 0 00-1.414 1.414l3.555 3.557H1a1 1 0 00-1 1 1 1 0 001 1h20.447l-3.616 3.615a1.001 1.001 0 001.414 1.415l3.88-3.879a3.009 3.009 0 00-.001-4.244z"/></g><defs><clipPath id="ha"><path transform="translate(0 .5)" d="M0 0h24v24H0z"/></clipPath></defs></svg><svg viewBox="0 0 24 25" id="icon-carousel-prev" xmlns="http://www.w3.org/2000/svg"><g clip-path="url(#ia)"><path d="M.876 11.407L4.755 7.53a1 1 0 011.414 1.414L2.614 12.5H23a1 1 0 011 1 1 1 0 01-1 1H2.553l3.616 3.615a1 1 0 11-1.414 1.415l-3.88-3.879a3.008 3.008 0 01.001-4.244z"/></g><defs><clipPath id="ia"><path transform="matrix(-1 0 0 1 24 .5)" d="M0 0h24v24H0z"/></clipPath></defs></svg><svg class="jbi jbi-download" viewBox="0 0 16 16" id="icon-download" xmlns="http://www.w3.org/2000/svg"><path d="M.5 9.9a.5.5 0 01.5.5v2.5a1 1 0 001 1h12a1 1 0 001-1v-2.5a.5.5 0 011 0v2.5a2 2 0 01-2 2H2a2 2 0 01-2-2v-2.5a.5.5 0 01.5-.5z"/><path d="M7.646 11.854a.5.5 0 00.708 0l3-3a.5.5 0 00-.708-.708L8.5 10.293V1.5a.5.5 0 00-1 0v8.793L5.354 8.146a.5.5 0 10-.708.708l3 3z"/></svg><svg class="kbi kbi-file-earmark-arrow-down" viewBox="0 0 16 16" id="icon-file" xmlns="http://www.w3.org/2000/svg"><path d="M8.5 6.5a.5.5 0 00-1 0v3.793L6.354 9.146a.5.5 0 10-.708.708l2 2a.5.5 0 00.708 0l2-2a.5.5 0 00-.708-.708L8.5 10.293V6.5z"/><path d="M14 14V4.5L9.5 0H4a2 2 0 00-2 2v12a2 2 0 002 2h8a2 2 0 002-2zM9.5 3A1.5 1.5 0 0011 4.5h2V14a1 1 0 01-1 1H4a1 1 0 01-1-1V2a1 1 0 011-1h5.5v2z"/></svg><svg viewBox="0 0 242 37" id="icon-logotype" xmlns="http://www.w3.org/2000/svg"><path d="M37.028 8.327c.428 1.377.546 1.66.28 3.58C35.853 22.44 25.51 36.444 19.067 36.982l.018-.001c-.889-2.244-2.599-5.8-2.524-11.115.068-4.776 2.727-7.433 2.727-7.433s5.487-.32 10.793-2.96c4.104-2.043 6.573-6.504 6.947-7.146z"/><path d="M37.028 8.327c.428 1.377.546 1.66.28 3.58C35.853 22.44 25.51 36.444 19.067 36.982l.018-.001c-.889-2.244-2.599-5.8-2.524-11.115.068-4.776 2.727-7.433 2.727-7.433s5.487-.32 10.793-2.96c4.104-2.043 6.573-6.504 6.947-7.146z" fill-opacity=".5"/><path d="M37.028 8.327c.428 1.377.546 1.66.28 3.58C35.853 22.44 25.51 36.444 19.067 36.982l.018-.001c-.889-2.244-2.599-5.8-2.524-11.115.068-4.776 2.727-7.433 2.727-7.433s5.487-.32 10.793-2.96c4.104-2.043 6.573-6.504 6.947-7.146z" fill-opacity=".5"/><path d="M37.028 8.327c.428 1.377.546 1.66.28 3.58C35.853 22.44 25.51 36.444 19.067 36.982l.018-.001c-.889-2.244-2.599-5.8-2.524-11.115.068-4.776 2.727-7.433 2.727-7.433s5.487-.32 10.793-2.96c4.104-2.043 6.573-6.504 6.947-7.146z"/><path d="M36.77 7.612l-.024-.057c-.264.512-2.542 4.198-7.916 6.337-5.745 2.287-9.024 1.58-9.024 1.58s-3.278-4.555-7.774-7.145C8.294 6.173 2.941 5.887 1.286 6.44 4.224 1.788 10.748 0 19.066 0c8.32 0 15.342 1.926 17.704 7.612z"/><path d="M36.77 7.612l-.024-.057c-.264.512-2.542 4.198-7.916 6.337-5.745 2.287-9.024 1.58-9.024 1.58s-3.278-4.555-7.774-7.145C8.294 6.173 2.941 5.887 1.286 6.44 4.224 1.788 10.748 0 19.066 0c8.32 0 15.342 1.926 17.704 7.612z" fill-opacity=".5"/><path d="M36.77 7.612l-.024-.057c-.264.512-2.542 4.198-7.916 6.337-5.745 2.287-9.024 1.58-9.024 1.58s-3.278-4.555-7.774-7.145C8.294 6.173 2.941 5.887 1.286 6.44 4.224 1.788 10.748 0 19.066 0c8.32 0 15.342 1.926 17.704 7.612z" fill-opacity=".5"/><path d="M36.77 7.612l-.024-.057c-.264.512-2.542 4.198-7.916 6.337-5.745 2.287-9.024 1.58-9.024 1.58s-3.278-4.555-7.774-7.145C8.294 6.173 2.941 5.887 1.286 6.44 4.224 1.788 10.748 0 19.066 0c8.32 0 15.342 1.926 17.704 7.612z"/><path d="M1.115 6.724a.341.341 0 00-.002.005c1.775.028 5.158.842 8.621 2.555 5.374 2.657 7.47 7.433 7.47 7.433s-3.211 4.037-2.975 8.813c0 3.97 3.11 9.262 4.204 11.456C11.993 36.51 1.6 22.467.14 11.907c-.377-2.725.018-3.515.974-5.183z"/><path d="M1.115 6.724a.341.341 0 00-.002.005c1.775.028 5.158.842 8.621 2.555 5.374 2.657 7.47 7.433 7.47 7.433s-3.211 4.037-2.975 8.813c0 3.97 3.11 9.262 4.204 11.456C11.993 36.51 1.6 22.467.14 11.907c-.377-2.725.018-3.515.974-5.183z" fill-opacity=".5"/><path d="M1.115 6.724a.341.341 0 00-.002.005c1.775.028 5.158.842 8.621 2.555 5.374 2.657 7.47 7.433 7.47 7.433s-3.211 4.037-2.975 8.813c0 3.97 3.11 9.262 4.204 11.456C11.993 36.51 1.6 22.467.14 11.907c-.377-2.725.018-3.515.974-5.183z" fill-opacity=".5"/><path d="M1.115 6.724a.341.341 0 00-.002.005c1.775.028 5.158.842 8.621 2.555 5.374 2.657 7.47 7.433 7.47 7.433s-3.211 4.037-2.975 8.813c0 3.97 3.11 9.262 4.204 11.456C11.993 36.51 1.6 22.467.14 11.907c-.377-2.725.018-3.515.974-5.183zm51.283 8.356v-2.944h10.786v2.945h-3.738v10.617h-3.31V15.081h-3.738zm14.62 10.812c-1.051 0-1.96-.187-2.726-.562a4.258 4.258 0 01-1.752-1.627c-.415-.698-.623-1.518-.623-2.461 0-1.447.448-2.583 1.343-3.41.896-.826 2.13-1.24 3.7-1.24 1.544 0 2.731.394 3.562 1.182.844.788 1.265 1.899 1.265 3.332v.407a2.7 2.7 0 01-.02.349h-6.832c.078.607.292 1.079.642 1.414.35.336.811.504 1.383.504 1.038 0 1.777-.387 2.219-1.162l2.648.639c-.948 1.757-2.55 2.635-4.81 2.635zm-.117-7.343c-1.064 0-1.707.562-1.927 1.686h3.66c-.052-.517-.234-.924-.546-1.221-.298-.31-.694-.465-1.187-.465zm20.369 1.414v5.735h-2.96v-5.425c0-.53-.09-.93-.273-1.2-.168-.285-.454-.427-.856-.427-.39 0-.707.136-.954.407-.247.271-.37.678-.37 1.22v5.425h-2.959v-5.425c0-.53-.09-.93-.272-1.2-.17-.285-.455-.427-.857-.427-.39 0-.708.136-.954.407-.246.271-.37.678-.37 1.22v5.425h-2.842v-8.912h2.842v1.317c.26-.49.604-.865 1.032-1.123.428-.272.947-.407 1.557-.407.701 0 1.26.122 1.675.368.428.245.727.613.895 1.104a3.456 3.456 0 011.207-1.085c.48-.258 1.026-.387 1.635-.387 1.039 0 1.765.297 2.181.891.428.594.642 1.427.642 2.5zm5.223 9.997h-2.94V16.787h2.94v1.434a3.49 3.49 0 011.246-1.28c.52-.31 1.123-.464 1.81-.464.727 0 1.415.18 2.064.542.65.35 1.175.879 1.577 1.59.415.71.623 1.588.623 2.634 0 1.046-.208 1.925-.623 2.635-.402.698-.928 1.227-1.577 1.589a4.176 4.176 0 01-2.064.542c-.687 0-1.29-.148-1.81-.445a3.639 3.639 0 01-1.246-1.298v5.696zm4.225-8.718c0-.697-.215-1.233-.643-1.608a2.162 2.162 0 00-1.499-.562c-.325 0-.649.084-.973.252-.325.155-.59.394-.799.717-.207.31-.31.71-.31 1.201 0 .478.103.878.31 1.201.208.323.474.569.799.736.324.155.648.233.973.233.584 0 1.084-.187 1.5-.562.427-.374.642-.91.642-1.608zm9.426 4.65c-1.051 0-1.96-.187-2.726-.562a4.267 4.267 0 01-1.752-1.627c-.415-.698-.622-1.518-.622-2.461 0-1.447.447-2.583 1.343-3.41.896-.826 2.129-1.24 3.699-1.24 1.544 0 2.732.394 3.562 1.182.844.788 1.266 1.899 1.266 3.332v.407c0 .13-.006.246-.019.349h-6.834c.078.607.292 1.079.642 1.414.351.336.812.504 1.383.504 1.038 0 1.778-.387 2.219-1.162l2.648.639c-.948 1.757-2.551 2.635-4.809 2.635zm-.116-7.343c-1.065 0-1.707.562-1.928 1.686h3.66c-.052-.517-.234-.924-.545-1.221-.298-.31-.695-.465-1.187-.465zm12.191 1.279a1.928 1.928 0 00-.506-.368 1.357 1.357 0 00-.642-.136c-.428 0-.779.168-1.052.504-.259.335-.389.826-.389 1.472v4.398h-2.901v-8.912h2.901v1.124a3.258 3.258 0 011.013-.97 2.36 2.36 0 011.246-.367c.324 0 .636.07.934.213.299.13.526.303.681.523l-1.285 2.519zm2.339-6.374c0-.466.162-.847.487-1.144.337-.297.746-.445 1.227-.445.48 0 .882.148 1.206.445.338.297.507.678.507 1.143 0 .466-.169.847-.507 1.144-.324.284-.726.426-1.206.426-.481 0-.89-.142-1.227-.426-.325-.297-.487-.678-.487-1.143zm.272 3.332h2.863v8.912h-2.863v-8.912zm11.412-4.65h3.29v10.733h5.471v2.83h-8.761V12.135zm9.468 9.106c0-.943.221-1.763.662-2.46a4.636 4.636 0 011.83-1.628c.779-.387 1.655-.581 2.628-.581.987 0 1.863.194 2.629.581a4.5 4.5 0 011.81 1.628c.454.697.681 1.517.681 2.46 0 .93-.227 1.744-.681 2.441a4.5 4.5 0 01-1.81 1.628c-.766.387-1.642.581-2.629.581-.973 0-1.849-.194-2.628-.581a4.637 4.637 0 01-1.83-1.628c-.441-.697-.662-1.511-.662-2.44zm3.037 0c0 .685.202 1.227.604 1.627.415.4.908.601 1.479.601.571 0 1.058-.2 1.461-.6.415-.4.622-.943.622-1.628 0-.684-.207-1.227-.622-1.627a1.966 1.966 0 00-1.461-.62c-.571 0-1.064.206-1.479.62-.402.4-.604.943-.604 1.627zm8.622 5.095h2.862c.052.556.259.97.623 1.24.363.272.831.407 1.401.407.623 0 1.149-.206 1.577-.62.442-.413.662-1.033.662-1.86V24.11c-.714 1.034-1.739 1.55-3.076 1.55a4.428 4.428 0 01-2.063-.503c-.649-.336-1.175-.84-1.577-1.511-.403-.685-.603-1.525-.603-2.52 0-1.007.2-1.846.603-2.518.402-.672.928-1.175 1.577-1.511a4.427 4.427 0 012.063-.504c1.337 0 2.362.517 3.076 1.55v-1.356h2.823v8.718c0 1.15-.22 2.08-.662 2.79a3.854 3.854 0 01-1.791 1.55c-.74.323-1.564.485-2.472.485-1.116 0-2.032-.168-2.745-.504-.714-.336-1.253-.807-1.616-1.414-.364-.595-.584-1.286-.662-2.074zm2.901-5.211c0 .697.207 1.233.622 1.608.429.374.935.562 1.519.562.338 0 .662-.078.974-.233.324-.168.59-.413.798-.736.208-.323.311-.723.311-1.201 0-.491-.103-.892-.311-1.202a1.932 1.932 0 00-.798-.716 2.027 2.027 0 00-.974-.252c-.584 0-1.09.187-1.519.562-.415.374-.622.91-.622 1.608zm9.137-7.672c0-.466.162-.847.487-1.144.337-.297.746-.445 1.227-.445.48 0 .882.148 1.206.445.338.297.507.678.507 1.143 0 .466-.169.847-.507 1.144-.324.284-.726.426-1.206.426-.481 0-.89-.142-1.227-.426-.325-.297-.487-.678-.487-1.143zm.272 3.332h2.862v8.912h-2.862v-8.912zm5.771 5.677c.687.568 1.271.955 1.752 1.162.492.194.895.29 1.206.29.584 0 .876-.232.876-.697 0-.284-.135-.51-.408-.678-.273-.18-.773-.387-1.499-.62a7.2 7.2 0 01-1.208-.542 2.8 2.8 0 01-.953-.872c-.247-.362-.37-.827-.37-1.395 0-.814.318-1.434.954-1.86.636-.44 1.434-.659 2.394-.659.766 0 1.467.13 2.103.388a7.673 7.673 0 011.733.93l-1.052 1.918a4.764 4.764 0 00-1.285-.872c-.48-.233-.921-.349-1.323-.349-.26 0-.461.052-.604.155a.495.495 0 00-.195.407c0 .297.176.517.526.659l1.538.6c.467.168.895.362 1.285.581.389.22.701.498.934.834.247.335.37.781.37 1.337 0 .942-.292 1.66-.876 2.15-.584.49-1.415.736-2.492.736-.973 0-1.836-.155-2.589-.465a9.128 9.128 0 01-2.044-1.2l1.227-1.938zm7.34-5.677h1.577v-3.1h2.842v3.1h1.577v2.422h-1.577v6.49h-2.842v-6.49h-1.577v-2.422zm7.074-3.332c0-.466.162-.847.487-1.144.337-.297.746-.445 1.226-.445s.883.148 1.207.445c.338.297.506.678.506 1.143 0 .466-.168.847-.506 1.144-.324.284-.727.426-1.207.426-.48 0-.889-.142-1.226-.426-.325-.297-.487-.678-.487-1.143zm.273 3.332h2.861v8.912h-2.861v-8.912zm7.755 4.456c0 .71.233 1.272.701 1.686.467.413 1.031.62 1.693.62.532 0 1.039-.11 1.519-.33.48-.232.85-.562 1.109-.988v2.848c-.311.246-.701.446-1.168.6-.467.143-1.038.214-1.713.214-.999 0-1.888-.194-2.667-.581a4.604 4.604 0 01-1.849-1.628c-.442-.697-.662-1.511-.662-2.441 0-.943.22-1.757.662-2.441a4.603 4.603 0 011.849-1.628c.779-.387 1.668-.58 2.667-.58.675 0 1.246.077 1.713.232.467.142.857.323 1.168.542v2.867c-.259-.426-.642-.749-1.148-.968a3.702 3.702 0 00-1.48-.33c-.441 0-.843.104-1.206.31a2.292 2.292 0 00-.876.814 2.253 2.253 0 00-.312 1.182zm7.615 1.221c.688.568 1.272.955 1.752 1.162.494.194.896.29 1.207.29.584 0 .876-.232.876-.697 0-.284-.136-.51-.408-.678-.273-.18-.772-.387-1.499-.62a7.154 7.154 0 01-1.207-.542c-.39-.22-.707-.51-.954-.872s-.37-.827-.37-1.395c0-.814.318-1.434.954-1.86.636-.44 1.434-.659 2.394-.659.766 0 1.467.13 2.103.388a7.673 7.673 0 011.733.93l-1.052 1.918a4.78 4.78 0 00-1.285-.872c-.48-.233-.921-.349-1.324-.349-.259 0-.46.052-.603.155a.494.494 0 00-.194.407c0 .297.175.517.525.659l1.538.6c.467.168.895.362 1.285.581.389.22.701.498.935.834.246.335.369.781.369 1.337 0 .942-.292 1.66-.876 2.15-.584.49-1.415.736-2.492.736-.973 0-1.836-.155-2.589-.465a9.106 9.106 0 01-2.044-1.2l1.226-1.938zm14.521-10.327h3.29v10.733h5.47v2.83h-8.76V12.135zm8.942 4.65h1.577v-3.1h2.842v3.1h1.577v2.422h-1.577v6.49h-2.842v-6.49h-1.577v-2.422zm6.723 4.456c0-1.007.201-1.853.604-2.538.402-.698.927-1.22 1.576-1.57a4.176 4.176 0 012.064-.542c1.324 0 2.349.543 3.077 1.628v-7.634h2.939v15.112h-2.939v-1.433c-.728 1.084-1.753 1.627-3.077 1.627a4.297 4.297 0 01-2.064-.523c-.649-.362-1.174-.891-1.576-1.589-.403-.697-.604-1.543-.604-2.538zm3.096 0c0 .698.207 1.253.623 1.666.428.414.934.62 1.518.62.337 0 .662-.09.974-.271.324-.18.59-.44.798-.775.207-.349.312-.762.312-1.24 0-.49-.105-.904-.312-1.24a2.184 2.184 0 00-.798-.775 1.917 1.917 0 00-.974-.271c-.584 0-1.09.207-1.518.62-.416.413-.623.969-.623 1.666z"/><defs><radialGradient id="la" cx="0" cy="0" r="1" gradientUnits="userSpaceOnUse" gradientTransform="matrix(0 18.0077 -18.7027 0 18.725 18.992)"><stop stop-color="#9684B4"/><stop offset=".375" stop-color="#6F5E8B"/><stop offset=".696" stop-color="#564277"/><stop offset=".938" stop-color="#483369"/></radialGradient><radialGradient id="lb" cx="0" cy="0" r="1" gradientUnits="userSpaceOnUse" gradientTransform="matrix(-8.72007 10.77607 -11.15963 -9.03044 18.725 22.763)"><stop stop-color="#fff"/><stop offset=".781" stop-color="#fff" stop-opacity="0"/></radialGradient><radialGradient id="lc" cx="0" cy="0" r="1" gradientUnits="userSpaceOnUse" gradientTransform="matrix(0 15.2212 -15.8087 0 18.725 23.168)"><stop stop-color="#fff"/><stop offset=".849" stop-color="#fff" stop-opacity="0"/></radialGradient><radialGradient id="ld" cx="0" cy="0" r="1" gradientUnits="userSpaceOnUse" gradientTransform="matrix(0 18.0077 -18.7026 0 18.725 18.992)"><stop stop-color="#9684B4"/><stop offset=".375" stop-color="#6F5E8B"/><stop offset=".696" stop-color="#564277"/><stop offset=".938" stop-color="#483369"/></radialGradient><radialGradient id="le" cx="0" cy="0" r="1" gradientUnits="userSpaceOnUse" gradientTransform="matrix(-8.72007 10.77607 -11.15963 -9.03044 18.725 22.763)"><stop stop-color="#fff"/><stop offset=".781" stop-color="#fff" stop-opacity="0"/></radialGradient><radialGradient id="lf" cx="0" cy="0" r="1" gradientUnits="userSpaceOnUse" gradientTransform="matrix(0 15.2212 -15.8086 0 18.725 23.168)"><stop stop-color="#fff"/><stop offset=".849" stop-color="#fff" stop-opacity="0"/></radialGradient><radialGradient id="lg" cx="0" cy="0" r="1" gradientUnits="userSpaceOnUse" gradientTransform="matrix(0 18.0077 -18.7026 0 18.725 18.992)"><stop stop-color="#9684B4"/><stop offset=".375" stop-color="#6F5E8B"/><stop offset=".696" stop-color="#564277"/><stop offset=".938" stop-color="#483369"/></radialGradient><radialGradient id="lh" cx="0" cy="0" r="1" gradientUnits="userSpaceOnUse" gradientTransform="matrix(-8.72007 10.77607 -11.15963 -9.03044 18.725 22.763)"><stop stop-color="#fff"/><stop offset=".781" stop-color="#fff" stop-opacity="0"/></radialGradient><radialGradient id="li" cx="0" cy="0" r="1" gradientUnits="userSpaceOnUse" gradientTransform="matrix(0 15.2212 -15.8086 0 18.725 23.168)"><stop stop-color="#fff"/><stop offset=".849" stop-color="#fff" stop-opacity="0"/></radialGradient></defs></svg><svg viewBox="0 0 14 24" id="icon-long-arr" xmlns="http://www.w3.org/2000/svg"><path d="M13 17l-6 6-6-6"/><path d="M13 17l-6 6-6-6m6 6V1"/></svg><svg viewBox="0 0 17 18" id="icon-play" xmlns="http://www.w3.org/2000/svg"><path d="M17 9L0 0v18l17-9z"/></svg><svg class="obi obi-plus" viewBox="0 0 16 16" id="icon-plus" xmlns="http://www.w3.org/2000/svg"><path d="M8 4a.5.5 0 01.5.5v3h3a.5.5 0 010 1h-3v3a.5.5 0 01-1 0v-3h-3a.5.5 0 010-1h3v-3A.5.5 0 018 4z"/></svg><svg viewBox="0 0 86 74" id="icon-quotes" xmlns="http://www.w3.org/2000/svg"><path d="M86 37V0H49.143v37h24.571c0 13.6-11.023 24.667-24.571 24.667V74C69.467 74 86 57.403 86 37zM0 61.667V74c20.324 0 36.857-16.597 36.857-37V0H0v37h24.571c0 13.6-11.023 24.667-24.571 24.667z"/></svg><svg class="qbi qbi-search" viewBox="0 0 16 16" id="icon-search" xmlns="http://www.w3.org/2000/svg"><path d="M11.742 10.344a6.5 6.5 0 10-1.397 1.398h-.001c.03.04.062.078.098.115l3.85 3.85a1 1 0 001.415-1.414l-3.85-3.85a1.007 1.007 0 00-.115-.1zM12 6.5a5.5 5.5 0 11-11 0 5.5 5.5 0 0111 0z"/></svg><svg viewBox="0 0 75 46" id="icon-ship" xmlns="http://www.w3.org/2000/svg"><path d="M.52 25.06a2.648 2.648 0 011.686-1.064v-2.287a2.659 2.659 0 012.508-2.658v-2.262a1.103 1.103 0 01-.954-1.096c0-2.74 2.215-4.97 4.938-4.97h3.63V7.884H9.723a1.103 1.103 0 01-1.098-1.106c0-.61.492-1.106 1.098-1.106h2.603V4.31h-1.019a1.102 1.102 0 01-1.099-1.106c0-.61.492-1.106 1.099-1.106h1.02v-.991c0-.61.49-1.106 1.098-1.106.607 0 1.098.495 1.098 1.106v.991h1.02c.607 0 1.098.495 1.098 1.106 0 .61-.491 1.106-1.098 1.106h-1.02v1.363h2.603c.607 0 1.099.495 1.099 1.106 0 .61-.492 1.106-1.099 1.106h-2.603v2.838h3.63c2.723 0 4.938 2.23 4.938 4.971 0 .562-.416 1.024-.954 1.096v2.262a2.659 2.659 0 012.507 2.658v2.446a3.122 3.122 0 011.785 1.734l1.69 4.08c.172.417.64.835 1.1.835 16.609-.002 22.97 0 26.787 0 2.036 0 1.887-2.444 2.922-4.412.62-1.715.62-2.437 3.803-2.437h9.774c.673 0 1.312.326 1.71.873a2.15 2.15 0 01.313 1.905l-2.02 6.433a1.1 1.1 0 01-1.38.721 1.108 1.108 0 01-.716-1.388l1.99-6.333H61.785a.93.93 0 00-.874.621L59.55 30.66a3.13 3.13 0 01-2.945 2.095h-27.63a3.114 3.114 0 01-2.884-1.936l-1.69-4.079a.923.923 0 00-.854-.573H11.9a1.102 1.102 0 01-1.1-1.107c0-.61.492-1.105 1.099-1.105h10.548v-2.246a.453.453 0 00-.45-.453H4.853a.453.453 0 00-.451.453v2.246h2.454c.607 0 1.1.495 1.1 1.105s-.493 1.106-1.1 1.106H2.681a.472.472 0 00-.389.2.477.477 0 00-.07.431l3.123 9.881c.107.341.246.68.414 1.004.025.049.045.098.062.148.317.177.667.28 1.186.28.904 0 1.297-.313 1.891-.785.707-.563 1.587-1.264 3.256-1.264 1.668 0 2.548.7 3.254 1.264.594.472.987.785 1.892.785.904 0 1.297-.312 1.89-.785.707-.563 1.587-1.264 3.256-1.264 1.668 0 2.548.7 3.255 1.264.594.472.986.785 1.89.785.905 0 1.298-.312 1.892-.785.707-.563 1.586-1.264 3.255-1.264 1.668 0 2.547.7 3.254 1.264.594.472.986.785 1.89.785.905 0 1.297-.312 1.891-.785.707-.563 1.587-1.264 3.255-1.264 1.669 0 2.548.7 3.254 1.264.595.472.987.785 1.892.785.904 0 1.297-.312 1.891-.785.707-.563 1.586-1.264 3.254-1.264 1.669 0 2.548.7 3.255 1.264.594.473.987.785 1.891.785.905 0 1.297-.312 1.891-.785.707-.563 1.586-1.264 3.254-1.264 1.669 0 2.548.7 3.255 1.264.594.472.987.785 1.89.785.905 0 1.298-.312 1.892-.785.706-.563 1.586-1.264 3.254-1.264.607 0 1.099.496 1.099 1.106 0 .611-.492 1.106-1.099 1.106-.904 0-1.297.313-1.89.786-.707.563-1.587 1.263-3.255 1.263s-2.548-.7-3.255-1.263c-.594-.473-.986-.786-1.89-.786-.905 0-1.297.313-1.892.786-.706.563-1.585 1.263-3.254 1.263s-2.547-.7-3.254-1.263c-.595-.473-.987-.786-1.892-.786-.904 0-1.296.313-1.89.786-.708.563-1.587 1.263-3.255 1.263-1.669 0-2.548-.7-3.255-1.263-.594-.473-.987-.786-1.891-.786s-1.297.313-1.891.786c-.707.562-1.586 1.263-3.254 1.263-1.669 0-2.548-.7-3.255-1.263-.594-.473-.986-.786-1.89-.786-.905 0-1.298.313-1.892.786-.706.563-1.586 1.263-3.254 1.263-1.669 0-2.548-.7-3.255-1.263-.594-.473-.987-.786-1.891-.786-.905 0-1.297.313-1.892.786-.706.563-1.586 1.263-3.254 1.263-1.669 0-2.548-.7-3.255-1.263-.595-.473-.987-.786-1.891-.786-.905 0-1.297.313-1.893.786-.706.563-1.586 1.263-3.254 1.263-1.669 0-2.548-.7-3.255-1.263-.594-.473-.987-.786-1.892-.786a1.102 1.102 0 01-1.1-1.106c0-.61.492-1.105 1.099-1.105.377 0 .712.037 1.015.099L.128 27.468A2.684 2.684 0 01.52 25.06zm17.634-12.126H8.698a2.746 2.746 0 00-2.512 1.654h14.48a2.746 2.746 0 00-2.512-1.654zm1.786 6.11V16.8H6.911v2.245h13.03zM1.86 41.638c1.669 0 2.548.7 3.255 1.263.595.473.987.786 1.892.786.905 0 1.298-.313 1.892-.786.707-.563 1.586-1.263 3.255-1.263 1.668 0 2.548.7 3.254 1.263.594.473.987.786 1.892.786.904 0 1.297-.313 1.891-.786.707-.563 1.586-1.263 3.255-1.263 1.668 0 2.548.7 3.255 1.263.594.473.986.786 1.89.786.905 0 1.298-.313 1.892-.786.707-.563 1.586-1.263 3.255-1.263 1.668 0 2.548.7 3.254 1.263.594.473.987.786 1.89.786.905 0 1.297-.313 1.892-.786.706-.563 1.586-1.263 3.254-1.263 1.669 0 2.548.7 3.255 1.263.594.473.986.786 1.891.786s1.297-.313 1.891-.786c.707-.563 1.586-1.263 3.255-1.263 1.668 0 2.547.7 3.254 1.263.594.473.987.786 1.891.786.905 0 1.297-.313 1.891-.786.707-.563 1.586-1.263 3.255-1.263 1.668 0 2.547.7 3.254 1.263.594.473.987.786 1.891.786s1.297-.313 1.891-.786c.707-.563 1.586-1.263 3.254-1.263.608 0 1.099.495 1.099 1.106 0 .61-.492 1.106-1.099 1.106-.904 0-1.297.312-1.89.786-.707.562-1.587 1.262-3.255 1.262s-2.548-.7-3.255-1.263c-.594-.473-.986-.785-1.89-.785-.905 0-1.297.312-1.891.786-.707.562-1.586 1.262-3.255 1.262-1.668 0-2.547-.7-3.254-1.262-.595-.474-.987-.786-1.891-.786-.905 0-1.297.312-1.891.786-.707.562-1.587 1.262-3.255 1.262-1.669 0-2.548-.7-3.255-1.262-.594-.474-.986-.786-1.89-.786-.906 0-1.298.312-1.892.785-.707.563-1.586 1.263-3.254 1.263-1.669 0-2.548-.7-3.254-1.263-.595-.473-.987-.785-1.891-.785s-1.297.312-1.892.786c-.706.562-1.586 1.262-3.254 1.262-1.669 0-2.548-.7-3.255-1.262-.594-.474-.986-.786-1.891-.786s-1.297.312-1.892.786c-.706.562-1.586 1.262-3.254 1.262-1.669 0-2.548-.7-3.255-1.262-.594-.474-.987-.786-1.891-.786-.905 0-1.297.312-1.892.786-.707.562-1.586 1.262-3.255 1.262-1.669 0-2.548-.7-3.255-1.262-.594-.474-.987-.786-1.892-.786a1.102 1.102 0 01-1.098-1.106c0-.61.491-1.106 1.098-1.106z"/></svg><svg viewBox="0 0 75 46" id="icon-train" xmlns="http://www.w3.org/2000/svg"><path d="M43 18H4v23h39V18zM13 41V18M1 41v-2m45 0v2M4 40H2m41 0h2m-25 1V18m7 23V18m7 23V18m6 24c0 1.65-1.35 3-3 3s-3-1.35-3-3m-21 0c0 1.65-1.35 3-3 3s-3-1.35-3-3"/></svg></svg>